<?xml version="1.0" encoding="UTF-8" standalone="no"?>
    <svg xmlns="http://www.w3.org/2000/svg"
        width="1200"
        height="1200"
        viewBox="0 0 1200 1200">
    <g transform="translate(85.7143,869.5238) scale(0.95238095, -0.95238095)">
        <path d="M493 724 564 704Q604 692 604 686V681Q578 658 574 623Q562 608 551 524V479Q551 477 546 459V436L549 431Q589 456 599 456H610Q668 440 668 433Q630 378 617 378Q612 369 549 302Q536 297 536 282L541 279Q542 284 546 284H559Q584 284 673 229Q678 229 741 198Q783 183 787 183H837Q916 162 916 143L908 138H898Q889 138 878 148H807Q797 148 744 173Q727 173 685 193Q637 217 572 259Q550 264 539 274L536 269V135Q536 133 541 115V-7Q547 -48 551 -62Q546 -70 546 -80L549 -98L546 -103L549 -108Q546 -121 546 -130V-141Q556 -142 556 -148Q553 -158 549 -158Q540 -158 513 -146Q452 -146 410 54Q412 59 412 62H420Q448 5 448 -17Q453 -20 473 -72Q470 -77 470 -80Q502 -95 508 -95Q508 -93 511 -93Q506 -84 506 -77V246Q506 251 501 251H498Q496 231 427 203H422Q404 208 402 208H392Q388 208 384 201V170Q384 168 390 150V145Q390 142 382 138Q347 145 347 150Q344 155 344 158H324V170L334 221V239H326Q299 209 271 170Q261 170 243 135Q225 112 215 112Q178 120 172 125V133Q229 200 271 229Q271 236 326 297Q326 303 349 327V355H334Q334 349 299 327Q299 322 256 299Q256 289 192 272H187L164 287V289Q164 294 197 297Q297 348 349 388V408L339 421L326 418Q311 424 311 428V431Q312 436 316 436H349V439Q349 445 344 454Q344 456 354 469Q351 507 336 507Q332 509 329 509V519L341 522H367Q410 512 410 504Q390 484 390 474V446Q390 441 395 441Q404 453 410 487Q424 515 440 588Q449 588 453 643Q460 643 470 714ZM508 689H496Q470 640 470 631L450 560Q439 521 430 502Q430 482 410 413V403L435 385Q438 385 440 378Q415 352 415 342L420 340Q420 345 440 353Q467 385 473 385Q479 385 498 401Q511 401 511 423V474Q511 476 516 494V535Q516 537 521 555V585Q531 627 534 659Q537 659 541 681V689L524 694Q515 689 508 689ZM531 353Q534 348 534 342L531 337L536 335H541Q545 349 582 390L602 423L597 426H589Q541 409 541 390Q541 373 531 353ZM501 388Q501 373 433 327Q390 295 390 272V234H397Q443 243 503 307Q506 311 506 317V388Z" fill="#000000" />
    </g>
    </svg>
    