<?xml version="1.0" encoding="UTF-8" standalone="no"?>
    <svg xmlns="http://www.w3.org/2000/svg"
        width="1200"
        height="1200"
        viewBox="0 0 1200 1200">
    <g transform="translate(150.3212,814.0471) scale(0.89935760, -0.89935760)">
        <path d="M479 705Q529 688 530 683L525 661L528 644L525 639Q528 635 528 630L520 620Q530 607 532 574Q535 574 535 572Q530 564 530 557Q545 515 545 509Q540 492 540 489V485Q549 472 549 470Q545 462 545 456Q554 447 574 361Q582 361 595 364L610 356Q614 359 617 359Q639 355 639 349V344Q636 337 624 337H583V335Q593 303 593 301V289Q603 288 603 282V257Q615 244 615 223L612 219Q626 191 634 151Q638 150 651 110Q659 83 675 57Q687 23 687 20Q699 -5 709 -35Q723 -41 726 -71Q755 -88 755 -105L764 -113L772 -108H774Q797 -108 820 -180L849 -216Q849 -223 837 -229Q779 -209 779 -185Q683 -61 615 144L588 216Q580 240 576 240Q576 233 537 194L513 202H486V192Q540 180 547 180Q554 168 554 163Q523 148 518 129Q518 124 489 122L486 117V100Q475 100 450 69Q386 13 368 13Q360 18 354 18H325Q293 24 293 49Q310 114 339 151Q348 160 380 223Q392 228 409 274H414V289H402Q393 281 361 272Q361 267 320 253Q320 245 274 226Q263 213 235 194Q235 187 204 178Q166 183 153 194V202Q223 215 247 248Q307 293 341 347Q344 347 354 361L399 419L404 436V439L402 443Q394 439 387 439H354Q341 439 325 453V456Q325 459 334 463Q351 453 358 453Q366 453 426 482Q443 492 450 492H460L477 487L482 494Q477 502 477 509V576Q477 579 472 596Q472 598 477 615V618Q477 627 474 637Q477 646 477 656V659Q477 661 472 678V697Q472 701 479 705ZM711 533Q769 533 818 475Q816 456 810 456Q764 472 764 487Q755 487 709 528ZM499 526 496 521V514L511 436V402Q520 392 520 383V364Q520 357 547 352H549V364Q530 410 530 419Q506 518 501 526ZM291 262V260H296Q305 260 346 289Q361 289 438 320Q489 338 489 344Q491 349 491 354Q486 362 486 369V453H479Q450 419 424 402Q424 393 339 315Q327 290 291 262ZM530 325V267Q530 261 571 255H574L578 257Q569 279 554 332Q553 332 547 337H542Q539 337 530 325ZM470 306 477 296V291Q477 284 453 255Q453 244 428 228Q416 202 409 202V187H416Q470 236 482 236V253Q482 255 486 272V296L491 313L484 318Q470 309 470 306ZM337 59V37H339Q381 44 453 115L484 139Q484 144 506 165Q506 169 499 173H479Q477 173 460 168H436Q415 171 402 182Q388 175 370 139Q356 139 349 91Q342 91 337 59Z" fill="#000000" />
    </g>
    </svg>
    