<?xml version="1.0" encoding="UTF-8" standalone="no"?>
    <svg xmlns="http://www.w3.org/2000/svg"
        width="1200"
        height="1200"
        viewBox="0 0 1200 1200">
    <g transform="translate(249.4157,737.4290) scale(0.70116861, -0.70116861)">
        <path d="M447 795H456Q556 761 556 738Q556 719 539 719V712Q536 690 518 690H511Q511 681 496 674Q496 662 489 662H477Q475 638 461 638Q444 638 425 598Q390 590 363 581V569Q363 566 371 562H375Q465 595 482 595Q510 614 589 636Q594 633 596 633Q596 640 622 647H637Q696 628 696 614Q676 606 656 590Q653 590 637 586H629Q628 574 622 574L610 576Q603 555 591 555Q591 551 584 548Q577 552 570 552H568L563 550L565 545Q565 531 544 524V514H537Q499 507 499 486Q492 486 487 464Q487 461 494 457Q541 498 568 498Q579 498 608 476Q616 476 620 464Q615 448 603 448Q600 448 596 441V424H599Q639 438 658 438Q666 442 717 457H760Q762 457 779 453Q811 462 841 467H855Q915 445 922 434Q915 428 915 424H903Q886 429 884 429H874L867 424H850Q844 424 836 419L827 424L822 422Q809 424 801 424Q801 414 774 410H770Q760 410 746 424Q728 403 713 403Q708 414 703 415Q696 395 668 386Q636 367 603 360V365Q604 370 675 405V407Q652 410 639 415Q629 398 608 398Q608 392 580 388Q576 372 558 372V365Q540 322 518 322Q503 293 480 293L477 289Q480 285 480 279Q461 263 458 263V255Q458 238 418 215Q416 215 416 213V210L418 206Q451 220 456 220H475Q482 220 489 215Q495 215 511 234L575 293Q587 293 589 322L594 324L610 320L625 322Q628 313 660 303V298L658 293Q661 273 691 239Q698 239 732 208Q750 201 796 165V156Q772 139 758 139Q742 139 727 129L717 134Q663 112 663 106Q663 102 658 94L663 84Q658 77 658 70V46Q658 38 649 27L653 20V15L649 8L653 -1Q653 -3 644 -15Q653 -25 653 -34V-77Q653 -94 639 -94V-103Q646 -103 646 -108Q646 -112 639 -115Q644 -124 649 -144L629 -158L644 -179V-182L639 -189Q644 -190 644 -194V-198Q637 -198 629 -241Q633 -241 637 -248Q637 -255 629 -267Q633 -279 639 -310Q634 -327 634 -329V-334Q634 -340 639 -348Q634 -356 634 -362V-381Q634 -386 629 -386Q622 -369 622 -367Q625 -354 625 -346V-339Q620 -322 620 -320Q620 -313 625 -305Q620 -298 620 -291V-263Q615 -246 615 -244V-213Q615 -204 613 -191L615 -187Q615 -184 613 -184L615 -160V-153Q610 -136 610 -134V-72Q606 -56 606 -53V-11Q606 -4 610 4Q606 11 606 18V101H599Q597 101 580 96H568Q568 87 551 77Q534 77 534 91H527Q511 96 508 96H506Q506 90 496 80Q496 58 489 58H473Q473 43 449 27Q449 12 435 -8Q435 -21 413 -25Q413 -34 385 -42Q377 -37 373 -37L361 -39Q356 -39 337 -20Q313 -11 313 -8V-6Q329 25 332 25Q336 38 366 75Q398 127 463 182V194H461Q453 186 413 175Q408 165 349 125Q349 119 306 82Q278 37 256 37Q235 58 218 58Q214 58 214 63Q300 144 344 170Q360 195 387 213Q387 221 416 241Q416 254 447 282Q449 282 482 329Q486 329 506 360V367H480Q462 353 451 353H430Q430 343 423 343H406Q406 335 378 324Q378 322 375 322Q370 322 366 324Q341 310 304 301H297Q295 286 233 265Q229 258 190 239Q190 229 176 229H164Q164 215 147 215H128Q122 215 97 232Q78 234 78 241Q104 261 126 286H157Q165 294 188 303Q188 313 228 327Q228 334 259 343Q259 355 278 362L385 434Q393 429 399 429H401Q401 446 425 455Q449 489 449 507V510Q443 510 430 514Q430 510 425 510H411V514Q411 518 442 533Q480 519 494 510Q512 516 575 576Q608 601 610 607Q610 610 603 614H594Q561 609 561 600Q527 593 527 590Q501 576 494 576H489Q483 576 475 581Q475 569 435 552H420Q420 542 387 529Q387 516 347 507Q343 507 321 529Q302 529 302 536Q305 546 359 588Q359 596 378 602Q378 606 425 650Q435 669 449 669Q449 674 477 704Q501 746 501 754V759Q501 763 458 783Q442 786 442 790Q443 795 447 795ZM563 467Q563 462 506 422Q506 419 496 407Q496 404 504 400Q546 405 546 424Q549 424 568 455V462Q568 467 563 467ZM344 381V377L347 372Q392 402 392 415L385 419Q355 381 344 381ZM211 293 216 291H218L340 346Q349 346 354 355Q343 357 328 372H318Q294 346 275 346Q275 331 240 324Q240 312 221 308Q221 305 211 293ZM570 358H572V350H565V353Q566 358 570 358ZM663 232V213L653 160Q653 157 665 148Q743 165 753 177Q717 208 682 232Q682 235 675 239H670Q666 239 663 232ZM534 198Q537 186 537 184Q534 180 534 177Q540 172 542 172Q568 219 568 227V234H561Q557 234 546 210Q534 206 534 198ZM568 127Q570 127 570 125Q591 134 601 134V151Q601 153 606 170V186H599Q596 186 580 153Q573 153 568 127ZM477 158Q477 143 425 101Q420 101 406 82L401 80L404 75V72Q396 65 390 42Q385 39 382 39V32Q382 29 399 15Q446 70 449 72Q449 77 477 125Q477 135 487 156L482 158ZM634 -391 637 -396V-403H629V-396Q630 -391 634 -391Z" fill="#000000" />
    </g>
    </svg>
    