<?xml version="1.0" encoding="UTF-8" standalone="no"?>
<svg xmlns="http://www.w3.org/2000/svg"
     width="1000"
     height="572"
     viewBox="0 0 1000 572">
  <g transform="translate(290.0000,414.5800) scale(0.42000000, -0.42000000)">
    <path d="M269 749 322 721Q327 685 371 637V629Q364 621 318 601Q307 589 288 506V350Q289 342 296 342L409 466Q401 479 401 486Q410 493 443 498Q477 524 477 530Q424 543 424 553V569Q424 575 435 581Q462 581 462 557H549L662 581H700Q720 581 737 553V546Q683 500 632 422H620V410Q613 360 594 342L556 286Q539 286 481 239Q447 239 447 195V107Q447 61 545 43L586 31H601Q605 31 632 39H684Q695 39 707 31Q714 35 722 35L730 31Q749 43 760 43L767 39Q867 71 877 71Q883 80 892 123V187Q892 198 873 282L881 286Q917 271 926 151Q945 109 945 99V67Q940 27 881 27Q881 18 767 -8H609Q483 15 424 67Q397 67 379 211V219L401 362V398H386Q386 389 311 294Q311 283 288 259V-20Q288 -24 296 -52V-60Q288 -89 288 -92Q296 -105 296 -116V-124Q296 -130 284 -136Q148 -77 148 -16Q131 8 114 147Q115 161 179 215Q179 222 235 271L243 298V498Q243 501 250 530V565H247L88 494Q54 502 54 518Q112 540 239 605H250V697Q259 749 269 749ZM296 649V637H307L333 645V661H307Q301 661 296 649ZM564 526H484Q467 482 454 466V418Q454 388 484 350Q486 334 496 334Q501 334 507 346V402Q507 406 515 434V458Q503 498 503 510H518Q550 510 560 458V398H575Q575 417 616 466Q635 505 666 538V549H662Q621 534 564 526ZM235 215Q208 187 194 151Q152 140 152 107V75Q186 -41 224 -68Q228 -76 228 -80H250V-68Q243 -40 243 -36V207Q243 215 235 215Z" fill="#000000" />
  </g>
</svg>
