<?xml version="1.0" encoding="UTF-8" standalone="no"?>
    <svg xmlns="http://www.w3.org/2000/svg"
        width="1000"
        height="1000"
        viewBox="0 0 1000 1000">
    <g transform="translate(215.8570,645.7654) scale(0.56828598, -0.56828598)">
        <path d="M493 772H510Q518 772 524 746V622Q518 602 518 599V562H527Q578 608 578 619H586L631 605V599Q631 587 603 557Q603 535 586 497V460H606Q609 460 629 466H645Q669 466 685 446V440Q684 436 643 421L600 381Q571 368 529 330Q517 330 507 310V180L510 174Q542 174 586 200L640 217Q662 207 662 203V197Q637 182 637 177H634L623 183Q558 143 532 143H507V112Q507 88 541 75Q541 69 572 44Q572 28 634 2Q638 2 643 -7Q639 -32 617 -32H583Q576 -32 575 -21H552Q462 -8 388 41Q362 41 289 121L224 75Q223 65 167 41Q68 -35 31 -35Q31 -38 28 -38Q17 -34 17 -30V-27L79 4Q89 18 176 72Q176 77 246 129Q246 138 263 138L260 157Q306 181 306 186Q454 305 484 341V489H473Q473 479 413 418Q394 367 391 336Q387 336 382 327V322Q382 319 388 299Q383 273 365 273Q357 294 345 296Q336 290 331 290Q328 296 328 299Q336 312 343 344V347H334L317 322Q279 294 269 271Q258 271 235 239H215Q206 239 176 262V265Q193 304 212 330Q258 428 258 446V455Q258 460 252 460Q247 449 232 449H226Q187 455 187 460Q187 466 249 483H260Q309 472 309 463Q309 457 286 406Q286 378 263 378Q266 363 266 361L241 310L246 307H249Q264 315 292 350Q351 399 351 423Q354 428 354 435V514L348 540H334Q328 540 328 545V548Q336 562 351 562Q388 552 388 534H399Q439 650 493 772ZM405 474V466Q406 460 411 460Q441 494 484 523V531Q484 534 490 554V673Q490 675 495 695Q495 699 487 704Q481 704 473 673Q464 673 453 613Q439 598 416 508Q411 508 405 474ZM512 503V480Q512 437 510 361H512Q551 401 586 429Q586 435 546 449L541 469V486Q541 492 558 554V565H555Q512 514 512 503ZM320 152V146Q321 138 357 118Q364 90 396 70Q396 66 413 53H422V55Q416 76 416 78V84Q416 88 425 92Q440 92 456 41H473V67Q473 69 478 89Q454 140 411 188Q413 200 428 200H442Q454 200 476 183L478 188V254L484 273L476 279Q459 279 425 242Q421 233 379 211Q379 200 348 183ZM702 177Q720 177 784 132Q827 126 827 95Q837 65 863 44Q869 35 869 27Q862 7 841 7Q825 7 813 33Q794 33 767 109Q766 116 696 166V171Q697 177 702 177ZM510 70 507 64V50Q507 45 518 13H527Q535 13 555 2L558 7V16Q537 37 510 70Z" fill="#000000" />
    </g>
    </svg>
    