<?xml version="1.0" encoding="UTF-8" standalone="no"?>
<svg xmlns="http://www.w3.org/2000/svg"
     width="1000"
     height="749"
     viewBox="0 0 1000 749">
  <g transform="translate(290.0000,435.5800) scale(0.42000000, -0.42000000)">
    <path d="M784 799Q838 780 845 758Q901 720 910 703Q890 672 886 631Q870 577 861 566V529Q861 526 855 505L861 492L848 461Q855 451 855 443V430Q848 409 848 406Q855 395 855 387Q848 365 848 362V350Q848 342 855 331Q848 321 848 316Q848 313 852 307Q848 290 848 279L855 257Q848 235 848 232V226Q848 218 855 208Q848 197 848 189V158Q848 155 855 133V102Q848 80 848 78V72Q848 69 855 47V-21Q855 -24 861 -46Q855 -56 855 -65V-71Q855 -74 861 -96Q854 -107 848 -133L855 -142V-170Q855 -172 861 -195V-232Q861 -235 855 -256V-263Q855 -266 861 -287V-294Q861 -296 855 -318V-328Q855 -339 858 -355L855 -362Q855 -365 858 -365L855 -396V-423Q835 -507 824 -507H818V-498L830 -436V-405Q830 -402 836 -380Q830 -370 830 -362Q830 -359 836 -337Q830 -327 830 -318V-294Q830 -285 836 -275L833 -269Q836 -252 836 -241V-238Q836 -235 830 -213V-96Q830 -87 824 -77L830 -65Q824 -54 824 -46V-27Q830 -5 830 -3Q830 0 824 22V127Q818 149 818 152Q824 162 824 171Q818 181 818 189V248Q818 259 814 276Q818 280 818 297L811 319V331Q811 340 818 350Q811 360 811 369V505Q811 513 818 523Q818 526 814 526L818 557V597Q831 684 842 715Q842 725 808 746Q808 750 799 755Q787 712 765 700Q760 700 756 709V715Q774 761 774 764V789Q774 794 784 799ZM357 687H375Q449 671 459 653V641Q428 525 378 461Q366 439 366 433Q397 425 397 406V403L360 362L366 359H394Q446 347 446 325V313Q432 286 422 239V235Q423 229 428 229Q436 236 477 322Q524 387 555 424Q576 441 576 449L592 452H598Q625 450 666 409H672Q683 409 691 489Q700 528 715 570H725V461Q725 450 712 437V393Q712 390 706 369V325Q706 322 700 300V201Q700 197 691 192Q670 192 650 220Q632 220 632 226V232Q644 273 644 276V350Q632 421 598 421Q587 415 524 331Q518 328 514 328V319Q514 308 490 276V263Q490 231 548 223Q568 215 570 208V201Q570 180 524 143Q496 78 465 78Q465 70 422 41Q422 30 357 13Q295 26 295 47Q273 47 261 102V155Q261 161 254 161Q254 157 174 109Q151 85 100 47Q100 14 47 3L29 13Q23 10 16 10Q12 10 7 19V22Q7 41 115 140Q167 191 264 300Q270 304 273 304V325Q242 353 242 365Q242 373 217 421Q199 471 186 551Q181 551 180 566Q180 575 196 582Q233 562 233 526Q242 514 245 514Q255 514 264 588Q298 672 323 672Q348 687 357 687ZM378 659Q378 647 369 647H363L357 650Q316 603 316 597Q316 589 292 505V421H301Q345 471 378 542Q384 542 403 628V641Q403 645 384 659ZM372 310Q335 268 335 251V232Q335 228 350 217Q366 229 378 288V304Q378 310 372 310ZM292 285Q263 235 254 235Q236 201 217 201Q186 170 186 158L193 155Q196 163 267 195L298 270V279Q298 285 292 285ZM434 133V115Q434 110 443 106Q484 140 505 186Q510 186 514 195V211H505Q502 211 480 217Q453 209 443 192Q440 157 434 133ZM304 164V121Q310 93 316 93Q339 168 347 177V183Q347 187 338 192Q317 184 304 164Z" fill="#000000" />
  </g>
</svg>
