<?xml version="1.0" encoding="UTF-8" standalone="no"?>
<svg xmlns="http://www.w3.org/2000/svg"
     width="1000"
     height="528"
     viewBox="0 0 1000 528">
  <g transform="translate(290.0000,401.5600) scale(0.42000000, -0.42000000)">
    <path d="M616 287H652Q828 226 828 197Q853 197 937 138Q937 115 923 111Q858 124 720 229Q663 269 607 274V278Q608 287 616 287ZM601 718Q670 700 670 682V677Q638 657 638 650H628V636Q628 607 592 599Q564 525 501 458L455 334Q455 330 464 298V293H423Q373 230 373 225Q373 183 286 133Q240 60 195 60Q186 39 176 37L126 51V69Q157 145 167 147H172Q172 120 185 120H231Q297 191 345 261V284Q345 293 327 293Q397 341 400 353Q435 431 519 549Q519 571 537 590V609Q537 615 523 622H505Q488 604 441 599Q353 629 332 650H341Q356 640 368 640H432Q447 640 601 718ZM464 293H469Q504 293 514 211Q519 211 519 197V184H555V143Q528 94 528 24Q512 -63 487 -63L450 -45L455 1V69Q455 74 464 106Z" fill="#000000" />
  </g>
</svg>
