<?xml version="1.0" encoding="UTF-8" standalone="no"?>
<svg xmlns="http://www.w3.org/2000/svg"
     width="1000"
     height="575"
     viewBox="0 0 1000 575">
  <g transform="translate(290.0000,415.4200) scale(0.42000000, -0.42000000)">
    <path d="M427 751H431Q501 713 515 667V650Q508 626 508 623V576Q501 552 501 549V455Q514 443 518 414Q538 398 552 398Q557 398 589 441Q538 447 538 458Q539 465 545 465H592Q601 465 612 472Q660 449 660 428Q627 408 592 377H589V361Q593 345 643 340Q643 336 653 330H693Q758 322 784 303V300Q784 293 703 266Q595 223 515 202Q481 195 481 155L474 132V85Q468 61 468 58V24Q468 19 478 14Q501 34 609 54Q628 71 663 71L700 41L707 17Q688 17 619 -40Q613 -40 569 -80Q549 -80 515 -114Q508 -114 474 -141H464L461 -128Q475 -112 555 -43Q555 -40 609 10V21H606Q523 -1 511 -16L498 -23Q438 -23 414 31V51L434 159Q434 163 424 169Q411 158 306 122Q301 112 252 98Q241 71 208 71Q169 98 158 98V111Q235 122 347 199Q347 207 441 270V374Q441 377 447 401V509Q427 575 421 630V744Q422 751 427 751ZM447 680 441 670V664Q441 660 447 637V593Q449 586 454 586L461 596V657Q461 675 447 680ZM495 398 481 334V324Q482 317 488 317Q497 336 528 367V381Q528 385 511 398ZM481 260V223L485 216Q592 256 616 256Q640 270 690 283L697 293L626 320Q584 340 572 350H565Q529 324 501 290Q486 290 481 260ZM404 216H394Q394 200 360 179L367 175H377Q434 195 434 206V212Q434 217 424 223Q413 216 404 216Z" fill="#000000" />
  </g>
</svg>
