<?xml version="1.0" encoding="UTF-8" standalone="no"?>
    <svg xmlns="http://www.w3.org/2000/svg"
        width="1000"
        height="1000"
        viewBox="0 0 1000 1000">
    <g transform="translate(215.8570,645.7654) scale(0.56828598, -0.56828598)">
        <path d="M510 784Q520 784 521 770H537Q566 764 567 754V748Q560 734 547 734L528 738Q510 718 482 708Q482 698 424 659Q424 649 392 630Q392 624 337 590Q337 586 279 541Q279 534 263 525L231 492Q231 488 241 482H247Q283 512 306 512L312 509Q339 522 462 554H485V564Q485 567 491 590L490 620Q474 620 474 643L480 646H493Q549 633 549 623Q537 600 537 590V561Q556 561 606 574H639Q641 574 665 581H776Q785 573 812 561Q812 554 846 531Q846 522 820 518Q779 535 685 548H580Q525 543 525 515Q525 498 513 450Q513 446 516 440Q514 422 514 410V397H527Q527 408 546 414Q553 424 553 433L552 479Q559 528 567 528Q599 528 604 499Q598 476 598 473V450H608Q615 450 666 476H699Q709 476 716 446Q697 425 697 420Q691 415 675 384Q652 368 652 358L656 338Q644 279 608 279Q583 279 562 250Q553 249 533 221H530V204Q622 130 653 122Q654 113 683 93Q713 75 736 57Q800 24 805 24Q840 19 855 4Q868 4 891 -25V-28Q891 -35 885 -35Q830 -28 756 8Q623 97 571 139Q555 139 548 162Q544 162 528 175H518V165Q518 162 525 139L526 60Q520 37 520 34L521 1Q521 -2 515 -25V-51Q515 -59 492 -61Q476 -61 452 27L455 34L434 106Q440 117 440 126Q437 126 437 129Q409 121 401 103Q370 76 346 63Q311 32 275 14Q275 2 230 -9H204Q154 4 154 40L153 60Q154 67 160 67H163Q175 67 193 11H203Q276 41 284 50Q343 90 468 201Q484 216 484 230L482 338H472Q427 312 428 279Q413 253 408 253H395Q372 260 369 260Q352 252 341 198L324 194Q282 207 281 230Q302 242 313 302Q319 313 319 322V335Q305 384 269 384Q255 389 255 394V401Q255 405 268 410Q344 387 345 335L348 319Q345 306 346 293V286Q347 279 352 279Q398 314 397 342L395 479Q396 486 401 486H404Q425 486 442 407L443 351H456Q456 365 482 371L480 466Q480 469 486 492L485 528H456L349 495Q349 488 303 482Q303 474 245 450Q245 446 241 446L225 450Q225 446 183 417Q137 440 137 443Q175 467 188 486Q245 540 404 679L449 728V738H446L430 734Q409 734 373 761V767L376 774L409 770H471Q507 784 510 784ZM592 414Q592 411 596 394Q586 378 586 368L587 365H596Q614 378 651 427V446H647Q628 423 608 423Q592 423 592 414ZM510 260H520Q525 260 548 296L547 384H537Q520 377 509 319ZM453 145Q454 128 474 80Q474 60 481 44H494L492 168H488Q468 168 453 145Z" fill="#000000" />
    </g>
    </svg>
    