<?xml version="1.0" encoding="UTF-8" standalone="no"?>
    <svg xmlns="http://www.w3.org/2000/svg"
        width="1000"
        height="1000"
        viewBox="0 0 1000 1000">
    <g transform="translate(215.8570,645.7654) scale(0.56828598, -0.56828598)">
        <path d="M586 635H589Q617 635 660 573L661 547L650 469L652 410Q647 387 647 384L649 332Q649 329 643 306L647 188Q647 185 655 162V136Q669 120 669 117Q669 108 653 100Q604 117 603 140Q590 154 589 169V175L599 247L597 319Q597 322 603 345L598 462L609 527L608 573L586 625ZM320 558Q362 539 363 506L364 486L346 444Q346 436 282 321Q279 314 279 310L289 303Q319 317 366 331H411Q480 317 481 286Q451 231 388 156V145Q397 145 513 104Q527 104 716 18Q752 0 802 -33Q831 -33 878 -82Q898 -89 898 -95Q898 -102 882 -116Q851 -111 823 -88Q818 -88 763 -40Q746 -40 694 -13Q655 4 639 4Q638 17 504 63Q440 94 403 94Q391 114 366 114Q366 119 356 125Q357 121 312 94Q285 61 230 35Q188 8 169 8H117Q33 24 31 83Q30 118 73 180H99Q122 187 125 187H209Q212 187 235 180H267L326 166Q352 166 413 276Q416 276 422 293L416 297H373L281 266Q281 263 265 252Q210 261 209 273Q247 319 292 420Q325 498 324 513V530H320Q317 530 295 524H282Q275 524 275 530V534Q275 541 320 558ZM695 400Q711 400 775 355Q811 336 812 312Q808 296 790 296Q783 296 713 355Q702 355 693 381Q679 381 679 390V397ZM82 94Q89 82 90 73L91 42L115 35H149Q244 61 308 128Q307 137 262 145H139Q81 136 82 94Z" fill="#000000" />
    </g>
    </svg>
    