<?xml version="1.0" encoding="UTF-8" standalone="no"?>
<svg xmlns="http://www.w3.org/2000/svg"
     width="1000"
     height="505"
     viewBox="0 0 1000 505">
  <g transform="translate(290.0000,346.5400) scale(0.42000000, -0.42000000)">
    <path d="M557 587Q610 566 609 553V545Q608 539 585 474Q585 466 589 466Q582 430 568 327Q571 303 570 293Q563 270 562 255Q570 253 570 246Q577 246 730 333Q767 360 792 358Q816 346 815 339V335Q813 317 701 190Q685 191 665 167Q604 142 595 142Q582 152 574 152L565 140L563 115L572 34L585 33Q648 58 685 55Q686 64 715 66L808 60Q883 42 880 16V12Q879 4 836 -2L811 0Q782 10 778 11L761 12Q745 13 674 -12Q627 -24 577 -60Q569 -60 537 -83Q516 -81 492 -114Q435 -139 426 -139L427 -130Q427 -125 576 -22L578 -1L574 0Q562 0 548 -7Q504 -4 501 85L507 157L494 158Q278 13 224 -74Q227 -81 226 -91Q191 -101 187 -101Q180 -91 181 -75L169 -74Q147 -73 144 -60Q151 -37 152 -26L125 154L129 196Q130 207 164 215L171 202V193Q160 164 159 160Q182 32 212 -18L277 50L278 63Q253 64 255 94L264 195Q265 199 259 230L261 255Q272 284 272 288L278 351Q279 367 277 390L282 398Q275 412 276 424L279 458Q271 475 194 506L195 514Q197 523 204 522Q347 476 355 461Q327 428 326 412L311 247L328 246Q329 260 391 288Q399 305 405 304Q411 304 451 293L450 280L356 223Q355 216 337 207L329 208L314 226H309L300 121Q305 78 317 77Q327 76 386 132Q401 130 453 169Q482 179 502 204L519 390Q530 419 530 423L543 575Q544 581 557 587ZM571 212 568 182Q568 176 580 169Q615 166 721 282Q714 287 709 287Q579 211 571 212Z" fill="#000000" />
  </g>
</svg>
