<?xml version="1.0" encoding="UTF-8" standalone="no"?>
<svg xmlns="http://www.w3.org/2000/svg"
     width="1000"
     height="486"
     viewBox="0 0 1000 486">
  <g transform="translate(290.0000,369.2200) scale(0.42000000, -0.42000000)">
    <path d="M468 641Q520 622 525 622V614Q505 554 471 554Q452 531 441 497Q415 497 415 470L407 467H388Q388 438 350 410Q328 394 328 391Q328 379 297 357V349Q347 297 347 232Q350 232 350 220V133H362Q370 133 381 175Q394 183 426 266Q528 436 581 436H596Q628 406 631 383H642Q691 392 691 402V432L748 561Q765 588 786 588Q843 578 843 535Q843 510 850 485V432Q843 405 843 402V311Q835 284 835 281V236Q820 156 801 148Q775 126 771 126Q767 126 748 141L733 133Q711 149 638 160Q623 176 623 190V258Q608 365 593 406H566Q468 307 468 266Q459 266 411 175V145Q411 134 388 103Q388 71 365 16V1L373 -26L362 -33L335 -26L312 -30Q297 -3 297 8V220Q288 293 267 323H263Q232 290 191 258Q138 222 138 217Q138 194 112 194Q104 194 70 213V228Q84 228 115 281Q124 281 176 338Q271 375 339 470Q343 470 411 554Q460 603 460 637ZM775 535Q758 524 729 410V402Q729 397 767 379Q782 363 782 349Q782 339 752 330Q734 360 714 360Q707 350 691 281V201H706Q706 214 767 239Q781 282 790 326V508Q790 529 775 535ZM646 349V315H657Q663 315 668 326V360H657Q652 360 646 349ZM733 50H771Q937 4 937 -14V-22Q937 -32 900 -41Q776 4 763 4H740Q637 -20 604 -37Q555 -37 555 -7Q555 6 619 16Q663 40 733 50Z" fill="#000000" />
  </g>
</svg>
