<?xml version="1.0" encoding="UTF-8" standalone="no"?>
    <svg xmlns="http://www.w3.org/2000/svg"
        width="1000"
        height="1000"
        viewBox="0 0 1000 1000">
    <g transform="translate(215.8570,645.7654) scale(0.56828598, -0.56828598)">
        <path d="M297 696Q382 670 382 655V648Q382 624 353 614Q304 537 289 536Q260 477 213 450V435Q271 425 271 380Q271 376 277 350Q265 309 265 305V238L254 164V153H265Q265 179 353 391L367 394L370 387Q338 286 338 264Q329 264 315 208Q309 205 306 205V186Q294 148 289 86L260 -26Q264 -26 268 -37Q268 -71 245 -71Q237 -71 213 -48Q196 -48 196 -37Q200 -19 207 30V104Q213 131 213 134V194L225 268V313Q230 339 230 342V357Q218 421 204 421H198Q143 353 129 328Q108 328 97 287H76Q72 287 68 298V309Q80 309 91 346Q104 352 230 532Q230 548 254 566Q300 633 300 655V666Q289 666 289 677V685Q289 690 297 696ZM524 696H530Q585 684 585 655Q585 641 542 625Q540 609 463 532Q463 518 443 502L417 454V447Q447 420 449 409L457 365Q453 343 446 283V279H454Q479 302 501 339Q516 339 548 372Q553 376 556 376V387Q544 441 510 495Q510 500 492 528Q497 543 501 543Q563 543 585 421H588Q601 421 649 469Q626 491 626 502Q642 517 652 517Q716 485 716 454Q694 425 661 413Q661 407 620 365V335Q636 307 646 264Q663 264 670 216Q720 152 737 101Q747 101 812 26Q821 26 856 -19H870V0Q870 4 865 30V171Q866 179 870 179H873Q889 145 894 145V112Q905 70 908 11Q912 -12 943 -74V-82Q940 -93 926 -93Q856 -64 792 4Q783 4 754 34Q746 34 737 60Q711 66 664 164Q638 200 571 324Q524 275 510 264V253Q505 220 486 220V208Q473 168 472 138Q453 118 440 11Q433 0 431 0Q370 21 370 41V89L382 156V164Q370 186 358 186V201Q399 203 399 231L396 238Q399 278 405 305V342Q405 346 411 372V387Q399 402 399 421H390Q388 421 367 413Q363 413 358 424Q358 443 388 469Q388 480 411 510Q451 594 492 648V662L484 677V681Q484 687 524 696ZM553 141Q553 127 614 60L623 45Q623 21 600 11Q548 36 548 67L533 127Q538 141 553 141Z" fill="#000000" />
    </g>
    </svg>
    