<?xml version="1.0" encoding="UTF-8" standalone="no"?>
    <svg xmlns="http://www.w3.org/2000/svg"
        width="1000"
        height="1000"
        viewBox="0 0 1000 1000">
    <g transform="translate(215.8570,645.7654) scale(0.56828598, -0.56828598)">
        <path d="M688 736 702 729Q706 729 706 733Q823 723 875 694L879 676L881 611Q881 608 875 583L876 547Q870 522 870 519L883 141Q877 115 877 112L882 -31Q882 -34 876 -59L886 -352Q887 -371 873 -377L877 -395Q878 -411 846 -416Q759 -398 758 -362Q754 -362 743 -327L750 -323H753L812 -377H823L835 -309L832 -238Q832 -234 838 -209L837 -152Q836 -149 843 -123L831 205Q831 208 837 233L822 686Q807 686 796 694Q785 686 775 686Q760 694 725 701H675Q584 628 535 512Q501 452 486 387Q481 387 476 376V372Q477 365 483 365Q492 376 581 426Q581 429 587 454L586 479L581 515L595 522Q653 510 654 479Q661 479 662 451Q648 450 643 380Q634 372 633 372L637 355L627 333L634 330H638Q641 330 666 337H673Q696 334 724 312V305Q701 291 690 258L660 212Q626 167 626 158L637 151Q640 151 665 158H687Q697 158 698 144H708Q744 144 746 87L722 51Q718 51 688 9Q660 -6 643 -27H625Q607 -27 607 -20L600 -24H593Q593 -12 545 30V34Q551 45 551 55Q543 80 543 83L542 112Q579 208 596 208L595 223L591 230Q580 223 570 223Q509 237 509 248Q508 253 561 276L570 319L569 358H558Q516 322 510 322Q492 308 489 308Q477 315 467 315H456Q450 296 450 287L455 262Q438 235 436 194Q431 194 418 176Q426 165 426 155Q419 143 420 133Q427 122 428 112V91Q422 30 413 30Q373 41 373 58L348 55L344 62L343 91Q362 156 369 273Q372 273 372 283L371 315Q370 322 363 322Q363 317 317 212Q318 177 290 162Q271 58 251 58Q253 5 219 -41Q217 -59 209 -59Q166 -59 165 -34Q140 -34 140 -24Q152 -7 172 80Q179 80 178 98L177 133Q177 143 184 155Q176 166 176 173H165Q111 157 88 141Q85 130 67 130Q31 141 30 148V151Q96 196 143 208H164Q239 192 240 166H255Q259 198 301 258L341 347Q381 427 387 465H394Q410 451 412 451L426 458Q455 449 456 422H460Q468 431 483 472Q482 487 520 544L601 679Q631 706 660 722Q659 731 688 736ZM204 490Q282 469 284 462Q291 461 291 454V447Q291 443 236 383Q218 370 213 347L188 340L184 347V355Q203 406 209 447V454Q209 457 190 472V476Q190 481 204 490ZM614 76 616 30H627Q635 32 678 98L677 116H674Q658 116 614 76Z" fill="#000000" />
    </g>
    </svg>
    