<?xml version="1.0" encoding="UTF-8" standalone="no"?>
    <svg xmlns="http://www.w3.org/2000/svg"
        width="1000"
        height="1000"
        viewBox="0 0 1000 1000">
    <g transform="translate(215.8570,645.7654) scale(0.56828598, -0.56828598)">
        <path d="M513 690Q621 659 621 641Q580 579 580 511Q580 475 561 455V418Q561 414 554 388V142Q569 93 569 90V79Q579 79 613 30Q638 6 736 -11H897V30L874 157V161H882Q899 161 919 68V49Q934 49 941 -3L964 -33V-44L945 -48H759Q646 -33 587 8Q505 82 505 176Q502 176 502 187V291Q509 318 509 321V403Q532 541 554 627Q561 627 561 634V645Q550 645 516 660Q516 654 483 630Q483 619 434 582Q434 574 412 548L345 459Q331 459 244 310Q244 304 237 295V291L256 295H259Q267 295 345 258Q390 326 397 354Q379 364 379 369V373Q382 384 401 384Q438 369 442 351Q414 261 397 261L390 235Q453 191 483 157V150Q479 138 461 138H453Q437 138 390 194Q383 194 371 205H356Q307 146 256 135L237 131H215Q204 131 192 138Q192 136 166 56Q166 34 155 34H148Q125 34 114 60Q189 295 211 403V455Q211 458 174 500V504L185 511Q263 483 263 448V433Q263 429 256 403V399Q257 392 263 392Q293 448 300 448L375 545L446 630Q446 641 472 656Q489 690 513 690ZM237 280Q218 236 200 176L196 157V146H207Q246 146 323 231Q323 239 237 280Z" fill="#000000" />
    </g>
    </svg>
    