<?xml version="1.0" encoding="UTF-8" standalone="no"?>
    <svg xmlns="http://www.w3.org/2000/svg"
        width="1000"
        height="1000"
        viewBox="0 0 1000 1000">
    <g transform="translate(215.8570,645.7654) scale(0.56828598, -0.56828598)">
        <path d="M460 823Q551 805 551 786V779Q545 767 527 767H517Q517 750 460 710H443Q412 659 382 659Q382 653 368 653L362 663Q436 723 436 751Q436 773 446 773H463L470 795Q470 803 439 808V814Q443 823 460 823ZM514 710Q525 704 534 704Q537 704 561 710H588Q629 706 629 682L618 669L585 672H571Q571 660 534 653Q510 659 507 659H497Q497 645 429 634Q429 622 355 606Q347 590 321 590Q289 568 226 559H209Q203 559 179 568V581Q244 581 372 641Q383 641 470 688Q479 688 514 710ZM405 596Q429 587 429 565H439Q464 584 480 584H514Q550 584 571 537Q561 496 537 467V455L558 436V429Q525 404 476 379Q476 360 453 351Q418 351 409 369Q395 373 395 388V436Q395 438 389 461V562Q396 596 405 596ZM449 505V445Q450 439 456 439Q465 464 476 464V499Q478 505 483 505H487L493 502Q500 510 510 537L504 540H487Q482 540 449 505ZM649 369Q754 340 754 325H771Q804 300 804 250Q808 250 808 240Q801 194 767 142Q767 130 747 105Q741 67 693 4Q693 -14 645 -43Q645 -58 618 -91Q618 -116 608 -116H595Q567 -113 510 -56Q486 -24 483 1V13Q484 20 490 20H493Q513 20 537 -47Q539 -59 547 -59H578Q578 -37 598 -37Q644 8 666 51Q720 129 750 228Q754 233 754 240V284Q754 316 676 338H629Q514 313 487 287Q409 250 409 243Q409 233 389 228Q389 219 341 199Q277 157 277 111L267 57Q287 13 287 7Q287 -9 277 -12Q253 -12 233 4Q209 4 209 48Q194 62 186 120V243H189Q198 243 230 224L226 193V183Q233 149 240 149Q272 214 402 275Q402 286 449 300Q558 366 639 366Q639 369 649 369ZM520 243H541Q590 232 595 221Q595 207 564 168Q564 152 551 139L558 136H615Q620 136 625 127Q619 111 547 76H541L534 79Q516 49 463 29Q441 33 402 64V102Q395 124 395 127V171L389 193L399 199H429Q429 226 520 243ZM456 171V111H476Q476 123 517 174Q531 203 531 209V212H520Z" fill="#000000" />
    </g>
    </svg>
    