<?xml version="1.0" encoding="UTF-8" standalone="no"?>
    <svg xmlns="http://www.w3.org/2000/svg"
        width="1000"
        height="1000"
        viewBox="0 0 1000 1000">
    <g transform="translate(215.8570,645.7654) scale(0.56828598, -0.56828598)">
        <path d="M445 789H465Q514 774 514 756V746Q461 690 445 690H432Q427 690 422 700Q422 712 435 726L428 729H415Q415 719 369 706Q369 698 339 693Q339 685 306 677H293Q242 685 221 703V706Q224 716 241 716H293Q372 741 372 759ZM432 637Q474 624 474 614V594L441 479Q437 479 395 387H389V367H392L497 407Q532 397 547 374V371Q491 344 491 338Q422 285 395 275Q381 249 372 249Q366 252 362 252V259Q362 274 402 311V321H386Q357 298 326 298Q274 272 247 245Q227 227 152 209Q135 194 96 183Q53 200 53 206Q53 210 112 236Q166 267 204 282Q315 338 323 351V367Q308 367 277 394Q265 394 244 417V443Q236 480 201 515V519Q202 525 208 525Q260 515 260 492H264Q275 504 316 568Q349 593 349 598H356Q370 585 372 585H399Q406 586 415 614Q412 620 412 627Q415 637 432 637ZM336 532Q306 483 303 456Q310 441 316 440Q323 446 343 515V525Q343 532 336 532ZM576 512H583Q626 504 626 489Q619 478 619 473Q626 472 626 466V463Q614 420 606 371V367Q607 361 613 361Q666 411 721 420H734Q784 407 784 377L698 232V206Q677 149 646 101Q631 101 623 64Q596 22 557 22Q553 28 553 31H540Q540 5 517 5L465 25V31Q465 36 520 48Q593 111 609 157Q626 172 626 186V209Q616 209 616 219Q616 235 659 252Q708 317 718 364Q725 364 725 371V387H715Q650 352 629 324Q623 324 606 298Q593 293 576 272Q557 272 527 305Q553 361 573 463V483L567 506Q575 512 576 512ZM425 242H432Q468 235 468 226V147Q468 144 461 120V74Q461 71 455 48V-130Q453 -137 438 -143Q390 -143 293 -87Q270 -51 270 -44Q271 -38 277 -38H280Q339 -77 339 -87Q366 -100 386 -107Q395 -100 409 -100V-31Q409 -28 415 -5V104Q415 110 409 110L372 15Q358 15 353 -31L346 -34H339Q300 -22 300 -11Q333 44 333 104Q336 104 336 114Q336 119 326 124Q297 124 270 41Q264 40 264 35Q270 24 270 15Q270 6 254 -1Q218 8 208 31Q198 44 191 81Q191 89 254 163Q270 158 270 143Q262 137 257 137V124H267Q295 157 313 157H333Q348 157 372 137H379Q415 176 422 213V216L418 239ZM741 110Q829 82 869 38Q886 38 945 -18Q955 -21 955 -38Q955 -42 945 -48Q902 -48 823 31Q744 86 734 101V104Q736 110 741 110Z" fill="#000000" />
    </g>
    </svg>
    