<?xml version="1.0" encoding="UTF-8" standalone="no"?>
    <svg xmlns="http://www.w3.org/2000/svg"
        width="1000"
        height="1000"
        viewBox="0 0 1000 1000">
    <g transform="translate(215.8570,645.7654) scale(0.56828598, -0.56828598)">
        <path d="M567 751H650Q775 731 811 710L814 703V690Q798 682 782 607Q775 607 763 510V465L750 388V298Q750 295 756 273V189Q756 186 763 163V105Q763 102 769 80V-36Q769 -39 775 -62V-132L792 -152V-158Q792 -163 779 -171H772Q641 -100 608 -23Q609 -17 615 -17H618Q692 -84 692 -97H730V-94Q724 -71 724 -68V105Q724 108 718 131V465Q718 468 724 491V581Q724 584 730 607V645Q730 648 737 671V706H695L663 716Q646 713 644 713Q621 729 573 729Q531 709 480 645Q445 607 406 539Q365 484 319 385Q312 385 300 334Q284 318 281 292V289H322Q416 318 480 382V388Q480 400 403 417Q393 417 393 424V430H419Q459 424 502 411Q513 415 563 497V510Q563 515 554 520Q494 479 493 475Q493 456 477 456Q435 471 435 491L473 555V581Q480 610 489 610Q506 610 525 587V568Q520 539 506 539V526L509 520Q530 534 567 552Q608 536 608 497Q591 433 570 433Q544 412 544 395V391Q651 364 705 298Q705 290 689 282Q661 290 621 321Q543 366 528 366Q521 366 470 318L422 289Q445 279 461 250Q497 301 522 301H586Q601 301 621 273Q621 266 576 179Q581 179 586 170V163Q530 115 509 115H496Q428 127 428 173Q422 266 403 289Q403 273 342 263H271Q259 263 252 205Q245 205 229 170Q232 163 232 160Q198 25 187 25H178Q133 58 133 73V118Q133 126 178 324V382Q173 417 155 417Q123 417 123 427V433Q124 440 129 440Q137 440 142 436L155 443L210 414Q229 390 229 375V356Q218 310 203 289L207 269L184 176V166Q185 160 191 160Q208 189 229 253Q236 253 248 311Q262 311 281 353H287V362Q287 383 367 510Q367 516 416 581Q435 632 544 735Q552 735 567 751ZM113 620H117Q125 611 174 604H219Q223 604 223 607Q261 588 268 568Q262 552 239 552Q107 592 107 600V613Q108 620 113 620ZM499 183V173Q500 166 506 166Q542 205 563 260V263H541Q502 263 502 192Q499 192 499 183Z" fill="#000000" />
    </g>
    </svg>
    