<?xml version="1.0" encoding="UTF-8" standalone="no"?>
    <svg xmlns="http://www.w3.org/2000/svg"
        width="1000"
        height="1000"
        viewBox="0 0 1000 1000">
    <g transform="translate(215.8570,645.7654) scale(0.56828598, -0.56828598)">
        <path d="M427 837Q524 787 524 762L527 744Q514 731 502 731H492Q490 716 483 716H477Q466 731 455 731L449 741Q449 744 461 759V778Q444 793 439 806Q422 806 418 831ZM633 663H708Q767 654 767 641Q788 641 810 616Q810 588 767 588Q714 576 689 544Q675 544 648 525Q629 525 608 510H605Q598 510 598 516Q598 537 658 572L698 616V631L676 638H670Q667 638 645 631H608Q497 612 430 578Q407 557 383 557Q355 545 340 519Q299 474 299 469L302 451Q302 431 281 410H277L221 448L212 463V485Q199 526 199 529V591Q199 596 187 625L196 631Q237 607 249 566V525L252 519Q375 599 424 607Q424 616 511 638Q524 642 586 653ZM502 513H564Q592 508 592 494H602Q625 494 636 463L608 438Q596 438 592 413Q580 395 577 395H561Q561 381 533 363Q533 347 505 345V335Q516 317 539 317L542 310V304Q542 300 521 289V285L499 289H496L461 279Q430 283 430 301H415Q398 301 396 310L399 326Q383 326 374 391V473Q374 479 383 479Q390 479 408 454Q413 454 433 482Q460 507 480 507ZM436 398V391L446 379L443 357H446Q462 357 477 382H499Q499 395 545 441Q560 461 561 466L555 469H508Q455 463 455 423Q455 410 436 398ZM527 214 539 208 552 214Q560 208 630 198Q673 170 673 167V155Q670 146 630 130Q630 106 561 83V70H589Q616 68 648 30V11Q648 7 639 2H633Q619 2 595 21H558Q507 -1 486 -1Q468 -20 452 -20Q443 -16 421 8Q419 8 411 2H408Q396 2 368 27Q349 27 324 136Q313 172 305 186Q311 201 324 201Q339 159 362 108H371Q430 179 449 179Q465 199 527 214ZM418 74V52L439 45Q505 90 505 95H524Q524 106 574 142Q574 144 592 161V176H527Q520 169 468 145Q468 133 436 105Q428 85 418 74Z" fill="#000000" />
    </g>
    </svg>
    