<?xml version="1.0" encoding="UTF-8" standalone="no"?>
<svg xmlns="http://www.w3.org/2000/svg"
     width="1000"
     height="544"
     viewBox="0 0 1000 544">
  <g transform="translate(290.0000,410.3800) scale(0.42000000, -0.42000000)">
    <path d="M569 739Q606 717 606 695Q592 671 592 661V593L586 562L589 538L586 531L592 518Q586 507 586 497Q586 492 596 487L637 501Q643 500 671 473V470Q657 450 586 419V306L579 282L582 269L579 248H582Q592 248 603 255Q614 248 623 248Q634 255 644 255H691Q694 255 719 248H760Q769 248 780 242L787 245Q825 242 835 235Q841 238 848 238Q920 210 920 184V177L903 173Q888 173 865 194L841 201H835Q825 201 814 194L800 201Q752 180 705 173Q698 177 695 177V190Q695 192 715 211Q715 216 705 221Q694 214 685 214H678Q653 221 650 221Q648 221 630 218L623 221Q566 206 555 197Q525 207 521 207Q510 201 500 201L487 207Q480 202 422 197Q355 165 234 143Q234 133 190 129L139 115L132 119Q132 101 64 81Q6 109 6 129Q6 139 54 160Q54 174 136 187Q231 226 231 238Q244 238 313 276Q374 297 374 327L388 415V426Q388 432 381 432Q376 419 357 419H323L262 405Q217 422 217 439L228 446H234Q237 446 262 439H282Q306 446 309 446H323L347 439Q353 453 371 453H388V463Q388 466 395 490V579Q389 620 361 620V634L378 637Q429 610 429 579V460H439Q446 461 470 528L490 593Q497 600 548 719Q561 739 569 739ZM545 637Q500 555 500 514Q491 501 483 501V473H487Q539 482 552 490Q545 502 545 511V525L552 548Q552 555 548 555L552 589V630Q552 637 545 637ZM449 395V371Q450 364 456 364Q544 432 545 436V446H528Q463 438 463 415Q463 412 449 395ZM514 364H504Q504 337 473 337H463Q463 324 439 310Q422 282 422 272L429 259Q429 250 412 242Q408 242 384 262H364Q354 262 309 231Q297 231 258 207Q217 207 204 184V173H207L378 221Q463 230 463 242Q463 252 473 252Q490 242 500 242H535Q539 242 545 252V340L552 364Q543 371 541 371Q538 371 514 364ZM309 64Q344 15 381 3V-21Q374 -52 364 -52Q306 -44 306 6Q306 34 289 51V54Q292 64 309 64ZM589 57H610Q624 57 725 -35Q746 -35 756 -62Q751 -79 732 -79L606 30Q579 30 579 51Z" fill="#000000" />
  </g>
</svg>
