<?xml version="1.0" encoding="UTF-8" standalone="no"?>
<svg xmlns="http://www.w3.org/2000/svg"
     width="1000"
     height="513"
     viewBox="0 0 1000 513">
  <g transform="translate(290.0000,394.4200) scale(0.42000000, -0.42000000)">
    <path d="M476 701Q561 677 560 649Q559 637 564 616L560 545Q560 539 582 490V481Q590 480 617 421Q646 407 657 397Q666 402 702 402L708 399Q719 404 728 403H734Q737 402 759 395L791 392Q801 379 813 378Q841 365 841 361V358Q840 353 802 349L725 356L668 372L637 375L530 360Q530 352 516 340L515 310Q514 307 520 286L515 215Q515 212 520 191L519 164H522Q588 176 593 176L651 171Q685 163 684 136Q679 120 650 103Q649 90 583 57Q563 40 563 38L569 35L610 31Q651 15 650 -8L640 -13L627 -12Q624 -12 590 3Q521 -15 493 -16Q460 -30 459 -43L452 -45H446Q401 -41 383 23Q384 41 358 144Q358 148 368 152H374Q384 151 383 133L392 132Q473 151 474 159Q468 169 468 177Q475 186 476 194L480 259Q474 281 475 284L478 346L456 348Q401 346 391 332Q373 334 267 298H258Q257 284 150 259Q118 262 104 293V302Q169 297 259 325Q421 375 470 376H480L483 432Q483 435 491 455L497 556Q497 559 504 579L505 597Q506 615 477 653Q477 661 466 690Q471 701 476 701ZM529 446 528 428Q528 426 533 404L532 389H535Q615 395 616 400Q561 455 563 488L554 489Q530 470 529 446ZM432 96 430 73Q430 70 435 48L434 22L437 21Q451 20 480 36Q508 34 639 139L640 148L624 149Q558 143 524 134Q497 136 435 102Z" fill="#000000" />
  </g>
</svg>
