<?xml version="1.0" encoding="UTF-8" standalone="no"?>
    <svg xmlns="http://www.w3.org/2000/svg"
        width="1000"
        height="1000"
        viewBox="0 0 1000 1000">
    <g transform="translate(215.8570,645.7654) scale(0.56828598, -0.56828598)">
        <path d="M398 708Q445 693 458 672V567Q450 539 450 535V471L434 390V318Q417 283 406 185Q382 147 382 96Q350 57 350 -17Q307 -106 297 -110L301 -118V-126Q292 -134 281 -186Q271 -186 245 -239Q237 -239 217 -271Q199 -287 172 -299Q137 -284 136 -275V-263L176 -267Q254 -170 313 23Q361 220 386 414V660L382 700ZM664 588H720Q837 555 837 527Q837 523 821 503V471Q813 442 813 438V382Q805 354 805 350V164L789 100V60Q779 -25 765 -25H753Q695 -25 628 96H624Q616 96 555 56Q547 56 527 31Q495 31 475 68Q475 75 555 148V156Q539 172 470 209L458 229Q458 254 559 297L664 322H672Q690 322 720 293Q720 259 664 209L632 160Q626 160 620 148V136H656Q693 128 696 116V108Q668 88 668 84V72Q682 72 708 15H732V27L749 116V181Q749 184 757 213V269Q765 298 765 301V422Q765 426 773 455V495Q773 499 781 527V539H688Q660 531 656 531H616Q591 507 575 507Q539 535 531 535V551Q578 555 664 588ZM350 579H362V575Q340 522 329 479Q305 447 285 354Q266 312 249 225Q249 223 253 209Q241 136 229 136H221Q168 152 168 164V172Q168 182 192 257Q192 261 188 269Q192 291 192 305V334Q192 366 160 366V382L188 390Q221 375 237 362H249Q279 455 297 455L293 463Q293 476 350 579ZM599 265H579Q579 260 531 221V197Q531 186 575 177L644 261V273H632Q628 273 599 265Z" fill="#000000" />
    </g>
    </svg>
    