<?xml version="1.0" encoding="UTF-8" standalone="no"?>
<svg xmlns="http://www.w3.org/2000/svg"
     width="1000"
     height="607"
     viewBox="0 0 1000 607">
  <g transform="translate(290.0000,446.0800) scale(0.42000000, -0.42000000)">
    <path d="M435 824Q503 787 505 777Q508 772 508 765Q501 742 493 742Q478 750 441 757V760Q441 767 450 792L426 818Q426 824 435 824ZM731 699Q792 678 792 655V649Q792 641 766 635H743Q703 606 679 594Q666 580 644 580Q644 570 598 554H589V556Q589 576 659 615Q661 624 699 649L717 667V675H714Q632 664 499 635Q442 620 380 591Q370 590 354 562Q331 562 316 510L302 507Q259 507 223 652Q229 655 232 655Q244 655 267 600Q276 600 287 571H290L351 612Q366 612 400 629Q452 649 473 649Q546 670 731 699ZM522 600Q554 586 554 580Q548 568 543 539Q554 524 554 522Q548 512 548 504V478Q565 478 586 458V452Q555 420 543 420V371L548 350Q541 345 537 345V327H545Q583 318 583 298Q563 291 543 272V234H627Q647 240 650 240H769Q779 240 795 243Q852 243 914 191Q914 177 865 170H856Q856 147 766 138L763 144Q777 168 839 194V205H824Q803 211 801 211H644Q642 211 621 205H554V185Q554 170 545 167H540L499 199H470Q413 194 383 170Q371 170 299 136Q299 128 235 104Q202 78 197 78Q162 78 162 51Q148 43 139 43H122Q76 51 52 80V86Q52 94 90 98Q179 136 284 170Q309 183 363 194Q458 257 467 257V269Q467 275 461 275Q461 272 392 231Q388 217 371 217Q345 223 345 231Q345 238 397 278Q397 281 403 301V316H395Q366 287 345 281Q345 272 336 272Q307 285 307 289V295Q307 300 374 333Q419 363 421 371Q421 391 432 391V400Q432 402 438 423Q438 427 429 432L360 397H351V376Q351 371 345 371Q313 373 313 400Q313 420 377 435Q377 443 435 452L438 458V487Q424 513 403 519V522Q403 526 412 530Q453 517 453 495Q461 489 461 475V461H470Q476 463 493 507Q519 560 519 574Q514 583 514 591Q514 595 522 600ZM511 495Q502 485 502 475Q502 471 511 466Q519 477 519 487Q519 491 511 495ZM508 449Q473 416 473 411Q479 408 482 408Q504 426 514 426V443Q514 449 508 449ZM508 388 505 376H508Q514 376 514 382V388ZM453 118H464Q536 90 548 69Q548 53 516 37Q516 30 485 -15Q498 -23 528 -62Q548 -62 548 -82Q542 -111 519 -111Q508 -127 508 -137H493L482 -146H473V-129Q496 -76 496 -73Q492 -73 450 -7L485 46Q496 66 496 75Q496 79 447 109V112Q448 118 453 118Z" fill="#000000" />
  </g>
</svg>
