<?xml version="1.0" encoding="UTF-8" standalone="no"?>
<svg xmlns="http://www.w3.org/2000/svg"
     width="1000"
     height="663"
     viewBox="0 0 1000 663">
  <g transform="translate(290.0000,400.7200) scale(0.42000000, -0.42000000)">
    <path d="M772 716Q784 709 826 698V684Q769 664 746 640Q717 643 717 658H714Q615 634 587 611Q587 608 583 608H558Q558 592 518 589Q518 581 467 571H460Q402 580 402 586V589Q406 598 500 615Q666 687 772 716ZM315 673H351Q413 659 413 633L355 571Q355 556 326 539Q326 507 253 452Q253 446 224 423Q253 363 253 357V350Q239 303 239 299V230H253Q273 291 300 325H311V307Q304 267 275 198Q275 180 253 53Q268 5 268 2Q263 -16 242 -16Q224 -16 210 9Q181 14 181 38V53Q188 79 188 82V96Q188 106 181 118Q186 136 195 191V278Q195 281 202 307V379Q202 384 191 390H181Q181 362 104 332Q81 341 79 350Q135 410 199 448Q295 549 344 629Q349 629 362 647Q362 653 351 658H315Q307 658 307 666Q309 673 315 673ZM735 495Q782 483 782 473V466Q775 440 775 437V96Q768 70 768 67V2Q757 -27 750 -81Q726 -169 674 -270Q592 -379 550 -379Q550 -386 536 -386L532 -379V-375Q624 -317 670 -197Q703 -102 717 -27V31Q717 34 724 60V376H710L666 285Q666 281 659 281V270Q630 205 630 198Q621 191 619 191Q565 199 565 234V249Q588 304 601 357V397H569Q534 369 500 281V205Q500 200 489 194Q478 194 423 223L427 259V328Q419 376 413 394Q413 408 449 419L456 408L449 394Q457 380 463 350V339H485Q538 434 576 434H598Q652 412 652 394Q645 382 645 372V332Q646 325 652 325Q673 373 717 437Q727 495 735 495Z" fill="#000000" />
  </g>
</svg>
