<?xml version="1.0" encoding="UTF-8" standalone="no"?>
<svg xmlns="http://www.w3.org/2000/svg"
     width="1000"
     height="526"
     viewBox="0 0 1000 526">
  <g transform="translate(290.0000,406.1800) scale(0.42000000, -0.42000000)">
    <path d="M420 729Q483 718 569 657V648L535 623Q535 591 527 580Q617 522 655 478Q696 423 744 393Q744 387 778 367Q780 350 893 295Q998 249 1012 222V205H1008Q836 258 765 325Q644 403 578 487Q524 542 510 542Q458 503 446 444Q422 404 382 367V359Q382 353 395 346L412 354Q426 346 437 346Q522 380 531 380H548Q568 380 591 354V350Q564 315 484 248Q470 218 450 218V188Q433 142 433 137Q437 137 437 133Q443 133 501 176L548 188L557 184L574 193Q638 161 638 137Q638 112 578 56Q561 54 561 43V31Q629 13 629 -12Q627 -12 616 -20H574Q519 -29 471 -46Q414 -28 399 14Q390 69 378 103Q401 248 429 248Q429 253 476 299V312L471 320Q457 312 446 312H429Q382 318 382 342V346H369Q343 320 331 320V308Q331 286 233 210Q201 166 71 112L62 116Q48 107 37 107H28Q21 107 -10 120V133H62Q153 184 263 295Q263 304 318 367Q359 438 390 474Q476 652 476 665V687Q436 687 408 717Q408 723 420 729ZM459 69Q459 59 471 31Q488 31 569 129V150H557Q462 94 459 82Z" fill="#000000" />
  </g>
</svg>
