<?xml version="1.0" encoding="UTF-8" standalone="no"?>
<svg xmlns="http://www.w3.org/2000/svg"
     width="1000"
     height="597"
     viewBox="0 0 1000 597">
  <g transform="translate(290.0000,428.0200) scale(0.42000000, -0.42000000)">
    <path d="M337 781Q417 752 417 725Q417 715 392 676V652L374 566V529Q374 526 368 504V461Q362 440 362 437V397H392Q392 415 402 415H414Q417 415 438 409L463 421Q475 414 500 409H509V424Q509 437 494 455Q494 483 549 495H592Q595 495 635 477H638V492Q638 495 644 517V553Q644 556 650 578V609Q650 611 656 633Q656 652 635 667H623Q613 657 558 627Q534 599 518 599H494Q477 599 469 615V621Q469 629 512 633Q603 701 641 707Q681 687 681 682Q681 662 727 621L730 615L699 581Q699 568 687 541Q693 531 693 523V517Q687 471 675 424Q675 402 669 394Q675 384 675 375V338Q670 299 641 299H635Q601 311 598 311Q578 289 555 237Q540 227 521 197V194L524 188Q658 249 684 249H690Q748 231 752 219V216Q734 205 724 176Q710 176 669 133Q681 120 749 111Q831 74 881 44Q902 29 902 25V19Q902 15 893 10H881L745 78Q733 78 721 90L709 84Q683 95 641 102Q632 102 601 56Q554 7 534 -5H531L524 -2Q524 -7 512 -15H506Q435 8 435 50V124Q435 126 442 148Q429 162 429 163V167Q429 175 448 200Q448 212 472 311Q472 320 491 357V366L488 372Q412 358 389 342L368 317L362 295Q368 285 368 277Q362 267 362 259V179Q362 176 356 154V124Q368 66 371 28Q374 28 374 25L368 13Q374 3 374 -5V-18Q374 -21 368 -42Q368 -51 374 -61Q368 -71 368 -79Q374 -89 374 -97V-104Q368 -125 368 -128V-144Q380 -145 380 -153Q375 -165 359 -165Q306 -151 306 -116Q306 -107 300 -85V-67Q300 -64 306 -42V-12Q319 29 319 31V185Q319 188 325 210V338Q325 341 300 363Q305 378 322 378H331V455Q337 477 337 480V590Q337 593 343 615V670Q343 673 349 695V744Q349 745 331 762V774Q332 781 337 781ZM125 513H144Q184 513 214 449Q214 418 221 400V381Q214 360 214 357V289Q214 281 208 271Q214 261 214 252Q208 215 196 203V197Q196 193 205 188Q221 195 242 249L251 259H254Q263 259 267 222L239 117Q231 91 224 90Q165 95 165 127Q165 140 159 160V283Q165 305 165 308V424Q156 492 131 492Q116 498 110 498V510ZM589 397Q582 391 558 335Q548 331 534 283L540 280Q563 303 595 381V391Q595 397 589 397ZM555 170H534V151H543L598 139H635Q652 160 681 182L699 203V219H678Q666 206 635 203Q605 179 574 179Q570 170 555 170ZM485 127 478 99Q478 96 485 74V62Q478 40 478 38V31Q478 27 494 16Q517 16 595 99V105Q595 109 580 120Q571 120 561 114Q548 120 518 127Z" fill="#000000" />
  </g>
</svg>
