<?xml version="1.0" encoding="UTF-8" standalone="no"?>
    <svg xmlns="http://www.w3.org/2000/svg"
        width="1000"
        height="1000"
        viewBox="0 0 1000 1000">
    <g transform="translate(215.8570,645.7654) scale(0.56828598, -0.56828598)">
        <path d="M508 777Q565 742 565 693Q569 693 574 684L571 664Q601 650 601 646Q610 624 610 619Q604 616 601 616Q581 622 574 622H526Q516 622 514 652Q524 658 529 658V690Q518 759 502 768V771Q503 777 508 777ZM693 589Q710 571 735 571Q744 556 744 547Q684 478 684 461Q684 416 654 407Q637 371 550 314Q533 314 529 287Q513 273 496 210Q492 197 433 105Q390 8 302 -83Q294 -83 257 -127Q176 -202 138 -214Q132 -214 132 -208Q181 -176 216 -133Q306 -47 317 -20Q329 -18 368 49Q429 157 448 240Q463 271 463 279V285Q463 288 442 299V302Q448 316 454 317H469Q469 329 481 329V344Q487 365 487 368V398L499 458V473H466Q464 473 442 467H428Q428 455 419 455H377Q347 482 338 482V493Q338 498 347 502Q353 496 404 493Q452 493 508 520Q518 520 568 544Q635 574 672 580Q673 586 693 589ZM541 493Q571 472 571 461Q564 455 559 455V440L547 392V383H559Q617 451 619 461Q619 467 631 467V482Q650 498 666 538V544H657Q639 523 610 523Q610 516 544 499Z" fill="#000000" />
    </g>
    </svg>
    