<?xml version="1.0" encoding="UTF-8" standalone="no"?>
<svg xmlns="http://www.w3.org/2000/svg"
     width="1000"
     height="528"
     viewBox="0 0 1000 528">
  <g transform="translate(290.0000,413.3200) scale(0.42000000, -0.42000000)">
    <path d="M507 746H515Q560 728 562 686Q566 686 566 675L560 660L564 653Q557 591 543 560L547 542L544 534Q552 523 553 513Q553 509 540 468L541 457H552L597 500Q606 501 643 536Q655 544 665 544L687 545Q724 547 726 500Q702 415 685 376Q686 366 658 323Q657 289 608 228Q588 231 575 230Q562 186 517 131Q509 131 486 100Q474 99 465 69Q453 69 426 42L384 6Q371 13 365 13Q365 8 348 -7Q304 2 262 18L261 33Q260 38 271 45H279L302 24L324 25Q347 26 416 89Q438 127 455 128L454 150Q398 158 397 184Q391 183 306 231L295 230Q297 191 161 101Q154 90 136 89L122 88Q73 95 72 126Q71 132 82 138Q86 138 113 117Q134 118 170 157Q261 240 264 254V262Q244 278 146 329L145 336Q209 321 274 281H285Q325 363 356 465Q356 471 344 476L238 404Q189 417 189 427L188 442Q221 444 317 511Q349 513 372 522Q420 507 421 498L422 469Q423 441 396 401Q397 391 370 345Q342 269 322 268L323 257Q323 252 380 220Q389 229 392 276L399 280L414 281Q422 253 423 248L419 240Q434 212 451 194Q452 178 482 174Q573 320 574 388L572 414Q572 421 565 421Q547 402 539 357Q525 356 512 297Q499 285 487 284Q487 287 445 315Q468 348 486 454Q501 511 505 576L503 621Q503 624 508 650L505 709Q505 719 497 731Q502 746 507 746ZM585 452 586 430Q608 431 610 405L611 383Q611 373 605 361L612 357L627 358Q627 367 678 501V515H667Q642 488 585 452ZM579 156 582 157Q694 118 798 50Q812 51 825 29Q904 -1 905 -25Q903 -26 894 -33L887 -34Q865 -35 732 43Q704 72 579 149Z" fill="#000000" />
  </g>
</svg>
