<?xml version="1.0" encoding="UTF-8" standalone="no"?>
    <svg xmlns="http://www.w3.org/2000/svg"
        width="1000"
        height="1000"
        viewBox="0 0 1000 1000">
    <g transform="translate(215.8570,645.7654) scale(0.56828598, -0.56828598)">
        <path d="M423 680Q506 644 506 614Q490 577 474 480Q443 440 427 327V253Q427 249 419 221V100Q439 100 439 57Q435 49 435 45Q444 38 486 29H643L780 60V355L784 374H800Q818 321 827 253V213Q843 162 843 159V88Q843 84 859 41V25Q859 20 847 13H784Q764 -2 760 -2L745 6Q724 -8 651 -18Q623 -10 619 -10Q606 -18 596 -18H533Q505 -10 502 -10H462Q372 19 372 60L364 96V221Q380 328 396 378Q388 391 388 402L435 598V610H423Q389 585 329 437Q328 409 302 374Q302 347 270 257Q270 241 262 229Q266 222 266 213Q256 195 247 151V111Q231 75 227 13Q214 6 204 6Q176 25 168 25V57Q243 314 243 339L255 347L247 362Q269 403 278 480Q270 523 258 535V543Q260 551 266 551Q286 551 321 515Q353 547 353 574Q372 574 396 653Q416 680 423 680Z" fill="#000000" />
    </g>
    </svg>
    