<?xml version="1.0" encoding="UTF-8" standalone="no"?>
    <svg xmlns="http://www.w3.org/2000/svg"
        width="1000"
        height="1000"
        viewBox="0 0 1000 1000">
    <g transform="translate(215.8570,645.7654) scale(0.56828598, -0.56828598)">
        <path d="M558 745H595L672 730H728Q850 713 851 688Q847 654 830 654L831 643Q832 629 817 613L819 575Q813 548 813 545L816 499Q810 473 810 469L815 379Q808 352 809 348L828 -14Q828 -18 822 -44L823 -67Q844 -116 845 -120Q841 -120 823 -135H815Q808 -129 773 -116Q772 -101 722 -86Q665 -34 653 5L652 16Q656 16 663 20Q713 -12 735 -48Q748 -56 758 -56Q769 -56 770 -3L778 61L761 394Q761 397 767 424L761 537Q761 541 767 567L763 635Q763 642 776 677Q765 692 695 707H643L574 722Q483 697 369 518Q348 450 335 450L336 431Q314 419 306 360Q271 285 233 92L236 31Q230 -3 219 -3Q209 -3 176 20Q154 20 153 31Q172 109 185 209Q195 209 201 265L198 326Q196 360 131 375L127 390L138 397Q245 368 247 326L255 322Q254 334 302 424Q302 435 347 515Q408 615 434 643Q485 718 514 718Q541 745 558 745ZM107 624H167Q190 594 226 594Q238 580 238 567L235 549H224L212 556H175Q150 583 112 605Q108 612 107 620ZM530 549Q608 506 624 484Q601 413 604 367Q597 348 596 292Q593 292 593 288Q601 276 602 265Q602 262 596 235Q596 232 605 205Q605 202 599 175Q620 124 621 103Q599 90 599 88Q541 116 540 144Q539 158 553 175Q553 183 549 190Q548 203 557 250Q549 263 548 273Q562 299 561 311V314H550Q536 313 526 265Q522 265 491 220L496 194Q475 175 459 175Q420 189 420 194V197L431 212L429 235Q429 241 417 246Q411 243 403 243L398 250Q411 289 435 409Q427 421 427 431Q426 437 452 450Q469 530 497 530Q498 538 530 549ZM481 409 482 390H501Q551 375 554 375H558L557 386Q557 396 549 409Q556 421 555 431L551 503H532Q478 456 481 409ZM464 303 465 284Q466 277 473 277Q490 297 499 341V345L495 352Q462 341 464 303Z" fill="#000000" />
    </g>
    </svg>
    