<?xml version="1.0" encoding="UTF-8" standalone="no"?>
    <svg xmlns="http://www.w3.org/2000/svg"
        width="1000"
        height="1000"
        viewBox="0 0 1000 1000">
    <g transform="translate(215.8570,645.7654) scale(0.56828598, -0.56828598)">
        <path d="M474 747Q539 715 539 696Q539 685 546 661Q508 572 498 572Q484 570 467 534Q459 516 412 480Q362 412 306 384Q237 308 196 308Q196 294 186 294H162Q162 273 110 267Q104 270 100 270V284Q146 295 213 356Q322 451 337 476Q342 476 402 552Q411 555 450 624Q459 628 470 675V702L460 737Q460 742 474 747ZM532 521H542Q598 499 710 428Q746 396 793 380Q837 352 889 336L906 339Q929 324 964 308V291Q964 286 954 281Q951 281 927 288H885Q872 309 817 322Q744 372 676 408Q629 441 628 449Q605 449 542 500L532 514ZM460 414Q497 414 546 360V353L508 277Q502 274 494 274H484Q484 262 460 253Q451 253 443 270Q456 299 464 353V390Q450 390 450 401Q455 414 460 414ZM556 250H563Q588 227 632 219Q656 195 656 181Q639 161 597 85Q585 85 573 37Q554 30 518 -31Q504 -31 488 -66Q464 -76 460 -76Q430 -67 429 -59Q429 -42 488 30Q524 74 580 188V212H570Q559 212 505 185Q476 185 450 147Q404 116 385 116H378Q360 116 340 143V154Q380 154 419 185Q427 185 440 198Q542 240 556 250Z" fill="#000000" />
    </g>
    </svg>
    