<?xml version="1.0" encoding="UTF-8" standalone="no"?>
<svg xmlns="http://www.w3.org/2000/svg"
     width="1000"
     height="506"
     viewBox="0 0 1000 506">
  <g transform="translate(290.0000,400.7200) scale(0.42000000, -0.42000000)">
    <path d="M471 716Q518 695 518 662Q522 662 522 658Q456 490 434 490Q427 466 427 463V459L431 452Q436 452 481 493Q494 493 525 520Q529 520 559 530Q568 520 599 517Q616 494 616 483V469L593 405Q579 399 549 321Q504 282 488 253Q570 200 596 176Q615 163 643 142Q654 142 690 108Q705 108 728 85Q747 85 771 61L788 65Q822 47 822 41L829 44H835Q869 29 869 14Q874 14 879 4V-3Q879 -8 869 -13Q859 -13 819 7Q768 14 744 34Q704 36 471 237Q414 186 414 169Q398 169 360 125Q339 125 333 98Q272 72 272 58Q248 45 222 21Q180 0 174 0H127Q122 0 117 11V38Q118 44 124 44H127L141 34Q187 34 309 149Q320 149 448 287L485 345Q507 369 522 412H529V429Q529 439 549 476Q542 479 539 479Q428 404 377 324H363Q346 324 306 368Q328 390 340 419Q361 434 417 533L454 608H461V625Q475 662 475 665V682H437Q431 682 431 689Q444 704 471 716Z" fill="#000000" />
  </g>
</svg>
