<?xml version="1.0" encoding="UTF-8" standalone="no"?>
<svg xmlns="http://www.w3.org/2000/svg"
     width="1000"
     height="518"
     viewBox="0 0 1000 518">
  <g transform="translate(290.0000,404.9200) scale(0.42000000, -0.42000000)">
    <path d="M119 726H123L165 702L183 705Q183 699 229 684L233 677Q211 623 187 623H165Q158 623 158 631Q163 631 169 641V648Q169 687 126 702Q112 709 112 723ZM591 712Q595 705 595 702H606Q635 702 655 677Q652 669 599 648Q538 596 538 584Q515 524 503 524V499Q481 421 481 414V403H499Q508 403 520 449Q540 461 560 517Q571 517 577 520Q607 520 623 499Q623 479 595 446L588 414V403H606Q610 403 655 421Q703 408 719 371Q723 365 723 357Q710 333 652 286Q652 265 613 247Q584 230 584 169Q562 144 524 144Q477 87 467 87Q446 35 446 23Q446 8 506 -2H584Q723 18 723 45V69Q700 69 680 158V180L684 187Q712 187 741 105Q756 74 797 45Q801 38 801 30Q763 -5 726 -5Q723 -16 705 -16H655Q640 -30 627 -30H499L414 -9Q389 3 389 13L386 30Q407 39 453 119L481 144V158Q481 163 471 169H428Q403 176 400 176Q396 176 396 172Q279 196 279 215Q279 223 314 229Q332 257 439 304V421Q459 532 488 613V623H460Q397 623 361 652Q346 652 346 663Q350 669 350 673Q364 673 396 652H471Q549 670 549 680Q584 712 591 712ZM41 425H45L130 364Q138 360 148 325Q162 319 162 300V293Q162 290 155 265Q155 261 162 236V222Q155 197 155 194V183H176Q217 283 233 283V300L268 339V336Q233 254 233 243L236 236Q230 236 215 204Q210 204 204 194V151Q204 140 183 140V101Q183 98 176 73L180 66Q169 48 169 37V2Q169 -17 151 -26H148Q126 -26 84 2L98 73V137Q98 140 105 165V322Q105 368 41 421ZM517 393V368Q517 361 528 361Q560 373 560 400Q560 418 549 421H542Q539 421 517 393ZM588 300V290H606Q659 347 659 364V382H634Q599 362 599 357Q599 355 588 300ZM496 311V251Q496 247 503 222V183H524Q524 191 552 229V332Q552 339 542 339Q513 332 513 315Q507 311 496 311ZM805 318Q852 313 879 290Q905 274 950 229Q950 211 932 194Q927 200 893 212Q893 223 865 233Q865 264 801 307Q805 314 805 318ZM417 268Q396 231 396 222V208Q396 203 407 197H435Q440 197 446 208Q439 233 439 236V268Z" fill="#000000" />
  </g>
</svg>
