<?xml version="1.0" encoding="UTF-8" standalone="no"?>
<svg xmlns="http://www.w3.org/2000/svg"
     width="1000"
     height="589"
     viewBox="0 0 1000 589">
  <g transform="translate(290.0000,410.3800) scale(0.42000000, -0.42000000)">
    <path d="M646 739Q649 739 672 735Q686 739 688 739Q706 730 706 711L707 698Q692 640 671 640Q672 615 626 569V566H628L662 593Q677 602 677 609H680Q705 609 709 581V575Q689 548 637 529Q637 516 603 504H577Q560 504 537 556Q531 568 526 593L524 711Q525 717 529 717H532Q552 717 556 680Q551 670 551 661L552 624Q557 624 557 630L556 655Q556 671 584 708H597Q597 719 646 739ZM583 627Q583 600 579 559H582Q604 587 604 593L665 683Q665 691 670 708H667Q600 682 600 668Q583 631 583 627ZM342 553Q355 553 363 535Q376 530 377 513Q377 501 357 439Q358 420 348 396V383H350Q399 414 399 427Q406 467 414 467H424Q427 467 443 445Q493 485 505 485H507L508 476Q508 454 438 414Q421 373 421 368Q415 368 396 285Q387 285 384 244Q380 244 369 207Q366 207 367 204V201L390 195H395Q397 195 408 210H416Q445 185 445 167Q445 163 438 158H396Q392 158 359 173L324 133Q317 133 295 109Q278 109 262 102Q199 120 180 139Q160 151 136 158Q136 164 117 186V198Q191 270 281 337Q312 343 312 374Q316 420 325 476V513Q334 553 342 553ZM676 510H702Q754 505 755 470Q767 464 768 458V439Q759 392 759 390L760 328L751 266V254Q751 251 756 229L757 186Q757 183 752 161L756 -61Q756 -64 762 -86V-111Q758 -133 758 -135V-148Q758 -151 763 -173Q760 -188 746 -188Q723 -188 679 -117Q679 -109 663 -86L641 -18V3Q628 3 627 31L630 47Q627 59 627 68H634Q650 54 678 -40Q685 -45 692 -80L715 -105L713 13Q713 16 718 37L717 130Q717 133 721 155L718 346Q723 368 723 371L722 408Q722 411 727 433Q727 436 721 458V467L703 473H690Q667 459 644 420Q635 420 618 383Q602 373 588 328H591Q627 349 632 349H642Q671 344 672 315V309Q672 304 654 260L655 257H657Q657 272 685 297H693Q701 294 701 278V272Q633 165 604 158H589Q570 158 570 180Q634 288 635 309V312H633L586 288H573Q573 277 553 229Q554 213 549 192L550 124Q561 111 561 99Q561 90 538 84Q514 91 514 115Q514 121 503 155Q503 158 507 180V229Q526 387 547 433Q552 436 558 436H563Q571 436 576 408Q568 390 562 353Q555 353 547 297L579 380Q606 415 615 442Q673 510 676 510ZM338 328 340 238H345Q345 250 382 368H377Q338 331 338 328ZM289 300H282Q282 288 253 269Q177 193 174 186V173Q188 153 230 139H261Q289 139 322 204Q315 219 308 254V288L310 309H307Q298 300 289 300Z" fill="#000000" />
  </g>
</svg>
