<?xml version="1.0" encoding="UTF-8" standalone="no"?>
    <svg xmlns="http://www.w3.org/2000/svg"
        width="1000"
        height="1000"
        viewBox="0 0 1000 1000">
    <g transform="translate(215.8570,645.7654) scale(0.56828598, -0.56828598)">
        <path d="M642 753Q715 728 717 718Q717 702 677 647Q635 535 623 514Q623 508 634 502Q662 518 674 518H681Q732 510 732 486Q720 486 697 443Q688 443 666 408Q652 408 646 381Q591 360 591 338Q518 279 505 279Q505 275 478 251H458Q458 232 388 189Q352 183 352 161Q318 147 317 138V130Q337 107 380 95Q380 78 466 40Q504 16 580 1H627Q635 1 642 5Q717 -12 717 -34Q711 -54 689 -54H627Q560 -48 395 36Q394 43 325 75Q294 110 274 110H266Q189 36 78 -7H39Q1 -7 -4 28L0 48H16Q16 32 39 16H63Q162 57 247 126Q219 141 219 146V150Q220 157 227 157H243Q246 157 274 150H282Q457 282 525 342Q568 382 568 389Q573 389 615 436V447Q560 460 560 490V506Q582 577 646 710V714H619Q608 714 595 721Q595 708 536 620Q536 611 489 514Q470 467 470 447Q452 447 431 298Q409 279 407 279H399L368 306Q361 302 352 302L348 310Q397 401 458 608V612L446 620Q424 592 392 510L337 408Q295 267 258 267Q240 267 215 302V342Q254 499 294 592V596H282Q239 580 235 580H204Q184 580 149 608V612Q149 620 188 624L196 620Q263 634 282 655Q311 655 368 624L372 616Q338 552 325 533Q298 499 298 455Q290 433 278 420V408Q279 400 286 400Q304 417 333 483Q433 629 458 686Q458 697 450 710Q456 725 462 725H470Q521 699 521 671V655H525Q584 753 599 753ZM470 220H478Q485 220 540 197Q547 197 587 220L650 189V185Q650 169 564 150Q458 176 458 208Q458 214 470 220ZM815 181Q943 118 1006 52V36Q1006 30 995 24Q972 24 893 95Q884 95 834 142Q803 151 803 161V169Q803 175 815 181Z" fill="#000000" />
    </g>
    </svg>
    