<?xml version="1.0" encoding="UTF-8" standalone="no"?>
    <svg xmlns="http://www.w3.org/2000/svg"
        width="1000"
        height="1000"
        viewBox="0 0 1000 1000">
    <g transform="translate(215.8570,645.7654) scale(0.56828598, -0.56828598)">
        <path d="M441 802Q472 802 520 749V743Q506 731 489 696Q474 696 448 648L434 645V639H458Q474 652 507 669Q582 633 582 627Q586 627 593 612Q574 569 534 544Q523 520 510 520V502H520Q536 502 589 461V458Q589 453 575 446Q558 446 493 485H486Q481 485 465 455Q451 434 400 425H376Q324 436 324 458V476Q336 527 359 553Q321 567 321 571V577Q406 626 434 704Q444 706 462 767Q434 783 434 796Q435 802 441 802ZM372 568V556Q403 556 458 526Q496 551 531 624V630Q531 634 520 639H514Q505 629 448 609Q448 604 410 583Q395 568 372 568ZM366 505V476L372 455H390Q395 455 434 494V511Q434 519 397 526Q366 510 366 505ZM524 428Q562 421 562 410V404Q535 384 524 384V363L507 324Q507 296 489 280V271Q490 265 496 265Q549 315 603 327L610 324L624 330Q634 330 723 300Q765 300 789 247L792 232V191Q768 92 723 48Q676 1 637 -5Q618 -25 579 -35Q573 -47 555 -47Q523 -20 510 -20Q485 -20 455 60V179Q455 183 445 188H431Q331 141 331 78Q331 67 317 54V48Q331 36 331 24V18Q331 14 321 9Q262 14 262 45L235 200Q229 200 221 211V220Q258 220 345 286Q390 317 400 330Q410 330 427 351Q366 359 366 369V375L369 381L393 378H403Q429 382 524 428ZM276 208 293 137 300 134H310Q352 182 359 182Q445 222 445 259L455 309V318H445Q376 268 355 268Q332 254 314 226Q276 216 276 208ZM603 300H593Q593 294 541 268Q489 230 489 226V202Q490 197 496 197H510Q522 197 541 200Q593 186 593 161Q580 131 565 131Q565 102 531 84Q531 75 496 60Q496 57 489 36Q514 20 514 1L527 -8Q591 1 672 63Q741 139 741 188Q744 188 744 197V232Q737 289 689 289Q645 306 631 306Q606 300 603 300ZM469 170V161Q483 146 483 143Q476 133 476 125Q484 87 489 87Q518 133 538 155V170Z" fill="#000000" />
    </g>
    </svg>
    