<?xml version="1.0" encoding="UTF-8" standalone="no"?>
<svg xmlns="http://www.w3.org/2000/svg"
     width="1000"
     height="533"
     viewBox="0 0 1000 533">
  <g transform="translate(290.0000,415.4200) scale(0.42000000, -0.42000000)">
    <path d="M586 751 601 744Q608 748 612 748Q656 748 693 678Q707 676 707 667V579Q683 525 667 472Q646 430 619 391Q614 365 549 329Q538 300 538 292V281H549Q597 272 597 241V233Q597 223 531 127Q490 84 458 42Q458 37 469 31Q492 42 502 42L542 31H564Q574 31 586 39L619 9Q641 9 641 -16V-24L623 -27L527 2H505Q461 -31 417 -42Q362 -21 362 -9Q391 20 391 35Q391 53 417 68Q430 98 450 98V120Q396 131 355 186V189Q355 220 443 244Q443 251 483 259H494V307Q494 310 487 336V362Q487 369 480 369Q451 318 447 318Q417 347 403 347Q353 347 344 435Q333 463 322 582Q318 582 296 659V667H300Q333 667 362 582Q366 582 366 579V571L362 564L369 560H384Q426 659 443 659Q474 703 542 737Q542 743 586 751ZM414 560V549Q414 530 399 524Q399 520 403 513Q399 493 399 480H410Q483 526 483 557Q560 557 560 531V527Q546 487 546 483L549 457Q534 435 531 435V432Q531 428 538 402V377Q540 369 546 369Q628 466 645 546Q663 581 663 593V681Q637 722 608 722H586Q461 698 461 626Q425 561 414 560ZM406 443V432Q419 362 428 362Q470 394 487 424V454Q494 480 494 483V487H476Q419 443 406 443ZM428 189V156L454 149H476Q481 149 494 167V215L491 222L447 200Q428 199 428 189Z" fill="#000000" />
  </g>
</svg>
