<?xml version="1.0" encoding="UTF-8" standalone="no"?>
<svg xmlns="http://www.w3.org/2000/svg"
     width="1000"
     height="652"
     viewBox="0 0 1000 652">
  <g transform="translate(290.0000,427.6000) scale(0.42000000, -0.42000000)">
    <path d="M623 780Q682 759 681 740Q670 709 654 710L647 698Q647 695 650 694L645 663L644 642Q644 631 652 619L694 636L709 635Q756 627 755 608Q745 608 725 575Q711 571 688 524Q675 523 675 515Q686 506 696 505L709 504Q731 509 734 509L765 508Q824 499 823 477Q825 470 825 467Q823 418 741 403Q705 412 668 444H662Q612 421 610 410Q610 401 599 382Q605 372 605 363L604 357Q604 349 597 339Q603 328 602 320L600 282Q600 279 605 257L604 232Q604 228 613 223L622 222Q623 229 664 248L674 260L676 303L671 325L681 331L696 330Q703 330 704 296L716 286Q719 286 741 291Q750 290 759 283Q765 286 772 286Q838 260 847 232Q873 216 883 199L881 159L863 110Q849 109 839 83Q824 77 802 19Q788 16 772 -23Q744 -34 696 -90Q690 -90 640 -150Q627 -149 588 -194Q573 -193 546 -229Q479 -282 468 -281H459Q458 -296 421 -294V-285Q432 -270 492 -233Q603 -139 693 -37Q693 -32 709 -16L710 -1L695 0Q687 20 634 28L590 30Q554 48 538 49Q527 60 499 73Q493 70 486 70L472 90Q472 100 512 147Q513 157 538 164Q571 191 571 197L572 215L563 278L564 300Q565 311 562 328Q566 334 566 337Q564 337 557 344L537 326Q524 341 485 345Q485 349 476 354Q431 277 418 242Q423 232 423 223Q410 195 400 153Q392 147 388 147L385 91Q384 80 386 63Q383 58 382 44Q392 2 393 -53Q396 -53 396 -56Q389 -66 388 -74V-81Q398 -100 410 -138Q403 -152 397 -153L381 -152Q355 -138 335 -137Q297 -104 299 -48Q296 -48 297 -38Q309 -14 314 -14H317Q328 -35 343 -44L347 -38L354 96Q354 100 345 106L311 54Q240 69 241 83V86Q249 111 264 110Q292 123 353 255Q356 255 356 258L357 270Q357 273 352 295L359 308Q353 318 353 327L360 339L352 361Q329 350 323 350L318 360Q318 368 353 370Q356 376 356 379L354 398L358 414Q358 421 355 426Q359 443 360 454L362 485L352 486Q308 446 268 428L204 400L130 404Q123 404 84 422L85 434Q85 439 94 443H101Q103 443 125 435L163 433Q248 449 342 527L365 550L369 631Q370 653 392 652L398 651Q448 645 447 621Q446 607 479 582Q479 573 453 561Q452 552 427 535Q426 532 413 517L412 492L397 443L394 390L410 389Q453 379 452 371L448 350L461 349L462 371Q480 386 498 406H501Q507 406 507 396H519Q520 405 558 428Q559 436 565 446Q560 457 560 465L564 543L552 544Q551 524 523 520Q506 521 498 534Q499 539 533 545Q566 569 566 583L570 646Q577 667 577 670L579 714Q598 771 608 778ZM654 598 653 579Q653 574 662 569H672V578Q673 587 686 608Q680 612 677 612Q657 605 654 598ZM606 500 605 485Q605 479 611 478Q631 505 631 518L632 533L623 534Q614 534 606 500ZM703 458Q709 447 709 442L718 441L746 446L747 462Q747 466 738 472L720 473Q715 473 703 458ZM703 221V215Q715 201 714 189L713 171Q713 168 706 146L705 140Q709 82 725 39L723 11Q724 5 729 4Q783 78 813 165L814 196Q815 220 780 251Q772 252 759 265H746Q731 250 710 239Q704 229 703 221ZM660 220Q659 218 626 175L623 116L635 115Q636 131 665 210V214Q666 220 660 220ZM548 107 547 86 576 62H592Q596 61 602 70Q584 142 578 143L551 107Z" fill="#000000" />
  </g>
</svg>
