<?xml version="1.0" encoding="UTF-8" standalone="no"?>
<svg xmlns="http://www.w3.org/2000/svg"
     width="1000"
     height="557"
     viewBox="0 0 1000 557">
  <g transform="translate(290.0000,420.8800) scale(0.42000000, -0.42000000)">
    <path d="M601 764Q617 758 625 743V736Q611 714 560 695L532 708Q508 695 497 695H490Q457 695 397 736V746Q397 751 407 757Q423 757 449 736H497Q563 750 601 764ZM387 688Q425 669 425 650V629Q416 557 404 532L411 529H435Q473 529 473 574Q473 577 480 601V636Q480 645 473 657Q478 670 483 670Q515 670 515 643V594Q515 591 508 567V556H525Q546 556 556 532Q547 510 539 508H515Q515 493 501 470L508 466H518Q542 473 546 473H553Q570 473 591 449V442Q591 433 515 404L494 373L501 370H518L587 390H629Q638 390 670 404L684 397L698 404Q770 390 784 373Q800 373 840 331V276Q805 210 805 197Q805 187 771 148Q771 141 736 93Q736 87 708 51Q708 27 663 -11Q641 -44 611 -52Q611 -76 566 -87Q531 -67 494 -52Q494 -46 428 3Q409 37 397 79Q406 86 407 86H414L477 -7Q530 -39 539 -39H546Q593 -28 649 38Q687 76 732 165Q798 290 798 311V325Q782 353 705 370H691Q634 360 622 352Q603 356 594 356Q564 333 497 318L483 290L459 293H456Q400 274 400 245Q390 228 387 228H380Q335 251 335 269V280H317Q300 280 297 290V297Q297 302 342 321V394Q356 424 369 497V532Q383 588 390 636Q381 667 369 667V674Q371 681 387 688ZM390 432 400 425Q455 446 459 446V494H414Q406 492 390 432ZM445 418Q445 409 418 401H397Q397 388 383 373V356H394Q446 397 452 397V411Q452 418 445 418ZM504 204H525Q598 181 598 148Q589 141 587 141H580Q542 155 539 155H497Q488 155 477 162Q465 155 456 155H421Q307 134 241 110Q148 117 148 141V145Q153 159 158 159L207 148H234Q348 176 428 190H463Q501 204 504 204Z" fill="#000000" />
  </g>
</svg>
