<?xml version="1.0" encoding="UTF-8" standalone="no"?>
<svg xmlns="http://www.w3.org/2000/svg"
     width="1000"
     height="581"
     viewBox="0 0 1000 581">
  <g transform="translate(290.0000,403.6600) scale(0.42000000, -0.42000000)">
    <path d="M664 723 702 698V664Q717 664 723 631L688 606Q684 606 639 543L590 497V484Q575 430 541 430V417Q541 407 573 401Q580 370 601 346H608Q639 384 664 397Q664 402 681 413Q681 442 748 472Q783 455 783 443Q773 408 716 380Q672 341 643 321Q643 314 632 300Q632 287 692 192Q721 152 730 120Q737 120 783 49Q913 -80 937 -80Q942 -80 948 -68Q941 -54 941 -43V108Q945 139 955 141Q965 136 983 49Q976 36 976 24Q991 -69 1000 -93Q1007 -93 1039 -160L1028 -185Q1003 -185 983 -164Q941 -156 941 -139H923Q874 -85 835 -59L765 16Q696 99 664 154L601 254Q601 263 594 263Q560 263 541 175Q541 155 513 112L506 87L510 66Q501 39 492 37Q492 32 496 24Q491 -32 475 -39Q446 -30 419 -5Q401 -5 401 7V41Q409 91 415 108L408 112H405Q359 107 359 74Q366 61 366 49V-89H359Q348 -75 314 -64Q289 28 289 41V70H275Q275 48 244 24H237Q229 24 226 45H212Q212 20 202 20L181 53Q156 53 156 66V100Q156 112 170 141Q163 155 163 166Q184 237 209 380Q212 380 212 392V426Q212 432 202 438L177 430L174 438V443Q189 472 209 472Q220 463 230 463H240Q284 573 307 581Q307 594 328 610H335Q384 580 384 572Q387 572 387 560V501Q387 490 380 476Q387 462 387 451L373 417Q384 397 384 384L373 367V309L366 279L370 258L366 250Q370 243 370 233Q359 212 359 200Q369 154 377 154Q408 165 419 187Q419 192 422 200L415 217Q422 230 422 242V292Q436 378 443 401Q436 414 436 426Q457 491 457 514Q464 514 464 535V581Q456 581 408 627Q408 638 447 643Q447 653 464 656Q471 646 471 631H482Q497 648 510 648H520Q520 659 597 689Q651 710 664 723ZM510 597H492V585Q492 576 538 564Q538 547 559 530H566Q621 614 625 614Q638 615 646 660V664H643Q576 644 555 622Q521 597 510 597ZM254 392V380L258 371Q290 397 300 397Q324 380 335 380H338V539H335Q303 539 289 468Q279 467 254 392ZM513 514 506 484V468H510Q524 489 534 489V514ZM464 258V242Q464 236 475 229Q501 260 520 267Q520 274 562 313V317Q562 335 520 392V397H510Q486 397 475 271Q470 271 464 258ZM275 338Q230 288 230 229Q226 229 219 208Q226 204 230 204Q260 204 279 313Q282 313 282 325V330Q282 338 275 338ZM303 279Q303 258 296 258H293L286 263L275 242Q317 226 317 208Q310 195 310 183V171H324L331 208V263Q317 263 317 279ZM457 133 464 129H471Q492 173 492 183V187H482Q472 187 457 133ZM219 83H223Q261 136 261 158V162H244L219 120ZM317 120Q317 104 303 104V91Q303 85 314 79H321Q326 79 331 91V120Z" fill="#000000" />
  </g>
</svg>
