<?xml version="1.0" encoding="UTF-8" standalone="no"?>
    <svg xmlns="http://www.w3.org/2000/svg"
        width="1000"
        height="1000"
        viewBox="0 0 1000 1000">
    <g transform="translate(215.8570,645.7654) scale(0.56828598, -0.56828598)">
        <path d="M605 790H648Q684 783 699 776Q711 783 721 783Q751 783 776 743Q754 692 754 685L761 670Q755 653 746 605V-27L754 -38V-136L776 -162V-166Q776 -191 750 -191Q740 -191 710 -169Q698 -169 656 -147Q653 -147 601 -115Q590 -111 590 -93L597 -89Q667 -113 685 -133H696V311H681Q681 306 627 252H597Q578 252 561 271Q561 289 601 343Q601 347 608 372V380Q608 385 597 391H579V372Q532 239 532 194Q522 194 517 136Q509 136 485 49Q473 27 463 27V16Q463 -25 401 -46Q387 -40 387 -35V-31Q407 -19 427 9Q457 67 467 122Q492 192 503 252L532 398Q532 408 543 460V525Q543 528 550 554V634L543 667H525Q520 667 514 678Q519 696 539 696Q608 681 608 649V583L594 503V467Q594 454 579 438Q579 427 623 423Q670 407 670 380Q670 374 659 369L663 351L659 343L666 340H688L696 372V736Q673 761 641 761H605Q559 755 521 718H510V721Q510 769 605 790ZM307 514Q310 514 336 507H401Q412 507 419 474V452Q412 426 412 423V394Q419 368 419 365V336L405 271V82Q405 55 387 53Q325 72 325 103V107H332Q334 107 343 100H354V122L350 158Q356 158 361 169V245H347V234Q342 187 321 187Q309 180 299 180Q252 185 252 212Q287 264 303 278V303H292Q279 303 263 318H249Q243 318 238 307V260Q238 252 223 252V249Q234 203 234 191L230 183L238 169Q232 154 227 154H219Q203 172 176 176L172 183V205Q186 260 194 321V358Q194 361 201 387V405H179V412Q192 434 212 434Q224 427 234 427H245Q272 514 307 514ZM259 391 263 372Q263 364 245 361V351Q245 345 256 340Q281 347 285 347H328L354 340L361 351V445Q361 478 328 478Q295 455 263 391Z" fill="#000000" />
    </g>
    </svg>
    