<?xml version="1.0" encoding="UTF-8" standalone="no"?>
    <svg xmlns="http://www.w3.org/2000/svg"
        width="1000"
        height="1000"
        viewBox="0 0 1000 1000">
    <g transform="translate(215.8570,645.7654) scale(0.56828598, -0.56828598)">
        <path d="M668 729H674Q681 729 681 719Q676 706 623 677Q610 677 511 572Q511 556 484 546Q435 571 435 590Q457 632 477 682Q470 693 470 703Q477 716 491 716Q544 706 543 681Q543 658 550 658Q550 664 604 697Q604 707 614 707Q620 703 624 703Q624 716 668 729ZM660 669H673Q687 669 710 648L709 642Q652 573 608 560Q600 537 584 537L560 514Q573 470 573 467Q573 464 566 441L565 417L569 411L636 443Q655 442 666 452L660 466L687 519Q657 525 657 532L658 536Q658 542 691 549L744 528L747 511V504Q747 499 706 472V455H716Q739 454 739 431Q739 426 729 421L696 422Q678 409 675 409L662 416Q630 396 622 396L612 397Q611 383 601 383H595Q571 391 568 391Q556 391 547 291Q544 291 536 254L535 214Q535 211 528 188L521 -219Q521 -222 527 -246L526 -293Q519 -316 519 -319V-322Q532 -323 538 -369Q542 -371 551 -400Q542 -428 534 -429H524Q517 -423 487 -419L484 -412L485 -372Q485 -363 492 -352Q485 -341 486 -332Q492 -321 493 -312L505 388Q505 391 512 415L513 478H503Q479 472 476 472Q460 477 460 496V499Q482 536 524 535L649 639L650 649L633 650Q626 650 626 656Q626 663 660 669ZM336 448Q402 434 402 424Q412 420 412 403L411 390Q397 331 369 271V264Q369 255 399 250Q399 237 432 213Q441 189 441 183Q441 173 411 167Q403 167 401 180L371 181Q353 181 325 208Q189 110 183 110Q172 117 167 117Q157 84 136 85H129Q89 93 89 99L90 102Q148 128 177 171Q247 211 249 239V243H239L113 282L109 289L110 295Q110 300 120 305Q123 305 146 298Q167 298 227 360Q244 372 251 389Q259 389 305 432Q323 448 336 448ZM318 402Q295 374 267 356Q266 342 203 294V284Q208 283 266 269H289Q290 282 317 355L325 385V395Q325 402 318 402ZM739 366Q746 364 751 348L737 303Q736 294 742 282L734 270Q734 266 737 266L731 233L730 216Q729 206 775 199Q801 188 800 177Q778 157 778 152L748 118Q747 109 733 96L728 46L738 45Q741 45 765 49L818 45Q866 20 877 19L893 18Q893 12 902 0L901 -6Q901 -11 883 -21H876L829 10Q824 11 818 1L785 7L782 8Q779 8 755 3L741 4Q732 5 722 13Q712 -7 618 -28Q610 -43 603 -44Q561 -31 549 -9L550 -2Q582 32 604 43Q605 51 630 68Q626 68 584 122L585 129Q648 183 683 180L687 187L697 296L683 297Q681 272 629 255Q611 257 604 274Q610 299 620 300L626 299L639 288Q639 293 701 346Q721 368 739 366ZM652 96V93Q652 86 658 85L688 120L689 130L672 131Q663 132 652 96Z" fill="#000000" />
    </g>
    </svg>
    