<?xml version="1.0" encoding="UTF-8" standalone="no"?>
    <svg xmlns="http://www.w3.org/2000/svg"
        width="1000"
        height="1000"
        viewBox="0 0 1000 1000">
    <g transform="translate(215.8570,645.7654) scale(0.56828598, -0.56828598)">
        <path d="M437 776Q476 768 477 744Q477 736 442 722Q442 704 379 642L386 639H404Q424 640 446 661Q458 655 468 655H471Q473 669 482 669L510 670L589 685Q614 674 614 657Q572 644 572 624Q562 624 505 570H501L502 552Q560 512 560 495V488Q560 485 553 460V456L589 460Q618 440 618 429Q544 395 545 331Q542 295 535 266V256H568Q593 264 596 264L646 265Q649 265 675 258H693L692 269Q674 288 674 290V294Q675 301 681 301Q690 301 725 266Q751 267 837 207V193L819 189Q772 195 772 217L740 216L675 229L547 227Q542 227 529 209L532 52Q532 48 525 23L527 -56Q520 -81 520 -84L521 -156Q512 -245 498 -245Q498 -256 491 -256L487 -249L479 194Q479 199 468 204Q375 183 316 141Q263 112 245 86Q245 81 231 72L224 71Q170 84 170 113V124Q202 125 248 154Q321 201 392 264Q403 264 491 369L490 398H479Q395 342 395 296Q387 274 381 274Q328 273 326 352Q323 352 323 363Q322 418 508 623Q507 628 497 634Q434 604 408 604Q396 603 347 581Q301 597 300 620Q301 628 367 689Q367 695 377 707L370 732Q399 757 437 776ZM452 519V508Q453 493 397 432Q376 380 376 371V367H387Q411 397 461 422Q461 431 493 437L496 444L495 502L488 534L477 533Q461 519 452 519ZM477 305Q471 285 411 239H407V225H411Q486 241 485 258V298Q485 305 477 305Z" fill="#000000" />
    </g>
    </svg>
    