<?xml version="1.0" encoding="UTF-8" standalone="no"?>
<svg xmlns="http://www.w3.org/2000/svg"
     width="1000"
     height="726"
     viewBox="0 0 1000 726">
  <g transform="translate(290.0000,425.9200) scale(0.42000000, -0.42000000)">
    <path d="M497 776Q509 767 544 759Q544 755 547 750Q530 708 530 702Q535 693 535 685V679L524 626Q524 623 530 602V581H533Q554 587 556 587Q599 577 609 555V549Q591 526 571 513Q571 497 544 481Q544 471 524 454V433Q525 428 530 428Q530 437 568 445H592Q633 442 633 419Q618 409 603 386Q595 386 562 345Q556 345 530 315Q514 315 485 283Q482 273 429 244L423 235Q429 226 429 218V200Q423 179 423 176V173H432Q479 173 509 250L553 315H562Q612 296 627 286Q636 275 636 265Q631 251 624 212V203H627Q648 209 651 209H680Q683 209 704 203H745Q799 195 828 179V170Q825 161 810 161H787Q784 161 763 167H739Q624 144 624 129Q624 111 612 76V58Q612 46 606 -84V-471Q606 -477 601 -477H598Q589 -475 589 -453V-326Q583 -305 583 -303V-125Q583 -122 577 -102V28Q571 50 571 52V138H556Q554 138 533 144H500V153L515 156H571V173H544Q470 162 470 141Q455 141 450 61Q420 43 420 -22Q415 -45 397 -45H391Q378 -28 376 -28Q368 -28 361 -22Q361 -16 370 23V114H361Q339 114 258 58Q226 20 207 20Q167 38 166 46Q166 69 284 161Q352 212 352 224Q346 233 346 241V253Q346 270 361 274Q386 256 397 256Q492 336 547 395L541 398H533Q523 388 494 377Q490 355 423 330Q423 319 373 309Q366 309 329 324V333Q388 375 453 436V451Q440 451 426 475Q389 490 379 490Q379 496 355 513V516Q356 522 361 522H391Q403 532 473 558H482L488 578V626Q482 646 482 649V697Q482 699 488 720V726Q488 730 479 735H470Q470 722 438 717H423Q423 705 414 705H397Q376 705 361 729Q346 729 346 738Q346 742 355 747H391Q447 755 497 776ZM476 528 447 507V501Q447 483 468 469H482V522Q482 528 476 528ZM518 229V212L524 191H527Q529 191 550 197H571V218Q571 220 565 241V268H556Q552 268 518 229ZM281 123Q281 119 290 114L370 153Q370 155 376 176V182Q376 186 361 197Q319 147 281 123ZM630 176V167H645L666 173V185H639Q635 185 630 176Z" fill="#000000" />
  </g>
</svg>
