<?xml version="1.0" encoding="UTF-8" standalone="no"?>
    <svg xmlns="http://www.w3.org/2000/svg"
        width="1000"
        height="1000"
        viewBox="0 0 1000 1000">
    <g transform="translate(215.8570,645.7654) scale(0.56828598, -0.56828598)">
        <path d="M408 772 412 771Q418 771 442 756Q462 752 460 735Q442 726 441 714V710Q441 704 445 697L440 688Q451 656 450 652L446 598Q456 597 456 573Q466 557 504 545L508 538Q507 521 452 525Q423 515 422 492L415 396Q415 393 418 378L417 362L432 361Q499 379 501 398L505 400L518 399Q527 399 556 377V372Q542 350 488 311L460 291Q460 285 437 275Q437 273 414 255L418 252H425Q458 272 465 271Q486 258 499 253L505 240Q487 204 475 191Q474 180 438 165Q430 151 420 151L419 143L426 142Q545 102 590 80Q630 58 688 36Q698 35 725 20Q733 20 750 10Q757 9 787 -6Q796 -7 845 -23L875 -26L920 -20L994 -25Q1003 -26 1019 -42V-47Q1018 -61 894 -66L877 -65Q866 -64 751 -17L693 9Q654 20 602 51Q582 63 563 64Q527 79 518 87L509 84L493 93Q489 92 484 92Q481 92 476 103L467 100Q441 115 433 115L424 116Q403 116 356 90Q325 52 300 41Q299 34 270 19Q269 9 240 6L193 27Q189 32 190 33V38Q252 86 261 86Q262 92 284 99Q291 109 344 130Q344 134 375 146Q376 150 416 189Q442 217 443 227V229L441 233Q435 234 420 217Q385 220 368 192L317 159Q272 179 273 192Q294 196 317 220L370 262Q407 281 408 295Q451 334 455 336V347H449Q433 328 397 331Q380 322 361 318Q357 312 332 309Q328 297 268 283Q268 280 221 268Q221 265 176 247Q117 212 29 183L11 184Q-17 191 -44 212V217Q-41 223 -30 222Q-23 217 -17 217L37 213Q38 223 62 222Q195 281 299 316Q384 347 389 347L390 356Q358 370 359 384V386L374 383H379V394Q380 396 376 411L378 438Q375 453 375 455L377 484H375Q370 484 321 475Q294 487 294 494H288Q272 496 273 509Q279 513 280 513L302 511Q337 517 381 536L383 569Q383 571 380 587L381 609Q381 611 387 626Q383 633 383 639L386 674Q386 676 392 692L394 731Q395 737 400 744L396 753Q403 771 408 772ZM771 491Q828 462 842 414Q836 394 803 362Q793 362 773 333Q769 333 752 313Q707 300 706 285Q692 282 687 267Q667 257 660 258L659 249L670 248Q699 238 715 223Q737 218 746 203Q787 174 800 151Q827 130 826 119L810 111Q769 138 754 156Q754 168 729 180Q707 219 631 224Q603 251 598 251V257Q599 266 639 266Q653 284 674 296Q674 301 742 359Q795 429 796 439L777 460Q747 452 711 423Q707 423 678 419Q636 444 636 450L637 457L658 455Q674 454 757 488Q763 488 771 491Z" fill="#000000" />
    </g>
    </svg>
    