<?xml version="1.0" encoding="UTF-8" standalone="no"?>
<svg xmlns="http://www.w3.org/2000/svg"
     width="1000"
     height="522"
     viewBox="0 0 1000 522">
  <g transform="translate(290.0000,391.4800) scale(0.42000000, -0.42000000)">
    <path d="M561 693 580 694Q622 680 622 667Q621 652 579 614Q580 598 561 598V582Q462 509 463 483Q467 465 519 437L522 421L523 412Q546 413 561 331Q571 337 579 338L646 340L745 331L751 334L825 317Q825 316 845 299V293Q846 275 830 267H827Q806 282 794 281Q783 278 782 278Q769 287 689 287L663 302L587 300L565 293V289Q565 286 572 264L573 251Q573 248 562 213V207Q562 204 569 181V175Q570 164 546 123L552 111L521 11Q510 4 497 -34Q488 -35 476 -73H473Q438 -69 437 -55L415 -56Q366 -13 366 -7Q333 -8 282 197Q211 244 210 261L219 268H238Q241 268 264 263L296 264L422 300L435 294L498 316H513V332Q506 354 506 357L505 383Q482 426 475 426Q438 460 416 459Q401 458 393 480Q393 491 430 514Q519 583 565 665Q555 680 554 690ZM474 264 429 262Q423 262 307 220V217Q307 208 343 84L377 22Q394 1 417 -18L433 -14L446 -23Q493 16 519 167L517 199Q517 202 523 224L521 269Q521 275 512 275Q507 275 474 264Z" fill="#000000" />
  </g>
</svg>
