<?xml version="1.0" encoding="UTF-8" standalone="no"?>
    <svg xmlns="http://www.w3.org/2000/svg"
        width="1000"
        height="1000"
        viewBox="0 0 1000 1000">
    <g transform="translate(215.8570,645.7654) scale(0.56828598, -0.56828598)">
        <path d="M508 831Q574 805 574 774Q594 764 630 751V749Q630 732 574 732Q531 709 531 661Q528 638 517 638V627H520Q522 627 559 638H582Q600 636 622 618Q622 595 554 559Q554 548 531 544L523 527Q528 518 528 510V493Q528 482 455 476L404 454Q404 451 392 451V440H395Q473 471 506 471Q540 485 593 496H639Q647 496 656 502L667 496Q672 499 678 499L684 496Q727 513 735 513H741Q781 506 809 476V474Q809 468 803 468H769Q767 468 747 474H718Q659 463 605 437Q599 440 596 440Q587 423 557 411Q535 403 528 380Q490 357 466 306L455 255V244H457Q473 265 503 318Q506 318 525 343Q564 368 571 377H576Q625 363 625 340Q619 331 619 323Q625 314 625 306Q619 293 608 227V131Q608 128 613 108V51Q613 48 619 28V-85Q630 -116 630 -119L625 -130Q565 -130 545 -62Q551 -53 551 -48H557Q558 -48 571 -59Q575 -59 579 -51V102Q579 105 574 125V267Q574 269 579 289V332H562Q562 324 528 301Q528 294 506 269Q506 253 489 233Q529 233 545 199Q545 196 534 182V170Q545 158 545 148V142Q537 136 508 85Q503 82 497 82Q483 82 457 102Q479 153 497 179L500 193V196Q500 201 494 201Q494 197 460 170Q460 159 443 102V-28Q443 -44 429 -48Q404 -48 392 0Q398 9 398 17V62Q404 82 404 85V131Q426 279 438 329Q438 335 446 335Q452 332 455 332Q496 419 593 459Q605 462 605 476H602Q595 469 559 465Q559 457 506 454Q496 441 386 408Q328 375 310 374Q273 342 174 292Q174 274 146 269L106 289L103 295Q103 305 137 315L256 394Q309 422 335 448Q412 486 415 493V502H406Q401 502 341 530V553H347L355 547Q420 589 477 604V612Q477 620 483 629Q477 639 477 646Q483 656 483 663V678Q483 683 477 683Q477 676 389 638H350Q307 646 307 655V663Q310 663 316 666Q326 660 350 655H361Q383 659 438 683Q482 702 489 715V737Q489 740 494 760V805Q500 831 508 831ZM457 576H449Q449 559 418 553H409Q398 527 398 522V519H406Q409 519 429 513H446Q480 536 480 570Q483 570 483 576L474 581Q465 576 457 576Z" fill="#000000" />
    </g>
    </svg>
    