<?xml version="1.0" encoding="UTF-8" standalone="no"?>
<svg xmlns="http://www.w3.org/2000/svg"
     width="1000"
     height="601"
     viewBox="0 0 1000 601">
  <g transform="translate(290.0000,446.5000) scale(0.42000000, -0.42000000)">
    <path d="M565 825Q630 800 630 769Q650 759 686 746V744Q686 727 630 727Q587 704 587 656Q585 634 573 634V623H576Q579 623 616 634H638Q656 632 678 614Q678 591 610 555Q610 545 587 541L579 524Q585 515 585 507V490Q585 479 511 473L461 451Q461 448 450 448V437H452Q529 468 562 468Q596 482 649 493H694Q702 493 711 499L723 493Q728 496 734 496L739 493Q782 510 790 510H796Q835 503 863 473V471Q863 465 858 465H824Q821 465 801 471H773Q715 460 661 434Q655 437 652 437Q643 420 613 409Q591 400 585 378Q547 355 523 305L511 254V243H514Q530 263 559 316Q563 316 582 341Q620 366 627 375H633Q680 361 680 338Q675 329 675 321Q680 312 680 305Q675 291 663 226V130Q663 127 669 107V51Q669 49 675 29V-84Q686 -115 686 -118L680 -129Q621 -129 602 -61Q607 -52 607 -47H613Q614 -47 627 -59Q631 -59 635 -50V102Q635 104 630 124V265Q630 268 635 288V330H618Q618 322 585 299Q585 292 562 268Q562 251 545 231Q586 231 602 198Q602 195 590 181V169Q602 158 602 147V141Q593 136 565 85Q560 82 554 82Q539 82 514 102Q536 153 554 178L557 192V195Q557 200 551 200Q551 196 517 169Q517 158 500 102V-28Q500 -43 486 -47Q461 -47 450 0Q455 10 455 17V62Q461 82 461 85V130Q483 278 495 327Q495 333 503 333Q508 330 511 330Q553 417 649 457Q661 459 661 473H658Q651 466 616 462Q616 454 562 451Q552 438 444 406Q386 373 368 372Q332 340 233 290Q233 273 205 268L165 288L162 293Q162 304 196 313L314 392Q367 420 393 445Q469 483 472 490V499H464Q458 499 399 527V549H405L413 544Q477 585 534 600V609Q534 616 540 625Q534 635 534 642Q540 652 540 659V673Q540 679 534 679Q534 672 447 634H407Q365 641 365 651V659Q368 659 374 662Q384 656 407 651H419Q440 655 495 679Q539 698 545 710V732Q545 735 551 755V800Q557 825 565 825ZM514 572H506Q506 555 475 549H466Q455 523 455 518V516H464Q466 516 486 510H503Q537 532 537 566Q540 566 540 572L531 578Q522 572 514 572ZM200 704Q239 684 239 679L254 682Q262 674 294 667L300 658V652Q281 607 260 607H236Q230 607 230 613V616L239 628Q239 660 203 673Q190 678 190 695Q190 699 200 704ZM130 443H133Q144 443 203 397Q219 397 224 361Q239 353 239 336V324Q233 303 233 300Q239 290 239 282V264Q233 242 233 239V236H245Q280 321 294 321V336L324 370H330V367Q330 358 300 288Q303 282 303 276Q298 276 285 248Q280 248 275 239V203Q275 194 257 194V160Q257 152 251 142Q254 137 254 130Q245 115 245 106V75Q241 48 218 48Q212 48 166 75V81L178 142V197Q178 199 184 221V349Q184 388 130 434Z" fill="#000000" />
  </g>
</svg>
