<?xml version="1.0" encoding="UTF-8" standalone="no"?>
    <svg xmlns="http://www.w3.org/2000/svg"
        width="1000"
        height="1000"
        viewBox="0 0 1000 1000">
    <g transform="translate(215.8570,645.7654) scale(0.56828598, -0.56828598)">
        <path d="M524 828Q555 827 564 808L559 772V749Q559 742 565 742L579 760L577 786H587L619 759Q610 693 570 694Q570 690 563 664L561 605Q561 600 570 594Q573 594 598 600Q642 580 644 574Q643 553 609 537Q609 526 564 486L570 483L574 482Q669 510 682 510L810 508Q819 507 846 485Q859 484 859 470L849 462H842Q830 463 816 478Q743 451 723 435Q692 424 672 407Q656 407 638 403L635 411Q636 427 711 465V480L708 487Q556 453 555 431Q558 405 558 401L547 394H537Q500 401 501 417H491Q480 403 399 382L357 342L348 54Q348 34 338 32H331Q322 42 288 51Q272 78 272 92Q278 107 283 107H286L299 95H309L313 228L300 229Q283 177 265 177L264 159Q263 129 212 112H206Q162 130 163 139V146L179 227V238H169Q119 256 120 265Q121 273 181 301Q194 301 203 360L205 412Q206 434 180 483L187 486Q231 474 229 426L236 422Q250 480 283 525H286Q346 506 343 428Q347 428 349 391Q422 412 517 502L519 546L515 547L443 507Q440 489 433 489Q396 495 396 508L397 515Q397 521 441 533Q500 573 519 572L521 635Q522 644 512 669Q486 655 437 641H431Q414 641 378 671V675Q378 684 476 703Q484 712 517 721L520 820ZM295 480Q263 448 262 400Q253 400 244 370L260 355H267Q311 369 312 380Q305 392 306 402L307 439Q301 480 295 480ZM551 371 588 370Q598 370 641 347Q659 347 671 291Q663 277 657 247L655 166Q662 139 662 136L660 25L672 -35Q665 -61 665 -64L663 -175Q663 -178 670 -205L669 -212Q665 -245 639 -245Q588 -231 537 -117Q495 15 482 32H472V28Q472 25 478 -1Q467 -27 467 -31Q417 -30 418 7V67Q418 70 426 96L427 170L441 229L442 296Q442 301 452 306H459Q462 306 486 298L510 335L544 368ZM564 349Q564 337 544 331Q543 312 523 301Q495 262 495 246Q491 244 468 206L474 202H478Q512 239 532 238H566Q609 223 609 196Q609 185 581 123V119Q591 119 591 111V108Q575 96 566 75Q512 34 512 28Q538 -26 573 -144Q613 -204 619 -204L626 -208L629 -200L632 -4Q632 -1 626 26L628 151Q628 155 622 181L624 333H614Q578 348 574 349ZM226 234Q226 224 232 211Q225 199 225 189V186L235 185Q277 239 315 276L316 310H293L250 248Q227 242 226 234ZM494 139 493 84 503 83Q535 106 568 193V201L559 208Q509 168 501 169Q501 165 494 139Z" fill="#000000" />
    </g>
    </svg>
    