<?xml version="1.0" encoding="UTF-8" standalone="no"?>
    <svg xmlns="http://www.w3.org/2000/svg"
        width="1000"
        height="1000"
        viewBox="0 0 1000 1000">
    <g transform="translate(215.8570,645.7654) scale(0.56828598, -0.56828598)">
        <path d="M602 774 660 745Q663 739 663 736Q627 703 621 703H618V687Q595 661 525 607Q525 594 505 594Q492 599 492 603V610Q512 623 512 632Q540 655 573 707Q585 707 589 768ZM741 629Q741 626 776 603V600Q734 578 683 578Q675 568 660 568H621Q473 523 415 497L351 478Q348 478 331 491Q327 491 315 474Q322 464 322 455V449Q315 426 315 423V346Q315 336 302 336V326Q302 323 296 300V255Q296 252 302 229V194H315Q315 209 415 323Q420 323 425 313Q420 284 373 226Q373 212 347 191Q345 155 322 123Q322 117 283 72Q283 52 270 52V30Q257 17 251 -3Q226 -32 206 -32H196Q186 -32 186 -12H170Q165 -12 160 -3Q160 6 202 72Q225 147 225 152V171Q194 226 147 226Q141 234 141 239H125Q118 239 118 246V249Q118 262 176 278H183Q239 270 247 258H257V339L270 397V449Q270 452 276 474V549H273Q260 549 235 523Q185 492 138 484Q83 503 83 513V520Q83 524 93 529H144Q264 578 264 616L280 620Q341 612 341 591Q341 581 357 565Q357 535 328 513V507Q328 502 338 497Q406 516 492 555Q620 600 628 600H637Q639 613 647 613H673Q733 629 741 629ZM673 491 718 468Q721 468 721 465V455Q721 436 637 352V346Q637 342 660 326Q660 311 637 281Q637 278 644 255V17Q657 -19 657 -22Q650 -51 641 -51Q579 -29 567 -3L528 59Q528 72 521 94V139Q522 146 528 146H531Q549 146 579 33H596Q600 33 605 42Q599 65 599 68V258H589Q578 249 544 233Q520 240 492 258V262Q526 278 541 300L496 333L463 458L473 465L525 445Q611 477 673 491ZM602 426H560L554 404V365Q554 362 560 339V323H573Q573 328 618 384Q618 392 644 429V439H628Q614 426 602 426ZM193 239V226Q205 226 235 200L238 207V217Q231 246 222 246H215ZM802 168Q811 168 844 146Q855 146 876 97Q889 97 918 17Q923 17 928 4Q928 -5 912 -12Q857 2 857 39Q857 73 792 159V162ZM396 146Q438 135 438 107V23Q451 9 451 1L441 -6H434Q423 -6 386 23Q386 48 380 68V107Q388 146 396 146Z" fill="#000000" />
    </g>
    </svg>
    