<?xml version="1.0" encoding="UTF-8" standalone="no"?>
    <svg xmlns="http://www.w3.org/2000/svg"
        width="1000"
        height="1000"
        viewBox="0 0 1000 1000">
    <g transform="translate(215.8570,645.7654) scale(0.56828598, -0.56828598)">
        <path d="M494 741Q526 741 548 682Q552 682 556 671Q548 659 548 649V511Q549 493 625 470Q665 443 665 427L654 419Q647 419 588 441Q541 441 523 361Q519 361 519 350V299Q512 273 512 270V237Q513 230 519 230Q530 242 618 273Q724 243 724 219Q718 200 698 200H687Q687 181 629 153Q610 118 515 51Q487 14 464 14L453 0V-11H472Q500 9 596 32Q608 25 618 25Q628 25 640 32L698 3Q698 -1 702 -8Q702 -18 650 -41Q650 -52 643 -52L621 -48Q621 -66 581 -84Q581 -88 545 -110H534V-99Q558 -79 563 -63Q614 -23 614 -4L603 3Q516 -20 508 -30Q500 -30 494 -26Q452 -42 442 -59Q407 -70 395 -70Q369 -56 369 -52V-44Q403 -1 453 36Q453 45 570 146Q608 191 643 226Q643 231 632 237H625Q616 225 563 215Q557 205 515 197L512 189V178Q526 177 526 167Q526 162 515 157Q507 157 457 186Q322 127 315 127Q219 76 161 40Q135 14 128 14Q96 -11 85 -11H41Q25 -11 -3 14V21Q1 32 19 32Q22 32 48 25Q309 157 373 178Q440 208 453 208V211Q453 214 446 240V277Q446 286 475 295V328Q475 331 483 357V376L479 383Q451 364 413 354Q358 368 358 394Q358 399 369 405Q395 390 406 390Q435 397 464 416Q481 422 490 438V606Q490 609 497 635V679Q497 683 483 733Z" fill="#000000" />
    </g>
    </svg>
    