<?xml version="1.0" encoding="UTF-8" standalone="no"?>
<svg xmlns="http://www.w3.org/2000/svg"
     width="1000"
     height="522"
     viewBox="0 0 1000 522">
  <g transform="translate(290.0000,401.1400) scale(0.42000000, -0.42000000)">
    <path d="M470 717H477Q554 694 554 676Q536 619 498 568Q498 551 458 500Q458 495 409 436Q391 408 387 408H368Q368 396 316 346Q308 346 257 297Q252 297 236 272Q213 262 180 235Q167 235 131 210Q118 205 81 198H63Q32 204 32 210Q33 216 38 216H88Q167 254 251 328Q299 382 381 470Q381 477 427 534Q473 622 473 630Q486 665 486 670V683Q461 701 461 710ZM548 538H557Q639 506 677 473Q701 452 782 396Q782 392 847 352Q855 339 918 300L924 291L940 294Q950 284 1029 263Q1029 260 1051 244V238Q1048 229 1032 229H1026Q940 241 903 269Q885 271 791 343Q785 343 761 368Q742 368 730 389Q622 460 585 500Q547 522 541 522V531Q542 538 548 538ZM501 402Q544 389 544 365Q560 353 560 349Q560 330 529 312Q517 272 517 269V216H538Q576 212 594 192V183L541 124Q532 105 523 105V96Q516 59 510 47L532 31H538Q547 31 557 37Q578 25 628 22Q652 8 652 -9V-21Q652 -26 643 -30L557 -6Q537 -12 529 -12H477Q422 -49 409 -49H390Q350 -37 350 -27Q350 -10 378 7Q378 14 406 34Q406 48 430 56V59L424 71Q435 96 439 96H443L455 81L473 108V167H470Q432 167 409 115Q393 105 384 105Q367 105 353 127V133Q354 142 449 192Q473 192 473 201V300Q473 308 467 318Q489 352 510 352V365H507Q486 365 449 340L427 337Q424 343 424 346H409Q393 346 390 355V362Q390 369 458 380Q458 386 501 402ZM510 152 517 149Q535 169 535 183V186H526Q517 186 510 152Z" fill="#000000" />
  </g>
</svg>
