<?xml version="1.0" encoding="UTF-8" standalone="no"?>
<svg xmlns="http://www.w3.org/2000/svg"
     width="1000"
     height="520"
     viewBox="0 0 1000 520">
  <g transform="translate(290.0000,399.0400) scale(0.42000000, -0.42000000)">
    <path d="M590 712H594Q642 711 641 646L652 586Q644 558 644 554L643 526H647Q676 533 679 533H696Q732 524 731 512Q731 495 665 413Q665 398 637 382L624 330V322Q623 316 635 309Q646 319 761 363Q761 374 801 387L802 419H790Q769 419 766 431V435Q768 443 774 443Q817 429 838 390Q837 350 667 293H655Q655 277 643 277H615Q599 228 581 194Q581 160 511 70Q497 71 490 43Q403 -48 380 -48L356 -47Q320 -41 321 -11Q325 -3 325 1H337Q345 -20 344 -23H365Q404 0 418 20L419 120Q419 128 411 128Q395 94 346 61Q244 -41 220 -45Q189 -27 184 -16Q192 2 218 104L220 188L216 216L224 220Q260 207 260 183L259 143Q246 51 225 31V27Q226 19 233 19H245Q288 66 306 66V90Q289 90 283 123H287Q291 123 319 114H323L325 238Q325 249 317 263Q326 276 326 283L314 291H302Q302 280 245 252Q233 252 103 162Q96 158 87 158H79Q58 159 55 171V179Q74 207 79 207L99 190Q302 331 327 331L329 447Q329 476 349 479Q367 471 369 463L368 406Q368 403 359 374V354H363Q394 354 416 409H420Q460 396 460 389V381Q445 354 371 318L366 310V286Q373 257 373 254L372 173Q372 170 363 141V129H375Q420 154 420 176Q404 183 405 205Q405 215 421 217V221Q421 224 414 253Q414 261 426 261Q446 248 458 248Q531 295 593 386V434Q593 438 602 466V479H582Q514 503 515 516Q520 536 543 536Q548 536 575 511Q587 519 603 519L605 651Q605 656 590 712ZM224 670Q261 669 275 581Q285 572 287 572Q348 595 359 595Q387 595 387 567Q387 551 310 540H302Q218 556 219 610Q219 630 212 658Q212 664 224 670ZM643 494 642 462 658 461 659 486Q659 494 651 494ZM559 307Q563 299 563 290H567Q575 290 575 298V310H567ZM538 247Q461 187 460 180V148Q460 144 467 115V87Q468 79 475 79Q524 160 550 234Q550 240 538 247ZM690 196Q731 186 896 36Q955 -27 955 -30Q955 -40 934 -49Q908 -49 867 12L705 159Q679 170 677 180L678 192Q682 192 690 196Z" fill="#000000" />
  </g>
</svg>
