<?xml version="1.0" encoding="UTF-8" standalone="no"?>
    <svg xmlns="http://www.w3.org/2000/svg"
        width="1000"
        height="1000"
        viewBox="0 0 1000 1000">
    <g transform="translate(215.8570,645.7654) scale(0.56828598, -0.56828598)">
        <path d="M518 652Q518 644 587 606Q573 495 447 322Q433 320 403 244Q372 244 323 177Q253 128 253 105Q232 69 203 69H187Q189 23 51 -4H45Q35 -4 35 7Q117 28 166 79Q276 167 311 224Q406 321 473 466Q501 556 500 569L498 637Q498 644 518 652ZM534 203H544V198H534ZM544 198H555V193H544ZM555 193H560Q584 183 586 172H581Q557 182 555 193ZM586 172H592Q607 172 675 141Q690 141 770 79Q780 79 844 27L898 -14Q880 -19 877 -19Q815 -19 766 53Q756 53 629 141Q608 141 586 172Z" fill="#000000" />
    </g>
    </svg>
    