<?xml version="1.0" encoding="UTF-8" standalone="no"?>
    <svg xmlns="http://www.w3.org/2000/svg"
        width="1000"
        height="1000"
        viewBox="0 0 1000 1000">
    <g transform="translate(215.8570,645.7654) scale(0.56828598, -0.56828598)">
        <path d="M464 745Q518 739 518 722V714Q482 652 468 652Q468 641 422 563V556H433Q526 610 530 610V629Q514 645 514 660Q514 665 526 672Q559 660 572 633Q588 633 603 575Q610 575 634 536V528Q601 494 580 494Q559 494 553 509V559Q553 565 541 571Q514 540 460 525Q460 513 410 501Q352 515 352 536Q407 637 456 710Q460 737 464 745ZM510 525 553 498Q553 492 507 443V424L510 416Q538 432 549 432H561V443Q561 465 580 470Q633 435 634 428V420Q634 411 588 405Q588 396 491 378Q413 284 309 192Q256 130 232 130H213Q213 106 139 68Q89 53 85 53H46Q0 62 0 68Q0 75 62 84H93Q184 140 321 262L387 335L391 343Q383 347 379 347Q355 331 317 327Q317 318 271 312Q271 302 224 293H201Q182 293 159 320Q159 330 201 339Q207 339 217 324Q426 393 433 401Q493 525 510 525ZM526 362Q629 319 719 269Q753 245 820 215Q829 193 897 177Q1018 142 1025 142Q1056 121 1056 115V107H990Q917 112 777 188Q751 210 681 246Q601 300 588 300Q514 330 514 354ZM534 285Q551 278 565 258V250Q559 241 487 223Q475 231 464 231L449 223Q431 230 418 250V258Q422 269 441 269Q454 262 464 262Q522 285 534 285ZM549 177Q562 177 576 149Q576 139 534 119Q534 104 468 84Q460 93 460 107H441Q414 107 414 130Q423 138 491 146Q491 162 549 177ZM565 53H572Q654 34 727 -13V-21Q727 -26 712 -32Q692 -17 596 -1H557Q529 6 526 6H518Q429 -11 367 -28Q357 -28 333 -40Q302 -24 298 -13Q298 -4 367 10Q375 20 472 37H518Q522 37 565 53Z" fill="#000000" />
    </g>
    </svg>
    