<?xml version="1.0" encoding="UTF-8" standalone="no"?>
    <svg xmlns="http://www.w3.org/2000/svg"
        width="1000"
        height="1000"
        viewBox="0 0 1000 1000">
    <g transform="translate(215.8570,645.7654) scale(0.56828598, -0.56828598)">
        <path d="M411 759 501 712Q540 690 540 684V667Q507 667 494 639L493 594Q481 554 481 549L480 459Q479 451 496 442L508 441L598 462H609L699 427Q710 425 710 415V410Q670 386 641 332Q626 332 578 271Q547 271 515 210Q488 210 452 160Q415 138 395 139L394 93L456 92Q461 92 502 103L835 97L841 120L846 119L918 22V17Q918 5 906 6Q833 29 828 29Q814 30 681 38L670 32Q651 44 636 44L444 47Q425 48 331 4Q279 5 166 -61L126 -60Q95 -20 65 -19V-14Q133 -15 372 139Q390 139 407 167V200Q407 206 397 246Q408 264 409 279L417 731ZM467 380 466 312Q454 273 454 267L453 228Q455 217 464 216H481Q490 216 544 294Q592 307 613 361Q636 390 637 411V417Q628 439 598 440Q519 430 479 397Z" fill="#000000" />
    </g>
    </svg>
    