<?xml version="1.0" encoding="UTF-8" standalone="no"?>
    <svg xmlns="http://www.w3.org/2000/svg"
        width="1000"
        height="1000"
        viewBox="0 0 1000 1000">
    <g transform="translate(215.8570,645.7654) scale(0.56828598, -0.56828598)">
        <path d="M341 711H413Q473 687 473 665Q459 654 445 551V444Q437 419 437 416V398Q439 391 445 391Q466 420 534 540Q547 540 562 626L569 629H576Q615 605 615 601V594Q608 548 594 508V419H605Q621 441 637 441V608Q623 655 623 658V665Q623 685 640 690Q690 680 690 640Q732 596 783 562Q783 514 751 491Q701 457 701 451Q701 448 687 430V366Q687 361 697 355L712 362Q734 341 740 341Q758 336 758 316Q748 278 690 202Q669 142 637 142L630 131V120H640Q644 120 669 127H726Q777 106 822 99Q822 94 858 70L861 53L840 42Q813 65 726 78H704Q701 78 676 70H640Q593 23 562 21H551L512 38Q525 117 551 117Q551 119 580 159Q519 189 519 202Q516 208 516 216V224Q521 258 562 284L637 337Q629 391 623 391Q614 375 598 370Q556 383 544 402V444Q544 448 551 473V476H541Q536 476 491 394Q470 386 445 288V-125Q445 -130 434 -136H420Q328 -136 288 85Q259 165 259 195L252 199Q245 190 235 106L188 3Q178 3 146 -40Q120 -51 114 -51H110Q53 -45 53 -22L64 -15Q67 -15 92 -22Q134 -22 188 124L217 266V323L238 430V494Q238 496 217 515V530H220Q295 513 295 480V398Q358 398 373 323Q366 312 366 302V284H381Q381 294 402 316V530Q395 555 395 558V676H320Q286 676 217 619L199 615Q199 684 341 711ZM680 530V491Q681 483 687 483L744 544V569Q711 583 704 583H697Q688 583 680 530ZM274 295V252Q274 247 288 199H302V216Q315 262 324 316V352Q324 357 313 362Q298 362 274 295ZM680 302V291Q681 284 687 284L701 302Q701 307 690 313Q685 313 680 302ZM580 216Q594 191 594 184H605Q618 184 630 245V277H619Q580 248 580 216ZM398 241Q374 175 352 149Q352 108 316 95Q338 41 356 -29Q369 -66 384 -72H395V-11Q395 -8 402 17V195Q402 198 409 224V231Q409 236 398 241Z" fill="#000000" />
    </g>
    </svg>
    