<?xml version="1.0" encoding="UTF-8" standalone="no"?>
    <svg xmlns="http://www.w3.org/2000/svg"
        width="1000"
        height="1000"
        viewBox="0 0 1000 1000">
    <g transform="translate(215.8570,645.7654) scale(0.56828598, -0.56828598)">
        <path d="M637 752H705Q759 746 759 719V715L735 668Q742 657 742 647V607Q729 569 722 532V515H735Q737 529 746 529Q757 522 766 522H773Q778 522 783 532Q742 554 742 559Q742 564 752 569H759Q797 569 891 498Q891 493 881 488Q869 488 854 502Q818 489 732 478Q723 469 715 417V308Q708 284 708 281V241Q708 237 715 213Q708 202 708 193V132Q708 129 715 105V37L729 -31V-78Q720 -146 712 -146H705Q692 -136 617 -109Q532 -31 518 20Q506 38 491 125Q491 130 501 135H512V112Q565 48 569 7Q575 -16 644 -82H651Q660 -82 668 -38V118Q661 142 661 146V437Q661 446 668 458L661 461H637Q634 461 610 454H586Q586 436 535 430Q484 400 407 380Q394 387 366 393H362V281Q356 257 356 254V193Q349 169 349 166L356 152Q346 108 332 108Q295 115 268 142Q221 148 206 163Q193 163 193 173V179Q193 192 206 207V227Q193 242 193 251H179V241Q174 196 149 196H145Q105 208 105 220Q125 264 145 373Q150 373 159 417Q159 436 135 454V458Q139 468 156 468Q182 459 196 447Q242 496 247 522Q255 522 284 542H298Q362 536 362 505V485Q362 482 356 458V437Q356 432 366 427H400Q514 468 661 505Q674 517 674 532V620Q674 623 681 647V668Q674 692 674 695V712H664Q661 712 637 705Q628 705 620 722Q629 751 637 752ZM288 508Q288 496 237 424Q225 394 206 376Q213 365 213 359Q205 352 200 352V335Q200 330 244 308Q250 293 257 291H264Q304 327 308 356V359Q308 371 305 390L308 396Q301 408 301 417V430Q301 434 308 458V478L301 508ZM461 312H471Q526 297 573 257Q580 251 610 247L613 241V227Q613 222 603 217H596L451 291V302Q451 306 461 312ZM295 257 281 193V176H301V227Q301 230 308 254V257Z" fill="#000000" />
    </g>
    </svg>
    