<?xml version="1.0" encoding="UTF-8" standalone="no"?>
<svg xmlns="http://www.w3.org/2000/svg"
     width="1000"
     height="596"
     viewBox="0 0 1000 596">
  <g transform="translate(290.0000,431.8000) scale(0.42000000, -0.42000000)">
    <path d="M565 790Q627 775 629 742Q621 735 616 734V725Q611 701 611 699L618 686Q613 675 613 666L614 657H617Q722 688 725 688L731 689Q829 669 831 633L825 629Q822 629 799 634Q774 621 735 615Q736 608 641 561Q637 561 631 570Q633 588 677 612Q686 628 699 629V639Q698 643 688 648Q670 631 651 630Q644 633 641 632Q600 604 602 572Q599 572 594 536L601 524Q595 513 596 504L636 480V471L605 446Q599 435 600 427Q600 422 624 405L630 406Q653 413 655 413Q705 401 706 381Q692 345 693 318Q693 304 673 266Q653 205 631 196Q632 191 595 149Q595 146 603 123Q597 112 597 103L600 58Q594 35 595 32L599 -45Q599 -48 606 -71L609 -122L620 -135V-138Q620 -142 604 -151L595 -152Q564 -141 480 -132Q383 -92 293 -71L266 -56V-50Q284 -49 394 -79Q450 -95 534 -110Q544 -103 550 -103L548 -61Q540 -38 540 -35L539 -22Q539 -20 544 4L540 84Q540 91 533 90Q529 77 512 76H502Q503 56 493 56Q444 66 444 79L443 89Q477 139 482 139Q510 192 528 193L527 213L517 212Q423 170 424 136H415Q392 147 391 151V157Q459 231 525 245Q538 256 542 294L540 330Q540 336 533 336Q505 296 487 295L461 293Q415 252 405 252Q352 264 346 271V278Q352 296 405 323Q428 360 488 395L503 415V425L422 421Q415 420 393 432L392 442L408 446L447 448Q451 448 545 485L550 508L546 582H543Q491 573 454 552Q444 551 416 540L410 543Q330 490 264 487L257 489L245 482Q204 499 198 512Q182 511 181 521Q181 526 190 531Q193 531 217 526L268 529Q284 530 547 631Q554 643 560 696L544 753L543 766Q542 789 565 790ZM499 370 500 354H503Q529 355 544 379Q544 383 534 388Q499 379 499 370ZM616 356 617 344Q627 302 635 303Q643 303 649 348Q654 349 661 375Q659 375 651 381Q631 380 616 356Z" fill="#000000" />
  </g>
</svg>
