<?xml version="1.0" encoding="UTF-8" standalone="no"?>
<svg xmlns="http://www.w3.org/2000/svg"
     width="1000"
     height="564"
     viewBox="0 0 1000 564">
  <g transform="translate(290.0000,438.5200) scale(0.42000000, -0.42000000)">
    <path d="M505 806 575 779 581 755Q581 752 573 728L563 436H573Q588 450 600 450Q647 435 650 426L649 413Q629 399 629 396Q622 362 594 362L593 345Q593 334 565 298L561 204Q561 201 573 157Q566 146 566 137L578 87H601Q616 70 631 70Q633 63 747 20Q796 7 819 -7Q825 -4 833 -4Q849 -14 860 -14H940Q990 -23 989 -48L979 -54H932Q929 -54 905 -61H878L762 -21V-14H752Q683 13 669 13Q604 47 586 47H579Q562 33 559 33L499 63Q500 91 430 100L374 120H360Q301 60 284 60Q275 42 253 36L221 -7Q171 1 172 10Q172 29 221 70Q221 81 255 94Q291 136 331 147Q351 147 424 208L525 312L527 369H517Q485 343 424 315Q377 282 358 258Q342 258 313 211Q269 163 241 161Q201 169 201 178V184Q245 210 365 345V352Q365 354 346 372L351 540Q352 543 346 567V577H329Q324 577 320 587Q325 604 344 604Q356 597 383 591H394V601Q398 643 467 782Q487 806 505 806ZM494 769 497 762Q497 752 458 698Q433 596 420 587L419 550H527L534 762Q534 767 524 772H501ZM418 517 410 487 408 416Q408 409 414 409Q471 495 471 513L472 517ZM426 366V356H429Q437 356 528 409L530 463H527Q502 463 468 409Q468 401 426 366ZM561 396 560 362H574Q574 381 595 399V409H585Q570 396 561 396ZM405 157V141H415Q468 127 494 114Q497 114 521 107H524L525 117Q525 120 519 144L523 258H520Q493 225 471 225Q456 192 405 157ZM627 248Q664 240 663 228H680Q699 228 713 201Q729 200 729 191V181Q728 174 722 174H718Q649 201 632 201Q606 223 606 238Q610 248 627 248Z" fill="#000000" />
  </g>
</svg>
