<?xml version="1.0" encoding="UTF-8" standalone="no"?>
    <svg xmlns="http://www.w3.org/2000/svg"
        width="1000"
        height="1000"
        viewBox="0 0 1000 1000">
    <g transform="translate(215.8570,645.7654) scale(0.56828598, -0.56828598)">
        <path d="M419 698H423Q429 698 429 687H461Q558 677 558 622Q535 622 513 480V401Q506 375 506 372V281H516L621 372Q662 412 662 422Q710 449 777 535Q779 553 787 553Q850 544 850 495Q783 386 770 306V292Q778 216 808 216Q808 208 895 190Q909 175 909 161Q909 143 853 71Q853 55 812 -2H794Q780 -2 770 -67Q718 -102 718 -140Q667 -179 655 -220Q624 -249 586 -307Q581 -307 537 -361Q531 -361 509 -397Q502 -397 416 -495L360 -546H357V-542Q416 -455 436 -455Q436 -435 489 -394Q523 -343 610 -234Q610 -224 655 -158L739 -16Q818 122 818 136Q818 154 832 168V179H822Q721 211 721 252Q714 252 711 317Q711 331 735 404L742 430V433Q742 440 735 440Q718 426 655 353L558 266Q534 254 527 227Q521 227 513 212V60Q523 -2 541 -2V-6Q541 -11 530 -16H523Q392 9 374 49Q354 63 346 63Q260 -52 232 -53H204Q162 -35 145 -35L138 -20Q195 61 214 161V241Q214 246 197 259H190Q179 246 127 237L103 270Q112 286 162 310Q284 275 284 241Q284 238 291 212V154Q291 145 270 103Q270 79 249 60Q256 56 259 56Q265 56 377 165Q386 165 450 227V451Q457 477 457 480V560Q457 570 464 582Q464 586 461 586L464 622V651Q415 665 405 680V683Q405 689 419 698ZM395 103V74Q436 37 436 27H464V31Q464 34 457 60V96Q450 122 450 125Q457 151 457 154V161Q457 166 447 172Q442 172 395 103Z" fill="#000000" />
    </g>
    </svg>
    