<?xml version="1.0" encoding="UTF-8" standalone="no"?>
<svg xmlns="http://www.w3.org/2000/svg"
     width="1000"
     height="490"
     viewBox="0 0 1000 490">
  <g transform="translate(290.0000,361.6600) scale(0.42000000, -0.42000000)">
    <path d="M729 623Q783 602 784 593V501Q784 489 771 475V449Q765 425 765 422V232Q774 156 781 156Q795 137 798 137Q826 123 903 114Q934 104 949 81Q962 81 962 61Q962 46 926 38Q891 71 840 71H775Q757 51 722 48Q667 18 620 18Q620 15 610 15Q610 47 676 58H686Q686 72 765 97V107Q719 137 719 156L712 186V396H706Q706 388 679 337Q679 328 666 271V252L670 212Q664 209 637 206Q587 245 587 275H584Q551 275 528 189Q515 174 515 160V153Q515 150 522 127Q522 112 486 104Q475 104 463 137Q443 137 443 146V232Q443 235 436 258V344Q436 348 427 353H417V344Q409 316 364 235Q364 195 331 163Q324 112 302 64Q302 -6 256 -67H243Q238 -67 226 -44Q200 -37 200 -24Q213 35 233 94V192Q233 224 183 235H167Q167 223 121 192Q121 178 85 156Q39 186 39 192Q45 212 69 225Q69 230 141 288Q198 344 269 462Q312 548 312 560V587Q312 591 302 596H295Q292 596 269 590Q236 600 236 606V610Q237 616 243 616H302Q364 601 364 573V567Q344 491 331 491V475Q308 460 308 426Q302 425 252 337Q238 312 200 278V268Q233 268 272 202Q274 148 285 130L331 238Q339 239 351 284Q373 307 397 357Q419 399 423 399H430Q486 378 486 350Q482 332 482 321L489 298V255Q490 248 495 248Q547 334 578 334L624 307H630Q645 307 670 406Q681 406 719 544L725 567Q725 570 719 593V613Q719 618 729 623Z" fill="#000000" />
  </g>
</svg>
