<?xml version="1.0" encoding="UTF-8" standalone="no"?>
    <svg xmlns="http://www.w3.org/2000/svg"
        width="1000"
        height="1000"
        viewBox="0 0 1000 1000">
    <g transform="translate(215.8570,645.7654) scale(0.56828598, -0.56828598)">
        <path d="M546 742H559Q567 742 584 714V709Q584 679 527 630Q515 630 515 647Q527 665 527 675H508Q403 636 364 636Q291 636 276 669L288 675Q309 664 326 664H351Q398 664 546 742ZM502 540H521Q530 540 590 456Q599 456 621 434Q621 403 477 322Q391 119 332 65Q316 19 257 -7H232Q198 -7 188 15V43H219L238 32Q280 49 332 132Q332 147 376 211Q408 283 408 289H401Q227 211 194 211Q150 218 150 233Q181 264 181 272H194Q194 255 213 255Q231 255 395 334Q464 351 464 417Q489 515 502 540ZM508 401H521Q565 424 565 440Q561 484 546 484H540Q525 484 508 401ZM527 149Q654 105 754 38L823 4Q832 4 842 -13V-24Q842 -33 816 -46Q773 -46 571 105L521 132V138Z" fill="#000000" />
    </g>
    </svg>
    