<?xml version="1.0" encoding="UTF-8" standalone="no"?>
<svg xmlns="http://www.w3.org/2000/svg"
     width="1000"
     height="543"
     viewBox="0 0 1000 543">
  <g transform="translate(290.0000,415.0000) scale(0.42000000, -0.42000000)">
    <path d="M514 750Q571 722 575 713L573 651Q559 590 533 542Q522 473 495 414L476 388L475 370L479 363Q539 393 653 428V439Q653 441 632 461L633 472H636Q670 472 693 428Q711 428 718 403Q714 396 714 392H685Q670 378 533 341Q524 328 477 322Q433 270 428 257Q398 183 346 125Q346 112 263 30Q233 14 232 4Q193 -18 180 -18Q112 5 112 15L116 23Q136 19 145 19Q200 36 292 143Q362 252 362 271L363 278H359Q308 240 254 213Q244 194 224 194H213Q179 150 157 150H135Q128 150 88 176L89 191L107 194H118Q119 209 170 216Q177 226 398 337Q450 466 508 681L510 717L499 732V739Q500 745 514 750ZM300 692Q312 684 318 684L337 688Q336 678 394 644Q393 636 429 622V615L425 607Q432 595 432 586Q432 577 391 567Q348 583 349 618Q343 630 309 640Q289 671 289 681Q289 686 300 692ZM243 531Q342 480 347 469Q379 440 378 392Q365 392 336 344L317 341H310Q290 341 285 355V366Q286 379 301 395L303 447Q293 470 260 483Q260 486 232 512V520Q232 525 243 531ZM504 216H507Q529 216 655 139Q701 119 730 88Q761 70 790 44Q790 41 812 26Q823 15 861 -33L860 -40Q860 -66 834 -66H830Q820 -55 791 -44Q758 5 671 73Q617 129 539 172Q539 177 503 205Z" fill="#000000" />
  </g>
</svg>
