<?xml version="1.0" encoding="UTF-8" standalone="no"?>
    <svg xmlns="http://www.w3.org/2000/svg"
        width="1200"
        height="1200"
        viewBox="0 0 1200 1200">
    <g transform="translate(161.8519,951.5556) scale(1.03703704, -1.03703704)">
        <path d="M571 744Q606 733 606 723V721L582 638Q582 635 584 631Q581 618 581 609L584 592V578Q583 572 578 564Q580 560 580 554L577 550L582 540Q577 532 576 526Q576 524 580 507Q575 499 574 492V485H584Q597 511 658 536Q668 543 700 551L728 549Q768 533 767 521Q767 514 721 454Q702 414 683 415Q647 376 633 377H626Q625 367 604 364L587 365V358Q575 327 575 325L574 311Q574 308 578 291V287Q578 280 572 272Q577 264 577 258Q576 256 571 239L570 225Q570 218 574 210Q569 203 569 198Q610 185 613 179Q615 175 615 170Q594 125 578 107Q567 80 567 77L562 -17L598 -18Q671 -34 670 -56L663 -60L648 -59Q638 -59 621 -44L578 -41Q525 -44 452 -66Q402 -51 403 -39Q403 -34 423 -28Q438 -9 483 33Q483 56 441 93Q411 106 412 123Q425 154 537 195H549L554 283Q550 300 550 302L554 376Q498 396 500 434L505 539Q521 622 534 633Q539 632 539 628L538 614Q537 608 532 600Q537 592 536 585V571Q530 554 530 552L526 490Q529 449 541 401Q542 391 548 391H555V403Q555 405 552 422L554 465Q550 482 550 484L554 565Q550 583 551 585L553 628Q549 645 549 647Q554 655 555 661L547 695Q555 707 568 744ZM386 641Q453 638 452 614Q451 602 434 593Q418 551 403 552Q365 508 364 501Q359 496 338 495L336 500Q346 527 362 544Q388 587 399 621V624Q393 624 381 629V634Q386 640 386 641ZM577 452Q577 449 579 444Q576 432 576 423Q575 414 577 401Q574 398 574 390L576 389Q583 389 613 407Q649 427 694 481Q698 481 724 523L725 535H723Q638 518 637 504Q613 505 583 466ZM448 501Q470 491 486 488L485 483Q477 478 450 446Q437 447 416 384Q408 378 394 339Q389 339 389 335V328L391 323Q406 325 421 352H424Q428 351 428 347L395 272Q377 241 375 204Q367 199 361 200Q354 200 335 216Q321 216 321 223Q321 230 327 237L324 242Q329 275 365 377Q374 399 391 425Q394 430 394 435L395 437L387 438Q376 435 341 414Q335 414 262 377L248 378Q248 373 216 358Q160 308 129 310Q117 294 112 294Q110 294 98 304L88 300Q79 304 79 308V310Q155 345 178 363Q187 362 232 393H244Q244 400 296 421Q308 434 372 458Q414 477 448 501ZM454 116Q454 105 484 88Q484 85 506 63L546 126L548 161L545 166Q472 140 454 116ZM480 -24V-27L482 -31Q490 -27 497 -27L504 -28Q505 -18 517 -19V-17Q515 -9 503 -9L498 -8Q494 -8 480 -24Z" fill="#000000" />
    </g>
    </svg>
    