<?xml version="1.0" encoding="UTF-8" standalone="no"?>
<svg xmlns="http://www.w3.org/2000/svg"
     width="1000"
     height="588"
     viewBox="0 0 1000 588">
  <g transform="translate(290.0000,423.4000) scale(0.42000000, -0.42000000)">
    <path d="M605 770Q615 770 679 738Q685 742 693 742Q702 732 766 720Q777 711 844 682Q844 676 851 664Q816 619 816 587V496Q816 493 808 468V321Q808 317 816 293V103L830 26V-100Q840 -136 840 -146Q829 -153 819 -153Q787 -149 777 -132Q679 -103 623 -13Q623 -4 591 40V47Q592 54 598 54H602Q630 39 644 15Q661 11 661 -9V-20Q700 -35 700 -55L749 -90H759V-79Q759 -76 773 -37V96Q766 121 766 124V675Q730 696 686 706Q686 717 630 731Q630 736 616 745Q552 726 500 671Q491 666 465 622Q451 622 412 549Q363 498 359 468Q338 450 324 398Q306 386 286 300Q279 296 275 296V278Q261 240 261 236V201Q261 191 247 191V180Q247 177 240 152V117Q233 92 233 89V40Q226 8 216 8Q167 20 167 36Q156 40 156 57V124Q156 127 163 152V194Q163 198 170 222V226L167 261Q172 261 177 271V300Q177 303 184 328V342Q184 344 163 363Q163 368 174 373Q219 357 219 342L205 285Q205 282 209 282Q205 224 198 201V166H202Q223 191 223 240Q239 240 261 338Q274 350 293 401Q298 401 314 443L338 478Q345 478 363 528Q376 528 409 587Q447 647 465 657Q484 700 538 738Q584 770 605 770ZM160 619H163Q191 619 191 598H202Q289 582 289 573V566Q289 556 272 524Q234 524 202 556Q172 556 149 608Q149 613 160 619ZM500 447Q609 438 609 422Q626 417 626 398Q595 351 595 331Q570 314 570 285V275H577L602 278Q602 274 637 250L640 243V236Q640 232 609 215Q598 215 580 226L573 215L549 219H542Q542 217 538 205H514Q494 170 486 170H482Q430 186 409 222Q409 240 395 314V335Q409 373 409 380H416L426 373H437Q437 404 500 447ZM465 285V254H475L510 300Q517 303 521 303V314Q521 322 549 377Q549 380 556 405V408H531Q479 398 465 285Z" fill="#000000" />
  </g>
</svg>
