<?xml version="1.0" encoding="UTF-8" standalone="no"?>
    <svg xmlns="http://www.w3.org/2000/svg"
        width="1000"
        height="1000"
        viewBox="0 0 1000 1000">
    <g transform="translate(215.8570,645.7654) scale(0.56828598, -0.56828598)">
        <path d="M452 736H459Q536 712 541 689Q533 676 533 666V658Q541 612 560 557Q556 550 556 542Q556 487 622 449Q603 437 595 437V379L611 309V278Q611 272 622 266H642L727 406Q727 429 739 429H754Q778 427 778 418Q778 413 727 336Q727 315 665 243Q648 243 642 193L673 80H677L673 61Q694 29 708 -29Q728 -57 739 -83Q746 -84 758 -122Q772 -128 793 -172L801 -176H805Q812 -176 812 -168V-149Q812 -145 805 -118V-71Q807 -48 816 -48Q859 -166 859 -207Q859 -256 937 -331V-335Q932 -335 925 -339Q851 -297 851 -289Q736 -154 665 18L626 127L599 134L572 127V115Q569 75 510 30Q500 5 490 2H483Q462 2 436 33H417V6Q409 -29 397 -29H366Q258 1 258 30L250 33H230V37Q281 134 281 150Q291 155 370 305V336H359L258 297Q154 255 126 239Q69 208 44 208L21 212V220Q48 226 265 336Q341 383 370 383V398L366 425L374 429Q401 414 413 414H424Q463 510 479 565V643Q479 654 452 736ZM646 701Q715 662 781 635Q785 624 840 592L847 580V577H836Q797 586 797 600H785Q782 600 719 631Q695 631 630 689Q630 695 646 701ZM390 654Q452 625 452 619V615Q452 608 444 608H401Q401 598 362 580Q362 575 304 530Q290 499 269 499L262 511Q279 547 300 577Q303 600 324 600V619Q326 628 390 654ZM502 499V472Q502 467 521 452H525Q533 452 533 460V472L525 499ZM432 293V115Q456 85 456 72H475Q567 159 595 208V231L549 398H529Q448 373 448 359ZM316 76V18H343Q358 18 370 92V173Q370 181 362 181H359Q344 175 316 76Z" fill="#000000" />
    </g>
    </svg>
    