<?xml version="1.0" encoding="UTF-8" standalone="no"?>
<svg xmlns="http://www.w3.org/2000/svg"
     width="1000"
     height="528"
     viewBox="0 0 1000 528">
  <g transform="translate(290.0000,399.4600) scale(0.42000000, -0.42000000)">
    <path d="M449 712Q504 698 501 672Q471 661 468 629Q443 603 442 589V585L451 584Q530 591 597 608Q627 590 651 580L650 567Q649 558 596 552Q594 539 523 506Q506 484 478 477L463 462V456L487 434V431L503 429Q517 428 557 451Q611 424 608 391L604 342L613 341Q691 394 714 440Q733 465 736 465Q793 442 790 414Q728 375 684 328Q647 311 645 292Q647 281 647 279L642 260L678 257Q681 257 705 261L802 252Q826 257 829 257L848 255Q849 268 856 267L869 266Q969 214 968 199Q972 198 977 188Q967 169 946 171Q932 197 897 208L877 213L871 214Q868 214 844 209L669 225L590 219L567 221Q566 208 556 208L540 210L530 217Q508 180 473 163L440 156Q443 185 487 201V211Q488 216 478 222Q468 218 403 215Q373 210 370 182Q370 177 356 174Q332 189 313 197Q312 187 252 179Q250 174 201 161Q201 156 133 134Q133 128 95 111Q32 133 35 166Q107 202 136 199L152 198Q154 214 194 224Q275 265 287 278L303 276L306 312L292 454Q279 455 280 465Q281 470 291 474Q353 440 351 410H354Q455 495 457 502Q486 513 516 543L517 553L501 554Q464 544 461 544L441 546Q418 548 381 601L378 607Q380 629 434 684Q442 713 449 712ZM372 392 378 388H382L439 402L442 441L432 442Q373 400 372 392ZM525 339 520 280 524 257 534 256Q538 256 566 283Q549 320 550 330L553 366L544 367Q534 368 525 339ZM356 357 353 321Q352 317 362 311Q390 346 402 356L396 360L386 361ZM411 306 406 254 439 252 440 274Q436 298 436 301L437 311H434ZM233 220 239 217 242 216Q305 226 306 234L307 250L291 251Q249 234 233 220ZM721 109Q727 100 726 95L742 94Q750 82 800 40Q852 -36 851 -47L850 -56Q844 -69 840 -69L836 -68Q828 -57 796 -45Q796 -38 769 -16Q770 1 750 34Q736 36 720 63Q691 66 692 75V82Q700 111 721 109ZM279 112Q313 93 312 82Q302 60 291 61L290 52Q288 30 261 18L259 2Q259 -7 264 -18Q250 -69 243 -69Q233 -68 210 -43Q194 -42 186 -18Q227 60 232 60Q271 112 279 112ZM557 71Q599 42 642 31Q654 21 653 7L652 0Q651 -17 637 -21L621 -20Q616 -19 609 -6L602 -8Q577 -6 564 37L548 39Q505 43 481 -47Q470 -53 461 -52L448 -51Q425 -49 403 -7Q406 35 380 70V73Q382 80 387 79H394Q406 78 455 34L468 33Q509 75 557 71Z" fill="#000000" />
  </g>
</svg>
