<?xml version="1.0" encoding="UTF-8" standalone="no"?>
<svg xmlns="http://www.w3.org/2000/svg"
     width="1000"
     height="670"
     viewBox="0 0 1000 670">
  <g transform="translate(290.0000,412.4800) scale(0.42000000, -0.42000000)">
    <path d="M353 744H363Q415 721 415 702V696L391 618L398 606Q398 603 385 586Q395 551 402 551H434Q467 561 549 602Q597 579 597 573L553 541Q553 533 515 493Q515 482 490 474V458Q497 450 497 448L510 451Q536 451 549 425Q530 387 530 374Q537 364 537 355V348Q537 343 524 335Q531 325 531 319H605Q608 319 631 313H727Q788 307 808 287Q847 278 847 252Q841 233 832 233Q818 241 793 245Q793 256 722 274H664L606 287H593Q586 287 580 284Q574 287 567 287Q547 287 526 245L527 168Q527 165 521 143L522 110Q522 102 516 91Q522 81 523 72V65Q517 43 517 40V8Q517 5 511 -18L513 -89Q513 -92 507 -115L508 -185Q502 -208 502 -211L504 -359L501 -375H492V-359Q485 -336 485 -333L480 -89Q480 -86 486 -63L481 265L474 287H464L452 278L435 281Q436 269 387 265Q388 258 307 242Q308 232 272 226Q273 208 209 191H202Q186 191 163 226V233Q164 243 211 262Q364 387 366 387L483 516V525H479Q476 525 454 519H422Q399 525 396 525H383Q383 543 357 557Q347 581 346 586L345 644Q345 647 351 670L350 728ZM249 258Q256 255 259 255Q330 287 461 313H480L477 451H474Q466 440 442 429Q418 395 313 310Q304 310 249 258Z" fill="#000000" />
  </g>
</svg>
