<?xml version="1.0" encoding="UTF-8" standalone="no"?>
    <svg xmlns="http://www.w3.org/2000/svg"
        width="1000"
        height="1000"
        viewBox="0 0 1000 1000">
    <g transform="translate(215.8570,645.7654) scale(0.56828598, -0.56828598)">
        <path d="M443 816H453Q554 782 554 758Q554 738 537 738V731Q534 709 516 709H508Q508 700 494 692Q494 680 487 680H474Q472 656 458 656Q441 656 421 615Q386 608 358 598V586Q358 583 366 579H370Q461 613 479 613Q508 632 588 654Q593 651 595 651Q595 659 622 666H636Q697 646 697 632Q676 624 656 608Q653 608 636 603H629Q627 591 622 591L610 593Q602 572 590 572Q590 568 583 564Q575 569 569 569H566L561 567L564 562Q564 547 542 540V530H535Q496 523 496 501Q489 501 484 480Q484 476 491 472Q539 514 566 514Q578 514 607 492Q616 492 619 480Q614 463 603 463Q599 463 595 456V439H598Q639 453 658 453Q666 457 719 472H762Q764 472 781 468Q814 477 844 482H859Q919 460 927 448Q919 442 919 439H907Q890 443 888 443H878L871 439H854Q847 439 839 434L830 439L825 436Q812 439 803 439Q803 428 777 424H772Q762 424 748 439Q729 417 714 417Q709 428 704 429Q697 409 668 400Q635 381 603 373V378Q603 383 675 419V422Q652 424 639 429Q628 412 607 412Q607 406 578 402Q574 385 557 385V378Q538 335 516 335Q500 306 477 306L474 301Q477 297 477 291Q457 274 455 274V267Q455 250 414 226Q412 226 412 223V221L414 216Q448 231 453 231H472Q479 231 487 226Q492 226 508 245L574 306Q586 306 588 335L593 337L610 332L624 335Q628 325 661 315V310L658 306Q661 285 692 250Q699 250 733 219Q752 212 798 175V165Q774 148 760 148Q743 148 728 139L719 144Q664 122 663 115Q663 110 658 103L663 93Q658 85 658 78V54Q658 45 648 35L653 28V23L648 16L653 6Q653 4 644 -9Q653 -19 653 -28V-72Q653 -88 639 -88V-98Q646 -98 646 -103Q646 -106 639 -110Q644 -119 648 -139L629 -154L644 -175V-178L639 -185Q644 -186 644 -190V-195Q637 -195 629 -238Q633 -238 636 -246Q636 -253 629 -265Q633 -277 639 -308Q634 -326 634 -328V-333Q634 -339 639 -347Q634 -355 634 -362V-381Q634 -386 629 -386Q622 -369 622 -366Q624 -353 624 -345V-337Q619 -320 619 -318Q619 -312 624 -304Q619 -296 619 -289V-260Q615 -243 615 -241V-209Q615 -201 612 -188L615 -183Q615 -180 612 -180L615 -156V-149Q610 -132 610 -130V-67Q605 -49 605 -47V-4Q605 3 610 11Q605 19 605 25V110H598Q596 110 578 105H566Q566 95 549 86Q532 86 532 100H525Q508 105 506 105H503Q503 99 494 88Q494 66 487 66H470Q470 51 445 35Q445 20 431 -1Q431 -14 409 -18Q409 -27 380 -35Q372 -30 368 -30L356 -33Q351 -33 332 -14Q308 -4 308 -1V1Q323 32 327 32Q330 46 361 83Q393 136 460 192V204H458Q450 197 409 185Q404 175 344 134Q344 128 300 90Q271 45 250 45Q228 66 211 66Q206 66 206 71Q293 154 339 180Q355 206 383 223Q383 232 412 252Q412 265 443 294Q445 294 479 342Q483 342 503 373V381H477Q459 366 448 366H426Q426 356 419 356H402Q402 348 373 337Q373 335 370 335Q365 335 361 337Q336 323 298 313H291Q288 298 225 277Q222 269 182 250Q182 240 167 240H155Q155 226 138 226H119Q112 226 88 243Q68 246 68 252Q94 273 117 298H148Q156 306 179 315Q179 326 221 339Q221 347 252 356Q252 368 271 376L380 448Q388 443 395 443H397Q397 461 421 470Q445 505 445 523V526Q439 526 426 530Q426 526 421 526H407V530Q407 534 438 550Q477 535 491 526Q510 532 574 593Q607 618 610 625Q610 628 603 632H593Q559 627 559 618Q525 611 525 608Q499 593 491 593H487Q480 593 472 598Q472 586 431 569H416Q416 559 383 545Q383 532 341 523Q337 523 315 545Q296 545 296 552Q298 563 354 605Q354 613 373 620Q373 624 421 668Q432 688 445 688Q445 693 474 724Q499 766 499 775V779Q499 783 455 804Q438 807 438 811Q439 816 443 816ZM561 482Q561 478 503 436Q503 434 494 422Q494 418 501 414Q545 419 545 439Q547 439 566 470V477Q566 482 561 482ZM339 395V390L341 385Q387 417 387 429L380 434Q350 395 339 395ZM204 306 208 303H211L334 359Q344 359 349 368Q338 370 322 385H312Q288 359 269 359Q269 343 233 337Q233 325 213 320Q213 318 204 306ZM569 371H571V364H564V366Q565 371 569 371ZM663 243V223L653 170Q653 167 665 158Q745 175 755 187Q718 219 682 243Q682 246 675 250H670Q667 250 663 243ZM532 209Q535 196 535 194Q532 190 532 187Q538 182 540 182Q566 230 566 238V245H559Q556 245 545 221Q532 217 532 209ZM566 136Q569 136 569 134Q590 144 600 144V161Q600 163 605 180V197H598Q595 197 578 163Q572 163 566 136ZM474 168Q474 153 421 110Q416 110 402 90L397 88L399 83V81Q391 74 385 49Q380 47 378 47V40Q378 36 395 23Q443 78 445 81Q445 85 474 134Q474 144 484 165L479 168ZM634 -391 636 -396V-403H629V-396Q630 -391 634 -391Z" fill="#000000" />
    </g>
    </svg>
    