<?xml version="1.0" encoding="UTF-8" standalone="no"?>
    <svg xmlns="http://www.w3.org/2000/svg"
        width="1000"
        height="1000"
        viewBox="0 0 1000 1000">
    <g transform="translate(215.8570,645.7654) scale(0.56828598, -0.56828598)">
        <path d="M491 754Q562 737 581 707V663Q550 573 502 489Q494 488 494 482Q494 477 505 471Q537 484 607 536Q633 544 636 544Q698 511 698 482V453Q693 414 614 278Q605 278 585 224Q569 224 545 166Q540 166 523 130Q514 130 476 82Q458 82 444 50Q353 -27 306 -81Q238 -127 200 -139H171Q164 -139 164 -132Q205 -105 240 -88L349 10Q360 35 371 35Q378 35 418 93Q480 156 480 173Q441 187 375 249Q335 267 335 308Q335 313 346 318Q349 318 375 311Q386 318 396 318Q421 318 513 217Q632 437 632 489V507H621Q584 476 549 460Q510 436 502 416L462 391H454Q413 413 407 413V424Q407 450 473 558Q516 657 516 663V718H505Q486 718 469 736V743Q473 754 491 754Z" fill="#000000" />
    </g>
    </svg>
    