<?xml version="1.0" encoding="UTF-8" standalone="no"?>
<svg xmlns="http://www.w3.org/2000/svg"
     width="1000"
     height="513"
     viewBox="0 0 1000 513">
  <g transform="translate(290.0000,394.8400) scale(0.42000000, -0.42000000)">
    <path d="M393 702H400Q460 684 460 653Q457 641 438 641Q425 649 415 649Q363 623 306 581Q288 581 231 525Q204 514 197 514H178V495Q178 491 171 465V461Q187 461 193 412V397Q186 370 186 367V359L201 277V243Q201 229 205 209L201 201Q208 189 208 183H223V194Q261 302 329 367Q387 406 453 435Q537 487 592 487Q592 491 596 491Q616 487 630 487H633Q637 487 637 491L645 487H648Q657 487 663 491Q705 484 848 420Q870 374 870 359Q844 306 844 273Q836 250 795 198Q795 163 709 21Q688 14 660 -39Q656 -39 648 -43Q530 0 464 81Q453 95 434 145Q415 145 396 186Q396 199 374 269V292Q374 299 385 299Q419 287 419 280Q419 265 426 265Q475 333 513 333H528Q630 295 630 288Q633 288 637 277Q637 270 592 232Q592 211 562 179Q573 160 573 149Q549 119 502 119Q479 113 479 107Q548 25 577 25H611Q642 39 705 122Q780 270 810 367V374Q810 415 754 431Q754 438 663 457H660Q528 457 487 423Q422 408 332 314Q285 251 253 141V74Q253 52 291 13Q286 -5 265 -5L205 17Q178 65 141 262V299L111 495Q88 518 88 532V536H92Q104 529 114 529H137Q173 529 287 634Q312 644 329 668Q325 674 325 683Q345 694 393 702ZM479 258V247Q472 220 472 216V194Q472 189 483 183Q554 247 554 269V288H543Q520 288 479 258Z" fill="#000000" />
  </g>
</svg>
