<?xml version="1.0" encoding="UTF-8" standalone="no"?>
<svg xmlns="http://www.w3.org/2000/svg"
     width="1000"
     height="606"
     viewBox="0 0 1000 606">
  <g transform="translate(290.0000,399.4600) scale(0.42000000, -0.42000000)">
    <path d="M374 706Q384 706 384 693H394Q412 693 417 680V663Q417 652 371 594Q358 556 358 551V541H401Q450 521 450 504Q450 480 391 455Q391 429 321 392Q281 348 281 283Q278 283 278 273V207Q278 198 272 187Q278 176 278 167V160Q272 137 272 134V131Q272 119 275 101L272 94Q278 83 278 74Q272 63 272 54V28Q279 -12 285 -22V-28L278 -38V-45Q285 -68 285 -71V-118Q298 -132 298 -141L288 -147Q255 -121 232 -121V-78Q238 -54 238 -51V41Q238 44 245 68V273Q245 276 252 299Q252 307 248 312Q252 330 252 342V385Q252 394 258 405Q258 408 255 408Q258 463 265 484Q258 495 258 504Q258 509 268 514Q324 504 324 491V478Q324 475 318 451Q324 436 331 435Q371 475 391 511L374 521Q363 514 354 514L308 537Q305 543 305 551V564Q311 615 334 640Q334 643 338 650L331 653H328Q268 616 242 613Q193 626 189 637V643Q195 655 209 660Q229 651 242 640L328 683Q334 683 344 706ZM720 713Q804 696 805 663Q781 646 774 604Q764 604 761 570L764 491L754 411L755 364Q749 341 750 338L761 5Q761 2 769 -21L771 -75Q771 -78 778 -101L780 -168Q782 -185 803 -234Q799 -248 787 -254H780Q752 -232 682 -194Q647 -160 647 -154Q652 -141 657 -141H663Q682 -164 691 -164Q696 -161 704 -161Q705 -186 725 -198H735L733 -128Q732 -125 738 -101L737 -61Q729 -38 729 -35L716 338Q716 341 722 364L718 477Q718 480 724 504L720 623Q720 626 725 650V673H721Q678 660 675 660Q625 670 625 680Q621 680 615 677L591 680L575 677L571 683Q575 700 594 700H607Q610 700 634 693H654ZM547 520Q557 512 598 500Q598 494 612 457L595 384V377Q595 373 649 351Q650 346 683 331Q690 320 691 311L692 278Q692 268 679 268L680 248H683L706 254Q709 248 710 245Q689 178 665 178Q666 173 643 155H636L599 178L639 264Q639 267 635 284Q641 288 645 288L644 328L593 341Q580 252 550 161H543L544 145L531 112Q532 93 504 42Q502 16 489 -5H486Q453 -5 441 28V32Q447 43 447 48H464Q479 57 497 138Q522 189 544 324Q543 352 555 384L552 477Q531 500 531 504Q531 513 547 520Z" fill="#000000" />
  </g>
</svg>
