<?xml version="1.0" encoding="UTF-8" standalone="no"?>
    <svg xmlns="http://www.w3.org/2000/svg"
        width="1000"
        height="1000"
        viewBox="0 0 1000 1000">
    <g transform="translate(215.8570,645.7654) scale(0.56828598, -0.56828598)">
        <path d="M497 806Q619 750 618 722Q565 654 533 656Q532 632 458 575L441 579Q441 575 423 563H417Q411 564 407 578Q407 584 464 629Q526 696 537 733Q544 733 544 740Q546 766 502 779Q490 795 490 797V800Q491 807 497 806ZM638 657 658 656Q688 647 688 637Q687 622 610 564Q609 556 572 498Q571 473 528 426Q518 386 499 387L497 349Q496 339 476 340L475 323Q451 301 437 251Q424 252 416 238V232Q415 211 450 162Q472 176 489 258Q516 304 521 304H525Q552 302 557 265Q566 260 589 233Q594 233 611 266L618 269L625 268L641 250L677 303Q701 337 704 366L711 369L718 368Q754 356 754 346V343Q753 326 724 293Q703 248 694 244Q671 229 637 183H630V173Q628 150 597 138Q596 114 544 93Q544 86 505 61Q505 57 473 32V22L476 15Q500 28 592 43L619 42L700 24H706Q724 36 727 36Q760 0 766 0Q787 -10 789 -18Q782 -33 775 -34H764L692 -3L597 2Q554 -2 522 -14Q480 -12 412 -42H398Q362 -31 362 -16Q366 -3 412 22Q412 28 469 80L470 97Q434 99 393 182L380 183L379 166Q378 154 342 110Q290 32 262 -4Q261 -14 248 -13L247 -23Q246 -37 211 -62Q191 -100 136 -146Q128 -146 122 -142L108 -148Q89 -139 89 -134V-127L109 -128Q217 -30 312 125Q330 145 368 227L369 234Q350 256 350 269Q351 274 361 279L380 257H390Q391 265 469 402Q516 507 548 550V560L532 561Q515 540 479 537Q402 489 372 488L304 492Q268 500 269 520Q278 527 279 527Q290 519 299 519L353 516Q365 515 578 606Q614 658 638 657ZM525 250 524 219Q501 174 491 119V109H501Q561 151 562 177L539 249Z" fill="#000000" />
    </g>
    </svg>
    