<?xml version="1.0" encoding="UTF-8" standalone="no"?>
    <svg xmlns="http://www.w3.org/2000/svg"
        width="1000"
        height="1000"
        viewBox="0 0 1000 1000">
    <g transform="translate(215.8570,645.7654) scale(0.56828598, -0.56828598)">
        <path d="M742 838Q827 810 826 768L825 755Q819 720 805 721L804 692L776 616L774 558Q766 536 766 533L765 501Q774 492 783 459Q792 448 830 438Q858 418 858 415V395Q843 326 829 316Q826 297 809 298L807 240H811Q818 240 823 243Q881 239 879 196Q887 196 894 163Q875 120 858 49Q853 49 826 -42Q799 -91 798 -109Q792 -112 789 -111L788 -127L746 -232Q676 -396 595 -531Q558 -585 557 -600Q544 -603 544 -615H534V-612Q535 -597 575 -543Q575 -532 616 -471Q706 -287 777 -82Q811 2 827 73Q833 77 849 139L851 203Q851 214 788 225Q750 252 750 258L751 265Q751 271 800 385L801 413Q792 414 757 441Q733 441 714 509L716 573L768 757L769 799Q769 805 763 805L747 806Q737 806 715 794Q709 798 705 798V808Q726 839 742 838ZM482 751Q575 728 574 700L573 674Q567 511 529 513L481 514Q470 515 392 466H386V454L389 453Q563 504 616 529L632 531Q674 530 682 501L675 498L660 502Q649 496 640 496H624Q564 433 522 426H519V433Q519 436 527 458V461L511 462Q501 454 462 441Q324 406 235 347Q175 313 162 301Q159 289 110 271Q64 237 61 231Q44 222 35 222Q-16 234 -16 247L-15 253Q-1 266 33 274Q103 320 151 340Q255 397 333 430L334 455Q294 457 281 569Q271 653 255 663V673L262 676Q288 675 298 601Q304 601 315 539H318Q368 645 404 709Q465 752 482 751ZM378 592 384 588 409 587Q410 602 465 617H471Q483 617 497 603H519L523 708Q523 713 513 718L488 719Q457 720 428 673Q412 674 378 592ZM362 525 365 512 361 493 371 486Q371 488 394 520Q394 525 379 537Q364 525 362 525ZM476 386Q511 367 510 356Q516 346 516 337Q509 306 502 293Q505 287 504 280Q481 245 481 239Q506 227 506 222L505 216Q498 193 498 190V174L520 173Q591 191 624 205Q630 219 637 221Q675 209 675 197L674 190Q667 183 580 158Q517 138 506 139Q488 96 480 43Q486 33 486 27Q467 14 447 13Q399 21 381 44H371Q348 -6 341 -6H328Q264 7 266 60L258 102L259 122Q264 134 282 134Q290 124 313 120Q309 102 309 94Q317 59 324 58L452 141V163H436Q414 164 415 187Q436 203 453 285Q457 284 457 294V304Q457 310 451 310Q430 289 424 257L423 241L425 218L419 215L413 216Q365 217 344 279Q362 304 364 304Q382 300 393 300Q410 332 426 340Q443 372 476 386ZM403 49Q421 36 429 36Q446 54 449 77Q446 86 443 86L447 93V96Q405 80 403 49Z" fill="#000000" />
    </g>
    </svg>
    