<?xml version="1.0" encoding="UTF-8" standalone="no"?>
    <svg xmlns="http://www.w3.org/2000/svg"
        width="1000"
        height="1000"
        viewBox="0 0 1000 1000">
    <g transform="translate(215.8570,645.7654) scale(0.56828598, -0.56828598)">
        <path d="M470 828Q558 784 558 757V749Q556 738 515 672Q506 636 483 594V591L503 589Q544 611 569 608Q573 616 587 615L601 613Q604 625 611 624L640 621Q661 625 664 624L750 615Q782 594 797 593L814 565Q812 547 788 541Q764 556 753 568L751 569Q744 569 724 560Q653 564 646 565Q642 566 633 578Q634 589 681 599L682 602L676 606L662 607Q593 597 531 580Q463 570 461 544Q456 544 446 514L433 503L434 489Q434 482 419 482L418 467Q409 427 389 418L386 389Q386 383 380 384H377L372 388Q371 378 334 360Q324 342 307 331L293 332Q292 320 260 318L219 323Q198 325 145 386Q130 416 100 431L80 462Q82 468 143 479L294 535Q306 534 384 561Q428 565 430 588Q436 591 469 682Q483 724 489 730Q492 729 492 732L498 787Q494 787 482 800Q459 809 461 826Q467 828 470 828ZM409 552Q403 545 331 526Q289 505 240 492Q222 482 221 479V473L215 474Q209 480 207 481Q204 455 167 459Q160 456 145 415Q174 371 199 348L228 345Q281 352 288 365Q342 406 407 532Q414 541 415 549ZM553 472H557Q563 471 563 465L577 472Q603 453 639 445Q663 411 663 400Q663 390 649 366Q653 360 653 352Q644 336 635 297V-39Q649 -83 649 -87V-148L656 -172L646 -179H639Q574 -157 574 -145Q574 -136 553 -104Q553 -97 539 -52V-25Q541 -18 546 -18H550L584 -69Q589 -69 594 -59Q594 -56 581 -18V164L577 171Q569 170 546 143Q515 129 509 129Q464 148 464 153Q469 175 522 181Q539 205 543 205H563Q574 205 574 191H587V424L563 431H557Q519 408 512 373Q507 372 485 304V290Q485 286 495 280Q495 286 509 294L522 287Q528 290 536 290Q545 290 563 263V256Q536 232 526 232L492 229Q492 234 481 239H471Q471 222 457 208V181Q450 156 450 153V119Q436 92 430 -1L409 -15H406Q402 16 372 16L368 23V37Q382 52 382 54V78L396 153V201Q396 215 416 236V284L430 338V400Q431 407 437 407H444Q444 402 457 366V325L464 314Q456 308 450 308V301Q451 294 457 294L471 311L468 328Q475 329 495 407Q501 407 516 438Q523 438 546 469Z" fill="#000000" />
    </g>
    </svg>
    