<?xml version="1.0" encoding="UTF-8" standalone="no"?>
    <svg xmlns="http://www.w3.org/2000/svg"
        width="1000"
        height="1000"
        viewBox="0 0 1000 1000">
    <g transform="translate(215.8570,645.7654) scale(0.56828598, -0.56828598)">
        <path d="M450 566Q555 541 555 489V484Q534 440 512 369Q510 369 493 364V350Q479 282 455 282Q455 279 426 215V201L512 143Q547 118 608 90Q685 38 709 38Q789 18 848 14Q856 3 925 -10Q978 -35 978 -63L968 -68H939Q885 -49 810 -44Q810 -39 805 -39Q789 -49 776 -49Q662 4 627 4Q601 44 474 105Q458 128 406 148Q406 155 392 162H368Q368 145 320 110Q320 79 272 66Q238 51 238 42L229 38H171Q150 7 85 -6Q32 16 32 47L46 57Q51 57 75 38H94Q167 80 214 95Q214 104 286 158L330 206Q176 359 176 388V398L200 403Q247 364 267 364Q368 497 450 566ZM310 345V311L354 258Q411 310 474 503V508H469Q434 508 358 398Q331 345 310 345Z" fill="#000000" />
    </g>
    </svg>
    