<?xml version="1.0" encoding="UTF-8" standalone="no"?>
    <svg xmlns="http://www.w3.org/2000/svg"
        width="1000"
        height="1000"
        viewBox="0 0 1000 1000">
    <g transform="translate(215.8570,645.7654) scale(0.56828598, -0.56828598)">
        <path d="M407 805H416Q463 790 483 771Q498 771 524 735Q524 720 480 710Q470 715 465 715L448 712Q442 722 442 726Q448 736 448 743Q448 756 407 799ZM591 676H644Q715 653 758 634Q775 626 775 612Q775 605 734 598Q717 584 626 544Q611 524 544 505V511Q679 631 693 631V642Q688 642 649 654H609Q603 654 538 631Q520 631 492 614Q413 594 413 575Q398 561 354 541Q335 528 293 485Q267 494 252 519Q231 519 226 555Q226 558 232 578V623Q244 665 252 665Q296 652 296 628L284 572V567Q284 563 293 558H299Q325 578 369 598Q408 622 442 631Q507 654 591 676ZM544 491Q568 491 600 466V460Q600 455 562 443Q562 438 535 421Q535 404 509 376L500 365Q504 357 556 340L559 325V283H568L597 292L603 289L606 295V300Q606 307 573 311Q571 321 571 323L579 328Q628 318 641 306Q671 306 699 281Q699 269 617 258Q617 256 585 250Q576 255 568 255H565V101Q565 99 559 79V39Q547 -2 547 -33Q553 -43 553 -50Q547 -59 547 -67V-95Q547 -118 515 -126Q484 -121 471 -109Q424 -100 369 -42L340 0V3Q341 9 346 9Q373 9 401 -39L451 -76H477V-67L489 -17V17Q489 19 495 39V222H480Q477 222 457 216H442Q442 202 384 182Q346 160 340 160Q337 160 322 171L311 166Q292 182 287 182Q275 187 275 191V196Q279 203 308 211Q310 220 395 306L454 373Q454 378 500 438V446H498Q447 429 439 429H433Q413 429 389 454Q389 462 416 483H419Q424 482 424 477Q419 468 419 460V452H433Q483 463 533 491ZM360 225V216H363Q372 216 451 250L495 261V303Q489 323 489 325V340H474Q436 322 407 278Q380 262 360 225Z" fill="#000000" />
    </g>
    </svg>
    