<?xml version="1.0" encoding="UTF-8" standalone="no"?>
<svg xmlns="http://www.w3.org/2000/svg"
     width="1000"
     height="517"
     viewBox="0 0 1000 517">
  <g transform="translate(290.0000,383.5000) scale(0.42000000, -0.42000000)">
    <path d="M494 675H501Q590 656 589 620Q566 573 565 560Q565 546 550 546V528Q542 503 542 500L538 392L545 382L563 385Q616 363 615 355V348Q614 322 578 310V299Q577 274 555 274L553 199Q552 196 544 171Q544 161 551 149Q545 131 525 132L479 133L434 83Q404 39 403 23V12H414Q423 25 500 32L579 31Q621 22 636 16Q658 56 660 108Q671 137 689 215H696Q710 209 709 189L708 154Q708 150 700 125L698 75Q698 72 705 46L703 11Q703 0 716 -25Q716 -35 698 -43Q648 -14 599 -5L549 -4Q462 -13 426 -38Q419 -38 371 -80H368Q325 -62 326 -43Q321 -43 316 -32Q346 39 422 151L423 162Q391 165 352 192Q343 192 286 240Q268 251 269 265Q321 288 396 334Q446 346 495 379L502 593Q502 606 517 621L518 639L493 640Q426 591 405 591H398Q379 617 360 617V631Q379 631 429 648H440Q440 666 494 675ZM712 357H722L768 342Q768 323 835 294L862 272V251Q862 246 851 240L815 241L739 317Q731 318 711 346ZM354 253V231Q404 189 434 183H445Q498 280 499 314L500 325H496Q481 325 449 305Q421 299 354 253Z" fill="#000000" />
  </g>
</svg>
