<?xml version="1.0" encoding="UTF-8" standalone="no"?>
<svg xmlns="http://www.w3.org/2000/svg"
     width="1000"
     height="529"
     viewBox="0 0 1000 529">
  <g transform="translate(290.0000,408.2800) scale(0.42000000, -0.42000000)">
    <path d="M518 734H526Q557 717 562 706Q562 681 502 560Q499 536 479 536V524Q455 456 312 283Q303 283 257 227Q245 227 229 188Q213 188 197 164Q146 123 146 112Q136 112 83 57Q75 57 47 29Q40 29 -1 1Q-42 -18 -48 -18H-56Q-62 -18 -68 -6Q-67 1 -28 13Q49 59 75 93Q90 93 253 271Q260 271 336 366L328 378L308 374Q302 380 265 394V398Q273 411 273 421Q247 533 225 544V576H229Q270 576 304 453L312 449Q312 452 372 552H387L391 532Q370 496 360 441Q344 423 344 405V394Q345 386 352 386Q375 414 427 512Q434 512 479 615Q479 629 502 691Q502 734 518 734ZM696 691Q732 676 732 643Q699 527 685 508V481H688Q698 481 776 524H784Q793 516 823 504Q839 487 851 461Q837 423 748 322Q742 306 716 306V271Q716 260 657 132Q582 5 518 5Q502 5 467 -10Q435 0 435 5V9Q435 19 494 29Q582 94 582 97Q617 142 637 207Q649 207 665 299Q675 299 688 390L696 394H704L728 362Q739 362 784 465Q787 465 787 469V489H784Q726 473 677 417Q677 400 657 394Q605 405 605 413Q605 427 653 536Q681 631 681 655Q683 691 696 691ZM419 378Q532 326 546 326Q546 312 637 283L645 255Q645 249 633 243H625Q558 251 558 267Q558 286 502 306Q502 313 455 334Q455 346 399 362V374ZM292 235H308Q314 235 320 223V172H336Q336 206 427 235L506 219Q516 219 526 180Q517 172 502 172V152Q491 143 455 89L471 69V57Q471 50 419 33Q419 16 376 5V-14L387 -30V-38Q384 -50 364 -50Q320 -44 320 -6Q296 70 281 144V223Q281 229 292 235ZM352 97Q360 84 360 73L352 57L360 53H364Q463 161 463 192V196Q448 196 427 192L419 196Q368 168 368 144Q359 129 352 97ZM740 176Q783 176 883 112Q932 65 954 65Q954 49 1013 1V-10L986 -18H982Q948 -18 851 85L740 164Z" fill="#000000" />
  </g>
</svg>
