<?xml version="1.0" encoding="UTF-8" standalone="no"?>
    <svg xmlns="http://www.w3.org/2000/svg"
        width="1000"
        height="1000"
        viewBox="0 0 1000 1000">
    <g transform="translate(215.8570,645.7654) scale(0.56828598, -0.56828598)">
        <path d="M633 774 689 769Q692 768 716 759L731 765Q744 758 803 744Q829 730 829 724L811 520L823 412Q815 401 814 395Q828 388 826 369L818 278Q818 274 823 249L812 129Q812 126 817 100L814 65Q817 5 825 -50L821 -92Q832 -137 829 -203Q817 -209 808 -208Q703 -170 658 -113Q652 -112 586 -21V-14Q588 -7 594 -8H601Q636 -72 687 -108Q685 -126 770 -162H773L778 -102Q774 -77 774 -73L778 -31L771 55L777 125Q772 151 773 154L778 217Q778 221 774 246L780 317Q780 320 775 345L781 416Q781 419 777 445L780 487L772 559L776 594Q776 597 771 623L776 679Q776 683 771 708L772 719L748 721Q745 721 700 739L645 744Q642 744 616 740L592 742Q590 724 533 708L389 582L382 583V586Q395 632 529 744Q590 770 633 774ZM565 638Q607 623 626 604L625 600Q623 577 590 561Q567 517 538 519L536 502Q537 494 572 467L571 463Q512 430 512 426Q489 386 454 360Q460 356 464 355Q471 355 542 412L553 411Q594 407 587 316Q590 233 596 219Q586 199 580 199Q567 201 536 221Q477 143 420 89Q416 90 391 85H384Q340 103 341 114L342 121L346 128L370 122H373Q420 155 438 184Q414 186 398 208L408 321Q409 331 417 342Q414 348 415 356Q439 383 450 403L444 407L426 408Q423 409 398 404L384 405Q359 407 361 428Q388 447 405 446L408 477Q408 483 393 557L394 564Q487 636 565 638ZM442 545Q445 492 454 491L461 490Q496 512 514 535Q564 577 566 605V609L556 610Q456 588 453 555Q448 556 442 545ZM160 574 174 573Q242 558 279 531Q296 524 295 519Q277 513 277 503Q276 500 261 483Q245 379 241 339L232 315L228 270Q229 262 235 262Q242 273 259 345Q271 381 288 389Q295 387 294 381L293 367Q292 354 276 340L274 312Q273 299 258 285L246 144Q233 98 226 82Q233 68 236 38Q235 18 217 15Q172 28 175 58Q175 61 170 87L187 284Q188 287 197 311L207 424Q207 428 216 452L222 522Q222 530 152 561V568Q154 575 160 574ZM525 378Q523 353 490 339L471 316Q471 312 457 313L447 197H450Q456 196 499 274Q503 306 515 305Q521 303 542 284H552L554 301Q554 304 549 330L552 365Q553 370 543 377ZM507 170H511Q619 125 635 102Q628 85 609 87Q561 106 506 160ZM542 43 577 40Q605 37 602 6L595 3Q585 4 574 12Q556 -1 450 -9Q400 -37 381 -35L374 -34L343 -25L345 -7Q346 3 384 4Q394 24 400 24Q419 18 428 18Q456 29 502 29Q527 44 542 43Z" fill="#000000" />
    </g>
    </svg>
    