<?xml version="1.0" encoding="UTF-8" standalone="no"?>
<svg xmlns="http://www.w3.org/2000/svg"
     width="1000"
     height="665"
     viewBox="0 0 1000 665">
  <g transform="translate(290.0000,431.8000) scale(0.42000000, -0.42000000)">
    <path d="M637 790Q673 786 673 762Q645 757 603 729Q588 729 551 692Q537 692 505 649Q486 649 440 588Q430 571 428 545Q400 515 400 471Q367 428 367 413Q345 360 339 324Q327 300 275 158L241 69Q229 18 210 -23Q192 -57 192 -81Q170 -114 170 -136Q159 -136 143 -213Q137 -213 112 -265Q109 -265 78 -302Q71 -302 60 -317Q53 -317 48 -314Q42 -317 35 -317Q14 -294 14 -280Q17 -274 17 -271H26Q27 -283 48 -283Q64 -273 106 -204Q120 -178 127 -142Q134 -142 143 -102Q200 21 213 75Q222 89 241 152Q308 320 333 413Q346 437 385 581Q389 581 394 591Q391 596 391 603Q396 603 416 643Q455 689 489 689Q511 706 511 713Q505 716 502 716Q495 716 453 686Q425 686 407 661H351Q351 649 342 649H305Q226 670 226 683V692L238 695Q242 695 275 686H305Q357 693 437 723L538 759L627 790ZM563 649Q594 641 603 634Q602 624 548 597Q484 526 468 526L462 535Q478 568 538 634Q546 649 563 649ZM630 581H661Q692 581 707 539Q710 539 713 529L707 517L719 493Q697 435 679 416Q658 364 624 364L621 358Q621 353 630 348H637Q639 348 661 355H667L689 348L707 351Q708 341 765 330L768 315Q768 300 729 296Q729 280 673 269H667Q663 269 658 278Q658 289 695 321V330H679L621 342L615 333V272Q615 267 606 263H581Q549 263 505 296Q505 299 502 299H492Q486 263 477 263H459Q400 282 400 299Q408 305 413 305V315Q407 337 407 339V342Q407 349 434 361Q448 361 453 321L459 318H474Q476 330 483 330Q501 330 535 305Q543 305 557 293H563Q567 293 572 302V358L538 385Q519 361 514 361Q478 388 468 388Q462 388 459 425Q425 484 425 511Q425 517 434 517Q440 517 468 489Q486 489 486 480L480 468Q486 458 486 453H499Q500 469 538 514H551Q555 514 560 505Q560 496 548 468L554 465H569Q585 477 587 477Q627 461 627 456V428H640Q676 504 676 517V542Q676 546 661 557H649Q646 557 624 551Q608 551 606 560V566Q614 581 630 581ZM578 440Q578 433 566 419V385H584V394Q584 397 591 419V440ZM508 195 587 155 600 146H670Q683 146 784 171H796Q866 161 870 143Q881 137 885 125Q882 119 882 115H870Q861 115 851 121Q793 96 750 57Q746 57 710 42Q698 46 698 51V54Q703 54 747 100Q781 123 781 131L775 134H771L667 109H600Q592 109 591 121H581Q541 134 541 146H526Q503 146 486 180Q491 195 508 195ZM394 137Q419 132 419 112V100Q394 78 394 75Q406 66 413 66Q414 73 428 79L440 72Q446 75 453 75Q491 58 502 36Q509 36 538 11Q574 -4 597 -4Q597 -7 600 -7Q610 -1 618 -1H643Q647 -1 652 8Q640 21 640 33V42Q584 79 572 79Q551 91 551 94V97Q552 103 557 103Q689 61 689 17Q710 17 710 -1Q713 -1 732 -23Q724 -42 716 -44Q706 -38 698 -38Q695 -38 673 -44H661Q639 -38 637 -38Q626 -44 618 -44Q551 -17 529 -17Q527 -10 480 8Q464 39 413 39Q413 43 403 48H379Q330 -2 324 -32Q324 -46 299 -50Q253 -42 253 -17L278 2V11Q259 11 259 33V39Q260 46 287 54Q297 48 305 48H308Q337 78 364 115Q392 137 394 137Z" fill="#000000" />
  </g>
</svg>
