<?xml version="1.0" encoding="UTF-8" standalone="no"?>
    <svg xmlns="http://www.w3.org/2000/svg"
        width="1000"
        height="1000"
        viewBox="0 0 1000 1000">
    <g transform="translate(215.8570,645.7654) scale(0.56828598, -0.56828598)">
        <path d="M555 761Q646 743 646 707Q620 688 611 642Q601 642 598 606L599 520L586 434L587 383Q580 358 580 355L587 -5Q587 -8 594 -33L595 -91Q595 -94 603 -120L604 -192Q606 -210 627 -263Q623 -278 610 -285H602Q572 -261 497 -220Q460 -183 460 -177Q466 -163 471 -163H478Q498 -188 507 -188Q514 -184 522 -184Q522 -212 544 -224H555L553 -148Q553 -145 560 -120L559 -77Q552 -51 552 -48L545 355Q544 358 551 383L549 506Q549 509 556 534L554 664Q553 667 560 693V718H556Q509 703 506 703Q452 714 452 725Q448 725 441 721L416 725L398 721L394 729Q399 746 419 746H433Q437 746 462 739H484ZM365 552Q376 543 419 531Q419 524 434 484L414 405V398Q414 393 472 369Q472 364 509 348Q516 336 516 326L517 290Q517 279 503 279V258H507L532 265Q535 258 536 254Q512 182 486 182Q487 177 462 157H455L415 182L460 276Q460 278 456 297Q463 301 466 301V344L411 358Q395 262 361 164H354V146L340 110Q341 90 309 35Q306 7 292 -15H289Q254 -15 241 21V24Q248 36 248 42H266Q283 52 304 139Q332 194 358 340Q357 370 371 405L369 506Q347 530 347 534Q347 544 365 552Z" fill="#000000" />
    </g>
    </svg>
    