<?xml version="1.0" encoding="UTF-8" standalone="no"?>
    <svg xmlns="http://www.w3.org/2000/svg"
        width="1000"
        height="1000"
        viewBox="0 0 1000 1000">
    <g transform="translate(215.8570,645.7654) scale(0.56828598, -0.56828598)">
        <path d="M549 767Q622 751 622 734V718Q622 706 602 652L595 623L594 607Q612 607 651 581Q677 580 705 554Q704 535 682 526L603 537Q552 523 551 493Q526 469 512 421Q505 421 485 380Q411 312 410 264Q410 239 403 219L401 127H411Q520 164 588 216L589 292Q589 298 571 350V356Q571 363 581 362Q605 362 633 285V256H642Q656 269 674 268H693Q747 251 747 229Q730 217 718 217Q696 224 693 224Q664 205 651 205V189Q644 167 644 164L643 126Q643 123 636 100V97L710 96Q719 96 719 83H732Q750 83 769 60Q761 40 753 38Q715 45 703 58H696Q693 58 671 52Q668 52 645 59Q608 50 591 34L556 35Q539 35 537 45Q537 71 585 79V82Q585 85 579 108L580 156H567Q567 144 510 135Q446 114 407 66L406 15L392 -35V-61Q392 -65 382 -70Q373 -70 322 -28L340 52Q343 52 343 61L344 93Q344 96 350 118L352 210Q352 217 346 217Q343 201 281 148Q226 78 193 60Q193 51 171 39Q170 22 126 -2Q106 -2 100 -8H97Q72 -7 49 15L50 28Q50 33 59 37H66Q75 37 75 18H91Q121 18 239 146Q245 146 265 177Q284 187 350 277Q360 293 360 303L361 334Q341 367 323 367V380Q368 376 367 363L383 366L399 350Q470 445 484 491V501L481 507Q469 500 443 495L411 496Q357 509 357 519L358 541L428 540L508 558H517L518 580Q532 609 541 659Q551 666 551 681L552 732L527 752Q532 767 549 767Z" fill="#000000" />
    </g>
    </svg>
    