<?xml version="1.0" encoding="UTF-8" standalone="no"?>
<svg xmlns="http://www.w3.org/2000/svg"
     width="1000"
     height="557"
     viewBox="0 0 1000 557">
  <g transform="translate(290.0000,411.2200) scale(0.42000000, -0.42000000)">
    <path d="M560 741Q625 722 624 692Q611 641 596 630Q596 623 599 617Q598 576 581 562L580 518Q573 496 573 493L568 368Q568 365 561 344L560 309H570Q576 309 645 331H658Q716 321 769 280Q775 279 775 274L774 267L765 255Q750 256 712 266Q690 267 670 243L648 237L639 238Q638 220 562 190Q545 178 460 141Q447 116 413 118Q413 113 400 105L390 106L391 115Q396 127 423 136Q448 153 449 160Q487 176 513 198L608 258L609 270L574 271Q566 272 555 266Q509 291 510 308L516 477L547 644V660H535Q527 636 509 636L508 614Q508 606 462 535L447 479L446 435Q439 413 439 410Q445 400 444 392L443 354Q443 343 430 330L428 273L413 224V218L419 195L409 190H403Q360 191 306 274L303 290L304 321Q343 423 375 463Q378 468 378 475Q379 480 369 485H360Q359 471 324 443H308Q308 433 288 397Q288 383 260 314L246 252L248 236Q242 222 235 221Q213 221 195 250Q183 251 184 269Q191 302 205 331Q199 342 199 350Q199 353 206 375L208 425Q208 428 202 450Q203 454 212 459L255 433L261 432Q341 523 346 523H352Q365 516 395 509Q426 528 438 567Q461 591 497 652Q503 653 537 707Q542 707 556 741ZM910 119Q946 92 946 86V83Q820 -4 808 -18Q808 -24 699 -108Q694 -108 690 -98Q690 -94 787 -8Q815 35 826 34Q826 39 865 77V86H862Q721 39 693 -5L698 -27L676 -39Q627 -14 585 36Q546 53 542 54L511 55Q497 42 447 13Q446 7 392 -29Q392 -41 382 -41L370 -40Q341 -32 281 19Q261 20 257 48V54H260Q331 25 331 11L359 10L486 68Q491 68 533 82Q556 81 625 32Q633 32 647 19L656 18Q657 40 784 89Q820 106 910 119ZM61 58Q109 21 108 -3Q113 -3 145 -42L144 -48Q141 -57 125 -57Q54 -32 56 14Q50 15 48 52Z" fill="#000000" />
  </g>
</svg>
