<?xml version="1.0" encoding="UTF-8" standalone="no"?>
<svg xmlns="http://www.w3.org/2000/svg"
     width="1000"
     height="545"
     viewBox="0 0 1000 545">
  <g transform="translate(290.0000,430.5400) scale(0.42000000, -0.42000000)">
    <path d="M377 787H385V783H377ZM385 783H392V779H385ZM400 779H404Q425 766 454 756V745Q447 696 427 679Q392 628 388 628Q381 624 377 624V597Q377 592 388 586H404Q425 605 489 624Q524 624 559 589Q517 561 447 481Q416 464 416 458V430Q443 423 458 415L454 376Q454 369 462 357Q462 353 447 333V310Q519 229 551 229H567Q586 237 633 353Q633 366 637 372Q695 351 695 318V306H726Q768 419 815 434L831 442Q876 442 958 384V372Q958 366 927 341V302Q912 291 889 248Q871 248 862 198Q837 174 827 174V143H885Q958 117 958 105V101L939 105H931Q928 105 900 97H862Q830 89 792 85Q771 95 722 105Q677 126 675 143Q656 240 648 260H621Q544 159 544 81L509 -12Q495 -27 489 -27Q423 1 423 23Q423 43 416 70V89H373Q339 65 295 -35H288Q265 -35 233 -8Q233 -2 284 50L346 155V182Q346 190 338 190H334Q250 167 210 147Q196 134 140 105Q140 90 105 81V58H94Q78 58 51 85Q125 175 125 182H129V171Q129 167 113 147V136Q114 128 121 128H140Q269 208 373 217Q400 321 408 380V407H373Q373 403 280 322H276Q276 330 330 380L478 566V578Q478 586 470 586H443Q415 575 381 547Q369 547 311 496H303Q289 519 264 531Q323 601 330 601Q338 631 385 694Q400 730 400 737ZM741 240V194Q741 190 734 163V136H761Q848 239 873 310Q896 357 896 372V415H846Q779 369 765 299Q754 294 741 240ZM276 322Q260 299 245 299Q260 322 276 322ZM163 229H175Q163 214 163 205H160V217Q163 225 163 229ZM392 147V120Q450 99 450 74Q452 66 458 66H481Q501 75 544 182Q549 182 555 194V209Q555 215 544 221H528Q408 208 408 174Q408 165 392 147ZM160 205Q152 190 136 190Q144 205 160 205Z" fill="#000000" />
  </g>
</svg>
