<?xml version="1.0" encoding="UTF-8" standalone="no"?>
<svg xmlns="http://www.w3.org/2000/svg"
     width="1000"
     height="564"
     viewBox="0 0 1000 564">
  <g transform="translate(290.0000,438.1000) scale(0.42000000, -0.42000000)">
    <path d="M504 805Q558 799 552 759L547 724Q547 721 550 703Q549 696 542 689Q546 680 545 673V668Q544 666 536 648L534 628Q533 626 536 608L528 553Q531 488 534 488Q549 505 587 561Q590 561 601 544L599 529L569 487Q548 470 531 430L529 415Q528 362 534 343Q528 335 527 328V326Q525 315 526 305Q522 296 521 288Q530 287 535 164Q539 158 535 113L532 108Q543 78 541 26L533 -34Q539 -44 539 -48Q531 -62 516 -60Q465 -42 454 -25Q420 40 423 139Q423 144 420 178L424 203Q425 206 433 209Q447 208 453 125Q460 73 474 57Q474 53 483 45L487 50L488 63Q489 65 486 83L490 108L486 231L489 251Q490 255 483 260Q457 248 437 222Q428 223 411 204Q401 204 388 194Q374 196 356 175Q321 140 291 142Q254 110 217 107Q159 126 160 137Q187 180 203 178H206L234 151Q271 161 365 235Q378 234 445 307L442 326Q457 334 467 333Q474 332 482 326L485 331L486 338Q486 341 484 359L489 397H481Q474 398 441 354Q427 349 390 316Q334 272 328 273L304 271L259 286L260 294Q285 320 309 339Q324 350 392 421L394 433Q411 431 447 506V509L434 510Q351 539 353 553L359 593Q359 595 367 612L370 635Q362 636 363 641L364 643Q374 652 386 671Q429 664 442 655L441 650Q432 624 418 601Q422 592 421 586Q415 578 414 571L411 551Q411 548 422 537Q430 536 488 555L491 554L492 562Q490 581 491 608L494 613Q490 622 491 628L498 673L495 725L498 750Q497 780 489 799ZM481 469Q479 453 434 418Q433 409 368 362L367 357Q366 354 374 349Q428 385 461 420Q465 420 485 440L488 460Q488 464 481 469ZM647 227Q677 224 818 164V161Q817 156 814 152Q816 147 815 141L809 139Q792 147 789 147L766 150Q767 157 720 181Q721 184 701 193L695 191Q685 192 640 215Q630 217 631 222Q631 226 647 227Z" fill="#000000" />
  </g>
</svg>
