<?xml version="1.0" encoding="UTF-8" standalone="no"?>
<svg xmlns="http://www.w3.org/2000/svg"
     width="1000"
     height="573"
     viewBox="0 0 1000 573">
  <g transform="translate(290.0000,428.8600) scale(0.42000000, -0.42000000)">
    <path d="M445 782Q498 773 496 742Q477 732 477 727L476 718Q486 717 491 698Q497 698 528 684L527 675Q524 665 508 666Q498 673 490 673L471 674Q431 661 401 606Q382 582 345 483Q340 484 326 425Q320 425 316 403L315 388L330 387Q365 392 366 401L369 476Q370 480 379 485Q415 477 435 463Q440 466 447 466Q446 449 480 439Q492 425 492 413L491 407Q421 390 421 373Q420 364 401 364L399 318Q391 296 391 293V290L410 289Q411 302 436 306L442 297Q385 231 385 227Q382 228 381 224Q387 214 387 205L384 155Q384 152 389 130L386 80Q399 -74 416 -75Q422 -77 428 -91Q422 -104 417 -103Q382 -102 327 -42Q270 43 247 59L238 66Q226 59 200 55Q148 79 149 102Q207 115 259 168Q285 182 358 251Q353 273 353 276L356 336Q356 342 350 342Q344 330 327 331H318Q294 332 264 369Q282 391 291 424Q299 423 310 482Q345 538 346 574Q352 574 364 614V617L352 618Q351 602 313 592Q286 566 236 555L207 550L157 553L125 589Q125 594 134 598Q144 591 153 591L197 588Q233 596 267 610Q293 620 379 667Q396 678 436 783ZM685 751H691Q700 750 708 715L707 690Q699 668 699 666L696 603Q696 598 705 593L718 599Q737 589 739 582Q739 579 706 552Q697 531 686 531L684 491Q684 486 693 481L768 543L760 575Q762 581 767 580Q831 555 831 543L830 536L740 482Q682 448 680 416L657 339L659 323Q649 308 649 298L648 289L661 288Q661 301 705 305Q706 310 721 310L753 308Q756 308 787 313L815 311Q868 301 867 281V277Q851 278 738 159L702 123Q702 114 695 114H692L686 118L683 111L682 102Q682 90 728 75Q731 59 785 25Q797 24 796 8Q790 -6 783 -7L771 -6L762 1Q752 -2 752 -5Q699 54 655 57Q631 77 579 98Q579 107 561 118V121Q565 130 580 129Q589 129 599 122Q599 127 612 134L634 133Q645 132 676 159Q686 158 748 224Q754 227 758 227L759 242Q778 258 779 273V282L764 283Q710 273 668 250Q667 229 629 215Q598 223 599 248L592 245H589Q583 245 583 251L584 258Q599 283 621 375L622 397H613Q547 336 516 333L512 334Q508 334 504 343V350Q508 359 523 358H533Q533 369 552 379Q553 384 601 414Q637 432 639 468L643 552L609 554Q562 568 564 591Q567 610 574 609H580Q595 574 610 573H616Q660 582 662 620L666 636L669 686Q669 689 676 711L678 745Q680 751 685 751ZM262 93 261 74Q260 69 300 50Q300 42 341 -5Q356 -28 355 -34L368 -35L369 -19L360 50L363 113Q363 115 358 138L361 204H352Q319 185 298 138Q263 111 262 93Z" fill="#000000" />
  </g>
</svg>
