<?xml version="1.0" encoding="UTF-8" standalone="no"?>
    <svg xmlns="http://www.w3.org/2000/svg"
        width="1000"
        height="1000"
        viewBox="0 0 1000 1000">
    <g transform="translate(215.8570,645.7654) scale(0.56828598, -0.56828598)">
        <path d="M733 766Q754 766 849 728Q871 728 884 693Q876 679 870 651V545Q863 520 863 517V33L877 -44V-86Q855 -174 845 -174H838Q830 -174 828 -160H817Q746 -138 698 -51Q694 -45 694 -37Q694 -30 705 -30Q779 -89 779 -118H796Q805 -118 814 -58V47Q821 72 821 75V138Q821 142 814 166V672Q807 724 782 724Q771 717 761 717H733Q687 730 628 738H621Q509 684 477 637Q455 618 417 563Q412 563 393 538V531Q438 499 438 475L452 465Q484 530 484 545V549Q466 551 466 559V563Q466 572 494 577Q523 568 523 542Q477 427 477 412V401Q478 394 484 394Q496 415 516 415Q540 401 551 401H554Q565 414 603 489Q609 493 617 493Q624 484 624 479H635Q656 476 656 468V461L624 415V412Q624 407 635 401Q646 408 656 408H670Q716 392 716 384V356Q679 277 652 261Q607 257 607 226Q586 209 575 166Q524 107 516 107Q477 117 477 135Q520 166 537 215H533Q516 213 449 117Q449 109 421 68Q416 37 389 37H361Q343 37 340 47Q340 63 365 82V96Q365 102 319 124V131Q352 157 421 251Q421 261 463 314V331Q463 338 456 338Q428 314 428 307Q421 307 396 282L382 275Q351 289 347 300V303L407 380L414 391V405Q394 500 375 500Q330 446 330 415Q319 387 308 387V377Q259 226 259 145Q233 75 224 22Q216 12 214 12Q187 12 161 37Q147 37 147 54V124Q147 128 154 152V208Q154 212 161 237V349Q151 401 130 401Q119 415 119 423L126 426Q179 413 179 394Q197 394 214 328Q210 309 210 296V279Q210 269 217 258L196 187Q196 182 207 177Q217 177 238 254Q310 455 372 538Q392 575 431 616Q492 711 575 745Q575 751 614 759H705Q708 759 733 766ZM137 731H144Q255 688 273 672V665Q273 647 252 637Q247 619 228 619H221Q196 619 196 644V675Q172 675 130 721V724Q131 731 137 731ZM607 331 544 352Q521 343 519 335V286L512 261Q531 254 547 226Q596 297 600 314L607 317Q621 312 621 307V300L617 293L624 289H631Q642 322 659 342V366H656Q634 366 610 331ZM635 205Q652 205 701 163Q764 121 772 121Q786 119 786 110Q786 85 768 82Q704 102 691 128Q674 165 628 194V198Q629 205 635 205Z" fill="#000000" />
    </g>
    </svg>
    