<?xml version="1.0" encoding="UTF-8" standalone="no"?>
    <svg xmlns="http://www.w3.org/2000/svg"
        width="1000"
        height="1000"
        viewBox="0 0 1000 1000">
    <g transform="translate(215.8570,645.7654) scale(0.56828598, -0.56828598)">
        <path d="M640 800H654Q684 797 685 770V767L605 656Q564 567 525 566L518 576L531 611Q518 645 494 746V760Q494 767 504 767Q533 768 554 673L561 669H571L637 780ZM272 603H275Q323 589 323 583L307 525L308 477Q308 474 302 450L303 378Q304 372 310 372Q407 478 434 493H441V486Q410 437 391 417V411Q426 386 426 374Q389 358 389 318Q373 288 370 260Q346 256 347 232L348 178Q382 143 382 127L396 128L403 152Q399 169 399 172Q406 193 412 193Q431 190 443 190Q528 253 571 274L577 298Q577 303 567 308L543 304Q536 345 512 344Q485 344 476 456L465 507L464 541Q463 566 480 569Q501 561 501 556Q501 548 498 542Q515 479 523 478Q568 547 593 547V578Q595 598 603 598Q633 599 634 568L671 569Q764 547 764 513Q756 502 738 447Q718 427 695 389Q678 388 665 333Q661 333 646 258Q646 249 704 242L762 243V270L779 271Q785 271 903 218L906 201L903 194Q894 194 828 210L725 208L664 221H654L647 197L650 60Q637 9 637 6L639 -103Q632 -128 632 -131L634 -206L622 -288V-329Q622 -332 616 -356L617 -404Q617 -411 610 -411Q603 -400 603 -390L594 141Q594 144 600 169L596 186L599 206H596Q592 206 555 192H545Q545 176 515 171L504 170Q505 157 437 132Q428 94 421 94Q364 106 338 144Q334 150 334 154H317Q253 98 243 98L189 97Q156 103 96 136V146Q215 265 270 333Q263 357 262 361L259 579Q258 597 272 603ZM655 524 656 477Q665 426 671 426Q685 461 704 488Q723 524 723 532V536L692 542H672Q667 542 655 524ZM561 468V458H595L594 489Q594 494 584 499Q560 491 561 468ZM555 410V393Q555 390 562 366L563 352H566L596 394V418L585 417ZM358 386Q337 369 331 352Q314 342 311 314L312 276H325Q325 284 364 383ZM178 127Q178 122 188 117Q259 144 272 180Q293 191 292 211V225Q278 269 278 272L277 282H267Q257 282 241 231Q230 230 214 193Q195 192 178 127ZM578 250V240H589Q593 240 599 251L598 261H588Q583 260 578 250Z" fill="#000000" />
    </g>
    </svg>
    