<?xml version="1.0" encoding="UTF-8" standalone="no"?>
    <svg xmlns="http://www.w3.org/2000/svg"
        width="1000"
        height="1000"
        viewBox="0 0 1000 1000">
    <g transform="translate(215.8570,645.7654) scale(0.56828598, -0.56828598)">
        <path d="M593 755Q636 739 656 722Q674 720 674 705L665 699H650Q628 652 602 621Q602 597 584 583Q600 570 674 538Q739 511 739 496V493Q739 489 730 485H718Q709 485 674 514Q665 514 617 544Q605 544 572 568Q566 562 552 532Q519 514 504 499Q498 499 489 479H462Q454 479 445 473Q403 490 400 496V505Q462 505 531 618V639H528Q525 639 504 633Q456 644 456 666Q528 675 558 687H566Q584 727 587 755ZM278 669Q313 662 334 645Q376 633 376 612V583Q376 574 343 532Q343 517 317 514V505Q317 488 269 431Q256 389 233 389V378Q323 352 323 333V321Q323 307 293 264Q293 256 245 202L281 178Q281 146 290 146Q314 177 346 267Q349 267 364 285Q370 284 370 279Q358 251 355 211Q343 200 320 104Q299 84 287 9Q287 -9 260 -9Q255 -9 221 24V65Q221 76 233 89V113Q239 134 239 137V149Q239 153 230 157Q215 146 213 146Q176 162 162 184Q238 275 239 291Q242 291 257 315V333Q257 338 207 354Q206 362 162 383V386Q184 405 236 476Q244 476 284 541Q299 557 317 618Q311 645 302 645H278Q262 645 254 657Q254 665 278 669ZM834 482 870 458Q870 447 834 437Q834 431 819 431H798Q798 415 772 410Q772 406 760 401Q741 409 739 416V434Q572 407 498 386Q486 374 409 366H361Q311 379 311 395L320 401H326Q328 401 349 395H403Q492 416 513 416Q513 423 572 431Q655 455 694 461H736Q825 482 834 482ZM694 360 748 333Q751 328 751 321Q751 318 745 297V262Q739 240 739 238V202Q739 199 733 178V27Q727 -17 727 -21V-42Q709 -132 685 -220Q634 -289 614 -298Q614 -317 555 -336Q555 -344 495 -366L492 -360V-357Q494 -350 528 -333Q615 -288 656 -182Q667 -147 679 -78V241H671Q668 241 629 175L608 169H605Q566 183 566 196L596 262L590 264H581Q521 211 519 178Q507 169 501 169Q501 176 462 196L459 202V262Q467 309 474 309Q519 299 519 273V264H531Q531 280 587 318H593Q601 318 632 297Q637 297 653 276Q670 276 685 321V351Q685 355 694 360Z" fill="#000000" />
    </g>
    </svg>
    