<svg xmlns="http://www.w3.org/2000/svg" width="200" height="200" viewBox="0 0 200 200">
  <path
    d="M 123 128 L 119 132 L 118 135 L 118 176 L 123 177 L 123 150 L 125 149 L 130 154 L 133 152 L 133 150 L 127 144 L 128 143 L 137 143 L 138 148 L 140 151 L 147 153 L 156 153 L 157 155 L 153 157 L 137 157 L 134 158 L 130 162 L 130 171 L 134 176 L 137 177 L 165 177 L 166 173 L 164 171 L 137 171 L 135 169 L 135 165 L 137 163 L 152 163 L 161 160 L 163 154 L 162 150 L 160 148 L 145 147 L 143 144 L 144 143 L 157 142 L 161 139 L 162 134 L 164 132 L 167 132 L 168 128 L 163 125 L 162 120 L 157 121 L 157 126 L 156 127 L 144 127 L 143 126 L 143 121 L 139 120 L 137 127 Z M 143 133 L 144 132 L 156 132 L 157 135 L 155 137 L 144 137 Z M 124 134 L 128 132 L 136 132 L 137 137 L 136 138 L 125 138 Z M 105 118 L 105 177 L 110 176 L 110 122 L 111 120 L 115 117 L 135 117 L 139 113 L 143 114 L 145 117 L 166 117 L 169 119 L 171 123 L 171 177 L 176 176 L 176 120 L 172 113 L 168 111 L 148 111 L 143 107 L 136 107 L 131 111 L 113 111 L 110 112 Z M 34 106 L 33 107 L 34 112 L 59 112 L 60 113 L 60 123 L 61 124 L 60 125 L 42 125 L 38 126 L 35 128 L 33 133 L 34 139 L 37 142 L 46 144 L 84 144 L 86 145 L 89 150 L 89 177 L 93 178 L 94 177 L 94 146 L 93 143 L 89 139 L 80 137 L 40 137 L 38 135 L 38 133 L 40 131 L 45 130 L 87 130 L 91 128 L 94 123 L 94 113 L 89 107 L 86 106 Z M 65 113 L 66 112 L 85 112 L 89 115 L 89 122 L 85 125 L 66 125 L 65 124 Z M 23 106 L 23 170 L 28 176 L 31 177 L 82 177 L 83 172 L 81 171 L 30 171 L 28 169 L 29 166 L 82 166 L 83 165 L 82 161 L 29 161 L 28 156 L 29 155 L 82 155 L 83 151 L 81 149 L 29 149 L 28 148 L 28 107 Z M 170 73 L 170 94 L 175 95 L 175 73 Z M 136 73 L 135 74 L 135 94 L 140 95 L 140 74 Z M 25 64 L 23 65 L 23 96 L 28 96 L 28 65 Z M 121 50 L 116 49 L 115 50 L 110 50 L 106 53 L 104 57 L 104 83 L 105 84 L 109 83 L 109 62 L 110 57 L 112 55 L 120 55 L 122 57 L 123 61 L 123 83 L 122 87 L 119 90 L 105 90 L 104 95 L 121 95 L 127 89 L 128 86 L 128 58 L 126 53 Z M 135 44 L 134 45 L 135 50 L 151 50 L 152 51 L 152 64 L 151 65 L 143 65 L 140 62 L 140 54 L 139 53 L 134 54 L 134 64 L 138 69 L 147 70 L 152 72 L 152 93 L 153 95 L 157 95 L 158 94 L 158 72 L 163 70 L 172 69 L 175 65 L 175 53 L 173 52 L 170 53 L 170 62 L 168 64 L 159 65 L 158 64 L 158 51 L 159 50 L 175 50 L 176 46 L 175 44 Z M 23 42 L 23 59 L 26 60 L 28 59 L 28 43 Z M 132 35 L 133 40 L 136 40 L 153 32 L 159 33 L 172 40 L 175 40 L 177 37 L 175 34 L 160 27 L 149 27 Z M 33 25 L 32 27 L 32 94 L 33 96 L 38 96 L 38 53 L 39 52 L 42 54 L 42 57 L 45 60 L 59 61 L 60 62 L 59 64 L 49 64 L 43 67 L 41 72 L 42 78 L 44 81 L 51 84 L 51 88 L 49 90 L 41 90 L 40 92 L 41 95 L 52 95 L 56 90 L 56 84 L 57 83 L 60 84 L 60 95 L 61 96 L 65 96 L 65 84 L 66 83 L 70 84 L 70 90 L 74 95 L 85 95 L 86 94 L 85 90 L 77 90 L 75 87 L 75 84 L 82 81 L 84 78 L 85 72 L 83 67 L 77 64 L 66 64 L 65 62 L 66 61 L 78 61 L 84 57 L 84 54 L 86 52 L 88 52 L 89 53 L 89 96 L 94 96 L 94 26 L 89 25 L 88 28 L 71 28 L 70 25 L 65 26 L 65 43 L 67 48 L 71 51 L 79 53 L 78 56 L 67 57 L 64 53 L 60 54 L 59 56 L 49 56 L 47 54 L 48 52 L 55 51 L 60 46 L 61 42 L 61 26 L 60 25 L 56 25 L 55 28 L 39 28 L 37 25 Z M 76 69 L 79 71 L 79 75 L 77 77 L 75 76 L 75 70 Z M 66 69 L 69 70 L 69 76 L 68 77 L 65 76 L 65 70 Z M 58 69 L 60 70 L 60 76 L 59 77 L 57 76 L 57 70 Z M 48 69 L 51 70 L 51 76 L 50 77 L 47 76 L 47 70 Z M 71 44 L 72 43 L 88 43 L 89 46 L 88 47 L 77 47 L 72 46 Z M 38 46 L 39 43 L 54 43 L 55 44 L 54 46 L 49 47 L 39 47 Z M 71 35 L 72 34 L 88 34 L 89 36 L 88 37 L 72 37 Z M 38 35 L 39 34 L 54 34 L 55 36 L 54 37 L 39 37 Z M 104 24 L 103 28 L 105 30 L 121 30 L 123 32 L 123 37 L 121 39 L 118 40 L 104 40 L 103 42 L 104 45 L 120 45 L 126 42 L 128 37 L 128 32 L 124 25 L 121 24 Z M 24 24 L 23 25 L 23 36 L 27 37 L 28 36 L 28 25 Z M 4 3 L 5 4 L 4 5 L 3 20 L 2 21 L 3 24 L 2 27 L 2 36 L 3 37 L 2 45 L 3 47 L 1 55 L 2 57 L 2 68 L 3 69 L 2 72 L 3 75 L 2 76 L 3 80 L 2 92 L 4 95 L 2 103 L 2 111 L 1 112 L 2 113 L 1 117 L 2 131 L 1 132 L 3 138 L 2 139 L 3 142 L 2 143 L 3 145 L 2 148 L 3 149 L 2 150 L 2 159 L 1 160 L 3 164 L 2 167 L 3 170 L 2 171 L 2 188 L 3 189 L 1 191 L 3 196 L 6 198 L 52 198 L 53 199 L 54 198 L 57 199 L 59 198 L 121 198 L 122 199 L 126 198 L 134 198 L 135 199 L 136 198 L 160 198 L 161 199 L 172 199 L 173 198 L 183 198 L 190 196 L 193 197 L 197 192 L 196 188 L 197 185 L 196 183 L 197 182 L 196 180 L 197 164 L 196 163 L 197 162 L 197 143 L 198 142 L 197 139 L 198 135 L 197 133 L 198 132 L 197 109 L 199 101 L 198 99 L 199 84 L 197 75 L 198 72 L 196 70 L 197 68 L 196 65 L 197 64 L 197 56 L 196 55 L 197 39 L 196 38 L 198 33 L 197 31 L 198 30 L 197 25 L 198 20 L 197 4 L 190 1 L 188 2 L 184 1 L 179 3 L 178 2 L 176 3 L 171 3 L 170 2 L 168 3 L 167 2 L 165 3 L 162 2 L 150 2 L 149 3 L 148 2 L 133 2 L 132 3 L 131 2 L 95 2 L 94 3 L 92 2 L 86 4 L 82 3 L 81 4 L 72 4 L 62 2 L 33 3 L 24 1 L 23 2 L 22 1 L 11 1 L 10 2 L 7 1 Z M 21 16 L 30 16 L 31 17 L 45 17 L 46 16 L 52 16 L 53 17 L 58 17 L 59 16 L 64 17 L 129 17 L 132 16 L 134 17 L 139 16 L 149 18 L 170 18 L 171 17 L 176 18 L 179 17 L 182 19 L 183 21 L 182 22 L 183 23 L 182 32 L 183 33 L 183 45 L 184 46 L 183 47 L 184 51 L 183 56 L 184 58 L 182 62 L 182 70 L 183 71 L 182 72 L 182 77 L 183 78 L 182 80 L 183 81 L 182 83 L 183 85 L 182 88 L 183 96 L 182 97 L 183 98 L 183 105 L 182 106 L 182 116 L 181 117 L 182 118 L 181 129 L 183 138 L 182 139 L 183 141 L 183 153 L 182 154 L 182 164 L 183 165 L 182 168 L 183 169 L 181 174 L 183 178 L 180 182 L 170 185 L 161 184 L 160 185 L 140 184 L 139 183 L 137 184 L 136 183 L 132 184 L 102 184 L 101 183 L 85 184 L 84 183 L 74 183 L 73 182 L 68 182 L 67 183 L 66 182 L 63 183 L 62 182 L 55 182 L 49 184 L 34 185 L 26 183 L 19 183 L 16 180 L 16 178 L 14 176 L 15 175 L 15 169 L 18 154 L 17 152 L 18 151 L 18 143 L 16 136 L 16 126 L 17 125 L 17 115 L 18 114 L 18 102 L 17 101 L 18 100 L 17 99 L 18 97 L 17 94 L 18 79 L 17 78 L 17 65 L 16 64 L 17 62 L 17 56 L 16 55 L 18 46 L 16 39 L 16 30 L 17 29 L 16 27 L 17 26 L 17 21 L 16 20 Z"
    fill="#ff0000" fill-rule="evenodd" />
</svg>