<?xml version="1.0" standalone="no"?>
<!DOCTYPE svg PUBLIC "-//W3C//DTD SVG 20010904//EN"
 "http://www.w3.org/TR/2001/REC-SVG-20010904/DTD/svg10.dtd">
<svg version="1.0" xmlns="http://www.w3.org/2000/svg"
viewBox="0 0 480.000000 480.000000"
 preserveAspectRatio="xMidYMid meet">
<metadata>
Created by potrace 1.16, written by Peter Selinger 2001-2019
</metadata>
<g transform="translate(0.000000,480.000000) scale(0.100000,-0.100000)"
fill="currentColor" stroke="none">
<path d="M1940 4169 c-63 -12 -108 -38 -145 -83 -55 -68 -119 -193 -138 -274
-10 -40 -23 -84 -29 -100 -6 -15 -12 -29 -12 -32 -5 -22 -62 -169 -72 -185
-19 -30 -113 -314 -180 -545 -14 -47 -30 -98 -36 -115 -6 -16 -19 -54 -29 -83
-19 -50 -45 -144 -55 -188 -2 -12 -11 -41 -20 -65 -8 -24 -17 -54 -20 -65 -2
-12 -13 -41 -24 -65 -11 -24 -20 -56 -20 -71 0 -14 -9 -47 -19 -71 -11 -25
-22 -58 -24 -74 -3 -15 -12 -46 -21 -68 -8 -22 -17 -51 -20 -65 -6 -35 -28
-94 -37 -100 -4 -3 -10 -23 -13 -45 -4 -22 -15 -69 -26 -105 -10 -36 -22 -85
-25 -110 -4 -25 -13 -61 -21 -81 -7 -21 -15 -53 -18 -73 -3 -20 -15 -68 -26
-107 -11 -40 -17 -76 -14 -80 3 -5 0 -9 -6 -9 -6 0 -9 -4 -6 -8 3 -5 -4 -38
-14 -73 -11 -35 -22 -73 -24 -84 -2 -11 -15 -47 -28 -80 -18 -48 -23 -79 -23
-157 0 -89 2 -98 25 -124 64 -69 181 -85 262 -34 46 29 78 65 82 93 1 8 10 27
20 43 11 15 25 58 32 94 14 73 24 112 66 255 16 55 36 123 43 150 7 28 24 84
36 125 13 41 22 78 21 83 -1 4 7 26 19 48 11 23 22 58 24 78 2 20 13 71 24
114 36 137 96 188 225 190 82 2 137 -19 214 -79 68 -55 132 -117 132 -129 0
-8 80 -135 108 -170 4 -5 14 -29 21 -51 12 -37 11 -47 -5 -90 -26 -72 -38 -89
-139 -208 -34 -39 -83 -86 -110 -104 -28 -19 -53 -42 -57 -51 -3 -10 -19 -28
-35 -39 -44 -32 -72 -55 -158 -129 -44 -38 -87 -74 -96 -79 -22 -12 -99 -103
-99 -116 0 -6 15 -25 33 -42 70 -65 263 -106 338 -72 40 18 72 38 80 49 4 5
15 14 26 20 72 43 125 88 236 199 69 70 134 139 143 153 9 14 30 33 46 41 27
14 30 14 56 -14 15 -16 45 -52 67 -81 22 -28 47 -59 56 -69 8 -9 29 -39 47
-67 63 -101 272 -230 387 -240 22 -2 67 -6 100 -10 89 -10 190 14 263 64 62
42 95 76 152 160 19 28 51 70 71 93 35 39 99 154 99 177 0 5 8 16 18 23 23 17
62 94 62 122 0 12 16 60 36 106 36 86 76 191 119 310 13 36 35 87 49 114 14
27 26 57 26 66 0 9 4 20 8 26 26 30 44 190 27 245 -30 100 -56 129 -116 129
-47 0 -50 -2 -137 -88 -88 -88 -89 -90 -111 -173 -13 -46 -33 -111 -46 -144
-13 -33 -33 -91 -44 -129 -27 -88 -88 -223 -116 -257 -11 -14 -30 -48 -40 -75
-10 -27 -23 -54 -29 -61 -6 -7 -33 -44 -61 -84 -71 -101 -128 -157 -169 -164
-73 -14 -197 28 -261 89 -16 16 -52 45 -80 66 -27 20 -57 50 -65 66 -8 16 -20
36 -27 45 -19 23 -44 125 -36 146 12 32 85 147 122 193 20 24 49 64 64 89 37
57 134 175 212 256 33 35 79 85 103 113 72 86 102 225 63 300 -35 69 -76 90
-140 72 -33 -9 -78 -48 -245 -213 -112 -111 -215 -222 -229 -247 -42 -73 -133
-160 -167 -160 -22 0 -72 47 -96 89 -10 19 -26 42 -34 52 -8 9 -26 36 -40 59
-14 23 -70 86 -125 139 -109 104 -190 153 -314 187 -82 22 -123 63 -140 137
-11 51 -10 60 18 145 17 50 32 105 34 124 2 18 11 47 20 63 8 17 22 50 30 75
9 25 20 59 26 75 21 62 43 131 53 170 6 22 23 69 38 105 15 36 36 99 45 140
11 45 31 95 51 126 19 28 34 62 34 76 0 14 7 31 15 38 8 7 15 17 15 22 0 6 9
23 21 39 25 35 34 75 33 144 -2 150 -41 222 -134 247 -8 2 -31 1 -50 -3z"/>
</g>
</svg>
