<svg width="88" height="88" viewBox="0 0 88 88" fill="none" xmlns="http://www.w3.org/2000/svg">
<path fill-rule="evenodd" clip-rule="evenodd" d="M66.8295 7.90115C66.7446 7.85048 66.6871 7.78748 66.6351 7.75873C66.4803 7.66149 66.3092 7.61082 66.1489 7.51907C65.9997 7.43416 65.8572 7.31365 65.7134 7.22874C65.5532 7.13151 65.393 7.08084 65.2273 6.98909C65.2095 6.97813 65.1985 6.90966 65.1807 6.89186C65.1465 6.8631 65.0671 6.8631 65.0383 6.84667C64.8041 6.70972 64.5919 6.58373 64.3563 6.45911C63.1033 5.79218 61.7694 5.17045 60.4807 4.62267C59.9836 4.41177 59.4399 4.21731 58.9812 4.04065C58.432 3.8366 57.9281 3.64213 57.3844 3.46C54.5277 2.50138 51.3903 1.83993 47.9324 1.52632C46.1644 1.36747 44.3211 1.24148 42.408 1.33323C35.1321 1.67422 29.1845 3.55723 24.2326 6.16194C22.544 7.05208 20.9294 7.98742 19.4353 9.05834C16.4239 11.2139 13.7329 13.609 11.3925 16.3466C10.5051 17.3833 9.6807 18.4843 8.91928 19.5785C8.84533 19.6881 8.72482 19.8647 8.67826 19.9154C8.63854 19.9551 8.62211 20.0181 8.58102 20.0578C8.54131 20.0975 8.52351 20.1605 8.48379 20.2003C8.44408 20.24 8.42628 20.303 8.38656 20.3427C8.34685 20.3824 8.32904 20.4454 8.28933 20.4851C8.24961 20.5262 8.23181 20.5878 8.1921 20.6289C8.08391 20.7371 8.02092 20.8507 7.95107 20.9644C7.83193 21.1534 7.7347 21.3355 7.65938 21.4944C7.6539 21.5122 7.57447 21.5231 7.56215 21.541C7.49367 21.6546 7.4252 21.8655 7.36768 21.9285C7.29373 22.0079 7.26497 22.0942 7.22526 22.1682C7.04175 22.4872 6.86372 22.7721 6.69254 23.0857C6.15434 24.0443 5.55863 25.1043 5.14094 26.0793C5.11766 26.1369 5.12314 26.1985 5.09438 26.2738C4.99167 26.4902 4.84925 26.6833 4.7575 26.901C4.62603 27.2078 4.52195 27.5214 4.41924 27.7665C4.39596 27.824 4.33981 27.8637 4.32201 27.9103C4.27134 28.0404 4.27134 28.1773 4.22478 28.2979C4.04812 28.7484 3.85229 29.1921 3.69206 29.6481C2.50748 32.9787 1.66663 36.6392 1.36809 40.7503C1.09283 44.5027 1.29414 48.0153 1.90081 51.4184C3.42912 60.0008 7.23622 66.666 11.9362 72.0822C15.279 75.8523 19.2464 78.9938 23.8601 81.4972C27.9534 83.6294 32.5452 85.3056 37.9655 86.0808C43.8747 86.9312 49.9428 86.3889 54.8317 85.118C55.7698 84.8729 56.675 84.6332 57.5446 84.3416C58.1349 84.1485 58.684 83.9252 59.2386 83.7143C59.8179 83.498 60.3616 83.2638 60.8875 83.0365C60.945 83.0132 61.0258 82.9625 61.0819 82.9392C61.1518 82.9105 61.249 82.9283 61.323 82.894C61.4489 82.8365 61.5804 82.7105 61.7119 82.6544C61.7749 82.6256 61.8899 82.6311 61.9529 82.6092C62.0214 82.5804 62.0953 82.5407 62.1474 82.512C63.447 81.8957 64.7576 81.1548 65.9257 80.481C66.1311 80.3619 66.3201 80.2359 66.4584 80.1455C66.5146 80.1113 66.6008 80.0825 66.6529 80.0483C66.7611 79.9798 66.8761 79.8826 66.9898 79.8086C67.1103 79.7347 67.2541 79.695 67.3801 79.6156C67.4992 79.5402 67.5964 79.4047 67.717 79.3239C67.7635 79.2951 67.8607 79.2609 67.9114 79.2266C68.0662 79.1308 68.1415 79.0678 68.2497 78.9883C68.3935 78.8856 68.4784 78.8226 68.5879 78.7487C68.7249 78.6569 68.8221 78.5775 68.9248 78.509C69.0631 78.4173 69.1658 78.3433 69.2631 78.2694C69.3206 78.2242 69.4 78.2187 69.4575 78.1721C69.5548 78.0982 69.6465 77.9558 69.7492 77.8818C69.8067 77.8366 69.8876 77.8298 69.9437 77.7846C70.1272 77.6531 70.2641 77.5285 70.4312 77.397C70.5394 77.3108 70.6599 77.2491 70.7681 77.1574C70.8653 77.0779 70.9571 76.9465 71.0612 76.8671C71.1748 76.7753 71.2844 76.7178 71.3981 76.6274C71.6213 76.4384 71.8281 76.2617 72.028 76.0974C72.1307 76.0111 72.2115 75.8975 72.3197 75.8057C72.4347 75.703 72.5662 75.6469 72.658 75.5661C72.7661 75.4702 72.8415 75.3278 72.9497 75.2305C73.1551 75.0416 73.3797 74.8991 73.5796 74.7006L74.163 74.1185C74.5519 73.731 74.9586 73.3653 75.3257 72.9614C75.3708 72.9093 75.3832 72.8121 75.4229 72.7669C75.4736 72.7039 75.5201 72.6697 75.5653 72.6245C76.0474 72.1109 76.4938 71.5919 76.9225 71.0797C77.0087 70.977 77.1292 70.8907 77.2141 70.788C77.2662 70.7196 77.2662 70.6511 77.3114 70.5949C77.3292 70.5717 77.3922 70.5662 77.4086 70.5484C77.4442 70.5087 77.4264 70.4457 77.4552 70.4059C77.5414 70.2923 77.6551 70.2348 77.7469 70.1156C77.8277 70.0129 77.9016 69.8869 77.9879 69.7787C79.2067 68.2107 80.2365 66.603 81.2335 64.8528C83.0658 61.6483 84.5763 58.0219 85.55 54.0354C85.6527 53.6137 85.7787 53.2261 85.8417 52.8783C85.928 52.377 86.0074 51.8813 86.0828 51.3842C86.0937 51.3047 86.1622 51.2308 86.18 51.1445C86.2361 50.82 86.2704 50.4776 86.3224 50.1298C86.4772 49.115 86.5799 48.0495 86.6607 46.9937C87.1359 40.7791 86.1389 35.0767 84.6229 30.578C84.3709 29.8371 84.0902 29.1072 83.8437 28.4512C83.6889 28.0404 83.5232 27.6638 83.4082 27.294C83.4027 27.2762 83.3233 27.2201 83.311 27.1968C83.1905 26.9229 83.0877 26.6381 82.9741 26.3751C82.8536 26.1081 82.7098 25.863 82.5838 25.6055C82.4578 25.3439 82.3784 25.0468 82.2469 24.7852C82.1154 24.5346 81.9484 24.3114 81.8114 24.0608C81.6745 23.8101 81.5649 23.5362 81.4225 23.2911C81.2102 22.9145 80.998 22.5215 80.7925 22.1791C80.6433 21.934 80.5008 21.6889 80.3571 21.4547C80.2776 21.3177 80.1968 21.1931 80.1174 21.0671C78.8917 19.191 77.5524 17.4353 76.0926 15.7591C75.8803 15.5304 75.6694 15.3085 75.4626 15.0798C75.2859 14.806 74.9764 14.6635 74.8327 14.3554C72.4224 11.9616 69.7492 9.70883 66.835 7.88472L66.8295 7.90115ZM42.156 0.174667H45.8371C48.9924 0.352697 51.912 0.77449 54.5619 1.42909C59.8289 2.74103 64.3741 4.85684 68.3757 7.51359C68.7701 7.77653 69.2001 8.00386 69.5383 8.33527C69.8643 8.46537 70.1217 8.73926 70.4079 8.96248C70.4477 8.98987 70.5107 8.97891 70.5504 9.00767C70.5914 9.03643 70.6079 9.12134 70.649 9.15009C70.6942 9.18433 70.7517 9.1679 70.7914 9.19529C70.8544 9.24185 70.9229 9.33771 70.9859 9.38975C71.2899 9.62393 71.587 9.85673 71.9075 10.1142C72.143 10.3018 72.3375 10.4839 72.5895 10.6948C72.6237 10.7236 72.658 10.7702 72.6867 10.7921C72.721 10.8154 72.7949 10.8099 72.8291 10.8386C72.9045 10.9057 72.9387 11.003 73.0236 11.0769C73.0866 11.1344 73.2016 11.1632 73.2646 11.2193C73.4139 11.3563 73.5508 11.5165 73.7001 11.6535C74.3753 12.2752 75.1257 12.9709 75.7831 13.683C75.9775 13.8939 76.2131 14.076 76.413 14.3102C76.476 14.3842 76.4938 14.4814 76.5568 14.5499C76.8252 14.8525 77.1224 15.1196 77.3812 15.4167C77.7647 15.8618 78.1248 16.2946 78.4973 16.7684C81.7484 20.8959 84.4107 25.6918 86.1567 31.4449C87.1989 34.8781 87.8398 38.6469 88 42.8374V45.1066C87.759 51.8293 86.2197 57.5372 83.93 62.4412C81.6567 67.3096 78.6343 71.4782 75.1079 74.9909C71.5761 78.509 67.3965 81.5027 62.5075 83.7773C57.6021 86.0589 51.8833 87.5803 45.1565 87.8309H42.8325C36.1688 87.5748 30.4554 86.0931 25.5774 83.8225C22.3947 82.3463 19.5504 80.5838 16.8991 78.5597C16.7964 78.4803 16.7334 78.3954 16.6074 78.32C16.5787 78.3036 16.5389 78.2927 16.5102 78.2748C16.2692 78.0818 16.0692 77.8421 15.8282 77.6476C15.7885 77.6134 15.72 77.6367 15.6858 77.6024C15.5831 77.5052 15.4105 77.3518 15.2503 77.2149C14.7641 76.8095 14.1972 76.285 13.6987 75.8112C13.2522 75.3894 12.7894 74.9964 12.3429 74.5061C12.2334 74.387 12.1649 74.2377 12.0499 74.1185C11.9472 74.0104 11.8102 73.9364 11.713 73.8269C11.4952 73.594 11.3062 73.3489 11.083 73.1038C10.9228 72.9271 10.7735 72.7669 10.5969 72.5724C10.4243 72.3848 10.2189 72.089 10.0121 71.8494C9.95596 71.7809 9.92035 71.7234 9.86968 71.6549C9.76697 71.5303 9.62318 71.4385 9.53143 71.318C9.49719 71.2783 9.52047 71.2098 9.48623 71.1756C9.46843 71.1537 9.40544 71.1482 9.389 71.1304C9.29177 71.0044 9.15893 70.8113 9.05075 70.6456C9.02199 70.6004 8.95899 70.5319 8.90832 70.4525C8.87957 70.4059 8.81657 70.3375 8.76453 70.258C8.73577 70.2129 8.67278 70.1444 8.62211 70.0636C8.59335 70.0184 8.53035 69.9499 8.47831 69.8705C8.40436 69.7623 8.24414 69.5856 8.14006 69.4364C3.78929 63.3245 0.532719 55.6788 0 45.831V42.165C0.0397142 42.1527 0.0575174 42.1253 0.0465617 42.0678C0.234177 36.7474 1.42561 31.9748 3.00048 28.0185C3.04567 27.9103 3.06348 27.7898 3.09771 27.6816C3.10319 27.6638 3.18262 27.6076 3.19495 27.5844C3.21138 27.5447 3.18262 27.4817 3.19495 27.4419C3.20042 27.4255 3.27985 27.368 3.29218 27.3447C3.30861 27.305 3.27985 27.242 3.29218 27.2023C3.29765 27.1859 3.37708 27.1283 3.38941 27.1051C3.59483 26.6216 3.76738 26.1478 3.9728 25.7027C4.04127 25.5548 4.14535 25.4234 4.21382 25.27C4.36172 24.9619 4.448 24.6483 4.60275 24.3511C4.75202 24.0608 4.93416 23.8211 5.08891 23.5308C5.23818 23.2459 5.36417 22.9488 5.52439 22.6639C6.31457 21.2493 7.1787 19.9442 8.09487 18.6555C11.0378 14.5156 14.5121 11.1057 18.6109 8.18052C20.6542 6.72068 22.8699 5.46625 25.2514 4.32002C30.0322 2.01659 35.6538 0.529357 42.1684 0.169189L42.156 0.174667Z" fill="#274563"/>
<path fill-rule="evenodd" clip-rule="evenodd" d="M40.7086 79.5402C40.5196 79.9456 39.7924 79.5813 39.4952 79.684C39.6034 79.7401 39.7116 79.8319 39.7869 79.9223C39.8663 80.0195 39.9636 80.1565 39.9814 80.3112C39.8102 80.6015 39.5171 80.9384 39.1118 80.8412C38.9789 80.9384 39.0077 81.189 38.8187 81.2287C38.6996 80.8699 38.4873 80.5906 38.527 80.0716C38.3613 79.8483 38.2244 79.6032 37.8464 79.5868C37.9149 79.9059 38.1723 80.0318 38.3326 80.2646C38.4818 80.5673 38.5667 80.9316 38.6242 81.326C38.6872 81.4218 38.8256 81.4451 38.8653 81.5656C38.9159 81.656 38.9283 81.793 38.9625 81.9012C39.083 81.8957 39.1173 81.9751 39.157 82.0436C39.4774 81.8272 39.8376 82.0901 40.1758 81.9984C40.2443 81.8902 40.2964 81.7642 40.2731 81.5656C40.4908 81.1082 41.0112 80.9494 41.5836 80.8412C41.8137 80.0086 41.166 79.8264 40.714 79.5347L40.7086 79.5402ZM45.7523 79.7799C45.8837 80.2934 45.8947 80.9261 45.9919 81.4684C46.2494 81.845 46.4041 82.312 46.9136 82.4311C47.0341 82.312 46.9889 82.1299 46.9601 81.9984C46.9136 81.7478 46.6452 81.4684 46.7191 81.1315C46.6452 81.126 46.5425 81.1493 46.5247 81.0863C46.6328 80.9781 46.4795 80.8864 46.5247 80.6988C46.2206 80.4194 46.0043 80.0592 45.8947 79.5868C45.9235 79.4841 46.0152 79.2732 45.8495 79.2499C45.8084 79.4156 45.8208 79.558 45.7523 79.7799ZM60.1494 77.6531C59.9604 77.5791 59.755 77.4655 59.5194 77.46C59.3989 77.4997 59.262 77.523 59.084 77.5052C59.084 77.9379 59.3017 78.1557 59.325 78.5652C59.5318 78.6857 59.8002 78.7938 60.0974 78.7596C60.2863 78.7363 60.4411 78.6062 60.5849 78.5652C60.6698 78.3885 60.704 78.1721 60.6821 77.8873C60.5438 77.7448 60.3384 77.7161 60.1494 77.6476V77.6531ZM46.1932 78.2351C46.5301 78.1721 46.6219 78.3543 46.9191 78.3323C47.0341 77.864 46.6452 77.5285 46.4849 77.1752C46.4219 77.1752 46.4165 77.1122 46.3411 77.1231C46.3357 77.4134 46.3466 77.9503 46.1987 78.2351H46.1932ZM30.5362 76.8328C30.5239 76.8205 30.4609 76.8547 30.4897 76.878C30.5006 76.8889 30.5636 76.8547 30.5362 76.8328ZM27.3865 76.6904C27.3755 76.678 27.3125 76.7123 27.3413 76.7356C27.3522 76.7465 27.4152 76.7123 27.3865 76.6904ZM31.1648 76.4959C31.1717 76.4452 31.1251 76.3699 31.1196 76.4507C31.1141 76.5014 31.1593 76.5753 31.1648 76.4959ZM31.1196 76.2562C31.1196 76.2275 31.0799 76.2001 31.0731 76.2562C31.0731 76.285 31.1141 76.3138 31.1196 76.2562ZM65.6272 76.1138C65.6163 76.1029 65.5533 76.1371 65.5766 76.1659C65.5875 76.1768 65.6505 76.1426 65.6272 76.1138ZM49.2951 77.8024C49.1184 77.916 48.9404 78.0297 48.7117 78.0927C48.4597 78.4227 48.1214 78.6624 47.8407 78.9596C47.664 79.0445 47.486 79.1992 47.3545 79.3471C47.2176 79.5005 47.0341 79.6717 47.0629 79.9743C47.045 80.214 47.3655 80.1222 47.4011 80.3112C47.4805 80.5728 47.6983 80.6864 47.8352 80.8919C48.0708 81.0069 48.3228 81.1603 48.609 81.326C48.7856 81.4287 49.0143 81.593 49.1403 81.6615C49.3704 81.7875 49.5361 81.73 49.7703 81.6615C49.8387 81.5711 49.8798 81.4451 50.062 81.4684C50.6344 81.5081 51.0356 81.3766 51.4191 81.2287C51.4533 80.7891 51.1671 80.6755 51.0808 80.3619C51.3164 79.9853 51.7053 79.7579 51.7628 79.2047C51.9915 79.028 52.1983 78.8336 52.249 78.4802C52.1641 78.2296 51.934 78.1214 51.7628 77.9503C51.2192 77.8133 50.492 77.864 49.9195 77.7558C49.7935 77.1067 49.7306 76.3987 49.3868 75.9714C49.2499 75.9659 49.0718 76.0002 48.9979 75.9207C49.0896 76.5534 49.2033 77.1628 49.2896 77.8024H49.2951ZM39.7472 76.7862C39.2309 77.3176 38.6078 77.7681 38.0518 78.1899C37.8409 78.3488 37.6451 78.5254 37.4684 78.6747C36.8905 79.1526 36.2263 79.5813 35.5786 79.9291C35.3499 80.0483 35.0815 80.1113 34.898 80.3167C34.7377 80.3454 34.5433 80.3509 34.4625 80.4591C34.7254 80.5385 34.9034 80.6933 35.2869 80.6522C35.5156 80.481 35.7799 80.3852 36.0141 80.2646C36.2948 80.1222 36.5577 79.9346 36.7864 79.8319C36.8042 79.8264 36.8207 79.7456 36.833 79.7347C37.0275 79.5868 37.1535 79.4841 37.3192 79.3471C37.5547 79.1526 37.8053 78.9253 38.0463 78.8171C38.0641 78.8117 38.0751 78.7309 38.0915 78.7199C38.3271 78.5542 38.5791 78.3666 38.7735 78.2351C38.8365 78.1954 38.9105 78.1776 38.968 78.1379C39.5459 77.7448 40.0553 77.334 40.6168 76.93C40.8921 76.9465 41.0455 76.8438 41.344 76.8835C41.4645 76.4849 41.229 76.0796 40.9551 75.9207C40.6278 76.0289 40.2101 76.2398 39.7924 76.2111C39.4829 76.1878 39.2542 76.0166 39.02 75.9207C39.0543 76.4165 39.4665 76.5411 39.7472 76.7862ZM55.6439 74.1815C55.7123 74.2774 55.7411 74.4431 55.7877 74.5691C55.8383 74.6937 55.9013 74.8306 55.9301 74.9566C56.0958 75.0196 56.2108 75.1333 56.2683 75.2935C56.2848 75.3894 56.2054 75.3894 56.1711 75.4359C56.3135 75.6414 56.3259 76.1535 56.508 76.4507C56.5203 77.2149 56.1588 77.6134 55.4891 77.7051C55.5809 77.979 56.0109 78.0242 56.3135 77.9448C56.3478 78.0064 56.4162 78.0352 56.508 78.0406C56.4738 78.3145 56.7257 78.3091 56.749 78.5254C56.6751 78.5994 56.6682 78.7363 56.6518 78.8623C56.56 78.902 56.4573 78.9253 56.4108 79.0047V80.4071C56.6121 80.3852 56.6573 80.2017 56.749 80.0716C56.9038 79.9853 56.9887 79.8319 57.0873 79.684C57.2927 79.6498 57.3667 79.4841 57.5214 79.3923C57.5214 79.1307 57.5967 78.9541 57.6186 78.7144C57.694 78.5487 57.9103 78.5254 57.9103 78.2803C57.7912 77.9845 57.6597 77.8298 57.6707 77.5572C57.6816 77.2943 57.9226 77.0546 57.9624 76.7356C57.9856 76.5753 57.9459 76.4384 57.9624 76.2508C58.0199 76.2453 58.0144 76.1768 58.0089 76.1083C58.0541 75.9604 58.2431 75.955 58.2486 75.7715C58.2376 75.6811 58.3061 75.6633 58.2951 75.5784C58.2664 75.4633 58.2253 75.3551 58.2486 75.1908C58.1623 75.1442 58.1226 75.0539 57.9569 75.0936C57.9966 74.8936 57.8254 74.8991 57.7624 74.8019C57.5269 74.9046 57.2872 74.7348 57.0352 74.706C56.9955 74.4609 56.886 74.2719 56.7435 74.124C56.2971 74.113 55.8561 74.0788 55.5302 74.0788C55.4836 74.1692 55.6096 74.1473 55.6274 74.1747L55.6439 74.1815ZM31.2169 74.0843C31.3593 74.3458 31.3428 74.7622 31.5551 74.9511C31.6688 74.9799 31.7783 75.0196 31.944 74.9963C32.2823 74.5294 31.7948 73.9816 31.3141 73.8843C31.3141 73.9816 31.1826 73.9473 31.2169 74.0788V74.0843ZM27.4385 76.8835C27.2961 76.8725 27.4837 76.6835 27.4385 76.8835C27.5645 77.334 27.8055 77.6818 28.1657 77.8982C28.3834 77.9215 28.5259 77.8763 28.6984 77.853C28.8874 77.9325 29.1038 78.1214 29.2818 77.9503C29.2763 77.8927 29.2928 77.864 29.327 77.853C29.3558 77.5682 29.0244 77.6421 29.0873 77.3231C29.4763 77.3395 29.8488 77.0834 30.1062 77.1286C30.072 77.4997 29.998 78.0749 30.1062 78.4351C30.387 78.3488 30.3116 77.8243 30.3472 77.4203C30.4212 77.2833 30.3924 77.0492 30.4445 76.8889C30.0487 76.9465 29.442 77.0492 29.1325 77.0314C29.5571 76.7643 30.2432 76.752 30.6841 76.5014C30.8046 76.6904 30.7471 76.7246 30.5869 76.8383C30.7362 76.8273 30.8622 76.7862 30.9758 76.741C30.9827 76.4617 30.8498 76.3192 30.8334 76.0632C30.6444 76.0686 30.6102 76.2275 30.3979 76.2056C30.198 75.9139 30.1062 75.2757 30.1583 74.8991C30.5006 74.9457 30.6157 74.654 30.5924 74.4664C30.5705 74.2719 30.0487 73.9364 29.82 73.7419C29.6762 73.6283 29.453 73.4228 29.2366 73.6447C29.2024 73.8953 29.6707 73.8268 29.5283 74.0322C29.327 73.9871 29.1901 73.8843 29.0408 73.794C29.0641 74.0103 29.1955 74.124 29.2366 74.3239C29.0298 74.4883 28.4862 74.6143 28.2177 74.4212C28.0849 74.6321 27.885 74.9333 28.0739 75.1908C28.4464 75.225 28.7039 75.1442 29.0408 75.1442C29.1955 75.1223 29.379 74.9731 29.4763 75.0484C29.5447 75.3784 29.2476 75.3949 29.0408 75.4811C28.4916 75.703 27.6508 75.8057 27.0551 76.0111C27.0496 76.1823 26.877 76.1878 26.9113 76.3987C27.2153 76.5301 27.5987 76.5192 27.9315 76.4959C28.7149 76.4384 29.5228 76.2617 30.0665 76.0111C30.072 76.1481 30.1583 76.2111 30.1637 76.348C29.5283 76.7123 28.8354 77.0149 27.8398 77.0259C27.7015 76.9862 27.5987 76.9122 27.4495 76.8835H27.4385ZM29.4763 73.2174C29.9008 73.5201 30.5992 73.4626 31.3196 73.5543C31.9262 73.6283 32.7219 73.7707 32.7739 74.2774C32.7972 74.4828 32.6192 74.7225 32.4822 75.0018C32.1207 75.7495 31.7208 76.5137 31.4168 77.2203C31.1306 77.8818 30.8279 78.5323 30.4951 79.102C30.3815 79.3019 30.2952 79.621 30.009 79.632C29.7967 79.5977 29.7515 79.3526 29.6707 79.1992C29.5735 79.0102 29.4996 78.8048 29.4311 78.6172C29.4133 78.457 29.2654 78.8226 29.2873 78.572C29.1736 78.5542 29.2421 78.3611 29.1449 78.3323C29.1394 78.646 29.2654 79.2841 29.3393 79.5402C29.4817 80.0318 29.7392 80.7207 30.0665 80.7494C30.3637 80.7727 30.5006 80.481 30.5992 80.3167C30.7937 80.2017 30.8334 79.9743 30.9361 79.7867C31.0388 79.6087 31.1881 79.432 31.2744 79.2554C31.3716 79.0623 31.4223 78.8281 31.514 78.6282C31.6113 78.4227 31.7496 78.2515 31.8523 78.0475C32.144 77.4655 32.4138 76.8328 32.7219 76.3083C32.8369 76.1138 32.9739 75.9372 33.0601 75.7263C33.2149 75.5441 33.4902 75.4757 33.5463 75.1963C33.6668 75.0251 33.5751 74.7745 33.5011 74.5691C33.2491 73.9076 32.6657 73.6625 31.8071 73.4571C30.9758 73.2626 30.2377 73.1092 29.3845 73.1202C29.3558 73.1202 29.327 73.1257 29.3393 73.1722C29.4023 73.1722 29.4078 73.2338 29.4817 73.2174H29.4763ZM27.9247 73.1722C27.8959 73.2119 27.9028 73.2804 27.8795 73.3147C27.8329 73.3776 27.7823 73.4393 27.7357 73.5077C27.3988 74.0049 27.0948 74.5691 26.814 75.0539C26.6826 75.2812 26.5566 75.5044 26.4251 75.7317C26.3334 75.8865 26.2252 76.0221 26.1334 76.1659C26.0417 76.3138 25.9335 76.4726 25.8924 76.6493C26.0184 76.752 25.9266 77.0656 26.1855 77.0382C26.3224 76.9067 26.3512 76.7178 26.4251 76.5534C26.7456 75.8632 27.1181 75.1908 27.444 74.5746C27.622 74.2377 27.822 73.9364 27.9767 73.6105C28.063 73.4283 28.1602 73.2338 28.1712 73.0298C28.1602 72.9887 28.1315 72.9723 28.0739 72.9832C28.0561 73.0983 27.9589 73.138 27.9315 73.1777L27.9247 73.1722ZM64.8097 71.3358C64.7576 71.8836 64.4372 72.1575 64.0825 72.3957C64.2934 72.4985 64.4892 72.4245 64.6152 72.3506C64.7179 72.2876 64.8206 72.0547 64.8549 72.0137C64.9288 71.9342 64.9069 71.7466 65.0493 71.7754C65.1698 72.1232 65.1411 72.6135 65.5368 72.6929C65.7655 72.7436 65.8504 72.4985 66.023 72.6477C65.8915 73.1435 65.3533 73.2339 65.1986 73.7077C65.0096 73.794 64.8727 73.9295 64.6659 73.998C64.8727 73.9706 64.8658 74.1582 65.0548 74.1404C65.1808 74.2089 65.3876 74.198 65.5423 74.2377C65.9258 73.9295 65.971 73.2859 66.6064 73.2229C67.6951 73.8556 66.6639 75.4236 65.9764 75.7838C66.023 75.8344 66.1545 75.8002 66.1202 75.9262C65.9833 76.0002 65.7998 76.0221 65.6847 76.1193C66.0175 76.1481 66.2572 75.8687 66.5092 75.9769C66.5215 75.892 66.5954 75.8687 66.7036 75.8796C66.9844 75.6126 67.3336 75.4127 67.6253 75.1566C67.6431 74.7225 67.8608 74.517 67.8211 74.0952C67.8033 73.9473 67.7581 73.657 67.7225 73.5653C67.5801 73.1887 67.1446 73.0175 67.0939 72.6012C67.2254 72.3451 67.528 72.2656 67.528 71.8781C67.2993 71.7685 67.2199 71.7179 67.0419 71.7343C66.7954 71.7576 66.6406 72.0602 66.4119 72.0712C66.275 72.0767 66.1832 71.9972 66.023 71.974C65.7998 71.7124 65.8737 71.4892 65.9258 71.1071C65.5766 70.7716 65.0835 71.1701 64.8097 71.3467V71.3358ZM20.1229 70.321C20.1913 70.7195 20.2543 71.1249 20.609 71.2385C20.5063 70.1663 20.0599 69.4309 19.3957 68.9242C19.6011 69.4254 19.9051 69.8362 20.1229 70.3265V70.321ZM23.615 68.3873C23.2767 68.8379 23.1275 69.4829 22.5961 69.739C22.3263 69.6418 22.0744 69.5171 21.6731 69.5459C21.6224 69.6075 21.7881 69.7623 21.8169 69.7842C21.9826 69.9389 22.3154 69.9622 22.3496 70.1731C22.2921 70.4059 22.0634 70.4634 22.0114 70.7031C21.8169 70.8003 21.7772 71.0509 21.5759 71.1358C21.3814 71.1482 21.2499 71.2276 21.0897 71.3755V71.8096C20.1968 72.9832 19.3327 74.1747 18.474 75.3839C18.852 75.2415 19.0752 74.8827 19.3437 74.6143C19.6244 74.3349 19.9503 74.0843 20.2146 73.794C20.2776 73.7255 20.2995 73.6228 20.357 73.5543C20.42 73.4804 20.5351 73.4338 20.5981 73.3598C20.7405 73.2065 20.8432 73.0298 20.987 72.8751C21.1185 72.7326 21.2965 72.6299 21.4225 72.4875C21.4499 72.4533 21.4444 72.3738 21.4677 72.3451C21.5649 72.2191 21.7142 72.1164 21.8566 72.0547C22.3263 72.089 22.6591 72.2533 23.0699 72.3451C23.2315 72.2081 23.1617 72.0082 23.2137 71.8603C23.437 71.7973 23.9176 71.7754 24.1354 71.8603C24.2504 71.7179 24.3066 71.5124 24.5243 71.4727C24.6393 71.6152 24.8968 71.6152 24.9598 71.8096C24.7941 71.826 24.6284 71.8315 24.5243 71.9055C24.8105 72.0027 25.1652 71.9575 25.2981 71.7631C25.3378 71.0961 24.9886 70.8168 24.6681 70.5086C24.5476 70.5032 24.4326 70.5032 24.3764 70.5552C24.1121 70.2868 23.5684 70.2977 23.3562 69.9732C23.5575 69.8075 23.6835 69.5911 23.8437 69.3912C23.9916 69.2035 24.2669 69.0146 24.1806 68.6215C23.9984 68.5298 23.8149 68.4394 23.5972 68.3819L23.615 68.3873ZM66.023 69.791C65.9655 69.7842 65.9367 69.802 65.9258 69.8417C65.8573 69.8705 65.9312 69.8992 65.9258 69.8417C65.9833 69.8472 66.012 69.8307 66.023 69.791C66.4585 69.6938 66.8241 69.5281 66.8474 69.0214C66.1599 68.8612 65.834 69.4542 65.4396 69.7445C65.2041 69.4199 65.0274 69.0269 64.8097 68.6845C64.7973 68.3819 64.7412 68.234 64.8097 67.9601C64.7412 67.8806 64.6713 67.8067 64.6152 67.7204C64.2304 67.6807 64.0428 67.8286 63.7442 67.8628C63.6757 67.8916 63.7333 67.9943 63.699 68.0573C63.6757 68.1025 63.573 68.1134 63.5552 68.1545C63.5265 68.223 63.5785 68.3257 63.5552 68.3942C63.5443 68.4271 63.4183 68.4449 63.458 68.5366C63.6867 68.5421 63.8195 68.4449 63.9907 68.3942C64.1455 68.5133 64.3057 68.627 64.329 68.8776C64.1509 68.9118 64.1222 68.7982 63.9387 68.8324C64.0195 69.0378 64.3167 69.2433 64.5686 69.1227C64.6494 69.22 64.7289 69.3227 64.7631 69.4596C64.6604 69.5336 64.5166 69.5678 64.4714 69.6993C64.3974 69.7048 64.2879 69.676 64.2769 69.7445C64.4317 69.7842 64.5632 69.8472 64.6659 69.9389C64.8603 69.9211 65.0206 69.9389 65.0548 70.0814C64.8603 70.4004 64.6207 70.6743 64.4262 70.9989C64.3112 71.0455 64.3454 71.2385 64.1852 71.2385C64.3002 71.0455 64.0989 70.8346 64.2304 70.6565C64.2591 70.4867 64.0592 70.5374 64.088 70.3662C64.077 69.9444 63.9044 69.6938 63.9907 69.3062C63.9442 69.3062 63.951 69.2487 63.9442 69.209C63.6306 68.9803 63.1553 69.2035 62.8801 69.3062C62.6801 69.1981 62.2392 69.1515 62.1077 69.3514C62.4158 69.335 62.4569 69.5801 62.4446 69.8814C62.5706 70.0293 62.8801 69.9965 63.0294 70.1211C63.2403 70.1553 63.143 69.8759 63.3662 69.928C63.4128 70.1895 63.5388 70.3662 63.6073 70.6059C63.4703 70.5949 63.3608 70.6168 63.3156 70.7031C63.4525 70.7086 63.6306 70.6743 63.7045 70.7483C63.7209 70.8058 63.6812 70.8852 63.7045 70.9427C63.7209 70.9934 63.7908 70.977 63.8017 71.0386C63.825 71.1646 63.7442 71.318 63.7565 71.4275C63.636 71.3358 63.5046 71.2098 63.3662 71.0907C63.2581 70.9879 63.1485 70.8455 63.0294 70.7538C62.9883 70.725 62.9253 70.7373 62.8856 70.7086C62.8623 70.6908 62.8623 70.6291 62.8404 70.6113C62.8061 70.5826 62.7363 70.5949 62.6966 70.5661C62.6801 70.5552 62.6623 70.4799 62.6514 70.4689C62.3871 70.332 62.0557 70.269 61.7804 70.4182H62.0214C62.6103 70.7483 63.2403 71.0674 63.6182 71.6261C63.6757 71.7124 63.7839 71.8206 63.762 71.963C63.7209 72.0999 63.6525 72.2081 63.521 72.2533C63.3498 72.1109 63.143 71.8945 62.891 71.7233C62.828 71.6836 62.7719 71.6727 62.6966 71.6261C62.4569 71.4727 62.0666 71.1194 61.4832 71.2385C61.4312 71.2509 61.271 71.2673 61.2888 71.381C61.5462 71.4275 61.827 71.3755 62.0612 71.433C62.1926 71.4618 62.3186 71.57 62.4501 71.6261C62.5364 71.6658 62.6226 71.6384 62.6911 71.6781C62.7541 71.7124 62.7774 71.7863 62.8349 71.8206C63.0691 71.974 63.3608 72.1232 63.4183 72.4026C63.2635 72.8299 62.9486 73.0914 62.6911 73.4174C62.5309 73.4804 62.3077 73.4858 62.2049 73.6105C62.2214 73.9295 62.2789 74.2089 62.2501 74.5746C62.4501 74.7567 62.7993 74.6376 62.9773 74.5225C63.0513 74.0788 62.9376 73.7419 63.0225 73.3147C63.1485 73.2174 63.143 72.9832 63.3156 72.9271C63.3786 72.7847 63.4347 72.6299 63.6073 72.5902C63.7442 72.5724 63.9044 72.7723 63.9962 72.6354C63.8414 72.5957 63.7442 72.5053 63.7045 72.3451C63.8305 72.1287 63.888 71.8781 64.2372 72.0082C64.2879 71.826 64.0537 71.9342 64.0934 71.7685C64.3564 71.2783 64.7576 70.9195 65.0151 70.4182C65.1876 70.4867 65.3821 70.7373 65.645 70.5607C65.6738 70.2923 65.5368 70.1895 65.5478 69.9335C65.6272 69.7732 65.8107 69.7102 65.9367 69.5966C66.0285 69.5048 66.1435 69.2597 66.275 69.3569C66.2353 69.5459 66.0969 69.6308 66.034 69.791H66.023ZM45.0826 58.2041C45.0251 58.2095 44.9443 58.1986 44.9388 58.2492C44.9963 58.2438 45.0758 58.2561 45.0826 58.2041ZM53.4171 56.0321C53.0227 56.117 52.5927 56.1745 52.1572 56.2252C51.7574 57.6289 51.4136 59.0873 51.0411 60.5253C51.1726 61.1347 51.3164 61.7331 51.43 62.3604C51.9463 62.3549 52.4722 62.4179 52.9816 62.4576C53.4911 62.4973 54.0005 62.5658 54.436 62.5548C54.0416 60.439 53.8184 58.1534 53.4171 56.0376V56.0321ZM32.4302 55.9349C33.0779 56.1567 33.8038 56.306 34.4173 56.5621C34.9034 57.948 35.4019 59.3161 35.8716 60.7129C37.3931 60.3596 38.8762 59.9145 40.3758 59.5037C41.8767 59.0942 43.3995 58.7053 44.8813 58.2492C42.2766 58.5861 39.7814 59.0312 37.1767 59.3612C36.8727 58.4382 36.5701 57.4289 36.3058 56.5621C36.1633 56.0882 36.0195 55.5473 35.8716 55.1652C35.8429 55.0789 35.8716 54.9146 35.7278 54.9256C34.6172 55.2501 33.5011 55.5692 32.4302 55.9403V55.9349ZM44.8361 53.6191C44.8238 53.6082 44.7608 53.6424 44.7896 53.6657C44.8019 53.6766 44.8649 53.6424 44.8361 53.6191ZM7.75667 55.3076C7.76215 55.8951 8.01413 56.5443 8.28939 56.9496C8.79883 57.6905 9.61228 58.0616 10.6134 57.9137C11.713 57.7535 12.7552 56.9893 12.8921 55.8828C12.9606 55.3131 12.8401 54.7996 12.6977 54.4353C12.5484 54.0532 12.343 53.8423 12.1129 53.6136C12.0225 53.5232 11.9472 53.374 11.8733 53.3233C11.7705 53.2548 11.6158 53.2261 11.4843 53.1809C11.3405 53.1234 11.2091 53.0494 11.0488 53.0385H10.5161C10.4997 53.426 10.6024 53.6944 10.5627 54.0984C10.8777 54.0875 11.2488 54.1162 11.3871 54.1956C11.6035 54.3271 11.8103 54.5257 11.9185 54.7777C12.1882 55.3706 11.9814 56.0033 11.6268 56.2717C11.4268 56.4251 11.346 56.4416 11.094 56.5621C10.9626 56.6251 10.8708 56.7155 10.7571 56.7552C10.3956 56.8757 9.97245 56.9209 9.78894 56.899C9.51505 56.8702 9.3603 56.7209 9.20555 56.6073C9.15899 56.573 9.096 56.5908 9.06176 56.5621C8.97685 56.4936 8.92482 56.3745 8.8673 56.2717C8.70707 55.9746 8.6386 55.6664 8.67283 55.2556C8.77007 55.1762 8.75363 54.9762 8.8673 54.9201C8.91386 54.7722 9.10284 54.7653 9.10832 54.5832C8.90153 54.3093 8.75911 53.9615 8.52356 53.7163C8.1004 54.1505 7.74571 54.538 7.75119 55.3076H7.75667ZM53.6061 53.7629C53.6171 53.9053 53.8061 53.7163 53.6061 53.7629C53.2391 53.5684 52.6379 53.2261 52.1518 52.9919C51.9806 52.907 51.7519 52.8043 51.619 52.7988C51.4027 52.7933 50.9494 53.0206 50.6974 53.1357C50.5659 53.1973 50.2633 53.3 50.0688 53.374C49.9428 53.4205 49.8168 53.4548 49.6785 53.5178C49.5868 53.563 49.4443 53.6027 49.2896 53.6602C49.0951 53.7341 48.8829 53.7971 48.6596 53.8985C48.5624 53.945 48.4255 53.9847 48.2707 54.0423C48.116 54.0984 47.6983 54.2806 47.4983 54.2806C47.36 54.2806 47.0231 54.1847 46.8163 54.1381C46.3754 54.0354 46.0097 53.9272 45.5058 53.8026C45.3223 53.7561 45.1168 53.6533 44.8758 53.7054C45.74 54.1162 46.5534 54.5777 47.4463 54.9598C48.8377 54.4298 50.2455 53.9163 51.6656 53.4151C52.301 53.5342 52.9241 53.6766 53.6061 53.7506V53.7629ZM75.5599 52.3592C76.5569 52.6906 77.673 53.033 78.6111 53.374C78.7206 53.4151 78.9781 53.3808 79.0014 53.5684C77.7647 53.4835 76.4418 53.4835 75.223 53.374C75.097 53.7054 74.9875 54.0423 74.8848 54.3901C75.3654 54.675 75.8228 54.9995 76.2926 55.3076C76.7732 55.6213 77.2553 55.9239 77.7017 56.2717C77.862 56.3402 78.0277 56.3964 78.0907 56.5621C76.917 56.1745 75.7256 55.7979 74.552 55.4049C74.4725 55.7472 74.3178 56.0088 74.2603 56.3676C75.8174 56.8647 77.3457 57.3824 78.9151 57.8617C79.0753 57.3427 79.252 56.8469 79.4012 56.3169C78.5823 55.7692 77.6894 55.1529 76.928 54.6284C76.8075 54.5435 76.6075 54.5202 76.5911 54.3381C77.7072 54.4065 78.8521 54.4353 80.0312 54.4353C80.1736 53.8985 80.3913 53.4424 80.5173 52.8906C78.9315 52.4277 77.4032 51.9086 75.8639 51.3965C75.7831 51.7375 75.6284 52.0004 75.5722 52.3592H75.5599ZM51.8601 49.8969C51.5793 49.8052 51.0644 49.6107 50.8932 49.6573C50.3482 49.7874 49.799 50.0161 49.2444 50.1872C48.6884 50.3639 48.1269 50.5296 47.549 50.672C47.3723 50.8542 47.0396 51.1103 46.8684 51.2992C46.8396 51.3335 46.6452 51.4923 46.8218 51.4923C47.916 51.2417 49.0951 50.9966 50.166 50.7693C50.6919 50.6542 50.9781 50.7282 51.4766 50.8145C52.3243 50.9678 53.0734 51.1226 53.8978 51.2472C54.1731 51.1335 54.3045 50.8774 54.5278 50.7172C53.6061 50.4899 52.7078 50.1585 51.8601 49.8969ZM55.7356 49.508C54.9057 48.8534 54.0293 48.2481 53.1652 47.6264C53.1652 47.599 53.1597 47.5702 53.12 47.5812C52.8392 47.929 52.4215 48.1399 52.1518 48.4987C53.2624 49.0355 54.3278 49.6175 55.3974 50.1872C55.7014 50.1352 55.7931 49.8736 56.0794 49.7997C56.0273 49.6395 55.8726 49.5888 55.7411 49.508H55.7356ZM35.2362 49.7025H37.274V47.5305H35.2362V49.7025ZM34.3132 49.7025H34.7035V47.4839H34.3132V49.7025ZM10.8078 47.4785C9.62324 47.7071 8.38114 47.9523 7.27051 48.1577C6.8583 48.2317 6.41734 48.2262 6.10784 48.3974C6.24616 48.6822 6.21192 49.1328 6.34887 49.4121C6.95006 49.2752 7.58001 49.1547 8.23735 49.0752C8.32362 49.8106 8.51809 50.4379 8.5756 51.202C7.92374 51.2595 7.40198 51.4471 6.73231 51.4923C6.68027 51.7607 6.8583 52.1949 6.87611 52.5537C8.52356 52.3304 10.03 51.9607 11.6733 51.732C11.724 51.4649 11.5473 51.0308 11.5295 50.672C10.7736 50.7405 10.1614 50.9514 9.39454 51.0089C9.26307 50.3187 9.14804 49.6107 9.00561 48.9328C9.69171 48.7794 10.4025 48.648 11.1406 48.5453C11.1064 48.3508 11.0379 48.1974 11.0434 47.9632C10.9338 47.8496 11.0488 47.5072 10.8489 47.4785H10.8023H10.8078ZM38.1956 49.2177C38.2463 49.3779 38.0861 49.7422 38.2928 49.7476H38.4873C38.6023 49.1547 38.5037 48.3508 38.5325 47.6729C38.4407 47.5414 38.3271 47.4278 38.1956 47.336V49.2177ZM77.8442 46.3665C77.8277 46.3665 77.8099 46.3665 77.799 46.3665C77.5237 46.3897 77.1923 46.55 77.0718 46.6581C77.0376 46.6924 76.9622 46.6746 76.928 46.7033C76.8773 46.7485 76.8883 46.8293 76.8308 46.8978C76.6883 47.0745 76.5911 47.1087 76.4939 47.3306C76.235 47.918 76.2528 48.6247 76.2528 49.4067C76.3843 49.7709 76.5733 50.0845 76.8362 50.3242C77.9756 50.7857 79.5163 50.8432 80.9076 51.0486C80.9583 50.6953 81.0213 50.3584 81.0501 49.9873C80.2434 49.9243 79.2985 49.7545 78.5316 49.6518C77.9592 49.5765 77.4319 49.5258 77.2197 49.2177C76.9691 48.8534 77.0375 48.2604 77.2197 47.9126C77.5237 47.3415 78.0729 47.4333 78.7713 47.525C79.6368 47.6442 80.5981 47.7921 81.3418 47.8605C81.4171 47.5305 81.4732 47.1881 81.4855 46.8006C80.4379 46.6746 78.8973 46.4637 77.8496 46.3665H77.8442ZM5.96542 45.6434C5.93666 46.0583 6.05169 46.3322 6.01061 46.754C7.60877 46.6116 9.26855 46.5267 10.9051 46.4185C10.8941 46.0583 10.8256 45.757 10.8599 45.3572C9.20008 45.4256 7.64848 45.6023 5.96542 45.6489V45.6434ZM39.1173 45.7392H39.9417V43.8576H39.1173V45.7392ZM38.1956 45.3065C38.2408 45.438 38.0984 45.757 38.2928 45.7392H38.4873C38.6023 45.238 38.5037 44.5314 38.5325 43.9548C38.4407 43.8234 38.3271 43.7097 38.1956 43.618V45.3065ZM40.7661 43.0373C40.662 43.0934 40.5771 43.1674 40.473 43.2304V45.6434C40.3881 46.0022 40.6689 45.9967 40.8113 46.1268C40.777 45.112 40.8743 43.9726 40.7661 43.0373ZM76.6308 41.2515C76.6363 42.6155 76.7102 43.9096 76.676 45.3065H77.5004C77.5689 44.2575 77.358 43.2304 77.5004 42.2677C77.9181 42.3019 78.4686 42.2047 78.8124 42.3129C78.7946 43.2304 78.8973 44.0288 78.8576 44.9696H79.682C79.619 44.1151 79.6299 43.1852 79.6368 42.2677C80.0079 42.2896 80.4201 42.1307 80.7529 42.2677C80.7406 43.2592 80.7584 44.2287 80.8036 45.1641C81.0679 45.1517 81.2733 45.0833 81.5773 45.1175C81.6115 43.7494 81.5198 42.5005 81.5253 41.1611C79.8819 41.1844 78.2276 41.1899 76.6308 41.2584V41.2515ZM6.06265 39.8492C5.97089 40.0943 6.02841 40.4942 6.01746 40.8133C7.06372 40.8927 8.22091 40.8708 9.21651 41.0064C8.1182 41.6966 7.00757 42.3813 5.87366 43.0373C5.8449 43.3797 5.93118 43.8357 5.82847 44.0973C7.47045 44.1657 9.12475 44.2232 10.7229 44.3369C10.7626 44.0233 10.7859 43.6933 10.7681 43.3221C9.74375 43.2482 8.60436 43.2879 7.66491 43.1277C8.70707 42.4443 9.80127 41.8116 10.8653 41.1502C10.9461 40.8475 10.9051 40.4134 10.9119 40.0382C9.25759 40.0094 7.72243 39.867 6.06265 39.8437V39.8492ZM53.1761 43.3276C53.1706 43.3851 53.1884 43.4139 53.2227 43.4249C53.2514 43.4933 53.2802 43.4194 53.2227 43.4249C53.2281 43.3673 53.2117 43.3386 53.1761 43.3276C52.8392 42.5689 52.4092 41.902 52.06 41.1557C52.0436 40.853 52.0381 40.4709 52.0148 40.1409C52.0025 39.9971 51.9915 39.7931 51.9682 39.6561C51.9518 39.5589 51.9628 39.3137 51.7738 39.3644C51.6601 39.9916 51.7574 40.8297 51.7286 41.5377C52.2147 42.1307 52.6502 42.7744 53.183 43.3221L53.1761 43.3276ZM56.7655 37.1979V37.8251H57.253C57.379 37.5348 57.4872 37.2267 57.6419 36.9583C57.5967 36.8391 57.8597 36.7077 57.6419 36.7186C57.3667 36.8953 57.064 37.0446 56.7723 37.2034L56.7655 37.1979ZM75.9612 36.8104C76.1953 38.0251 76.3556 39.3137 76.5911 40.5285C76.8253 40.4545 77.1512 40.4764 77.3635 40.386C77.2265 39.4904 77.0951 38.5948 76.928 37.7279C78.2509 37.517 79.5327 37.2664 80.9008 37.1007C80.9076 36.6967 80.7981 36.3995 80.7584 36.0407C79.1205 36.2626 77.5347 36.531 75.9612 36.8104ZM56.4286 35.4081C56.3423 35.419 56.1875 35.356 56.2341 35.5053V36.1832C56.3656 36.2284 56.686 36.0859 56.6682 36.2804V36.3776C56.6176 36.4858 56.3656 36.3941 56.2341 36.4283V37.0103C56.7778 37.0213 56.8914 36.5995 57.2982 36.479C57.3379 36.0407 57.4474 35.6587 57.442 35.1739C57.1612 34.9685 56.9887 34.6549 56.6682 34.496H56.4286V35.4135V35.4081ZM6.84735 35.3615C6.77751 35.7436 6.69808 36.1147 6.60632 36.4735C7.24175 36.9418 7.89498 37.3691 8.54684 37.8251C9.18227 38.2702 9.79442 38.7892 10.4874 39.1768C10.5106 39.3137 10.6942 39.2905 10.7284 39.4165C10.8147 39.4165 10.8544 39.4562 10.8708 39.5137C10.9338 39.5246 10.968 39.5876 10.968 39.4671C11.0653 39.1316 11.1228 38.7495 11.2091 38.4072C10.8366 38.2127 10.4997 37.9908 10.1902 37.7279C10.3052 37.4033 10.3504 37.0322 10.4298 36.6679C10.5106 36.3023 10.5627 35.9038 10.7229 35.6066C11.1351 35.5792 11.472 35.4875 11.839 35.4135C11.9363 35.0602 12.0102 34.6836 12.0787 34.3015C10.2929 34.6151 8.59888 35.0136 6.84735 35.3615ZM38.401 33.384C38.4763 33.6346 38.0915 33.4292 38.2066 33.7195V41.6856C38.2244 41.8623 38.1203 42.1595 38.401 42.0732C38.5613 42.1252 38.5613 42.0047 38.5448 41.8787V30.3383C38.5325 30.2986 38.5037 30.2822 38.4476 30.2931C38.3326 31.2285 38.4298 32.3679 38.401 33.384ZM74.7985 32.9499C74.845 33.332 75.097 34.1139 75.286 34.3015C75.3257 34.3412 75.3422 34.4042 75.3832 34.444C75.6284 34.6946 75.9557 35.0766 76.2528 35.2191C77.3868 35.7504 79.0411 35.089 79.4985 34.3988C79.5793 34.2782 79.6245 34.1988 79.6929 34.0619C79.808 33.8222 79.8367 33.7031 79.934 33.4347C79.9915 32.602 79.8422 32.1296 79.5957 31.5982C79.2752 30.9203 79.0013 30.5547 78.3372 30.2931C78.0619 30.1849 77.3005 30.0535 76.98 30.1959C75.6065 30.4191 74.615 31.3421 74.7985 32.9499ZM36.7015 30.0987C36.7015 30.1671 36.6782 30.2068 36.655 30.2411C36.403 30.9094 36.0483 31.6845 35.7854 32.3172C35.7388 32.4254 35.6758 32.5459 35.6416 32.6541C35.6073 32.7568 35.5156 32.9156 35.6416 32.9896C35.7963 32.9553 35.7908 32.7623 35.836 32.6541C35.9511 32.3911 36.088 32.1405 36.1743 31.9296C36.2318 31.7982 36.266 31.6667 36.3181 31.5421C36.3975 31.3531 36.5071 31.1258 36.5577 31.0121C36.592 30.9368 36.581 30.8341 36.6043 30.7724C36.644 30.6752 36.7577 30.5492 36.7988 30.4355C36.844 30.3041 36.9645 30.0932 36.7988 30.0987H36.7015ZM40.2388 30.4862C40.3991 30.8916 40.5771 31.2791 40.725 31.6448C40.7825 31.7927 40.8168 31.9461 40.8688 32.0775C40.914 32.1912 41.0181 32.3062 41.0633 32.4144C41.1208 32.5514 41.0811 32.7623 41.2577 32.802C41.04 31.8269 40.6401 31.034 40.3881 30.0987C40.2909 30.0192 40.3703 29.7631 40.1936 29.7631C39.9184 29.9398 40.1594 30.2822 40.2388 30.4862ZM35.2924 29.2318C34.6117 29.985 33.8448 30.6519 33.1574 31.4051C33.4148 31.3257 33.5586 31.086 33.7408 30.9203C33.9421 30.7437 34.1817 30.6232 34.3255 30.3904C34.6515 30.1671 34.9322 29.9001 35.1951 29.6139C35.2924 29.518 35.4416 29.4714 35.4868 29.3235C35.3554 29.3578 35.3896 29.2263 35.2924 29.2263V29.2318ZM43.4338 30.7259C43.3366 30.6177 43.2393 30.5328 43.1407 30.4355C42.66 29.9562 42.1451 29.4153 41.6877 28.9867C41.6179 28.925 41.4015 28.6621 41.3947 28.8442C41.3385 28.8511 41.3604 28.9018 41.3947 28.9415C41.6932 29.2893 42.1054 29.6317 42.4601 30.0028C42.6313 30.1849 42.8093 30.3506 42.9928 30.5328C43.1818 30.7204 43.3242 30.971 43.5762 31.0628C43.6789 30.9313 43.5023 30.8067 43.4338 30.7259ZM32.8657 28.5991C32.511 28.7415 32.1385 28.8566 31.8468 28.9867C31.7551 29.0277 31.5839 29.0497 31.5551 29.1811C31.7318 29.2263 31.9153 29.0839 32.0413 29.0387C32.6931 28.7826 33.3642 28.5197 33.9297 28.2691C34.027 28.2239 34.216 28.2293 34.2228 28.0746C33.7408 28.1718 33.3012 28.4348 32.8657 28.6046V28.5991ZM42.2711 27.4419C42.4601 27.5967 42.7066 27.6295 42.9517 27.7322C43.1763 27.8295 43.405 27.9774 43.6337 28.0691C43.7022 28.0979 43.7761 28.0979 43.8282 28.1143C43.9542 28.1664 44.0692 28.217 44.1664 28.2567C44.3609 28.3375 44.5102 28.4279 44.6978 28.4964C44.7608 28.5197 45.0073 28.6909 45.0361 28.4964C44.1089 28.0691 43.153 27.6706 42.1739 27.2885C42.1794 27.3625 42.1684 27.4529 42.2711 27.431V27.4419ZM26.4196 27.2023V41.8787C26.3457 42.1526 26.5908 42.091 26.7113 42.0732C26.9524 42.0335 26.8606 42.0732 26.9058 41.8335C26.9346 41.6624 26.9058 41.5487 26.9058 41.3488C26.9113 40.397 26.9058 39.2905 26.9058 38.5948V27.4419C26.8661 27.3228 26.9976 27.0256 26.8086 27.0544H26.4717C26.4142 27.0598 26.4196 27.1283 26.4251 27.1968L26.4196 27.2023ZM33.4956 26.8667C32.4425 26.8037 31.3374 26.9174 30.3472 26.8667C30.2897 26.8722 30.2952 26.9407 30.3007 27.0092C29.4598 27.1228 28.4122 27.0256 27.4906 27.0544V42.0677H37.2794V33.5209C37.2616 33.3949 37.5479 33.5661 37.4739 33.3771C37.463 32.6417 37.4917 31.7982 37.4739 31.108C37.4684 30.8751 37.5479 30.5889 37.3767 30.4301C37.3137 30.4588 37.1932 30.3958 37.1357 30.4301C37.0727 30.4643 37.1302 30.5615 37.0905 30.6232C37.0165 30.7259 36.9302 30.8751 36.896 30.96C36.8494 31.0806 36.844 31.2285 36.7988 31.3476C36.7467 31.4736 36.6495 31.5708 36.6043 31.6845C36.5577 31.7982 36.5523 31.9529 36.5071 32.0721C36.3742 32.4308 36.1291 32.8307 36.0716 33.184C35.8936 33.2292 36.3455 33.2813 36.1688 33.3265C36.1291 33.4525 36.1223 33.6004 36.025 33.6634C35.5964 33.5086 35.1787 33.3498 34.7665 33.1786C34.646 33.0868 34.3995 33.1211 34.3762 32.9389C34.446 32.865 34.4392 32.7102 34.52 32.6486C34.5597 32.5281 34.6912 32.7842 34.761 32.6486C35.0294 31.7406 35.4362 30.971 35.7278 30.0877C35.7854 29.996 35.9168 29.7919 35.6827 29.7974C35.6073 29.5974 35.4471 29.8029 35.3896 29.8426C35.2978 29.911 35.2075 30.0767 35.1499 30.1329C34.6117 30.6697 33.9996 31.2449 33.5011 31.7242C33.3696 31.8557 33.6271 31.8433 33.5983 32.0145C33.4723 32.0666 33.4326 32.209 33.3066 32.2542C33.0369 32.0885 32.8479 31.8433 32.6247 31.627C32.4138 31.4161 32.1275 31.2449 31.9947 30.9491C32.0988 30.8916 32.1782 30.8067 32.2357 30.7094C32.4247 30.7943 32.385 30.7889 32.5274 30.7094C32.6657 30.63 32.7972 30.3904 32.9629 30.2246C33.4436 29.7453 33.9818 29.2441 34.4173 28.8223C34.5433 28.6731 34.5652 28.6676 34.4625 28.4854C34.205 28.3773 33.953 28.5881 33.7353 28.6799C32.9972 28.9812 32.2535 29.2386 31.5551 29.5454C31.4291 29.5865 31.6455 29.7577 31.5085 29.8371C31.3319 29.8029 31.325 29.9398 31.1717 29.9343C31.0046 29.4263 30.7471 28.8963 30.5869 28.4402C30.5636 28.3718 30.4732 28.3197 30.5417 28.2458C30.6157 28.1896 30.7416 28.1828 30.7814 28.1034C30.9936 28.0349 30.8854 28.291 31.0731 28.2458C31.2456 28.1431 31.4223 28.0582 31.5606 28.0061C31.7318 27.9377 31.8345 27.9103 31.9495 27.8637C32.0125 27.8349 32.0645 27.8473 32.144 27.8185C32.259 27.7665 32.3672 27.6706 32.4822 27.6241C32.5959 27.5789 32.7452 27.5789 32.8712 27.5282C32.9917 27.4816 33.0999 27.3789 33.2094 27.3337C33.4148 27.2488 33.8038 27.2543 33.8394 26.9462C33.7818 26.7914 33.6093 26.8544 33.5011 26.8489L33.4956 26.8667ZM60.6876 26.8667C60.4986 27.5446 60.2357 28.2115 60.0056 28.8963C59.8919 29.2496 59.8235 29.6084 59.7139 29.9562C59.6112 30.2876 59.377 30.6177 59.4222 30.971C59.5934 30.9094 59.6112 30.6807 59.6632 30.5383C60.1042 29.3181 60.4411 28.0061 60.8766 26.8202C60.8081 26.8092 60.7958 26.7407 60.7328 26.7229C60.7328 26.7914 60.7109 26.8325 60.6876 26.8667ZM62.1926 31.7406C62.2159 31.8324 62.1241 32.0323 62.2899 31.9803C62.4501 32.0091 62.3816 31.8091 62.3871 31.7406C62.3939 31.6448 62.3871 31.4846 62.3871 31.4051C62.4158 29.9398 62.4569 28.3033 62.3871 26.9174C62.3816 26.8544 62.4569 26.6038 62.2899 26.6271H62.1926V31.7406ZM59.0908 26.4326C58.9867 26.5696 58.8553 26.6887 58.7525 26.8202C58.6444 26.9626 58.569 27.1173 58.4608 27.2543C58.3581 27.3844 58.2253 27.5104 58.1226 27.6419C58.0144 27.7788 57.8884 27.9103 57.8309 28.0746C57.5967 28.3143 57.2585 28.7073 57.1037 28.9415C57.0243 29.062 56.9147 29.1702 56.8641 29.2784C56.8353 29.3414 56.7203 29.403 56.7203 29.4714C56.7148 29.5865 56.8011 29.5742 56.8641 29.7111C57.001 29.6604 57.0695 29.5235 57.1558 29.4208C57.2242 29.3345 57.3105 29.2318 57.3502 29.1811C57.4242 29.0729 57.4707 28.9812 57.5447 28.8908C57.5611 28.8675 57.6241 28.8675 57.6419 28.8442C57.6762 28.8045 57.6597 28.736 57.6871 28.7018C58.1568 28.1088 58.632 27.5446 59.0963 26.9626C59.1593 26.7859 59.3428 26.7229 59.388 26.5299C59.3305 26.4381 59.262 26.3641 59.1935 26.2902C59.1826 26.3587 59.1127 26.3696 59.0963 26.4326H59.0908ZM10.2354 30.9203C10.9626 31.1134 11.6898 31.8091 12.6114 31.5475C12.7141 31.5188 12.8689 31.3818 12.9031 31.3531C12.9442 31.3257 13.0126 31.3312 13.0469 31.3079C13.0702 31.2915 13.0702 31.2285 13.0921 31.2107C13.1386 31.1764 13.2016 31.1997 13.2359 31.1655C13.4413 30.971 13.6084 30.6232 13.7686 30.2986C13.9398 29.9508 14.1178 29.6029 14.1575 29.2838C14.3232 27.824 13.1674 27.5159 12.2677 27.1119C11.524 26.775 10.9968 26.5531 10.3271 26.193H10.2299C10.019 26.4669 9.93274 26.8599 9.74375 27.1571C10.3559 27.4186 10.8941 27.6638 11.587 27.9774C12.039 28.1828 13.1263 28.5539 13.2359 29.0387C13.3441 29.529 13.0003 30.0247 12.8469 30.1959C12.8237 30.2247 12.8237 30.2698 12.8004 30.2931C12.7607 30.3274 12.7031 30.3096 12.658 30.3383C12.6059 30.3726 12.5662 30.4588 12.5142 30.4807C12.4512 30.5095 12.2909 30.5273 12.2225 30.5273C11.9883 30.5328 11.6268 30.3561 11.3529 30.2356C11.22 30.1795 11.1009 30.1055 10.9626 30.0425C10.2641 29.7166 9.45753 29.3633 8.87962 29.0784C8.73035 29.4153 8.54137 29.7111 8.44414 30.0932C9.05628 30.3506 9.65747 30.6232 10.2354 30.9149V30.9203ZM57.4926 26.0451C56.8463 26.2669 56.0903 26.3984 55.4097 26.575C55.1741 26.638 54.9003 26.6956 54.7797 26.8147C54.992 26.9284 55.2659 26.8599 55.5069 26.8147C56.0164 26.7175 56.5025 26.5805 57.0065 26.4778C57.253 26.4271 57.5447 26.4271 57.7337 26.2847C57.5967 26.2902 57.7912 25.9711 57.5899 26.0451H57.4926ZM45.666 25.6123C45.6263 25.6233 45.6085 25.652 45.6194 25.7082C45.5291 26.0108 45.8783 25.8739 46.0549 25.9026H53.9553C54.1334 25.8848 54.4305 25.9944 54.3443 25.7082C54.3621 25.5151 54.0416 25.6575 53.9088 25.6123H45.666ZM76.0529 28.8963C76.7732 29.1181 77.3114 28.6566 77.5525 28.2691C77.9072 27.698 77.61 26.9804 77.358 26.4847C77.0252 25.8287 76.424 24.7564 76.1953 24.3113C76.1953 24.2826 76.1898 24.2552 76.1501 24.2661C76.0926 24.2894 76.0406 24.3168 76.0063 24.3634C75.3709 24.7112 74.615 25.0248 74.0658 25.3781C74.0206 25.4069 73.9631 25.4521 73.9234 25.4754C73.5797 25.6575 73.2072 25.8232 72.858 26.0054C72.5197 26.182 72.1431 26.3422 71.8391 26.5874C72.0623 26.8435 72.165 27.2255 72.3718 27.5049C72.9388 27.1516 73.5673 26.8667 74.1631 26.5408C74.3014 26.8667 74.5068 27.0776 74.5013 27.4077C74.5013 27.7788 74.2096 28.1718 74.0152 28.5649C73.8138 28.9757 73.6249 29.3578 73.5276 29.7234C73.7111 30.0877 73.8946 30.4534 74.1124 30.7834C74.5123 29.9795 75.0395 29.2893 75.1765 28.2239C75.4175 28.5142 75.7092 28.7936 76.0474 28.9018L76.0529 28.8963ZM54.0005 24.5058C54.6702 24.8016 55.5014 25.2302 56.1369 25.5206C56.1588 25.5315 56.3533 25.7602 56.3765 25.5712C55.6151 25.0591 54.7797 24.6195 54.0005 24.1237V24.5113V24.5058ZM38.831 23.8786C38.2805 24.5688 38.9447 25.4288 39.7006 25.3261C40.0841 25.2754 40.5196 24.8755 40.4278 24.2661C40.3539 23.7704 39.8376 23.502 39.3624 23.5869C39.0885 23.6389 38.957 23.7129 38.831 23.8786ZM31.5606 23.1541C31.8345 23.2733 32.2015 23.4513 32.4302 23.5417C32.5055 23.5705 32.5507 23.5595 32.6247 23.5869C32.7561 23.6444 32.8479 23.7307 32.9629 23.7814C33.0889 23.832 33.2258 23.8265 33.3518 23.8786C33.4778 23.9293 33.5751 24.0265 33.6901 24.0717C33.8106 24.1237 33.953 24.1799 34.079 24.2141C34.1653 24.2429 34.3652 24.3853 34.4173 24.2141C33.4778 23.7992 32.4768 23.439 31.5551 23.0062H31.4113C31.4004 23.1089 31.451 23.1596 31.5551 23.1487L31.5606 23.1541ZM52.9816 24.603C53.0104 24.8591 52.9474 25.1892 53.1254 25.2302C53.2172 24.9043 53.0734 24.5167 53.0282 24.1182C53.0049 23.9183 53.0104 23.6964 52.9816 23.491C52.9597 23.3144 52.9816 23.0692 52.8392 22.9597C52.8967 23.4855 52.931 24.0895 52.9816 24.603ZM13.5276 21.0274C13.5166 21.0219 13.4933 21.0328 13.4824 21.0274C13.3098 21.3067 13.1099 21.5574 12.9497 21.849C13.3619 22.0654 13.7686 22.4078 14.111 22.6187C14.3123 22.7433 14.4314 22.846 14.5985 22.9542C14.7984 23.0911 14.9641 23.1884 15.1298 23.2911C15.2846 23.3883 15.3599 23.4513 15.4681 23.5307C15.5146 23.565 15.6571 23.5759 15.6119 23.6732H11.6843C11.535 23.9868 11.283 24.2086 11.1516 24.54C11.3926 24.74 11.6665 24.9331 11.8787 25.07C11.976 25.133 12.0787 25.1549 12.1704 25.2124C12.2389 25.2576 12.2909 25.3549 12.3649 25.4069C12.4566 25.4685 12.5717 25.4918 12.658 25.5493C12.7429 25.6055 12.8182 25.6863 12.8976 25.7424C12.9839 25.7999 13.1044 25.8287 13.1893 25.8848C13.2646 25.9369 13.3153 26.0286 13.3838 26.0793C13.5796 26.2217 13.7508 26.3012 13.9165 26.4162C14.0548 26.5066 14.1972 26.5928 14.3068 26.6558C14.5355 26.7983 14.7464 26.9694 14.9354 27.0886C15.0326 27.1516 15.1024 27.231 15.2284 27.231C15.3654 26.9174 15.5996 26.701 15.7598 26.4093C15.0614 26.0505 14.404 25.4124 13.722 25.1042C13.7056 25.0988 13.6933 25.0193 13.6768 25.007C13.4933 24.8879 13.2359 24.8482 13.1893 24.6195C14.4602 24.614 15.7721 24.6482 16.9676 24.5743C17.1744 24.2771 17.4086 24.0155 17.5524 23.6554C16.1843 22.8008 14.8957 21.8764 13.5276 20.9986V21.0274ZM33.1122 20.6905C33.8038 21.4204 34.4912 22.1503 35.1951 22.8638C35.2705 22.9939 35.3677 23.1089 35.4868 22.9597C35.5909 22.8241 35.4129 22.7036 35.3444 22.6242C35.1034 22.3448 34.7199 22.0997 34.4228 21.8025L33.8394 21.2218C33.5874 20.9699 33.4833 20.6905 33.1122 20.6905C33.0834 20.622 33.0547 20.696 33.1122 20.6905ZM72.9045 19.6757C72.6744 19.8017 72.5142 19.9948 72.2746 20.1098C72.5266 20.6165 72.9319 20.9699 73.1962 21.4601C72.0911 22.2243 71.0434 23.0514 69.9506 23.8265C70.0875 24.1744 70.3738 24.3688 70.534 24.6934C70.849 24.5619 71.1009 24.3059 71.3584 24.1128C71.6391 23.9005 71.9541 23.7471 72.1828 23.4855C72.8059 23.1541 73.2537 22.6529 73.8768 22.327C74.2096 22.7378 74.4725 23.2117 74.845 23.5814C74.9929 23.3596 75.3202 23.3144 75.4284 23.0514C74.5876 21.9285 73.7686 20.7768 72.91 19.6702L72.9045 19.6757ZM35.7278 19.5333C35.7224 19.5908 35.7388 19.6196 35.773 19.6305C35.7676 19.688 35.7854 19.7154 35.8196 19.7278C35.8881 20.0523 36.0661 20.4002 36.2085 20.7425C36.2482 20.8398 36.3181 20.9356 36.3523 21.0328C36.3975 21.1465 36.3975 21.2889 36.4496 21.4204C36.4893 21.5231 36.5577 21.6203 36.592 21.7121C36.6604 21.8655 36.718 22.2818 36.9809 22.1448C37.022 21.9394 36.8782 21.6943 36.7864 21.5176C36.6837 21.3177 36.5523 21.1356 36.4496 20.9356C36.2373 20.5371 36.0538 20.0975 35.8196 19.7278C35.8251 19.6702 35.8086 19.6415 35.773 19.6305C35.7799 19.573 35.7621 19.5442 35.7278 19.5333C35.6991 19.4648 35.6703 19.5388 35.7278 19.5333ZM14.5464 19.7729C14.8559 20.0236 15.1586 20.2865 15.4681 20.5481C15.6283 20.6795 15.794 20.7987 15.9542 20.9356C16.109 21.0671 16.2405 21.2437 16.3897 21.3697C16.424 21.3985 16.4993 21.3916 16.5335 21.4149C16.5732 21.4492 16.5897 21.5286 16.6308 21.5574C16.6705 21.5916 16.728 21.5752 16.7732 21.6039C16.8129 21.6313 16.8307 21.7176 16.8704 21.7463C17.0306 21.8833 17.1977 22.0024 17.3579 22.1339C17.5182 22.264 17.6839 22.3845 17.8441 22.5214C17.9988 22.6529 18.1248 22.8405 18.3303 22.909C18.5028 22.6118 18.7548 22.4009 18.9602 22.1394C18.9657 22.0024 18.8233 22.0189 18.7657 21.9449C18.7027 21.86 18.663 21.7573 18.5247 21.7518C18.0153 21.267 17.4661 20.8055 16.9279 20.3481C16.3843 19.8921 15.8461 19.4306 15.2791 18.9978C15.2791 18.9691 15.2736 18.9403 15.2339 18.9513C15.0326 19.2484 14.7697 19.4881 14.5519 19.7729H14.5464ZM38.4407 18.5637C38.464 19.5333 38.4134 20.696 38.4407 21.6039C38.4476 21.6943 38.3613 21.9627 38.5393 21.9915C38.653 20.8959 38.5558 19.5908 38.5845 18.4158H38.4407V18.5637ZM71.787 18.3706C70.975 17.538 70.1218 16.7971 69.3658 15.9576C69.3028 15.9576 69.2974 15.896 69.2234 15.9124C68.6387 16.4767 68.1689 16.9108 67.4308 17.6517C67.2021 17.8804 66.8926 18.1871 66.6064 18.4733C66.4174 18.6609 65.7765 19.2484 65.782 19.3402C65.782 19.3566 66.0572 19.562 66.1723 19.6757C67.0706 20.5713 67.895 21.4204 68.6907 22.2366C68.8331 21.9915 69.1193 21.8942 69.2234 21.6094C68.6674 21.1013 68.1415 20.5659 67.6253 20.0181C67.4993 19.7894 67.2254 19.71 67.1391 19.4361C67.2993 19.3114 67.4308 19.18 67.6253 19.0033C67.6951 18.9348 68.0498 18.5637 68.1128 18.5692C68.1635 18.5692 68.4442 18.9513 68.5469 19.054C69.029 19.5333 69.6288 20.0633 69.9561 20.4577C70.2081 20.3262 70.4025 20.1317 70.5395 19.8757C69.9506 19.2252 69.2864 18.6445 68.6962 17.994C68.7824 17.8393 68.9249 17.7653 69.0851 17.6065C69.1769 17.5147 69.3426 17.2121 69.4754 17.2189C69.4343 17.2189 69.6466 17.3832 69.715 17.4586C69.9958 17.7434 70.2765 18.0173 70.4943 18.2282C70.9229 18.6555 71.2379 19.0773 71.5583 19.243C71.7309 19.0773 71.85 18.8609 72.0911 18.7582C72.039 18.6034 71.9076 18.4843 71.7994 18.3706H71.787ZM19.4874 14.7498C19.4176 14.7785 19.3669 14.8237 19.3437 14.8922C19.1382 14.9155 19.1204 15.1195 18.9547 15.1825C18.8917 15.3482 18.6849 15.3647 18.663 15.5701C19.1547 16.5287 19.5272 17.6065 20.0188 18.5637C20.0024 18.7294 20.2311 18.9006 20.116 18.9978C18.9602 18.4555 17.8386 17.8913 16.6759 17.3559C16.5554 17.5257 16.3952 17.6571 16.2405 17.7886C16.1268 17.9146 15.8228 18.057 15.9036 18.2213C16.3322 18.3241 16.6759 18.576 17.0649 18.7527C17.1566 18.7979 17.2484 18.8034 17.3579 18.8486C18.4508 19.3224 19.4984 19.8866 20.6036 20.3426C20.9062 20.0811 21.2335 19.8414 21.4732 19.5223C20.7583 17.9831 20.179 16.3055 19.4874 14.7443V14.7498ZM60.0576 27.1571C60.0522 27.0995 60.1261 27.1283 60.0576 27.1571C59.9152 27.357 59.6564 27.6021 59.4742 27.8349C58.8785 28.6046 58.1856 29.4605 57.5337 30.2479C57.4242 30.3849 57.3447 30.5958 57.1434 30.6355C56.9147 30.5383 56.6395 30.4931 56.5148 30.2986C56.3026 30.1904 56.1191 30.048 56.0794 29.7686C56.1821 29.5344 56.3656 29.3414 56.5148 29.1414C56.7435 28.8333 56.9544 28.543 57.1955 28.2239C57.2407 28.1664 57.2407 28.0924 57.2927 28.0294C57.3612 27.9431 57.442 27.876 57.5337 27.7391C57.6186 27.6131 57.7679 27.4597 57.8706 27.305C57.8706 27.2077 58.0021 27.242 57.9678 27.1119C58.0432 27.1119 58.1281 26.9804 57.9678 27.0146H57.1955C56.2505 27.4132 55.2714 27.7733 54.2867 28.1266C54.0005 27.8637 53.8293 27.4871 53.7554 27.0146H45.6605C45.4825 27.0598 45.6372 26.7805 45.4195 26.8722C44.5787 26.9284 43.6104 26.7914 42.7066 26.8722C42.6436 26.8777 42.4368 26.8037 42.4656 26.9694C42.4259 27.168 42.66 27.1625 42.7573 27.2077C42.8271 27.242 42.8901 27.2831 42.9517 27.305C42.9983 27.3228 43.0777 27.3282 43.1476 27.3502C43.2612 27.3967 43.3639 27.4939 43.4845 27.5446C43.5995 27.5898 43.7597 27.5967 43.8748 27.6419C43.9884 27.687 44.0911 27.7898 44.2116 27.8349C44.3376 27.887 44.4869 27.887 44.6006 27.9322C44.7266 27.9842 44.8183 28.0746 44.9388 28.1266C45.0539 28.1718 45.2018 28.1609 45.2771 28.2691C45.488 28.3375 45.4031 28.1034 45.5688 28.1266C45.6085 28.2293 45.781 28.2061 45.8605 28.2691C45.7454 28.7703 45.488 29.1181 45.3743 29.6207C45.2305 29.6659 45.3332 29.9686 45.1333 29.9562C45.0703 29.8768 44.9155 29.8823 44.8416 29.8138C44.7266 29.8426 44.9785 29.5235 44.7444 29.5742C43.9199 29.1866 43.0271 28.873 42.1739 28.5142C42.0931 28.5087 41.8699 28.3088 41.8822 28.5142C41.6754 28.5772 41.8822 28.7593 41.9794 28.8045C42.4998 29.3633 43.0435 29.9056 43.6283 30.4465C43.7022 30.515 43.8337 30.5615 43.8227 30.6862C43.9829 30.7382 44.035 30.8341 44.161 30.6862C44.2116 30.8121 44.3554 30.8519 44.4006 30.9779C44.3554 31.1258 44.2349 31.2394 44.1089 31.3654C43.9021 31.5763 43.6734 31.816 43.4269 32.0433C43.3366 32.1227 43.216 32.3008 43.0901 32.2378C43.0558 32.0953 42.8271 32.146 42.849 31.9461C43.0503 31.8379 42.9586 31.8214 42.8956 31.7078C42.8148 31.564 42.5231 31.3818 42.3108 31.1764C42.1684 31.034 42.0479 30.8916 41.8767 30.7437C41.785 30.6642 41.6932 30.6232 41.5836 30.504C41.5439 30.4588 41.5152 30.3383 41.4864 30.3096C41.4412 30.2644 41.3317 30.2479 41.292 30.2137C41.2522 30.1726 41.2344 30.111 41.1947 30.0713C41.0235 29.9001 40.8346 29.6029 40.6113 29.7796C40.5538 30.0192 40.7195 30.2356 40.8058 30.4588C40.8455 30.567 40.9085 30.6807 40.9482 30.7943C40.9948 30.9094 41.0003 31.0628 41.0455 31.1819C41.2235 31.6503 41.4755 32.0953 41.5782 32.5856C41.659 32.6938 41.7042 32.7677 41.8699 32.6815C41.8425 32.8759 41.9959 32.8759 41.9671 33.0704C41.7096 33.2238 41.4015 33.2922 41.0975 33.4059C40.8346 33.5086 40.5538 33.7195 40.2731 33.6456C40.2046 33.5716 40.2101 33.4182 40.1307 33.3552C40.1649 33.2416 40.3826 33.321 40.3251 33.1156C40.1183 32.7102 39.9348 32.1748 39.7404 31.6667C39.6555 31.4448 39.5404 31.1764 39.4487 30.9436C39.3747 30.7492 39.3514 30.3096 39.0132 30.4588C38.8365 30.4123 38.9447 30.6464 38.9159 30.7492V33.4059C38.842 33.6113 39.1857 33.3949 39.1118 33.6004V42.0965C39.8266 42.1184 40.651 42.039 41.292 42.1417C41.3673 42.2389 41.5042 42.3074 41.5836 42.432C41.8767 42.888 41.7274 43.9384 41.7274 44.7984C41.7274 45.7173 41.7507 46.6006 41.6302 47.1648C41.5097 47.3305 41.3604 47.473 41.1441 47.5524H39.1049V49.7257H40.3196C40.5648 50.2502 40.8633 50.7282 41.1441 51.2198H43.227V48.4658C44.3609 47.9002 45.488 47.336 46.6219 46.7773C48.7404 47.0799 50.9494 47.2963 53.12 47.5469C53.3829 46.891 53.6226 46.2131 53.8923 45.5681C53.3884 45.1983 52.931 44.7929 52.4845 44.3602C52.2613 44.3082 52.2326 44.063 51.997 44.0233C51.7341 43.7042 51.3794 43.4755 51.0754 43.2016C50.9275 43.1455 50.8754 42.9633 50.7385 42.8661C50.6919 42.8319 50.6344 42.8538 50.5947 42.8196C50.5207 42.7579 50.4742 42.6429 50.4002 42.5813C50.3317 42.5183 50.1537 42.5292 50.2058 42.3868C50.2975 41.2351 50.366 40.0656 50.4002 38.8632C50.9384 38.099 51.5218 37.3746 52.0942 36.6392C52.4037 36.531 52.616 36.3201 52.9187 36.2064C52.9816 35.8298 52.9871 35.4081 53.0624 35.0479C52.616 35.2136 52.3065 35.5162 51.8491 35.6751C51.6656 36.2626 51.4876 36.861 51.2192 37.3636C51.2986 36.5598 51.4999 35.8696 51.6081 35.0944C52.1572 34.7069 52.6954 34.3125 53.2569 33.9373C53.3651 32.4706 53.5198 31.0463 53.5952 29.5454C53.6979 29.4372 53.7431 29.2784 53.8869 29.2099C53.8526 29.0962 53.9896 29.0675 54.0293 29.0154C54.0704 28.9702 54.0704 28.8278 54.1731 28.873C54.0526 30.3561 53.8869 31.8954 53.7376 33.5086C53.6691 34.2509 53.6294 35.0479 53.5431 35.8244C53.4062 37.0446 53.12 38.2415 53.6855 39.1083C53.8403 38.6523 54.1388 38.3387 54.3155 37.8991C54.384 34.7973 54.436 31.679 54.6072 28.6799C54.6825 28.7648 54.7455 28.8278 54.803 28.9182C54.866 29.0277 54.8715 29.0729 54.9003 29.2099C54.9454 29.4317 54.9345 29.7344 54.9454 29.9795C55.0139 31.4503 55.1002 33.1046 55.1399 34.5645C55.2549 34.6781 55.2714 34.4891 55.3809 34.4672C55.6151 34.2673 55.8096 34.0276 56.1081 33.8852C56.4738 33.914 56.7545 33.8565 57.075 33.84C57.3667 33.9879 57.6022 34.2221 57.8487 34.4207C58.0938 34.6206 58.3636 34.8151 58.5745 35.0479C58.4485 35.6641 58.4143 36.3708 58.3349 37.0267C58.1281 37.3239 57.9459 37.6375 57.7049 37.8936C57.7789 38.1566 57.9226 38.3551 57.9966 38.6181C57.7282 38.6865 57.3215 38.6181 57.075 38.7153C57.2585 38.8057 57.5392 38.8002 57.6077 39.0056C57.1325 38.9139 56.5422 38.9371 56.0561 38.8632C55.8726 39.5014 55.6904 40.1409 55.4261 40.6996C55.3125 40.0039 55.3179 39.148 55.1865 38.3839C55.1741 38.3099 55.2604 38.1155 55.0892 38.1442C54.9345 38.173 54.8879 38.099 54.7962 38.1442C54.7113 38.1839 54.6017 38.5838 54.5565 38.7262C54.2867 39.4794 53.9896 40.2943 53.7321 41.1379C53.8348 41.3323 53.9841 41.509 54.121 41.6678C54.2525 41.8226 54.3908 41.9814 54.5565 42.102C55.055 41.8281 55.5179 41.5145 56.1081 41.3323C56.686 41.509 57.19 41.7706 57.7569 41.9595C57.8994 41.8171 58.0596 41.6747 58.1911 41.5254C58.3171 41.3775 58.4376 41.2118 58.5293 41.0406C58.3458 40.6134 58.1623 40.1806 58.0432 39.6903C59.3359 39.5014 60.6355 39.3137 61.8722 39.0631C61.271 39.022 60.641 38.9317 60.0289 38.8687C59.4167 38.8057 58.8101 38.8057 58.2828 38.629C59.4564 38.5893 60.5616 38.4866 61.7749 38.4866C61.9297 37.7676 61.953 36.987 62.016 36.2174C62.0844 35.4368 62.1584 34.6658 62.2104 33.903C62.7363 33.6853 63.3211 33.4977 63.9044 33.2758C64.0592 33.2183 64.2194 33.0526 64.392 33.132C64.2249 33.6291 63.899 33.903 63.521 34.1933C63.384 34.3015 63.2403 34.4042 63.0855 34.5302C63.0225 34.5809 62.8856 34.6097 62.891 34.7233C63.2115 35.7093 63.4758 36.7474 63.762 37.7621C63.08 40.1286 62.3816 42.4662 61.7243 44.8614C60.7739 45.5407 59.8454 46.2418 58.9128 46.9375C58.5814 46.6513 58.2376 46.3952 57.8939 46.1158C57.7282 45.9789 57.5734 45.8132 57.4077 45.6831C57.253 45.5571 57.0174 45.4777 56.9722 45.249C57.2064 44.7245 57.5214 44.2862 57.6994 43.7042C57.5337 43.6412 57.3899 43.5618 57.2639 43.4646C57.012 43.4879 56.875 43.7385 56.7312 43.8973C56.2903 44.3766 55.7589 44.8505 55.3234 45.3914C55.6548 45.6598 55.9698 45.9392 56.2903 46.2131C56.4683 46.3445 56.5998 46.5157 56.7778 46.6458C56.9093 46.806 57.1503 46.8567 57.2119 47.0799C56.9544 47.6894 56.7025 48.4316 56.4395 49.1547C56.3533 49.3943 56.2273 49.6175 56.1999 49.8339C56.1081 50.483 56.1999 51.1787 56.1999 51.8635V53.8423C56.2451 53.9738 56.1026 54.2984 56.2971 54.2751C56.5368 54.2874 56.4628 53.9902 56.5888 53.8875C57.0585 52.7194 57.5899 51.5731 58.0884 50.4091C58.5868 49.2574 59.0155 48.0769 59.5879 46.9827C59.3537 49.2752 59.073 51.5266 58.8155 53.7903C58.3855 54.0875 57.9678 54.3956 57.5556 54.7092C57.4474 54.8393 57.2297 54.8626 57.1667 55.0447V58.4259C57.2064 58.5464 57.075 58.8422 57.2639 58.8148H57.6022C57.7912 58.5012 57.8076 58.1123 57.8939 57.7535C58.0541 57.0688 58.2431 56.3334 58.4266 55.5815C58.5115 55.2337 58.5581 54.8735 58.7183 54.5668C58.8498 55.3186 58.9415 56.1115 59.0566 56.8812C58.6444 58.9175 58.2322 60.9526 57.8939 63.0615C59.062 63.193 60.2357 63.3929 61.386 63.5929C62.3131 63.7517 63.3553 63.9174 64.2934 64.1735C64.3975 64.2023 64.6083 64.1393 64.6316 64.3159C62.2734 64.0201 59.6399 63.9695 57.1215 64.0777C56.6682 64.0941 56.2053 64.0544 55.7644 64.0777C53.0912 64.1968 50.5084 64.3844 48.0078 64.6583C45.5345 64.9267 43.1695 65.3143 40.8797 65.8169C36.8905 66.6892 33.1916 67.7889 29.831 69.2939C29.6488 69.3747 29.4818 69.4596 29.2996 69.5336C29.0531 69.6363 28.6984 69.7568 28.4752 69.9677C32.511 72.2424 36.896 73.8556 42.9695 74.1185C43.5475 74.1404 44.1719 74.1473 44.7608 74.1185C49.4443 73.9131 53.3719 72.8353 56.7312 71.2728C60.0344 69.739 62.9198 67.6519 65.4109 65.1431C65.908 64.6364 66.3886 64.1174 66.8638 63.5532C66.8762 63.5408 66.9556 63.5189 66.9611 63.5066C67.0816 63.245 67.3801 62.9533 67.591 62.6863C67.7293 62.5151 67.843 62.333 67.9813 62.1549C68.0717 62.0358 68.221 61.9098 68.3182 61.7674C68.3415 61.7331 68.336 61.6647 68.3648 61.625C68.4278 61.5346 68.5414 61.4771 68.6044 61.3853C68.6619 61.3004 68.6907 61.1799 68.7482 61.095C68.7592 61.0785 68.84 61.0607 68.8455 61.0498C68.8564 61.0265 68.8277 60.9758 68.8455 60.9526C68.8564 60.9347 68.9372 60.9183 68.9427 60.9074C68.9536 60.8841 68.9249 60.832 68.9427 60.8101C68.9536 60.7923 69.0344 60.7759 69.0399 60.7649C69.0509 60.7417 69.0221 60.6896 69.0399 60.6677C69.0509 60.6499 69.1317 60.6335 69.1371 60.6211C69.1481 60.5992 69.1193 60.5472 69.1371 60.5253C69.1481 60.5075 69.2289 60.491 69.2344 60.4787C69.2453 60.4568 69.2166 60.4048 69.2344 60.3829C69.2453 60.3651 69.3261 60.3486 69.3316 60.3363C69.5439 59.8693 69.9218 59.3393 70.2012 58.8422C70.5915 58.1589 70.975 57.4796 71.3187 56.7155C71.3639 56.6196 71.4214 56.5278 71.4611 56.4251C73.0018 53.0042 74.1288 48.8246 74.1288 44.3082C74.1288 36.0407 71.2612 29.7851 67.4431 25.0933C67.0309 24.5852 66.6351 24.095 66.1832 23.5992C65.6971 23.0692 65.1178 22.453 64.5344 21.9572C64.3796 21.8258 64.2304 21.6779 64.0482 21.5231C63.836 21.341 63.5785 21.1068 63.3211 20.8959C63.1554 20.759 63.0006 20.5946 62.8349 20.4632C62.4912 20.1893 62.1241 19.9551 61.7695 19.6935C61.7517 19.6812 61.7352 19.6018 61.7243 19.5963C61.701 19.5853 61.6489 19.6127 61.6257 19.5963C61.6092 19.5853 61.5914 19.5045 61.5805 19.4991C61.4545 19.4415 61.2833 19.3402 61.145 19.2087C61.1286 19.1909 61.019 19.1115 60.9505 19.0663C60.8588 19.0033 60.7506 18.98 60.6588 18.9239C60.641 18.9116 60.6246 18.8321 60.6136 18.8267C60.5904 18.8143 60.5383 18.8431 60.5164 18.8267C60.4986 18.8143 60.4808 18.7349 60.4698 18.7294C60.2014 18.6103 59.8522 18.3816 59.5482 18.1994C57.2927 16.8368 54.7168 15.6509 51.7916 14.8689C49.8278 14.3444 47.6928 13.9569 45.4428 13.8541C42.1054 13.7062 38.831 14.1048 36.088 14.8182C35.9908 14.8402 35.9114 14.8867 35.7963 14.9155C35.7169 14.9374 35.5909 14.9374 35.5046 14.9607C35.3334 15.0113 35.1842 15.1031 35.0185 15.1538C34.824 15.2113 34.6227 15.24 34.4337 15.2962C34.1187 15.3989 33.7764 15.5536 33.4148 15.6851C33.2491 15.7413 33.0423 15.77 32.8821 15.8275C32.7219 15.8905 32.5562 16.0042 32.396 16.0672C31.9153 16.2658 31.3949 16.4602 30.8964 16.6944C29.0353 17.5599 27.255 18.6787 25.6637 19.8811C21.3129 23.1487 17.9701 27.3282 15.8228 32.5801C15.2846 33.8962 14.7751 35.3273 14.415 36.8268C14.1452 37.9676 13.9288 39.1658 13.785 40.4025C13.733 40.8188 13.6714 41.2406 13.6426 41.6569C13.4016 45.0436 13.7795 48.7562 14.6094 51.8402C15.5598 55.3652 17.043 58.3752 18.8739 61.0155C18.926 61.0895 18.9712 61.1402 19.0177 61.2086C19.0465 61.2429 19.0342 61.3114 19.0629 61.3511C19.0807 61.3743 19.1437 61.3798 19.1601 61.3976C19.1944 61.4428 19.1779 61.5003 19.2067 61.5401C19.3382 61.7112 19.5723 61.9961 19.7394 62.2179C19.8243 62.3261 19.8997 62.4288 19.9791 62.5548C20.0599 62.6685 20.2489 62.8451 20.368 62.9876C20.431 63.0615 20.4488 63.1478 20.5118 63.2272C20.546 63.2669 20.5748 63.2793 20.609 63.3245C20.6885 63.4381 20.872 63.6148 20.998 63.7572C21.4156 64.242 21.8744 64.7268 22.3551 65.2061C22.5838 65.4279 22.7728 65.7361 23.0823 65.8853C25.613 64.9774 28.3314 64.2598 31.2744 63.7572V59.6064C30.6677 59.39 30.072 59.1627 29.5283 58.8833C29.5735 57.9302 29.5858 56.9441 29.5735 55.9349C29.3681 55.5925 29.0408 55.3706 28.8011 55.068C28.5724 54.7653 28.252 54.5544 28.0739 54.2011V49.8106C29.7461 49.7079 31.6058 49.7874 33.3573 49.7654V46.3377C33.4902 46.1501 33.6038 45.9447 33.8448 45.8543C34.8801 45.7447 36.1222 45.8365 37.2397 45.8077V43.9261C33.5066 43.8918 29.6488 43.9891 25.9965 43.8809C25.8814 43.7549 25.7267 43.6645 25.6582 43.4933C25.5432 37.7005 25.6404 31.6954 25.613 25.8232C25.7445 25.6342 25.8582 25.4288 26.0992 25.3384C27.3755 25.2302 28.8586 25.3206 30.2213 25.2919C30.3294 25.3097 30.198 25.5781 30.4157 25.4863C31.2114 25.463 32.2645 25.5206 33.1807 25.4863C33.4039 25.4808 33.9078 25.6123 33.8106 25.196C33.964 25.0864 33.6093 25.0755 33.5696 25.0015C32.7109 24.6482 31.8235 24.3291 30.9991 23.9416C30.8046 23.8211 30.8498 24.032 30.7074 24.084C30.6157 24.0155 30.4951 23.969 30.3692 23.9416C30.5239 23.4677 30.7416 23.0569 30.9019 22.5899C31.0101 22.5036 30.9416 22.2421 31.1429 22.253C31.1826 22.3557 31.3538 22.3325 31.4346 22.3955C31.4853 22.5214 31.2689 22.6461 31.4798 22.6351C32.3562 23.0227 33.2888 23.3418 34.1475 23.7471C34.3077 23.7581 34.4228 23.9073 34.4857 23.7471C34.6172 23.5992 34.5487 23.491 34.3885 23.4102C33.8846 22.8857 33.1807 22.1681 32.5959 21.5752C32.448 21.4259 32.3042 21.2615 32.207 21.2835C32.1385 21.3013 32.1385 21.3862 32.0125 21.3807C31.9605 21.2561 31.818 21.215 31.7715 21.0904C32.0988 20.7644 32.385 20.4056 32.7397 20.0756C32.8424 19.9784 32.9629 19.8236 33.1286 19.8359C33.1574 19.9674 33.3286 19.9551 33.3231 20.1263C33.1341 20.3317 33.4614 20.4577 33.6613 20.6562C34.1078 21.0958 34.6405 21.6313 35.1157 22.1051C35.3047 22.2927 35.4526 22.6351 35.7457 22.5379C35.8771 22.4352 35.8018 22.3051 35.6991 22.2024C35.3732 21.2218 34.9555 20.3372 34.583 19.4018C34.5597 19.18 34.3762 19.4758 34.342 19.3512C34.279 19.2539 34.2516 19.1225 34.1995 19.0143C34.5885 18.7746 35.0869 18.6445 35.5101 18.4336C35.6648 18.4555 35.7963 18.2049 35.899 18.3364C35.9114 18.4843 36.0031 18.5528 36.0428 18.6719C35.9401 18.7637 35.7908 18.7294 35.899 18.9116C36.2893 19.8127 36.6728 20.7192 37.0165 21.6655C37.1137 21.7463 37.0562 21.9791 37.3082 21.9052C37.4629 21.8942 37.4739 21.7463 37.4506 21.5697V18.5295C37.4972 18.3528 37.2397 18.4788 37.211 18.3871V17.9995C37.8231 18.0337 38.5667 17.9365 39.0995 18.0447C39.0707 18.1474 39.157 18.3651 39.0543 18.3816C39.0365 18.4898 38.768 18.3583 38.8598 18.576V21.86C40.84 22.3051 42.0479 23.5129 42.4943 25.4808H45.4483C45.655 25.5548 45.4373 25.2124 45.6427 25.2864H51.5054V21.0849C51.6998 21.1123 52.0203 21.0219 52.1353 21.1301C52.1983 22.2873 52.0545 23.6554 52.1353 24.8934C52.1408 24.9783 52.0381 25.3151 52.2777 25.2809C52.4777 25.2864 52.3298 24.944 52.375 24.7961V21.5122C52.4215 21.3807 52.2777 21.0616 52.4722 21.078C52.7927 20.9699 52.7009 21.2383 52.7639 21.3697C52.931 21.7285 53.0049 22.0367 53.1994 22.3845C53.2569 22.4817 53.3487 22.5899 53.4404 22.7214C53.5376 22.8583 53.6924 23.035 53.8293 23.2048C54.0526 23.4787 54.2648 23.7362 54.5565 23.9758C54.6647 24.0662 54.74 24.1128 54.8934 24.2141C54.94 24.2483 54.9852 24.3291 55.0372 24.3579C55.1687 24.4428 55.3289 24.477 55.4727 24.551C55.6151 24.6249 55.7247 24.6825 55.8616 24.7454C56.4053 24.9783 57.0407 25.2179 57.7049 25.2754C58.7183 25.3603 59.8577 25.2754 60.9505 25.2754C61.89 25.2754 62.7883 25.2179 63.762 25.2754C63.8305 25.2809 64.0537 25.2015 64.0537 25.3727V25.6123C62.2611 25.726 60.2576 25.6287 58.3801 25.6575H57.9911C57.8254 25.6178 57.7624 25.6863 57.7967 25.8506C57.8131 26.0286 58.0432 25.9424 58.1349 25.9478C59.9892 26.0218 62.1296 25.8917 64.0482 25.9478V27.0598H63.4183C63.384 28.862 63.4813 30.7943 63.3717 32.5171C62.9595 32.6595 62.0502 32.7047 61.7749 32.4199V29.7631C61.7749 28.8908 61.8147 28.0239 61.7297 27.2023C61.3805 28.4348 60.9793 29.5974 60.5671 30.8231C60.4356 31.2161 60.3206 31.616 60.1316 31.9803C59.7824 32.0145 59.4907 31.9296 59.262 31.8379C59.021 31.7406 58.7813 31.6325 58.6786 31.4051C59.125 30.0028 59.6167 28.6388 60.0344 27.2023L60.0576 27.1571ZM65.6341 16.6314C66.0394 16.6656 66.4119 16.6136 66.6009 16.5342C66.8926 16.4082 66.9446 16.3342 67.1336 16.1014C67.2363 15.9754 67.3856 15.8152 67.4253 15.7125C67.6253 15.2168 67.4774 14.6238 67.2309 14.3622C67.1966 14.328 67.2131 14.2595 67.1843 14.2198C67.1158 14.139 66.9898 14.1102 66.8926 14.0253C66.8529 13.9911 66.8351 13.9171 66.7954 13.8829C66.7324 13.8254 66.6639 13.8377 66.6009 13.7857C66.5612 13.7514 66.5434 13.672 66.5037 13.6433C66.4516 13.6035 66.3544 13.5857 66.3092 13.546C65.8285 13.1639 65.1931 12.686 64.8097 12.434C64.8097 12.4066 64.8042 12.3779 64.7631 12.3888C63.8127 13.7117 62.8171 14.9826 61.8557 16.3C62.1529 16.5054 62.4104 16.7451 62.7253 16.9272C63.1088 16.4602 63.4292 15.9179 63.8414 15.4797C64.4139 15.8905 64.9356 16.352 65.6341 16.6369V16.6314ZM23.7054 11.7041C23.6369 11.7329 23.5862 11.7794 23.563 11.8465C23.2192 12.0246 22.87 12.2861 22.5961 12.4737C22.4468 12.5764 22.3318 12.6737 22.2058 12.7654C22.1209 12.8216 22.0634 12.8736 22.0114 12.9079C21.491 13.2667 20.9185 13.5803 20.4598 14.0199C20.8213 14.4923 21.1815 14.9771 21.5252 15.4674C21.8799 15.9754 22.1771 16.5109 22.5893 16.9614C22.6701 17.1559 22.7673 17.3326 22.9275 17.4462C23.0248 17.6352 23.0877 17.8626 23.3164 17.931C23.5397 17.7831 23.8149 17.5599 23.9984 17.4462C24.0436 17.4175 24.0546 17.3778 24.0957 17.349C24.1641 17.2983 24.2614 17.3038 24.3353 17.2531C24.3586 17.2408 24.3641 17.1723 24.3819 17.1559C24.4216 17.1217 24.4791 17.1381 24.5243 17.1107C24.5476 17.0929 24.5476 17.0299 24.5709 17.0135C24.6106 16.9847 24.6791 16.9902 24.7133 16.9669C24.8283 16.8875 24.9365 16.7848 25.005 16.7286C25.0461 16.6944 25.1022 16.7108 25.1488 16.6821C25.1721 16.6656 25.1721 16.6027 25.194 16.5848C25.2351 16.5575 25.3035 16.5629 25.3378 16.5397C25.4583 16.4602 25.5555 16.352 25.6295 16.3C25.6692 16.2658 25.7267 16.2836 25.7733 16.2548C25.7952 16.237 25.7952 16.1754 25.8184 16.1576C25.8582 16.1288 25.9266 16.1357 25.9622 16.1124C26.1855 15.9522 26.3566 15.77 26.5908 15.6783C26.5799 15.4961 26.4087 15.4742 26.3964 15.2907C26.2416 15.251 26.2882 15.0113 26.1047 15.0004C25.2693 15.5536 24.4901 16.1631 23.6314 16.6876C23.4137 16.2945 23.0987 15.9987 22.9042 15.5769C23.6369 15.0798 24.3353 14.5553 25.0858 14.0828C25.0748 13.8993 24.931 13.8487 24.8913 13.6939C24.7708 13.62 24.7653 13.4324 24.5996 13.4036C24.3066 13.6035 24.0094 13.8596 23.7287 13.9856C23.7122 13.9911 23.6999 14.0705 23.6835 14.0828C23.6602 14.0993 23.6081 14.0705 23.5862 14.0828C23.5684 14.0883 23.5575 14.1678 23.5397 14.1787C23.1685 14.4362 22.7906 14.6977 22.3784 14.9032C22.2058 14.5895 21.9771 14.3389 21.7936 14.0363C22.5838 13.4899 23.3562 12.9188 24.1696 12.3943C24.0491 12.1259 23.8889 11.8986 23.6835 11.7164L23.7054 11.7041ZM29.9118 10.4497C29.8542 10.0909 29.5228 9.7266 29.2818 9.58281C29.0408 9.44039 28.7614 9.34452 28.3602 9.38972C27.2043 9.74851 26.2991 10.3593 25.2118 10.792C25.9212 12.2916 26.6251 13.7912 27.3933 15.2346C27.6672 15.0401 28.011 14.921 28.315 14.7498C28.0507 14.0938 27.685 13.5405 27.444 12.8681C27.7823 12.7709 28.011 12.5655 28.5094 12.6285C29.2079 12.9476 29.8488 13.3242 30.5472 13.6433C30.9704 13.483 31.388 13.3242 31.7085 13.0612C30.8622 12.7024 30.25 12.104 29.1901 11.9492C29.6023 11.5904 30.0199 11.1454 29.9172 10.4565L29.9118 10.4497ZM55.9876 13.2502C56.3135 13.3926 56.6176 13.5583 56.9544 13.683C57.1612 13.2105 57.4365 12.697 57.6364 12.2861C57.7104 12.1327 57.7337 11.915 57.8761 11.8013C58.5115 12.167 59.2387 12.4395 59.9152 12.7654C59.9549 12.4518 60.1727 12.3149 60.2069 11.9958C59.5249 11.6767 58.8046 11.3973 58.1692 11.0317C58.3924 10.7359 58.4663 10.3018 58.7005 10.0169C59.0785 10.2169 59.4852 10.3702 59.8632 10.5469C60.2644 10.7359 60.6355 10.9523 61.0765 11.0769C61.1573 10.8044 61.3121 10.5989 61.4148 10.3538C60.2576 9.86903 59.1593 9.31577 58.0199 8.8077C57.3612 10.3073 56.634 11.7383 55.9821 13.2502H55.9876ZM34.079 7.55327C32.6931 7.39442 31.5661 7.87236 31.0731 8.7625C30.8224 9.76084 31.4853 10.3648 32.333 10.4497C33.2669 10.5469 34.5885 10.0744 34.709 10.7866C34.7542 11.0659 34.5597 11.322 34.3707 11.4658C34.0503 11.7041 33.6038 11.7849 33.1122 11.7561C32.8191 11.6137 32.5959 11.4028 32.4302 11.1289C32.1618 11.3001 31.8235 11.3905 31.5085 11.5165C31.451 11.648 31.5948 11.7041 31.6523 11.8068C31.703 11.8931 31.7318 12.0246 31.7948 12.0985C31.8523 12.1601 31.955 12.2286 32.0358 12.2916C32.3727 12.56 32.8712 12.7024 33.5353 12.6285C34.1995 12.5545 35.1787 12.0862 35.4759 11.7109C35.5101 11.6644 35.5279 11.5507 35.5731 11.4713C35.6197 11.3905 35.6991 11.3398 35.7169 11.2768C35.9278 10.5921 35.6251 10.1648 35.3786 9.78275C35.0404 9.54309 34.6515 9.40615 34.0681 9.39519C33.2669 9.38424 32.2357 9.79507 31.9837 9.05831C32.1385 8.64199 32.8657 8.26128 33.4381 8.38043C33.7408 8.4489 33.7764 8.70499 34.0215 8.81317C34.2968 8.66527 34.6515 8.60228 34.9431 8.47766C34.8295 7.99835 34.4515 7.77649 34.0735 7.55875L34.079 7.55327ZM50.8015 10.4497C50.8234 10.6099 50.9206 10.8386 50.9959 10.981C51.5163 12.0355 53.2336 12.7476 54.5332 12.2861C54.7222 12.2176 54.8373 12.093 54.9687 11.9958C55.0084 11.9616 55.0769 11.978 55.1112 11.9492C55.2837 11.8191 55.4782 11.574 55.5466 11.4193C55.5521 11.4028 55.6329 11.3905 55.6439 11.3741C55.7123 11.2659 55.7411 11.1056 55.7877 10.9865C55.9643 10.5579 56.1136 10.0334 56.0794 9.53762C56.0451 9.0364 55.7931 8.60913 55.5918 8.32839C55.4385 8.11749 55.2152 7.93535 55.0084 7.84497C54.992 7.83812 54.9797 7.75869 54.9633 7.74774C54.4935 7.46837 53.5376 7.23419 53.0227 7.26295C52.3928 7.30266 52.0312 7.59299 51.5684 7.89016C51.0069 8.56256 50.6467 9.53762 50.7946 10.4497H50.8015ZM36.0661 6.82883C36.2948 8.02163 36.5235 9.36096 36.7467 10.4962C36.8207 10.8948 36.9015 11.2878 37.0384 11.6534C37.337 11.5452 37.6862 11.4932 38.0573 11.459C37.7149 9.86903 37.463 8.19281 37.0905 6.63026C36.7864 6.72749 36.4605 6.80692 36.0716 6.82335L36.0661 6.82883ZM43.3817 6.15095C43.9542 7.04657 44.5157 7.98191 45.0758 8.90493C45.0881 9.64033 45.0251 10.3018 44.9785 10.981C45.362 10.9687 45.718 10.9865 46.044 11.0262C46.0946 10.3812 46.1467 9.74304 46.1412 9.04735C46.4671 8.55161 46.8629 8.12434 47.2053 7.64503C47.3943 7.42865 47.5613 7.19447 47.738 6.96578C47.9215 6.73844 48.1392 6.51522 48.2707 6.2427C47.8352 6.27694 47.5435 6.1619 47.108 6.19066C46.5698 6.73845 46.2097 7.45056 45.7002 8.02711C45.299 7.38209 44.9279 6.70421 44.5376 6.04824C44.1377 6.05919 43.6447 5.91129 43.279 6.04824C43.3366 6.05372 43.3475 6.10576 43.3763 6.14547L43.3817 6.15095ZM38.2463 6.3906C38.212 6.71516 38.2983 6.92058 38.2928 7.21091C38.8365 7.17667 39.3692 7.126 39.8896 7.06848C40.0334 8.40371 40.1238 9.79507 40.2786 11.1234C40.6401 11.0947 40.977 11.0495 41.344 11.0262C41.1892 9.69784 41.103 8.30647 40.9551 6.97262C41.4987 6.93839 42.0301 6.88635 42.5519 6.82883C42.5464 6.53303 42.5286 6.2427 42.4546 6.00852C41.0865 6.17423 39.6719 6.29337 38.2353 6.39608L38.2463 6.3906ZM72.6115 14.2595C72.8182 14.4526 73.0415 14.6361 73.2414 14.8402C73.4359 15.0346 73.5851 15.2688 73.7741 15.4674C74.0494 15.7645 74.3575 16.0206 74.6437 16.3342C74.7355 16.4369 74.793 16.5684 74.8848 16.6711C75.0107 16.819 75.1765 16.9395 75.3202 17.1039C75.4394 17.2408 75.5654 17.4175 75.7092 17.5887C75.8009 17.6968 75.8584 17.8174 75.9488 17.9255C76.1159 18.1255 76.298 18.3186 76.4815 18.5528C76.6938 18.8267 76.9061 19.0882 77.1115 19.3744C77.1978 19.4936 77.2553 19.573 77.3525 19.71C77.432 19.8236 77.5004 19.9154 77.5922 20.0468C77.673 20.1605 77.7414 20.2577 77.8332 20.3824C78.0797 20.7247 78.4056 21.1931 78.6576 21.5916C78.8055 21.8258 78.9315 22.0654 79.0917 22.316C79.126 22.3667 79.1493 22.4475 79.189 22.5105C79.2807 22.6584 79.4067 22.8296 79.5272 23.0405C79.7272 23.3993 79.9394 23.7526 80.1572 24.1525C80.9638 25.6178 81.7375 27.2543 82.3839 28.9305C82.4921 29.2154 82.5674 29.5125 82.6756 29.7974C82.7222 29.922 82.8304 30.0644 82.8701 30.1849C82.9673 30.4698 83.0591 30.7437 83.1631 31.0518C83.4767 32.0036 83.7808 33.1841 84.0327 34.2385C84.1409 34.7069 84.2847 35.1848 84.371 35.6409C84.4682 36.1325 84.5312 36.6337 84.6106 37.1349C84.7202 37.7909 84.8229 38.4756 84.9023 39.1658C85.4118 43.6522 85.1324 48.1796 84.319 52.0579C83.6602 55.2104 82.6304 58.1411 81.4102 60.7992C81.1651 61.3346 80.9473 61.8824 80.6844 62.3891C80.5516 62.6397 80.3804 62.8629 80.2489 63.1136C80.112 63.3642 80.0079 63.6381 79.86 63.8832C79.2985 64.8473 78.7083 65.8045 78.0674 66.7344C77.9537 66.9001 77.862 67.0713 77.7305 67.2644C77.6607 67.3671 77.5812 67.4643 77.4895 67.6013C77.4032 67.7327 77.2197 67.9258 77.1005 68.0861C76.7623 68.5421 76.4364 69.0036 76.0817 69.4363C75.4052 70.2813 74.678 71.1071 73.9001 71.9C73.5167 72.2876 73.1332 72.6642 72.7374 73.0572C72.3485 73.4461 71.9884 73.8446 71.5761 74.2158C71.4666 74.3116 71.3475 74.3637 71.2379 74.454C71.1407 74.5403 71.0489 74.654 70.9462 74.7457C70.5449 75.0936 70.1273 75.4579 69.6863 75.8057C69.4179 76.0166 69.1426 76.2275 68.8619 76.4329C68.8057 76.4726 68.7249 76.4849 68.6674 76.5301C68.5647 76.6041 68.4784 76.7465 68.3757 76.8205C68.3127 76.867 68.2443 76.8725 68.1813 76.9177C68.0786 76.9916 67.9868 77.0546 67.843 77.1573C67.7923 77.1916 67.7513 77.2655 67.7006 77.2998C67.6321 77.345 67.5171 77.3518 67.4596 77.397C67.3856 77.4545 67.3856 77.4942 67.3171 77.5394C67.1501 77.6531 66.9789 77.7448 66.7844 77.8763C66.7324 77.9105 66.7036 77.979 66.6406 78.0187C66.527 78.0927 66.3722 78.1324 66.2517 78.2118C66.1997 78.2461 66.1545 78.3269 66.1093 78.3543C66.0518 78.3885 65.9655 78.4173 65.9134 78.4515C65.6902 78.5939 65.456 78.7254 65.1876 78.8856C65.0616 78.9596 64.9699 79.0568 64.8494 79.1253C64.6029 79.2732 64.3221 79.3759 64.077 79.5128C64.0304 79.5347 63.9798 79.632 63.9332 79.6552C63.7675 79.7456 63.5607 79.8374 63.3498 79.9456C61.8612 80.733 60.2466 81.4794 58.5526 82.1175C57.5734 82.4832 56.5422 82.831 55.5014 83.1337C55.1112 83.2473 54.5387 83.4062 54.0923 83.5212C53.4801 83.6801 52.8337 83.8294 52.2038 83.954C48.0639 84.7811 43.0325 84.9865 38.2928 84.3881C37.9655 84.347 37.6574 84.2511 37.3246 84.1936C36.6673 84.0854 35.9853 83.9937 35.3389 83.8567C31.6181 83.0529 28.1082 81.7478 25.0625 80.1907C24.805 80.0592 24.5531 79.9291 24.3353 79.7579C23.3397 79.2554 22.366 78.6911 21.428 78.0694C21.3992 78.0475 21.3595 77.99 21.3307 77.9722C21.2965 77.9503 21.2267 77.9557 21.1869 77.9215C21.113 77.8708 21.0664 77.7791 20.9925 77.727C20.9473 77.6928 20.8898 77.7051 20.8501 77.6819C20.8144 77.6586 20.7802 77.6079 20.7515 77.5846C20.7172 77.5627 20.6433 77.5682 20.609 77.5394C20.5515 77.4942 20.4255 77.3682 20.3173 77.2998C19.9736 77.0656 19.5669 76.752 19.2012 76.4795C19.0629 76.3768 18.9027 76.296 18.7657 76.1878C18.6973 76.1316 18.6507 76.0563 18.5713 75.9947C18.4275 75.8865 18.296 75.7838 18.1358 75.6578C18.1016 75.629 18.0728 75.5838 18.0386 75.5606C18.0043 75.5318 17.9304 75.5441 17.8961 75.5099C17.7523 75.3949 17.6442 75.2415 17.5058 75.1223C17.4374 75.0593 17.3347 75.0361 17.2662 74.9799C17.2087 74.9279 17.1799 74.8361 17.1224 74.7854C17.0484 74.7225 16.9622 74.7115 16.8827 74.643C16.7047 74.4883 16.5102 74.25 16.298 74.061C16.161 73.9364 15.9953 73.8501 15.8639 73.7255C15.7379 73.6105 15.6461 73.4571 15.5256 73.3366C15.2627 73.0805 14.9422 72.8751 14.7012 72.6135C14.5697 72.4711 14.4889 72.3108 14.3629 72.1794C14.2547 72.0657 14.0945 71.963 13.974 71.8438C13.722 71.5809 13.4988 71.2961 13.2468 71.0222C13.1263 70.8907 12.9839 70.777 12.8579 70.6346C12.8237 70.6004 12.8346 70.5264 12.8113 70.4922C12.7661 70.4292 12.6867 70.395 12.6169 70.2977C12.5251 70.1663 12.3142 69.9786 12.1828 69.8129C11.965 69.5514 11.7363 69.2487 11.5008 68.9461C11.472 68.9118 11.4268 68.8845 11.4035 68.8502C11.3529 68.7872 11.3173 68.701 11.2611 68.6106C11.2145 68.5421 11.094 68.4216 11.0201 68.3189C10.5394 67.6807 9.97245 66.922 9.52053 66.1921C9.47397 66.1181 9.42877 66.0497 9.37674 65.9524C9.35482 65.9127 9.35483 65.8511 9.33154 65.81C9.28498 65.7361 9.18227 65.6854 9.13708 65.6169C9.10285 65.5717 9.1138 65.5142 9.09052 65.4745C9.03985 65.3937 8.91934 65.2568 8.85086 65.1376C8.74131 64.961 8.62764 64.761 8.51261 64.5556C7.86622 63.4436 7.20204 62.196 6.62413 60.9347C5.34094 58.1411 4.32754 55.1419 3.61817 51.7607C2.89098 48.2768 2.639 44.1082 2.93755 40.4655C3.32647 35.7039 4.50558 31.5421 5.9887 27.9157C6.11469 27.6076 6.31463 27.2255 6.47485 26.8544C7.1678 25.2357 8.07712 23.6444 8.99329 22.1736C10.5558 19.6593 12.3197 17.3723 14.3232 15.3195C17.7291 11.8191 21.6567 8.89397 26.2937 6.72749C26.7976 6.49331 27.2783 6.2427 27.8452 6.00305C28.0219 5.9291 28.2807 5.80858 28.5259 5.71135C28.6806 5.64973 28.8532 5.63192 29.0134 5.56893C29.0353 5.55797 29.0928 5.47854 29.1106 5.4717C29.2243 5.43883 29.3215 5.4265 29.4475 5.37583C30.1637 5.10194 30.9991 4.80477 31.8235 4.55416C34.3707 3.78452 37.2904 3.15183 40.4045 2.86699C42.0657 2.71224 43.7994 2.71772 45.5921 2.76976C51.2479 2.94094 56.1711 4.29259 60.2754 6.05372C65.1411 8.14077 69.2577 11.0207 72.6347 14.2595H72.6115Z" fill="#274563"/>
<path fill-rule="evenodd" clip-rule="evenodd" d="M53.0158 8.23802C54.0073 8.02712 54.7057 8.51739 54.9563 9.20212C55.0193 9.84577 54.8933 10.2676 54.6646 10.6948C54.4701 11.066 54.362 11.2536 53.984 11.4193C53.8635 11.4713 53.6581 11.5562 53.4513 11.5617C52.8966 11.5795 52.1516 11.1741 51.9517 10.6442C51.6888 9.95395 51.9969 9.17884 52.4379 8.51739C52.6501 8.44344 52.7296 8.22707 53.0226 8.22707L53.0158 8.23802Z" fill="#274563"/>
<path fill-rule="evenodd" clip-rule="evenodd" d="M27.0372 12.1944C26.9345 11.7616 26.677 11.4932 26.5511 11.0838C27.0153 10.8153 27.5069 10.6606 28.0054 10.3593C28.0629 10.3251 28.3259 10.3812 28.4916 10.3593C28.6915 10.525 28.8805 10.6674 28.8805 10.94C28.8805 11.3001 28.5094 11.5055 28.1081 11.711C27.7247 11.9095 27.3179 12.1204 27.0441 12.1944H27.0372Z" fill="#274563"/>
<path fill-rule="evenodd" clip-rule="evenodd" d="M65.1355 13.694C65.571 14.0541 66.1024 14.3102 66.3954 14.806C66.4584 15.4619 66.0175 15.7701 65.571 15.6276C65.1068 15.4797 64.5919 14.9895 64.3111 14.806C64.5864 14.4362 64.8726 14.0829 65.1355 13.694Z" fill="#274563"/>
<path fill-rule="evenodd" clip-rule="evenodd" d="M35.7168 19.5333C35.6593 19.5388 35.6881 19.4648 35.7168 19.5333V19.5333Z" fill="#274563"/>
<path fill-rule="evenodd" clip-rule="evenodd" d="M35.7168 19.5333C35.7565 19.5443 35.7729 19.573 35.7619 19.6306C35.7222 19.6196 35.7045 19.5908 35.7168 19.5333Z" fill="#274563"/>
<path fill-rule="evenodd" clip-rule="evenodd" d="M35.7619 19.6306C35.8017 19.6415 35.8196 19.6703 35.8086 19.7278C35.7676 19.7155 35.751 19.6881 35.7619 19.6306Z" fill="#274563"/>
<path fill-rule="evenodd" clip-rule="evenodd" d="M33.0943 20.6905C33.0368 20.696 33.0656 20.622 33.0943 20.6905V20.6905Z" fill="#274563"/>
<path fill-rule="evenodd" clip-rule="evenodd" d="M74.8792 26.1478C75.1997 25.9657 75.5776 25.8507 75.8461 25.6178C75.9269 25.6055 75.9323 25.663 75.9899 25.663C76.0583 25.8739 76.2583 26.1478 76.424 26.4847C76.5678 26.7696 76.7965 27.1571 76.7622 27.4023C76.717 27.761 76.2131 28.087 75.7434 27.7898C75.4229 27.2708 75.0792 26.775 74.8737 26.1478H74.8792Z" fill="#274563"/>
<path fill-rule="evenodd" clip-rule="evenodd" d="M60.0466 27.1626C60.0411 27.1051 60.115 27.1338 60.0466 27.1626V27.1626Z" fill="#274563"/>
<path fill-rule="evenodd" clip-rule="evenodd" d="M79.0465 33.0978C78.7548 33.9538 77.8386 34.4385 76.6705 34.2564C75.9899 34.0167 75.6064 33.4799 75.6516 32.5172C75.6913 32.3967 75.7612 32.2775 75.8461 32.1296C75.9556 31.9352 76.0118 31.8612 76.1843 31.6955C76.3788 31.5134 77.043 31.2395 77.3977 31.2107C78.4508 31.1313 79.1328 31.8777 79.0465 33.0924V33.0978Z" fill="#274563"/>
<path fill-rule="evenodd" clip-rule="evenodd" d="M56.5079 35.2246C56.6394 35.2712 56.9612 35.1287 56.9434 35.3218H56.5079V35.2246Z" fill="#274563"/>
<path fill-rule="evenodd" clip-rule="evenodd" d="M9.73137 35.8518C9.67522 36.3599 9.56019 36.8104 9.43967 37.2555C9.02747 37.0158 8.63306 36.7132 8.22633 36.4338C8.10582 36.3489 7.91136 36.3256 7.88808 36.1435C8.54679 36.0914 9.07403 35.9093 9.73137 35.8518Z" fill="#274563"/>
<path fill-rule="evenodd" clip-rule="evenodd" d="M53.1652 43.3331C53.2049 43.3455 53.2227 43.3728 53.2117 43.4304C53.1706 43.4194 53.1542 43.3907 53.1652 43.3331Z" fill="#274563"/>
<path fill-rule="evenodd" clip-rule="evenodd" d="M53.2117 43.4304C53.2391 43.4988 53.2679 43.4249 53.2117 43.4304V43.4304Z" fill="#274563"/>
<path fill-rule="evenodd" clip-rule="evenodd" d="M44.7786 53.6657C44.7553 53.6424 44.8128 53.6027 44.8237 53.6192C44.847 53.6424 44.7895 53.6822 44.7786 53.6657Z" fill="#274563"/>
<path fill-rule="evenodd" clip-rule="evenodd" d="M53.6006 53.7629C53.6115 53.9053 53.8005 53.7163 53.6006 53.7629V53.7629Z" fill="#274563"/>
<path fill-rule="evenodd" clip-rule="evenodd" d="M44.921 58.2493C44.9278 58.1931 45.0072 58.2096 45.0648 58.2041C45.0593 58.2616 44.9785 58.2438 44.921 58.2493Z" fill="#274563"/>
<path fill-rule="evenodd" clip-rule="evenodd" d="M64.8891 64.2365C64.5796 64.1804 64.7809 64.3844 64.8891 64.2365V64.2365Z" fill="#274563"/>
<path fill-rule="evenodd" clip-rule="evenodd" d="M64.9863 64.3338C64.9644 64.3105 65.0206 64.2708 65.0329 64.2886C65.0548 64.3105 64.9986 64.3502 64.9863 64.3338Z" fill="#274563"/>
<path fill-rule="evenodd" clip-rule="evenodd" d="M40.462 67.3781V70.9537H39.4431V68.6845C39.0884 68.827 38.8474 69.0885 38.3777 69.1173V68.3477C38.9282 68.1546 39.3801 67.8629 39.6376 67.3849H40.462V67.3781Z" fill="#274563"/>
<path fill-rule="evenodd" clip-rule="evenodd" d="M42.3053 68.2915C42.2313 68.8954 42.4258 69.1912 42.7915 69.157C43.279 69.1173 43.3475 68.3477 42.9873 68.0464C42.6655 67.9204 42.4258 68.0738 42.3053 68.2847V68.2915ZM41.4357 70.1266C41.7616 70.1266 42.0191 70.0636 42.3053 70.0294C42.4422 70.0239 42.4422 70.1499 42.4491 70.269C42.5052 70.343 42.6312 70.343 42.6887 70.4114C43.1133 70.3662 43.1982 69.9896 43.2215 69.5459C43.1585 69.409 43.1188 69.6993 42.9804 69.6418C42.8147 69.8417 42.2998 69.8075 42.0136 69.739C41.6986 69.5569 41.4754 69.2775 41.3316 68.9187V68.2915C41.4466 68.2107 41.3891 68.0861 41.4302 67.9998C41.4412 67.9779 41.5206 67.9711 41.5274 67.9546C41.7164 67.5438 42.2313 67.2987 42.9804 67.3726C43.1585 67.3904 43.3584 67.4411 43.5132 67.515C44.0568 67.7889 44.3554 68.6216 44.2403 69.6418C44.1486 70.4292 43.6624 71.0277 42.7408 71.0455C42.3341 71.051 41.9561 70.9031 41.6753 70.7086C41.6124 70.521 41.3494 70.3101 41.4357 70.1266Z" fill="#274563"/>
<path fill-rule="evenodd" clip-rule="evenodd" d="M49.9647 68.9694C50.0961 69.1118 50.3194 69.1638 50.4522 69.3063C50.6234 69.6363 50.6056 70.0362 50.4522 70.3662C50.2742 70.7483 49.8045 71.0277 49.1923 71.0455C48.4542 71.0619 47.8187 70.7141 47.6407 70.0814C47.6749 69.9047 48.0077 70.0294 48.1269 69.939C48.3569 69.9787 48.4418 69.865 48.6596 69.8938C48.7281 70.2074 48.854 70.4114 49.0951 70.4238C49.5812 70.4457 49.7757 69.6596 49.2895 69.409C49.1005 69.3967 48.9348 69.409 48.8034 69.4597C48.8089 69.209 48.7746 68.9119 48.854 68.7352C49.1471 68.7694 49.295 68.6613 49.3868 68.4956C49.5593 67.8177 48.5966 67.9094 48.6596 68.4956C48.3624 68.4052 47.9844 68.3997 47.6927 68.3025C47.8009 67.6465 48.5281 67.2699 49.4388 67.3849C49.6497 67.4123 49.9482 67.4931 50.0688 67.578C50.5083 67.8916 50.5604 68.7133 49.9702 68.9803L49.9647 68.9694Z" fill="#274563"/>
<path fill-rule="evenodd" clip-rule="evenodd" d="M47.2518 67.4246V68.2449H45.7522C45.5852 68.2737 45.6892 68.5709 45.6084 68.6791C45.7111 68.7133 45.8604 68.6051 46.0946 68.5818C46.1987 68.5709 46.3411 68.5709 46.4328 68.5818C46.6848 68.6106 46.9998 68.7475 47.16 68.9187C47.1943 68.9584 47.1778 69.0214 47.2052 69.0611C47.2285 69.0885 47.3723 69.2145 47.4011 69.3008C47.4284 69.3857 47.4462 69.5569 47.4517 69.6363C47.4983 70.4867 46.7766 71.0222 45.9974 71.0386C45.6824 71.0455 45.2195 70.9195 45.0305 70.8004C44.8183 70.6689 44.5375 70.4005 44.4978 70.0293C44.8073 70.002 45.0935 69.9444 45.4194 69.9335C45.5797 69.9335 45.5167 70.1553 45.6139 70.2238C45.7057 70.332 45.8084 70.406 45.9056 70.4183C46.5356 70.4799 46.6506 69.3172 46.0494 69.209C45.7454 69.1515 45.6481 69.3569 45.4194 69.4487C45.1168 69.4487 44.8991 69.3515 44.595 69.3515C44.7388 68.7352 44.784 68.0286 44.9333 67.4192H47.2573L47.2518 67.4246Z" fill="#274563"/>
<path fill-rule="evenodd" clip-rule="evenodd" d="M65.9079 69.8363C65.9202 69.7966 65.949 69.7788 66.0051 69.7842C65.9942 69.8253 65.9654 69.8418 65.9079 69.8363Z" fill="#274563"/>
<path fill-rule="evenodd" clip-rule="evenodd" d="M65.9079 69.8363C65.8394 69.865 65.9134 69.8938 65.9079 69.8363V69.8363Z" fill="#274563"/>
<path fill-rule="evenodd" clip-rule="evenodd" d="M23.0137 70.4183C23.2082 70.4977 23.3684 70.6114 23.5451 70.7086C23.2945 70.862 22.8823 70.851 22.5783 70.9483C22.7152 70.7661 22.8699 70.5949 23.0137 70.4183Z" fill="#274563"/>
<path fill-rule="evenodd" clip-rule="evenodd" d="M29.6077 75.0539C29.6145 74.9457 29.8145 75.0306 29.9007 75.0073C29.9459 75.3154 30.0254 75.5893 29.998 75.9714C29.8377 75.9604 29.8597 75.6523 29.8021 75.4866C29.746 75.3154 29.6707 75.1785 29.6077 75.0539Z" fill="#274563"/>
<path fill-rule="evenodd" clip-rule="evenodd" d="M29.6542 75.8742C29.2763 76.2056 28.5381 76.1823 27.9082 76.2617C28.0506 76.0508 28.3889 76.0851 28.6354 76.0221C28.9435 75.9372 29.253 75.8235 29.4598 75.6866C29.6255 75.6523 29.5392 75.8632 29.6542 75.8797V75.8742Z" fill="#274563"/>
<path fill-rule="evenodd" clip-rule="evenodd" d="M65.571 76.159C65.5477 76.1371 65.6052 76.0974 65.6217 76.1084C65.645 76.1316 65.5874 76.1714 65.571 76.159Z" fill="#274563"/>
<path fill-rule="evenodd" clip-rule="evenodd" d="M31.062 76.2563C31.073 76.2001 31.1141 76.2275 31.1086 76.2563C31.0963 76.3138 31.0566 76.285 31.062 76.2563Z" fill="#274563"/>
<path fill-rule="evenodd" clip-rule="evenodd" d="M31.1086 76.4507C31.1196 76.3768 31.1648 76.4507 31.1538 76.4959C31.1428 76.5699 31.0963 76.4959 31.1086 76.4507Z" fill="#274563"/>
<path fill-rule="evenodd" clip-rule="evenodd" d="M27.3303 76.7411C27.307 76.7178 27.3645 76.6781 27.3755 76.6959C27.3988 76.7178 27.3412 76.7589 27.3303 76.7411Z" fill="#274563"/>
<path fill-rule="evenodd" clip-rule="evenodd" d="M27.4275 76.8835C27.2837 76.8726 27.4727 76.6836 27.4275 76.8835V76.8835Z" fill="#274563"/>
<path fill-rule="evenodd" clip-rule="evenodd" d="M30.4787 76.8835C30.4554 76.8616 30.5129 76.8205 30.5239 76.8383C30.5471 76.8616 30.4896 76.9013 30.4787 76.8835Z" fill="#274563"/>
<path fill-rule="evenodd" clip-rule="evenodd" d="M51.5629 78.3831C51.5341 78.6063 51.4191 78.8281 51.3218 79.0103C51.2479 79.1527 51.1671 79.2554 51.0808 79.3978C51.0589 79.4389 51.0644 79.5005 51.0302 79.5403C51.0178 79.5581 50.9384 79.5745 50.9329 79.5923C50.9042 79.6608 50.8987 79.706 50.8357 79.7868C50.7549 79.8881 50.6919 79.9744 50.5947 80.0771C50.5892 80.0826 50.5495 80.1223 50.5495 80.1223C50.4865 80.214 50.4399 80.3797 50.2564 80.414C50.0455 80.3619 49.999 80.1004 50.0168 79.9292C50.0332 79.706 50.2633 79.5923 50.3084 79.4444C50.3892 79.2609 50.4742 79.0911 50.5495 78.913C50.4974 78.5145 50.1427 78.4173 50.114 77.9955C50.6809 77.8531 51.3616 78.0065 51.5684 78.3831H51.5629Z" fill="#274563"/>
<path fill-rule="evenodd" clip-rule="evenodd" d="M49.2375 78.1434C49.4156 78.3036 49.3005 78.7542 49.3348 79.0623C49.2211 79.176 48.9513 79.1308 48.8486 79.2554C48.9171 79.6032 49.2321 79.7114 49.4786 79.8826C49.5183 80.0825 49.5648 80.277 49.621 80.4646C49.5813 80.5495 49.4676 80.5838 49.4265 80.7043C49.3868 80.8234 49.4443 80.9385 49.3813 81.0412C49.3074 81.1548 49.2102 81.1315 49.1403 81.2343C48.9979 81.1713 48.7692 81.1836 48.5569 81.1891C48.2365 80.9782 47.9037 80.7782 47.6873 80.4646C47.538 80.0428 47.7613 79.7059 47.7845 79.3074C47.9379 79.2047 48.042 79.0445 48.2707 79.0157C48.5624 78.7432 48.8829 78.4981 49.0951 78.1502H49.2375V78.1434Z" fill="#274563"/>
</svg>
