<?xml version="1.0" standalone="no"?>
<!DOCTYPE svg PUBLIC "-//W3C//DTD SVG 20010904//EN" "http://www.w3.org/TR/2001/REC-SVG-20010904/DTD/svg10.dtd">
<svg version="1.0" xmlns="http://www.w3.org/2000/svg" width="480.000000pt" height="480.000000pt"
    viewBox="0 0 480.000000 480.000000" preserveAspectRatio="xMidYMid meet">
    <metadata>
        Created by potrace 1.16, written by Peter Selinger 2001-2019
    </metadata>
    <g transform="translate(0.000000,480.000000) scale(0.100000,-0.100000)" fill="currentColor" stroke="none">
        <path d="M1883 4139 c-23 -11 -58 -39 -78 -63 -55 -68 -119 -194 -138 -275
-19 -77 -87 -267 -112 -312 -22 -39 -114 -318 -181 -549 -14 -47 -30 -98 -36
-115 -6 -16 -19 -53 -29 -81 -10 -29 -30 -94 -43 -145 -14 -52 -36 -128 -51
-169 -14 -41 -31 -93 -36 -115 -6 -22 -18 -60 -26 -85 -8 -25 -19 -61 -23 -80
-4 -19 -15 -55 -23 -80 -9 -25 -24 -71 -33 -102 -10 -32 -22 -58 -26 -58 -4 0
-8 -10 -8 -23 0 -13 -11 -61 -24 -107 -13 -47 -27 -103 -30 -125 -4 -22 -13
-60 -20 -85 -7 -25 -23 -90 -36 -145 -34 -152 -70 -282 -99 -360 -21 -56 -26
-88 -26 -157 0 -78 2 -89 25 -114 34 -37 96 -64 148 -64 68 0 172 71 172 117
0 8 10 28 21 45 12 16 28 60 35 97 14 74 24 112 66 256 29 98 34 117 78 280
12 44 31 99 41 123 10 23 19 51 19 62 0 11 11 63 25 116 42 160 94 206 239
208 93 1 144 -17 224 -80 68 -55 132 -117 132 -129 0 -8 77 -130 107 -170 13
-16 33 -80 33 -102 0 -36 -43 -131 -79 -176 -75 -95 -145 -167 -186 -195 -28
-19 -53 -42 -57 -51 -3 -10 -19 -28 -35 -39 -74 -54 -250 -203 -300 -254 -24
-24 -43 -51 -43 -60 0 -40 138 -105 245 -115 44 -4 70 -1 95 11 41 18 73 38
81 49 4 5 15 14 26 20 71 42 123 86 229 192 66 66 132 136 147 156 53 70 103
72 148 7 20 -29 38 -51 102 -128 7 -8 27 -37 45 -65 31 -50 65 -81 153 -142
57 -39 183 -93 217 -93 14 0 51 -5 83 -12 47 -9 71 -9 137 4 122 24 200 82
292 217 19 28 51 70 71 93 35 39 99 154 99 177 0 5 8 16 18 23 23 17 62 94 62
122 0 12 16 60 36 106 36 86 76 191 119 310 13 36 35 87 49 114 14 27 26 57
26 66 0 9 4 20 8 26 17 19 34 123 30 180 -8 106 -51 174 -109 174 -34 0 -46
-8 -127 -88 -88 -88 -89 -90 -111 -173 -13 -46 -33 -111 -46 -144 -13 -33 -33
-91 -44 -129 -27 -88 -88 -223 -116 -257 -11 -14 -30 -48 -40 -75 -10 -27 -23
-54 -29 -61 -6 -7 -33 -44 -61 -84 -73 -104 -127 -157 -171 -165 -82 -15 -213
27 -279 90 -16 16 -52 45 -80 66 -27 20 -57 50 -65 66 -8 16 -20 36 -27 45
-19 23 -45 130 -38 157 7 30 79 146 124 202 20 24 49 64 64 89 37 57 134 175
212 256 145 151 173 199 180 310 4 68 -31 136 -82 156 -51 19 -86 -5 -297
-214 -112 -111 -215 -222 -229 -247 -47 -82 -133 -160 -177 -160 -31 0 -79 40
-106 89 -10 19 -26 42 -34 52 -8 9 -26 36 -40 59 -14 23 -70 86 -125 139 -109
104 -190 153 -314 187 -85 23 -124 63 -141 144 -12 57 -11 64 19 156 17 52 31
106 31 120 0 14 9 42 19 62 10 20 26 57 34 82 9 25 20 59 26 75 21 62 43 131
53 170 6 22 23 69 38 105 15 36 36 99 45 140 11 45 31 95 51 126 19 28 34 62
34 76 0 14 7 31 15 38 8 7 15 17 15 22 0 6 8 22 19 36 30 43 46 134 33 181 -7
21 -12 50 -12 65 0 31 -47 100 -78 115 -34 16 -91 12 -139 -10z" />
    </g>
</svg>