<?xml version="1.0" standalone="no"?>
<!DOCTYPE svg PUBLIC "-//W3C//DTD SVG 20010904//EN"
 "http://www.w3.org/TR/2001/REC-SVG-20010904/DTD/svg10.dtd">
<svg version="1.0" xmlns="http://www.w3.org/2000/svg"
 viewBox="0 0 708.000000 330.000000"
 preserveAspectRatio="xMidYMid meet">
<metadata>
Created by potrace 1.16, written by Peter Selinger 2001-2019
</metadata>
<g transform="translate(0.000000,330.000000) scale(0.100000,-0.100000)"
fill="currentColor" stroke="none">
<path d="M2595 3053 c-21 -25 -53 -76 -71 -113 -40 -84 -88 -140 -120 -140
-19 0 -30 13 -60 72 -43 86 -83 140 -96 132 -5 -3 -5 -11 2 -19 31 -38 84
-164 87 -210 l4 -50 -70 -59 c-39 -33 -100 -81 -136 -108 -95 -72 -85 -88 22
-33 48 25 94 45 103 45 8 0 24 6 35 13 11 8 53 27 93 42 40 16 75 32 78 37 3
4 23 8 45 8 38 0 39 -1 39 -34 0 -19 -7 -47 -15 -63 -33 -65 -65 -147 -65
-169 0 -13 -7 -41 -15 -61 -8 -21 -22 -69 -31 -108 -8 -38 -20 -88 -25 -110
-31 -134 -56 -388 -45 -450 6 -29 11 -35 31 -35 21 0 25 5 25 30 0 25 4 30 23
30 13 0 46 21 79 50 31 28 66 50 78 50 21 0 21 -3 15 -92 -3 -51 -5 -123 -5
-160 0 -62 -1 -68 -21 -68 -31 0 -180 29 -314 60 -66 16 -147 32 -180 35 -33
3 -71 8 -84 11 -24 5 -25 7 -5 101 7 37 -14 72 -83 138 -70 68 -70 124 2 220
25 33 45 65 45 72 0 18 -34 16 -78 -4 -33 -14 -34 -17 -14 -20 31 -6 30 -53
-3 -91 -53 -63 -49 -107 15 -183 19 -23 45 -53 57 -68 31 -36 29 -79 -6 -118
-29 -33 -29 -33 -122 -33 -52 1 -114 5 -139 10 -43 8 -70 0 -70 -21 0 -4 21
-18 48 -29 41 -19 65 -22 180 -21 150 1 365 -20 432 -43 25 -8 99 -24 164 -36
66 -11 123 -23 129 -27 17 -10 220 -54 278 -60 36 -3 59 -1 63 6 4 6 17 11 30
11 12 0 26 4 32 10 5 5 50 12 99 16 107 7 116 9 109 27 -9 25 -134 29 -217 7
-84 -23 -131 -24 -224 -8 l-68 11 -2 372 c-2 375 -8 440 -43 505 -11 21 -12
21 -44 -14 -21 -25 -40 -36 -59 -36 -25 0 -27 3 -27 38 0 77 66 253 131 350
16 24 29 46 29 50 1 8 72 54 113 73 28 13 34 24 17 34 -8 5 -181 -84 -235
-121 -11 -8 -34 -14 -52 -14 l-33 0 0 53 c0 57 -4 50 109 198 34 46 70 97 78
113 25 49 0 49 -42 -1z m9 -815 c3 -13 6 -38 6 -56 l0 -33 -47 3 c-44 3 -48 5
-51 31 -5 41 22 77 57 77 21 0 30 -6 35 -22z m-36 -194 c3 -49 1 -52 -42 -92
-28 -26 -55 -42 -71 -42 -24 0 -25 3 -25 59 0 96 30 132 105 128 29 -2 30 -4
33 -53z m-8 -163 c0 -36 -62 -119 -95 -127 -70 -18 -74 35 -7 105 33 35 55 50
75 50 23 1 27 -3 27 -28z"/>
<path d="M6124 2973 c-15 -26 -31 -70 -36 -98 -9 -57 -36 -84 -85 -85 -30 0
-32 2 -39 46 -7 48 -2 59 31 67 11 3 4 5 -17 6 -20 0 -40 -4 -44 -11 -4 -7 -7
-49 -5 -93 2 -76 1 -82 -21 -93 -22 -10 -22 -11 8 -11 31 -1 31 -2 38 -62 3
-34 11 -68 17 -75 5 -7 9 -32 7 -56 -2 -35 -7 -44 -24 -46 -26 -4 -92 -57 -82
-67 3 -4 34 9 68 29 33 20 70 36 80 36 30 0 43 -36 36 -94 -9 -67 -62 -126
-113 -126 -27 0 -33 4 -33 22 0 12 -3 18 -8 12 -4 -5 -5 -54 -2 -109 l5 -100
44 3 c52 3 81 -20 81 -65 0 -37 -10 -73 -20 -73 -11 0 -127 -77 -135 -90 -3
-5 4 -15 15 -22 40 -24 63 -75 57 -124 -4 -35 -1 -47 11 -51 20 -8 69 50 82
97 6 19 22 50 38 69 45 56 155 161 168 161 6 0 26 13 43 29 77 72 171 114 171
78 0 -24 -37 -159 -63 -232 -14 -38 -31 -86 -38 -105 -7 -19 -22 -55 -34 -80
-13 -25 -34 -76 -48 -115 -32 -90 -73 -171 -160 -320 -39 -66 -78 -135 -88
-153 -18 -35 -102 -121 -134 -139 -11 -7 -17 -15 -12 -19 14 -14 122 93 179
177 32 46 57 89 58 95 0 6 9 19 19 28 11 10 29 37 41 59 11 23 41 79 65 125
25 46 59 118 76 160 107 265 118 287 140 290 12 2 42 -6 66 -19 41 -21 46 -22
71 -7 37 22 130 112 181 175 23 29 78 111 121 183 77 128 78 131 63 160 -10
21 -22 30 -39 30 -38 0 -274 -106 -289 -130 -7 -11 42 5 60 20 17 14 162 60
191 60 25 0 26 -2 21 -41 -3 -22 -12 -48 -20 -57 -8 -9 -29 -45 -46 -78 -17
-34 -38 -67 -46 -74 -9 -7 -22 -27 -31 -45 -16 -35 -133 -155 -161 -167 -35
-13 -72 -8 -83 11 -15 30 -12 190 5 249 13 43 24 57 58 79 37 25 40 28 20 31
-28 4 -30 42 -7 140 46 199 64 306 53 323 -15 25 -36 0 -42 -53 -12 -95 -74
-371 -98 -435 -11 -31 -69 -85 -114 -108 -40 -21 -63 -36 -90 -60 -12 -11 -39
-31 -60 -45 -20 -14 -49 -38 -63 -53 -21 -22 -33 -27 -62 -25 l-35 3 0 105 c0
74 5 113 15 131 8 15 30 54 48 88 l32 61 -23 23 c-13 12 -31 27 -40 32 -14 8
-18 25 -18 80 -1 100 6 192 19 250 6 28 17 77 25 109 15 68 32 83 153 138 68
30 91 48 63 48 -6 0 -44 -14 -84 -31 -95 -39 -110 -37 -111 19 0 23 -3 44 -6
47 -3 3 -18 -16 -34 -42z m-64 -227 c0 -46 -18 -76 -45 -76 -23 0 -25 4 -25
43 0 51 4 57 42 57 23 0 28 -4 28 -24z m-62 -918 c3 -25 0 -28 -27 -28 -28 0
-31 3 -31 31 0 27 3 30 28 27 21 -2 28 -9 30 -30z"/>
<path d="M4939 2928 c-1 -13 -1 -41 0 -63 1 -22 -4 -58 -12 -80 -8 -22 -18
-59 -22 -83 -7 -42 -7 -42 24 -42 28 0 31 -3 31 -30 0 -26 -3 -30 -29 -30 -20
0 -31 6 -34 18 -2 9 -7 -5 -11 -33 -4 -27 -15 -79 -24 -115 -16 -61 -19 -65
-46 -65 -24 0 -31 6 -40 32 -6 17 -15 35 -19 39 -11 12 -28 -18 -17 -31 13
-15 34 -197 35 -303 2 -94 10 -117 37 -107 11 5 19 42 31 157 8 83 20 155 26
161 6 6 12 38 12 71 2 96 10 121 40 124 l25 3 14 -168 c7 -92 14 -226 16 -298
1 -71 7 -147 13 -170 16 -66 30 -174 36 -275 3 -52 12 -192 20 -310 10 -156
13 -324 10 -615 -7 -507 -7 -577 -2 -582 3 -2 8 31 11 74 4 43 11 128 17 188
15 157 25 671 17 811 -4 66 -12 202 -18 304 -7 102 -16 228 -22 280 -6 52 -12
130 -13 172 -5 108 -13 218 -26 323 -6 50 -12 198 -14 331 -3 250 -9 299 -45
322 -18 11 -20 10 -21 -10z"/>
<path d="M4020 2890 c-25 -16 -49 -30 -55 -30 -5 0 -28 -9 -50 -20 -22 -11
-43 -19 -48 -20 -4 0 -26 -9 -50 -20 -23 -11 -60 -24 -82 -29 -28 -6 -33 -9
-15 -10 14 0 52 6 85 14 33 8 77 14 98 15 36 0 37 -1 37 -39 0 -22 -8 -48 -19
-62 -20 -26 -71 -124 -71 -136 0 -4 17 22 38 58 20 36 53 85 73 110 19 24 41
57 48 74 7 16 30 45 52 63 32 27 37 37 28 48 -15 18 -16 18 -69 -16z"/>
<path d="M645 2833 c-87 -52 -181 -85 -255 -92 -67 -6 -70 -13 -12 -26 31 -6
185 30 234 56 10 5 30 9 44 9 24 0 26 -3 22 -35 -2 -19 -3 -35 -2 -35 2 0 20
25 40 56 33 50 36 57 24 80 -17 30 -22 30 -95 -13z"/>
<path d="M4386 2757 c-18 -13 -16 -16 23 -55 22 -22 41 -44 41 -49 0 -4 7 -48
15 -98 25 -154 13 -389 -30 -570 -43 -186 -50 -235 -32 -252 20 -21 37 -8 37
28 0 17 4 49 9 72 25 112 34 165 33 192 -2 37 25 150 44 188 10 18 22 27 38
27 28 0 36 -21 36 -101 0 -39 5 -61 15 -69 20 -16 28 -7 45 50 8 25 20 56 27
70 22 44 17 56 -22 52 -30 -4 -37 0 -54 29 -18 30 -25 33 -59 30 l-39 -2 -5
133 c-6 147 -19 208 -57 282 -29 56 -39 62 -65 43z"/>
<path d="M3837 2523 c-4 -3 -7 -11 -7 -17 0 -6 5 -5 12 2 6 6 9 14 7 17 -3 3
-9 2 -12 -2z"/>
<path d="M3798 2433 c-34 -77 -50 -129 -46 -149 2 -8 20 33 40 92 21 60 36
110 34 111 -2 2 -14 -23 -28 -54z"/>
<path d="M1944 2393 c3 -21 6 -56 7 -78 l1 -40 10 35 c18 68 20 90 8 105 -22
26 -33 17 -26 -22z"/>
<path d="M3875 2410 c-4 -6 -1 -18 7 -27 9 -12 14 -66 16 -205 l4 -188 -25 0
c-22 0 -25 -5 -29 -54 -2 -30 -15 -74 -30 -102 -21 -41 -31 -50 -56 -52 -27
-3 -32 1 -38 25 -12 47 -10 295 3 343 6 25 14 61 18 80 5 33 5 34 -9 14 -9
-12 -20 -43 -27 -70 -6 -27 -17 -72 -25 -100 -17 -61 -20 -339 -4 -349 7 -4 8
-33 4 -78 -6 -63 -4 -77 16 -109 39 -67 55 -46 55 70 0 73 3 86 21 100 12 10
24 34 27 55 7 47 22 67 52 67 19 0 26 -11 45 -67 12 -37 35 -79 49 -94 32 -32
83 -59 109 -59 27 0 121 86 129 118 3 15 15 35 25 46 10 11 18 25 18 31 0 7 7
27 16 45 9 18 19 63 21 99 4 57 2 71 -19 101 -31 45 -91 78 -147 79 l-43 1 4
45 c6 84 -25 44 -35 -44 -4 -29 -12 -59 -18 -67 -12 -15 -68 -20 -70 -6 0 4
-4 75 -9 157 -8 164 -29 237 -55 195z m325 -337 c33 -19 40 -38 40 -113 0 -57
-30 -146 -66 -196 -11 -15 -24 -35 -29 -44 -24 -41 -38 -50 -76 -50 -33 0 -39
3 -39 21 0 32 52 132 108 208 17 24 32 48 32 54 0 15 -31 -15 -41 -40 -6 -17
-16 -23 -39 -23 l-30 0 0 81 c0 105 8 119 66 119 25 0 59 -8 74 -17z m-174
-113 c1 -25 4 -55 8 -68 4 -13 5 -34 2 -48 -5 -19 -13 -24 -40 -24 l-33 0 0
88 c0 48 2 91 4 95 3 5 17 7 31 5 25 -3 27 -7 28 -48z m-18 -192 c-3 -42 -4
-43 -38 -43 -31 0 -35 3 -38 30 -4 33 18 55 55 55 22 0 24 -4 21 -42z"/>
<path d="M642 2308 c-5 -7 -19 -62 -31 -123 -12 -60 -32 -130 -44 -155 -21
-42 -30 -49 -147 -107 -69 -34 -133 -62 -142 -63 -10 0 -18 -4 -18 -9 0 -15
-59 -34 -93 -28 -38 6 -72 -14 -64 -38 15 -38 98 -14 290 87 17 9 47 17 65 18
28 0 32 -3 32 -27 0 -27 -24 -85 -76 -183 -13 -25 -39 -74 -57 -109 -17 -36
-49 -82 -70 -104 -33 -34 -43 -38 -80 -37 -60 4 -67 2 -60 -15 11 -29 103 -62
103 -37 0 4 13 15 29 25 16 9 41 37 55 62 15 24 37 56 49 69 33 36 131 239
168 346 31 93 33 96 97 130 31 17 80 50 107 75 49 43 50 44 35 71 -22 40 -40
42 -40 4 0 -39 -41 -80 -81 -80 -33 0 -34 2 -15 92 16 76 22 88 42 88 20 0 17
13 -9 38 -27 26 -31 26 -45 10z"/>
<path d="M4328 2253 c-10 -24 -11 -54 -3 -138 10 -103 22 -134 41 -103 27 43
19 227 -10 256 -14 14 -17 13 -28 -15z"/>
<path d="M740 1588 c0 -2 34 -28 76 -58 41 -30 110 -84 152 -118 42 -35 96
-73 120 -84 41 -20 44 -20 60 -4 16 16 15 19 -18 46 -19 16 -43 30 -53 30 -21
0 -55 21 -115 68 -64 50 -222 136 -222 120z"/>
<path d="M5828 893 c7 -3 16 -2 19 1 4 3 -2 6 -13 5 -11 0 -14 -3 -6 -6z"/>
</g>
</svg>
