<?xml version="1.0" standalone="no"?>
<!DOCTYPE svg PUBLIC "-//W3C//DTD SVG 20010904//EN"
 "http://www.w3.org/TR/2001/REC-SVG-20010904/DTD/svg10.dtd">
<svg version="1.0" xmlns="http://www.w3.org/2000/svg"
 viewBox="0 0 708.000000 330.000000"
 preserveAspectRatio="xMidYMid meet">
<metadata>
Created by potrace 1.16, written by Peter Selinger 2001-2019
</metadata>
<g transform="translate(0.000000,330.000000) scale(0.100000,-0.100000)"
fill="currentColor" stroke="none">
<path d="M2585 3063 c-21 -25 -53 -76 -71 -113 -34 -72 -88 -140 -110 -140 -8
0 -30 33 -50 73 -20 39 -50 89 -67 110 -27 35 -31 37 -46 23 -12 -13 -13 -20
-4 -34 33 -49 87 -172 90 -207 4 -39 2 -42 -66 -99 -39 -33 -100 -81 -135
-107 -66 -50 -84 -75 -66 -93 7 -7 39 5 103 37 51 26 99 47 107 47 9 0 24 6
35 13 11 8 53 27 93 42 40 16 75 32 78 37 3 4 18 8 35 8 24 0 29 -4 29 -24 0
-13 -7 -37 -15 -53 -34 -66 -65 -147 -65 -170 0 -13 -6 -38 -13 -56 -8 -18
-19 -57 -26 -87 -13 -61 -24 -103 -42 -170 -6 -25 -13 -58 -14 -75 -1 -16 -8
-95 -15 -175 -16 -175 -11 -216 28 -223 35 -7 42 -2 42 34 0 24 4 29 23 29 13
0 46 21 79 50 31 28 61 50 67 50 16 0 13 -139 -3 -168 -9 -18 -10 -36 -3 -73
5 -27 7 -52 4 -55 -7 -8 -160 20 -312 57 -66 16 -152 31 -192 35 -94 9 -101
14 -85 57 25 70 8 119 -65 180 -75 64 -78 118 -12 206 53 70 64 97 42 110 -19
10 -88 -8 -124 -33 -13 -9 -31 -16 -41 -16 -10 0 -18 -4 -18 -10 0 -5 21 -7
50 -3 46 5 50 4 50 -15 0 -11 -11 -34 -25 -50 -53 -63 -53 -127 2 -188 103
-114 109 -130 64 -181 -28 -32 -31 -33 -108 -33 -44 0 -106 5 -138 11 -53 10
-60 9 -78 -9 -25 -25 -18 -36 41 -63 41 -18 64 -21 182 -20 153 0 363 -20 430
-43 25 -8 99 -24 164 -36 66 -11 123 -23 129 -27 5 -3 57 -17 116 -30 130 -30
228 -40 244 -24 6 6 20 11 32 11 12 0 25 4 31 10 5 5 54 13 109 17 80 7 100
11 103 24 5 29 -24 48 -63 42 -19 -3 -41 -1 -48 5 -10 8 -39 5 -110 -13 -111
-29 -130 -30 -228 -13 l-71 12 7 31 c4 16 7 37 7 45 -9 641 -15 731 -52 799
-15 30 -31 26 -64 -14 -37 -44 -66 -47 -66 -7 0 68 70 249 131 340 16 24 29
46 29 50 1 8 72 54 113 73 29 13 35 40 13 58 -11 9 -24 6 -63 -17 -138 -82
-215 -122 -233 -122 -17 0 -20 7 -20 43 0 46 0 45 109 188 72 96 96 140 88
163 -11 27 -31 18 -72 -31z m9 -835 c3 -13 6 -33 6 -46 0 -21 -4 -23 -37 -20
-44 4 -54 25 -29 63 21 31 52 32 60 3z m-36 -184 c3 -37 -1 -44 -42 -82 -61
-57 -76 -55 -76 7 0 81 34 123 95 118 16 -2 21 -10 23 -43z m-8 -163 c0 -24
-65 -108 -90 -116 -23 -7 -40 1 -40 20 0 20 92 114 113 114 10 1 17 -6 17 -18z"/>
<path d="M6111 2976 l-31 -54 -73 -1 c-91 -1 -97 -7 -90 -109 l4 -77 -66 -40
c-36 -22 -80 -51 -99 -65 -18 -14 -69 -45 -114 -70 -45 -25 -82 -48 -82 -52 0
-15 48 -8 71 10 13 10 31 22 39 25 17 8 56 32 158 100 98 64 108 63 116 -14 3
-34 11 -68 17 -75 6 -7 9 -28 7 -46 -2 -25 -8 -34 -26 -36 -28 -4 -96 -67 -87
-82 11 -17 34 -11 96 25 33 19 64 35 69 35 19 0 31 -42 25 -83 -13 -79 -125
-161 -125 -92 0 14 6 28 14 31 14 5 31 34 21 34 -3 0 -24 -18 -47 -40 -31 -31
-38 -44 -30 -52 7 -7 12 -46 12 -100 0 -76 2 -89 19 -98 14 -7 27 -7 46 2 22
10 28 8 45 -10 11 -12 20 -29 20 -39 0 -28 -12 -63 -20 -63 -16 0 -131 -82
-137 -97 -4 -10 3 -23 18 -36 52 -42 75 -107 48 -134 -8 -8 -5 -17 10 -32 12
-12 25 -21 30 -21 17 0 71 74 81 110 6 19 22 50 38 69 53 66 156 161 174 161
10 0 18 4 18 9 0 20 153 122 165 109 7 -6 -27 -137 -58 -223 -14 -38 -31 -86
-38 -105 -7 -19 -22 -55 -34 -80 -13 -25 -34 -76 -48 -115 -32 -90 -73 -171
-160 -320 -39 -66 -78 -135 -88 -153 -15 -28 -66 -83 -141 -150 -14 -12 -34
-22 -45 -22 -27 0 -59 -25 -44 -34 24 -15 116 25 175 77 51 44 166 200 166
225 0 5 9 17 19 26 11 10 29 37 41 59 11 23 41 79 65 125 25 46 59 118 76 160
91 226 119 287 132 290 8 2 31 -6 51 -17 63 -36 83 -29 178 62 78 74 127 137
202 260 102 166 100 163 81 203 -14 29 -21 34 -51 34 -46 0 -282 -102 -299
-130 -3 -5 -13 -10 -22 -10 -19 0 -15 39 17 180 12 52 26 120 30 150 4 30 10
69 14 86 5 23 3 36 -9 48 -28 27 -51 5 -58 -56 -12 -96 -74 -371 -98 -435 -11
-31 -69 -85 -114 -108 -40 -21 -63 -36 -90 -60 -12 -11 -39 -31 -60 -45 -20
-14 -49 -38 -63 -53 -18 -19 -34 -27 -52 -25 -25 3 -25 4 -25 98 1 64 5 103
15 121 71 126 82 152 71 175 -5 13 -23 30 -39 38 -25 13 -30 22 -36 72 -5 43
-3 62 9 80 12 19 13 28 3 49 -12 26 -4 81 28 189 8 26 14 59 14 71 0 29 34 54
145 106 77 36 84 42 75 59 -10 19 -12 19 -75 -5 -35 -13 -73 -29 -85 -35 -36
-19 -52 -5 -48 42 5 65 -22 63 -61 -6z m-35 -108 c-7 -37 -40 -67 -72 -68 -17
0 -23 8 -29 36 -9 48 6 60 79 63 27 1 28 -1 22 -31z m-26 -122 c0 -29 -20 -66
-35 -66 -10 0 -15 10 -15 33 0 19 3 37 7 40 12 13 43 7 43 -7z m846 -468 c-3
-17 -12 -39 -20 -47 -8 -9 -26 -41 -42 -71 -15 -30 -36 -65 -46 -76 -11 -12
-27 -36 -36 -53 -28 -51 -141 -159 -175 -167 -45 -10 -57 13 -57 111 0 119 20
177 73 213 79 53 239 120 291 121 16 1 17 -4 12 -31z m-908 -451 c2 -12 -3
-17 -17 -17 -15 0 -21 6 -21 21 0 25 33 22 38 -4z"/>
<path d="M4928 2938 c0 -13 -2 -45 -3 -73 0 -27 -8 -77 -17 -110 -9 -33 -21
-94 -28 -135 -23 -141 -43 -205 -64 -205 -13 0 -23 11 -31 35 -13 40 -40 50
-60 23 -11 -15 -11 -20 0 -33 17 -19 39 -189 40 -309 0 -77 3 -96 17 -104 24
-16 71 7 64 31 -8 25 21 273 33 285 6 6 12 38 12 71 2 85 11 120 32 124 16 3
18 -4 18 -55 0 -32 4 -101 9 -153 6 -52 12 -161 14 -241 3 -81 9 -164 15 -185
16 -62 30 -171 36 -279 3 -55 12 -192 20 -305 9 -141 12 -328 9 -600 -8 -672
-8 -658 6 -644 28 28 57 458 62 914 2 223 -31 785 -52 890 -5 25 -10 90 -10
145 -2 111 -4 139 -20 270 -7 50 -13 200 -14 335 -2 160 -7 255 -15 274 -21
52 -70 75 -73 34z m22 -308 c0 -13 -7 -20 -20 -20 -13 0 -20 7 -20 20 0 13 7
20 20 20 13 0 20 -7 20 -20z"/>
<path d="M4010 2900 c-25 -16 -49 -30 -55 -30 -5 0 -28 -9 -50 -20 -22 -11
-43 -19 -48 -20 -4 0 -27 -9 -52 -21 -25 -12 -69 -24 -97 -28 l-53 -7 28 -14
c24 -12 40 -12 100 0 40 7 89 15 110 17 35 5 37 4 37 -24 0 -16 -10 -43 -23
-60 -12 -17 -33 -55 -46 -84 -13 -30 -37 -83 -54 -119 -36 -80 -67 -167 -67
-191 0 -10 -9 -36 -20 -57 -11 -22 -25 -64 -29 -93 -5 -30 -14 -67 -20 -82
-13 -35 -15 -343 -2 -352 5 -3 7 -38 4 -78 -5 -67 -3 -77 21 -116 26 -40 28
-42 49 -28 19 13 22 25 23 78 1 111 2 119 27 130 18 8 22 17 20 37 -4 33 17
76 38 80 12 2 22 -16 39 -65 13 -37 35 -80 51 -95 35 -35 104 -67 130 -61 31
9 118 93 126 121 3 15 15 35 25 46 10 11 18 25 18 32 0 6 7 25 15 40 8 16 15
37 15 46 0 9 4 19 8 22 15 9 -3 134 -24 163 -30 40 -91 71 -143 72 l-44 1 6
45 c4 27 2 47 -4 51 -20 12 -42 -25 -51 -87 -4 -34 -13 -68 -19 -76 -12 -14
-48 -18 -50 -5 0 4 -4 75 -8 157 -10 185 -37 253 -75 192 -8 -13 -7 -23 4 -39
12 -18 16 -64 18 -202 l4 -179 -25 7 c-24 6 -25 4 -29 -52 -8 -109 -85 -210
-104 -136 -12 48 -9 267 4 329 13 63 83 285 108 345 35 83 82 166 117 209 21
25 45 61 53 80 7 18 33 50 56 71 36 32 41 41 32 57 -17 27 -44 25 -94 -7z
m180 -837 c32 -19 40 -38 40 -103 0 -46 -34 -140 -66 -186 -11 -15 -24 -35
-29 -44 -23 -38 -39 -50 -66 -50 -16 0 -29 5 -29 11 0 21 61 135 101 189 42
56 52 81 40 93 -13 13 -49 -16 -62 -50 -5 -14 -17 -23 -29 -23 -18 0 -20 6
-20 71 0 39 5 79 10 90 14 24 71 26 110 2z m-175 -118 c0 -28 4 -56 8 -63 14
-21 -2 -52 -26 -52 -22 0 -23 4 -21 83 1 45 2 83 3 85 0 2 9 2 19 0 13 -3 17
-14 17 -53z m-17 -177 c-2 -28 -7 -33 -28 -33 -31 0 -40 33 -14 52 31 23 46
16 42 -19z"/>
<path d="M645 2848 c-136 -79 -280 -117 -334 -88 -28 14 -27 -1 2 -28 38 -36
94 -38 199 -7 51 15 101 31 110 36 35 18 49 11 46 -23 -4 -48 12 -49 44 -3 59
83 61 91 36 125 -12 17 -24 30 -27 29 -3 0 -37 -18 -76 -41z"/>
<path d="M4378 2769 c-27 -15 -22 -34 22 -78 22 -22 40 -43 40 -48 0 -4 7 -50
15 -102 9 -52 15 -115 14 -140 -4 -145 -23 -319 -43 -406 -28 -118 -46 -213
-46 -242 0 -11 8 -27 18 -36 15 -14 21 -15 36 -4 9 7 17 24 18 37 0 28 13 101
34 203 8 37 12 72 8 78 -7 12 23 134 42 172 30 58 54 26 54 -74 0 -95 51 -110
79 -24 9 28 19 55 23 61 4 6 11 30 17 52 9 44 -1 64 -22 43 -21 -21 -47 -11
-68 24 -19 32 -24 35 -59 29 l-37 -6 -5 133 c-6 148 -19 209 -57 284 -27 52
-50 64 -83 44z"/>
<path d="M1930 2431 c-7 -14 -7 -28 1 -48 6 -15 9 -48 7 -72 -2 -29 1 -46 9
-48 7 -3 15 1 17 9 2 7 11 37 20 66 17 58 11 83 -24 102 -15 8 -21 6 -30 -9z"/>
<path d="M632 2318 c-5 -7 -19 -62 -31 -123 -12 -60 -32 -130 -44 -155 -21
-42 -30 -49 -147 -107 -69 -34 -133 -62 -142 -63 -10 0 -18 -4 -18 -8 0 -11
-46 -32 -70 -32 -10 0 -23 6 -27 14 -7 12 -13 10 -34 -8 -51 -44 -42 -76 22
-76 54 0 105 20 262 102 43 23 77 23 77 1 0 -18 -30 -85 -76 -173 -13 -25 -39
-74 -57 -109 -17 -36 -49 -82 -70 -104 -36 -36 -41 -39 -80 -33 -23 3 -48 2
-56 -3 -20 -13 -4 -49 29 -66 31 -16 90 -20 90 -7 0 4 13 15 29 25 16 9 41 37
55 62 15 24 37 56 49 69 33 36 131 239 168 346 31 93 33 96 98 130 61 33 161
118 161 138 0 6 -22 34 -50 61 -27 28 -50 58 -50 69 0 22 -40 62 -62 62 -9 0
-20 -6 -26 -12z m97 -99 c17 -50 13 -78 -15 -104 -21 -20 -64 -35 -64 -22 0
13 30 138 35 146 12 21 33 11 44 -20z"/>
<path d="M4316 2259 c-9 -23 -14 -49 -12 -58 3 -9 8 -56 11 -106 6 -101 22
-132 52 -103 37 38 35 247 -3 289 -24 27 -30 24 -48 -22z"/>
<path d="M670 1622 c0 -4 10 -13 23 -21 42 -26 188 -136 265 -199 77 -64 142
-102 172 -102 21 0 40 20 40 41 0 19 -61 69 -85 69 -19 0 -50 19 -125 76 -52
39 -146 91 -233 128 -41 18 -57 20 -57 8z"/>
</g>
</svg>
