<?xml version="1.0" encoding="UTF-8" standalone="no"?>
<svg
   version="1.0"
   width="900pt"
   height="900pt"
   viewBox="0 0 900 900"
   preserveAspectRatio="xMidYMid"
   id="svg1"
   xml:space="preserve"
   xmlns="http://www.w3.org/2000/svg"
   xmlns:svg="http://www.w3.org/2000/svg">
   
   <defs
   id="defs1" />
   <metadata
   id="metadata1">
      Created by potrace 1.16, written by Peter Selinger 2001-2019
   </metadata>
   <path
   d="m 355.08893,71.269939 c -0.67158,0.13519 -2.7474,0.60833 -4.57902,1.01389 -10.01278,2.23054 -28.20675,13.99156 -36.08266,23.38686 -6.65484,7.908281 -15.38551,28.388691 -30.64889,71.850411 -36.14373,103.21314 -92.12987,288.82104 -157.64036,522.8249 -7.57065,27.10443 -14.89707,53.12739 -16.30131,57.79124 -3.17479,10.94992 -4.15164,16.83044 -4.15164,25.00908 0,12.91009 2.80846,20.81837 10.31805,29.1322 7.75381,8.58419 17.15606,12.7749 28.45097,12.8425 7.6317,0 13.676,-1.68981 21.24665,-5.81292 11.1728,-6.08329 18.13291,-13.51842 23.56668,-25.34704 4.09059,-8.71938 6.838,-18.24987 13.79811,-47.31447 10.9286,-45.75986 21.49087,-84.21976 31.50365,-114.77139 3.54111,-10.67955 4.88429,-16.35729 7.32644,-30.48404 4.39585,-25.34704 8.5475,-36.09418 17.64448,-45.62467 8.18118,-8.5166 18.13292,-12.30176 32.3584,-12.16657 9.21909,0.0676 15.56866,1.14906 26.92463,4.59626 17.095,5.20459 19.53714,6.96198 38.4027,27.98313 22.40667,25.00908 32.66367,39.06823 36.81531,50.69407 2.56425,7.23236 2.99163,16.96562 1.03792,24.8739 -3.60217,14.80267 -14.83603,32.37661 -33.09105,51.97832 -10.257,11.08511 -17.76659,17.57395 -55.3756,48.26076 -37.97532,31.02478 -45.91229,37.98676 -53.54399,46.77374 -9.70752,11.28788 -8.66961,17.30357 4.27375,24.26556 7.14327,3.85275 23.20036,9.93604 33.9458,12.8425 24.11615,6.48884 38.46375,3.37961 60.44304,-13.11287 8.85277,-6.62402 16.05709,-13.11286 34.12895,-30.41644 16.54552,-15.88415 25.6425,-25.54982 39.62378,-42.04229 12.02756,-14.26193 17.03395,-17.64154 23.26142,-15.74896 3.96848,1.21666 8.18118,6.21847 16.48446,19.46653 15.56867,24.94148 34.12896,45.48948 53.48294,59.54864 14.59181,10.54436 32.48051,18.72301 49.4534,22.77853 7.44854,1.7574 8.91383,1.82499 22.8951,1.89258 17.33922,0 22.83404,-0.87869 37.12058,-6.15088 23.68879,-8.58419 44.26385,-24.26556 58.30618,-44.27282 10.01278,-14.39712 26.49725,-43.52932 40.05114,-70.90412 18.92662,-38.18953 52.93347,-117.33989 61.90834,-144.03877 4.88429,-14.32952 5.49482,-17.57394 5.80009,-29.67293 0.61053,-24.67111 -2.93057,-42.65061 -10.01278,-51.36999 -1.22107,-1.48703 -3.72427,-3.51479 -5.61693,-4.52868 -2.86952,-1.55461 -4.2127,-1.89257 -8.05908,-1.82498 -8.60856,0.0676 -14.16443,3.3796 -31.62576,18.85819 -6.77694,6.0157 -12.51598,11.69344 -14.53075,14.39712 -4.82324,6.55644 -8.60856,15.68137 -15.08024,36.63492 -3.17478,10.20641 -7.32642,23.1165 -9.28014,28.72664 -15.3855,44.34042 -45.30176,106.45756 -63.0073,130.79072 -10.31805,14.26193 -17.52238,20.81837 -26.13094,24.06279 -4.27374,1.62221 -5.86114,1.82498 -12.21071,1.82498 -11.41702,0 -21.79613,-3.04164 -35.41108,-10.274 -14.40865,-7.6379 -26.19199,-16.62765 -37.18163,-28.45627 -7.69276,-8.24624 -11.60018,-13.45083 -15.69077,-21.08874 -7.93697,-14.5323 -8.24224,-28.45627 -1.03792,-40.42007 2.62531,-4.3259 34.00685,-46.09781 46.15652,-61.44122 11.23386,-14.19434 24.60459,-29.19979 36.75425,-41.50155 20.75822,-20.95355 25.64251,-26.96925 29.54994,-36.36455 8.60856,-20.81837 10.31806,-44.27283 4.27375,-57.45329 -6.28852,-13.85638 -22.40666,-19.46652 -35.16686,-12.36935 -6.22747,3.51479 -49.27025,45.82744 -75.21802,73.94576 -8.12013,8.85456 -13.676,15.54618 -18.86556,22.98131 -15.20234,21.56188 -21.24665,28.32109 -29.12256,32.64699 -3.419,1.89257 -4.57902,2.16294 -8.5475,2.16294 -3.78533,-0.0676 -5.1285,-0.33796 -7.87592,-1.96017 -6.53273,-3.78516 -11.84439,-10.61196 -21.4298,-27.78035 -9.70752,-17.43876 -11.41703,-19.87208 -22.22351,-32.03866 -20.08663,-22.57576 -32.54156,-32.84976 -47.68285,-39.47379 -2.99162,-1.35184 -11.78334,-4.2583 -19.53714,-6.48884 -15.44656,-4.46108 -19.90347,-6.21847 -25.70356,-10.274 -6.89906,-4.86663 -11.29492,-11.69343 -13.43179,-20.88596 -1.40424,-6.21847 -0.85475,-18.38505 1.22107,-26.83406 1.77055,-7.16476 8.5475,-28.05072 28.63413,-88.0725 7.87591,-23.58965 18.13291,-54.8172 22.71193,-69.28191 9.89068,-31.02478 14.40865,-43.12376 21.06349,-56.43941 8.91382,-17.77672 12.45493,-26.96924 15.01918,-39.20341 6.59379,-31.36274 -3.35794,-57.858841 -23.38352,-62.522701 -3.90743,-0.94629 -8.79172,-1.14906 -11.47808,-0.60833 z"
   id="path1-2"
   style="fill:#000000;stroke:none;stroke-width:0.0642397" />
</svg>
